<svg xmlns="http://www.w3.org/2000/svg" width="189.65" height="189.65" viewBox="0 0 189.65 189.65">
  <g id="Grupo_91137" data-name="Grupo 91137" transform="translate(-1123.35 -1623.378)">
    <g id="Grupo_90228" data-name="Grupo 90228" transform="translate(-48.688 1409.471)">
      <circle id="Elipse_4161" data-name="Elipse 4161" cx="94.825" cy="94.825" r="94.825" transform="translate(1172.038 213.907)" fill="#f1f1f2"/>
      <g id="Grupo_90227" data-name="Grupo 90227">
        <g id="Grupo_90110" data-name="Grupo 90110">
          <g id="Grupo_90109" data-name="Grupo 90109">
            <path id="Trazado_141066" data-name="Trazado 141066" d="M1347.095,236.966a10,10,0,0,0-9.9-8.688,9.506,9.506,0,0,0-1.548.12,10.7,10.7,0,0,0-19.332,8.568,7.433,7.433,0,0,0,2.2,14.532h26.4a7.43,7.43,0,0,0,2.184-14.532Zm-2.184,10.932h-26.4a3.834,3.834,0,0,1,0-7.668h.312a1.782,1.782,0,0,0,1.548-.876,1.8,1.8,0,0,0,.036-1.776,7.113,7.113,0,0,1,6.252-10.488,7.12,7.12,0,0,1,6.432,4.128,1.827,1.827,0,0,0,2.184.96,6.171,6.171,0,0,1,1.92-.3,6.394,6.394,0,0,1,6.384,6.372.686.686,0,0,0-.012.156,1.8,1.8,0,0,0,1.656,1.848,3.828,3.828,0,0,1-.312,7.644Z" fill="#12263f"/>
            <path id="Trazado_141067" data-name="Trazado 141067" d="M1345.223,240.254a1.8,1.8,0,0,1-1.656-1.848.686.686,0,0,1,.012-.156,6.394,6.394,0,0,0-6.384-6.372,6.171,6.171,0,0,0-1.92.3,1.827,1.827,0,0,1-2.184-.96,7.093,7.093,0,0,0-13.536,2.976,7.048,7.048,0,0,0,.852,3.384,1.8,1.8,0,0,1-.036,1.776,1.782,1.782,0,0,1-1.548.876h-.312a3.834,3.834,0,0,0,0,7.668h26.4a3.828,3.828,0,0,0,.312-7.644Zm-25.356,5.676a1.8,1.8,0,1,1,1.8-1.8A1.8,1.8,0,0,1,1319.867,245.93Zm5.412-11.8a1.8,1.8,0,1,1,1.8-1.8A1.8,1.8,0,0,1,1325.279,234.134Zm4.032,8.2a1.8,1.8,0,1,1,1.8-1.788A1.8,1.8,0,0,1,1329.311,242.33Zm7.692-4.5a1.8,1.8,0,1,1,1.8-1.8A1.8,1.8,0,0,1,1337,237.83Zm3.864,8.1a1.8,1.8,0,1,1,1.8-1.8A1.8,1.8,0,0,1,1340.867,245.93Z" fill="#b0c0d2"/>
          </g>
        </g>
        <g id="Grupo_90112" data-name="Grupo 90112">
          <g id="Grupo_90111" data-name="Grupo 90111">
            <path id="Trazado_141068" data-name="Trazado 141068" d="M1269.707,242.99c-.18-.192-.348-.372-.54-.552a15.288,15.288,0,0,0-13.344-4.26,20.6,20.6,0,0,0-26.6-8.94,23.089,23.089,0,0,0-39.456,16.308,22.763,22.763,0,0,0,1.188,7.284,11.675,11.675,0,0,0,.732,23.328h50.58a1.809,1.809,0,0,0,1.776-2.112,23.809,23.809,0,0,1,23.484-28.068c.192,0,.384.012.576.012l.228.012a1.8,1.8,0,0,0,1.38-3.012Zm-6.588-.252c-.384.06-.756.12-1.128.2-.54.108-1.08.24-1.608.384-.324.084-.648.168-.96.276-.348.1-.684.216-1.02.336-.216.072-.444.156-.66.24-.372.144-.732.288-1.08.444q-.4.162-.792.36a18.256,18.256,0,0,0-1.86.972,9.3,9.3,0,0,0-.876.516c-.684.408-1.344.864-1.992,1.344-.324.24-.636.492-.948.744-.252.192-.492.408-.732.612-.372.324-.744.672-1.1,1.02-.228.228-.456.456-.672.684a1.684,1.684,0,0,0-.2.216c-.2.216-.408.432-.6.66-.084.1-.168.18-.24.276-.192.216-.384.444-.564.684l-.18.216c-.192.24-.372.492-.564.744q-.306.414-.576.828c-.192.276-.384.564-.552.852a26.373,26.373,0,0,0-2.832,6.1c-.072.2-.132.408-.192.612s-.12.4-.168.6c-.072.252-.132.5-.192.756-.084.312-.156.636-.216.96-.06.3-.12.612-.168.912-.048.24-.084.492-.12.744-.108.792-.192,1.6-.228,2.4-.024.468-.036.948-.036,1.416,0,.444.012.9.036,1.356s.06.912.108,1.356h-48.516a8.076,8.076,0,0,1,0-16.152h1.92a1.8,1.8,0,0,0,1.632-2.568,19.241,19.241,0,0,1-1.872-8.292,19.495,19.495,0,0,1,34.116-12.912,1.794,1.794,0,0,0,2.2.384,17.006,17.006,0,0,1,23.52,7.968,1.808,1.808,0,0,0,2.1.984,11.749,11.749,0,0,1,8.052.72A1.542,1.542,0,0,0,1263.119,242.738Z" fill="#12263f"/>
          </g>
        </g>
        <g id="Grupo_90114" data-name="Grupo 90114">
          <g id="Grupo_90113" data-name="Grupo 90113">
            <path id="Trazado_141069" data-name="Trazado 141069" d="M1340.495,278.966a18.268,18.268,0,0,0-18.24-17.88,17.35,17.35,0,0,0-3.216.3,24.445,24.445,0,0,0-31.92-10.74,27.133,27.133,0,0,0-17.952-8.208l-.72-.036h-.216c-.228-.012-.468-.024-.708-.024a28.151,28.151,0,0,0-4.176.312,1.542,1.542,0,0,0-.228.048c-.384.06-.756.12-1.128.2-.54.108-1.08.24-1.608.384-.324.084-.648.168-.96.276-.348.1-.684.216-1.02.336-.216.072-.444.156-.66.24-.372.144-.732.288-1.08.444q-.4.162-.792.36a18.256,18.256,0,0,0-1.86.972,9.3,9.3,0,0,0-.876.516c-.684.408-1.344.864-1.992,1.344-.324.24-.636.492-.948.744-.252.192-.492.408-.732.612-.372.324-.744.672-1.1,1.02-.228.228-.456.456-.672.684a1.684,1.684,0,0,0-.2.216c-.2.216-.408.432-.6.66-.084.1-.168.18-.24.276-.192.216-.384.444-.564.684l-.18.216c-.192.24-.372.492-.564.744q-.306.414-.576.828c-.192.276-.384.564-.552.852a26.373,26.373,0,0,0-2.832,6.1c-.072.2-.132.408-.192.612s-.12.4-.168.6c-.072.252-.132.5-.192.756-.084.312-.156.636-.216.96-.06.3-.12.612-.168.912-.048.24-.084.492-.12.744-.108.792-.192,1.6-.228,2.4-.024.468-.036.948-.036,1.416,0,.444.012.9.036,1.356s.06.912.108,1.356c.072.708.168,1.416.3,2.124.084.492.192.984.312,1.476a23.44,23.44,0,0,0,.828,2.808,13.694,13.694,0,0,0,.372,27.384h97.98a13.7,13.7,0,0,0,.5-27.384Zm-.5,23.784h-97.98a10.1,10.1,0,1,1,0-20.2h2.3a1.8,1.8,0,0,0,1.632-2.568,23.814,23.814,0,0,1,21.576-34.008c.192,0,.384.012.576.012l.228.012a23.6,23.6,0,0,1,17.052,8.052,1.794,1.794,0,0,0,2.2.384,20.855,20.855,0,0,1,28.836,9.756,1.789,1.789,0,0,0,2.1,1,14.594,14.594,0,0,1,18.4,14.148c0,.42-.036.84-.072,1.26a1.868,1.868,0,0,0,.468,1.38,1.8,1.8,0,0,0,1.332.576h1.356a10.1,10.1,0,0,1,0,20.2Z" fill="#12263f"/>
            <path id="Trazado_141070" data-name="Trazado 141070" d="M1339.991,282.554h-1.356a1.8,1.8,0,0,1-1.332-.576,1.868,1.868,0,0,1-.468-1.38c.036-.42.072-.84.072-1.26a14.594,14.594,0,0,0-18.4-14.148,1.789,1.789,0,0,1-2.1-1,20.855,20.855,0,0,0-28.836-9.756,1.794,1.794,0,0,1-2.2-.384A23.6,23.6,0,0,0,1268.327,246l-.228-.012c-.192,0-.384-.012-.576-.012a23.817,23.817,0,0,0-21.576,34.008,1.8,1.8,0,0,1-1.632,2.568h-2.3a10.1,10.1,0,1,0,0,20.2h97.98a10.1,10.1,0,0,0,0-20.2Zm-76.236-10.212a8.34,8.34,0,1,1,8.34-8.34A8.353,8.353,0,0,1,1263.755,272.342Zm32.052-2.052a1.8,1.8,0,1,1-.636,2.46A1.8,1.8,0,0,1,1295.807,270.29Zm2.544,13.752a1.814,1.814,0,0,1-1.56.912,1.872,1.872,0,0,1-.9-.24,1.809,1.809,0,0,1,.9-3.372,1.827,1.827,0,0,1,.888.24,1.794,1.794,0,0,1,.912,1.572A1.827,1.827,0,0,1,1298.351,284.042Zm10.02-6.66v.1a1.8,1.8,0,0,1-3.6,0v-.084a1.808,1.808,0,0,1,1.776-1.8h.024a1.8,1.8,0,0,1,1.8,1.776Zm10.176-5.832v-.012a1.81,1.81,0,0,1,2.712,1.56,1.786,1.786,0,0,1-.888,1.548,1.8,1.8,0,0,1-1.824-3.1Zm2.544,13.752a1.8,1.8,0,0,1-1.56.9,1.858,1.858,0,0,1-.9-.228,1.809,1.809,0,0,1,.9-3.372,1.827,1.827,0,0,1,.888.24,1.808,1.808,0,0,1,.912,1.572A1.827,1.827,0,0,1,1321.091,285.3Zm10.02-6.564a1.8,1.8,0,1,1-3.6,0v-.084a1.808,1.808,0,0,1,1.776-1.8h.024a1.8,1.8,0,0,1,1.8,1.776Z" fill="#b0c0d2"/>
          </g>
        </g>
        <g id="Grupo_90116" data-name="Grupo 90116">
          <g id="Grupo_90115" data-name="Grupo 90115">
            <path id="Trazado_141071" data-name="Trazado 141071" d="M1208.182,234.424a1.8,1.8,0,0,1,1.8-1.8h0a1.8,1.8,0,0,1,1.8,1.8h0a1.8,1.8,0,0,1-1.8,1.8h0A1.8,1.8,0,0,1,1208.182,234.424Z" fill="#12263f"/>
          </g>
        </g>
        <g id="Grupo_90118" data-name="Grupo 90118">
          <g id="Grupo_90117" data-name="Grupo 90117">
            <path id="Trazado_141072" data-name="Trazado 141072" d="M1214.53,246.424a1.8,1.8,0,0,1,1.8-1.8h0a1.8,1.8,0,0,1,1.8,1.8h0a1.8,1.8,0,0,1-1.8,1.8h0A1.8,1.8,0,0,1,1214.53,246.424Z" fill="#12263f"/>
          </g>
        </g>
        <g id="Grupo_90120" data-name="Grupo 90120">
          <g id="Grupo_90119" data-name="Grupo 90119">
            <path id="Trazado_141073" data-name="Trazado 141073" d="M1199.182,249.292a1.805,1.805,0,0,1,1.8-1.8h0a1.8,1.8,0,0,1,1.8,1.8h0a1.8,1.8,0,0,1-1.8,1.8h0A1.805,1.805,0,0,1,1199.182,249.292Z" fill="#12263f"/>
          </g>
        </g>
        <g id="Grupo_90122" data-name="Grupo 90122">
          <g id="Grupo_90121" data-name="Grupo 90121">
            <path id="Trazado_141074" data-name="Trazado 141074" d="M1227.766,240.628a1.8,1.8,0,0,1,1.788-1.8h0a1.8,1.8,0,0,1,1.8,1.8h0a1.8,1.8,0,0,1-1.8,1.8h0A1.8,1.8,0,0,1,1227.766,240.628Z" fill="#12263f"/>
          </g>
        </g>
        <g id="Grupo_90124" data-name="Grupo 90124">
          <g id="Grupo_90123" data-name="Grupo 90123">
            <path id="Trazado_141075" data-name="Trazado 141075" d="M1241.987,242.632a1.8,1.8,0,0,1,1.8-1.8h0a1.8,1.8,0,0,1,1.8,1.8h0a1.806,1.806,0,0,1-1.8,1.8h0A1.8,1.8,0,0,1,1241.987,242.632Z" fill="#12263f"/>
          </g>
        </g>
        <g id="Grupo_90126" data-name="Grupo 90126">
          <g id="Grupo_90125" data-name="Grupo 90125">
            <circle id="Elipse_4162" data-name="Elipse 4162" cx="1.8" cy="1.8" r="1.8" transform="translate(1323.479 230.534)" fill="#12263f"/>
          </g>
        </g>
        <g id="Grupo_90128" data-name="Grupo 90128">
          <g id="Grupo_90127" data-name="Grupo 90127">
            <circle id="Elipse_4163" data-name="Elipse 4163" cx="1.8" cy="1.8" r="1.8" transform="translate(1335.203 234.23)" fill="#12263f"/>
          </g>
        </g>
        <g id="Grupo_90130" data-name="Grupo 90130">
          <g id="Grupo_90129" data-name="Grupo 90129">
            <path id="Trazado_141076" data-name="Trazado 141076" d="M1331.111,240.542a1.8,1.8,0,1,1-1.8-1.812A1.8,1.8,0,0,1,1331.111,240.542Z" fill="#12263f"/>
          </g>
        </g>
        <g id="Grupo_90132" data-name="Grupo 90132">
          <g id="Grupo_90131" data-name="Grupo 90131">
            <circle id="Elipse_4164" data-name="Elipse 4164" cx="1.8" cy="1.8" r="1.8" transform="translate(1339.067 242.33)" fill="#12263f"/>
          </g>
        </g>
        <g id="Grupo_90134" data-name="Grupo 90134">
          <g id="Grupo_90133" data-name="Grupo 90133">
            <circle id="Elipse_4165" data-name="Elipse 4165" cx="1.8" cy="1.8" r="1.8" transform="translate(1318.067 242.33)" fill="#12263f"/>
          </g>
        </g>
        <g id="Grupo_90136" data-name="Grupo 90136">
          <g id="Grupo_90135" data-name="Grupo 90135">
            <path id="Trazado_141077" data-name="Trazado 141077" d="M1232.506,256.228a1.8,1.8,0,0,1,1.8-1.8h0a1.8,1.8,0,0,1,1.8,1.8h0a1.8,1.8,0,0,1-1.8,1.8h0A1.8,1.8,0,0,1,1232.506,256.228Z" fill="#12263f"/>
          </g>
        </g>
        <g id="Grupo_90138" data-name="Grupo 90138">
          <g id="Grupo_90137" data-name="Grupo 90137">
            <path id="Trazado_141078" data-name="Trazado 141078" d="M1217.218,257.824a1.8,1.8,0,0,1,1.8-1.8h0a1.8,1.8,0,0,1,1.8,1.8h0a1.8,1.8,0,0,1-1.8,1.8h0A1.8,1.8,0,0,1,1217.218,257.824Z" fill="#12263f"/>
          </g>
        </g>
        <g id="Grupo_90140" data-name="Grupo 90140">
          <g id="Grupo_90139" data-name="Grupo 90139">
            <path id="Trazado_141079" data-name="Trazado 141079" d="M1199.182,262.024a1.8,1.8,0,0,1,1.8-1.8h0a1.8,1.8,0,0,1,1.8,1.8h0a1.8,1.8,0,0,1-1.8,1.8h0A1.8,1.8,0,0,1,1199.182,262.024Z" fill="#12263f"/>
          </g>
        </g>
        <g id="Grupo_90142" data-name="Grupo 90142">
          <g id="Grupo_90141" data-name="Grupo 90141">
            <path id="Trazado_141080" data-name="Trazado 141080" d="M1186.787,266.824a1.8,1.8,0,0,1,1.8-1.8h0a1.8,1.8,0,0,1,1.8,1.8h0a1.8,1.8,0,0,1-1.8,1.8h0A1.8,1.8,0,0,1,1186.787,266.824Z" fill="#12263f"/>
          </g>
        </g>
        <g id="Grupo_90144" data-name="Grupo 90144">
          <g id="Grupo_90143" data-name="Grupo 90143">
            <path id="Trazado_141081" data-name="Trazado 141081" d="M1230,267.832a1.8,1.8,0,0,1,1.8-1.8h0a1.8,1.8,0,0,1,1.8,1.8h0a1.805,1.805,0,0,1-1.8,1.8h0A1.805,1.805,0,0,1,1230,267.832Z" fill="#12263f"/>
          </g>
        </g>
        <g id="Grupo_90146" data-name="Grupo 90146">
          <g id="Grupo_90145" data-name="Grupo 90145">
            <path id="Trazado_141082" data-name="Trazado 141082" d="M1209.191,268.9a1.8,1.8,0,0,1,1.8-1.8h0a1.8,1.8,0,0,1,1.8,1.8h0a1.8,1.8,0,0,1-1.8,1.8h0A1.8,1.8,0,0,1,1209.191,268.9Z" fill="#12263f"/>
          </g>
        </g>
        <g id="Grupo_90148" data-name="Grupo 90148">
          <g id="Grupo_90147" data-name="Grupo 90147">
            <path id="Trazado_141083" data-name="Trazado 141083" d="M1188.587,395.025a1.8,1.8,0,0,1-1.8-1.8,21.082,21.082,0,0,1,3.6-12.182,18.828,18.828,0,0,0,0-20.682,22.417,22.417,0,0,1,0-24.361,18.823,18.823,0,0,0,0-20.679,22.4,22.4,0,0,1,0-24.354,17.537,17.537,0,0,0,3.094-10.336,1.8,1.8,0,1,1,3.6,0,21.055,21.055,0,0,1-3.6,12.176,18.82,18.82,0,0,0,0,20.674,22.408,22.408,0,0,1,0,24.359,18.832,18.832,0,0,0,0,20.681,22.413,22.413,0,0,1,0,24.362,17.555,17.555,0,0,0-3.093,10.342A1.8,1.8,0,0,1,1188.587,395.025Z" fill="#12263f"/>
          </g>
        </g>
        <g id="Grupo_90150" data-name="Grupo 90150">
          <g id="Grupo_90149" data-name="Grupo 90149">
            <path id="Trazado_141084" data-name="Trazado 141084" d="M1202.943,395.025a1.8,1.8,0,0,1-1.8-1.8,21.076,21.076,0,0,1,3.6-12.182,18.833,18.833,0,0,0,0-20.682,22.411,22.411,0,0,1,0-24.361,18.828,18.828,0,0,0,0-20.679,22.4,22.4,0,0,1,0-24.354,17.536,17.536,0,0,0,3.093-10.336,1.8,1.8,0,0,1,3.6,0,21.056,21.056,0,0,1-3.6,12.176,18.82,18.82,0,0,0,0,20.674,22.408,22.408,0,0,1,0,24.359,18.832,18.832,0,0,0,0,20.681,22.416,22.416,0,0,1,0,24.362,17.554,17.554,0,0,0-3.094,10.342A1.8,1.8,0,0,1,1202.943,395.025Z" fill="#12263f"/>
          </g>
        </g>
        <g id="Grupo_90152" data-name="Grupo 90152">
          <g id="Grupo_90151" data-name="Grupo 90151">
            <path id="Trazado_141085" data-name="Trazado 141085" d="M1217.3,395.025a1.8,1.8,0,0,1-1.8-1.8,21.075,21.075,0,0,1,3.6-12.182,18.828,18.828,0,0,0,0-20.682,22.411,22.411,0,0,1,0-24.361,18.823,18.823,0,0,0,0-20.679,22.4,22.4,0,0,1,0-24.354,17.537,17.537,0,0,0,3.094-10.336,1.8,1.8,0,1,1,3.6,0,21.055,21.055,0,0,1-3.6,12.176,18.815,18.815,0,0,0,0,20.674,22.408,22.408,0,0,1,0,24.359,18.827,18.827,0,0,0,0,20.681,22.413,22.413,0,0,1,0,24.362,17.555,17.555,0,0,0-3.094,10.342A1.8,1.8,0,0,1,1217.3,395.025Z" fill="#12263f"/>
          </g>
        </g>
        <g id="Grupo_90154" data-name="Grupo 90154">
          <g id="Grupo_90153" data-name="Grupo 90153">
            <path id="Trazado_141086" data-name="Trazado 141086" d="M1199.728,284.655a1.793,1.793,0,0,1-1.273-.527l-3.176-3.176-3.176,3.176a1.8,1.8,0,1,1-2.545-2.545l4.448-4.449a1.8,1.8,0,0,1,2.546,0l4.448,4.449a1.8,1.8,0,0,1-1.272,3.072Z" fill="#12263f"/>
          </g>
        </g>
        <g id="Grupo_90156" data-name="Grupo 90156">
          <g id="Grupo_90155" data-name="Grupo 90155">
            <path id="Trazado_141087" data-name="Trazado 141087" d="M1214.084,284.655a1.793,1.793,0,0,1-1.273-.527l-3.176-3.176-3.176,3.176a1.8,1.8,0,1,1-2.545-2.545l4.449-4.449a1.8,1.8,0,0,1,2.545,0l4.448,4.449a1.8,1.8,0,0,1-1.272,3.072Z" fill="#12263f"/>
          </g>
        </g>
        <g id="Grupo_90158" data-name="Grupo 90158">
          <g id="Grupo_90157" data-name="Grupo 90157">
            <path id="Trazado_141088" data-name="Trazado 141088" d="M1228.44,284.353a1.8,1.8,0,0,1-1.272-.527l-3.176-3.176-3.176,3.176a1.8,1.8,0,1,1-2.546-2.546l4.449-4.448a1.8,1.8,0,0,1,2.545,0l4.449,4.448a1.8,1.8,0,0,1-1.273,3.073Z" fill="#12263f"/>
          </g>
        </g>
        <g id="Grupo_90160" data-name="Grupo 90160">
          <g id="Grupo_90159" data-name="Grupo 90159">
            <path id="Trazado_141089" data-name="Trazado 141089" d="M1282.361,333.855a1.8,1.8,0,0,1-1.8-1.8,18.372,18.372,0,0,1,3.137-10.623,14.73,14.73,0,0,0,2.632-8.783,1.8,1.8,0,0,1,3.6,0,18.372,18.372,0,0,1-3.137,10.623,14.733,14.733,0,0,0-2.632,8.783A1.8,1.8,0,0,1,1282.361,333.855Z" fill="#12263f"/>
          </g>
        </g>
        <g id="Grupo_90162" data-name="Grupo 90162">
          <g id="Grupo_90161" data-name="Grupo 90161">
            <path id="Trazado_141090" data-name="Trazado 141090" d="M1294.738,333.855a1.8,1.8,0,0,1-1.8-1.8,18.372,18.372,0,0,1,3.137-10.623,14.73,14.73,0,0,0,2.632-8.783,1.8,1.8,0,1,1,3.6,0,18.372,18.372,0,0,1-3.137,10.623,14.732,14.732,0,0,0-2.632,8.783A1.8,1.8,0,0,1,1294.738,333.855Z" fill="#12263f"/>
          </g>
        </g>
        <g id="Grupo_90164" data-name="Grupo 90164">
          <g id="Grupo_90163" data-name="Grupo 90163">
            <path id="Trazado_141091" data-name="Trazado 141091" d="M1307.115,333.855a1.8,1.8,0,0,1-1.8-1.8,18.372,18.372,0,0,1,3.137-10.623,14.737,14.737,0,0,0,2.632-8.783,1.8,1.8,0,1,1,3.6,0,18.372,18.372,0,0,1-3.137,10.623,14.733,14.733,0,0,0-2.632,8.783A1.8,1.8,0,0,1,1307.115,333.855Z" fill="#12263f"/>
          </g>
        </g>
        <g id="Grupo_90166" data-name="Grupo 90166">
          <g id="Grupo_90165" data-name="Grupo 90165">
            <path id="Trazado_141092" data-name="Trazado 141092" d="M1291.965,316.366a1.8,1.8,0,0,1-1.272-.527l-2.563-2.562-2.562,2.562a1.8,1.8,0,1,1-2.545-2.545l3.835-3.835a1.8,1.8,0,0,1,2.545,0l3.835,3.835a1.8,1.8,0,0,1-1.273,3.072Z" fill="#12263f"/>
          </g>
        </g>
        <g id="Grupo_90168" data-name="Grupo 90168">
          <g id="Grupo_90167" data-name="Grupo 90167">
            <path id="Trazado_141093" data-name="Trazado 141093" d="M1296.672,316.366a1.8,1.8,0,0,1-1.273-3.072l3.835-3.835a1.8,1.8,0,0,1,2.546,0l3.835,3.835a1.8,1.8,0,1,1-2.545,2.545l-2.563-2.562-2.562,2.562A1.8,1.8,0,0,1,1296.672,316.366Z" fill="#12263f"/>
          </g>
        </g>
        <g id="Grupo_90170" data-name="Grupo 90170">
          <g id="Grupo_90169" data-name="Grupo 90169">
            <path id="Trazado_141094" data-name="Trazado 141094" d="M1309.049,316.106a1.8,1.8,0,0,1-1.273-3.073l3.835-3.835a1.854,1.854,0,0,1,2.546,0l3.835,3.835a1.8,1.8,0,1,1-2.545,2.546l-2.563-2.563-2.562,2.563A1.8,1.8,0,0,1,1309.049,316.106Z" fill="#12263f"/>
          </g>
        </g>
        <g id="Grupo_90172" data-name="Grupo 90172">
          <g id="Grupo_90171" data-name="Grupo 90171">
            <path id="Trazado_141095" data-name="Trazado 141095" d="M1280.987,364.754h-46.956a1.8,1.8,0,0,0-1.8,1.8V393.23a1.805,1.805,0,0,0,1.8,1.8h46.956a1.805,1.805,0,0,0,1.8-1.8V366.554A1.8,1.8,0,0,0,1280.987,364.754Zm-45.156,3.6h43.356V391.43h-43.356Z" fill="#12263f"/>
          </g>
        </g>
        <g id="Grupo_90174" data-name="Grupo 90174">
          <g id="Grupo_90173" data-name="Grupo 90173">
            <path id="Trazado_141096" data-name="Trazado 141096" d="M1309.391,334.994h-28.4a1.8,1.8,0,0,0-1.8,1.8V393.23a1.805,1.805,0,0,0,1.8,1.8h28.4a1.813,1.813,0,0,0,1.8-1.8V336.794A1.805,1.805,0,0,0,1309.391,334.994Zm-26.6,3.6h24.8V391.43h-24.8Z" fill="#12263f"/>
            <path id="Trazado_141097" data-name="Trazado 141097" d="M1282.787,338.594V391.43h24.8V338.594Zm18.876,46.032a1.8,1.8,0,0,1-1.8,1.8h-9.336a1.8,1.8,0,0,1-1.8-1.8V375.29a1.8,1.8,0,0,1,1.8-1.8h9.336a1.8,1.8,0,0,1,1.8,1.8Zm0-14.8a1.8,1.8,0,0,1-1.8,1.8h-9.336a1.8,1.8,0,0,1-1.8-1.8v-9.336a1.8,1.8,0,0,1,1.8-1.8h9.336a1.8,1.8,0,0,1,1.8,1.8Zm0-14.8a1.8,1.8,0,0,1-1.8,1.8h-9.336a1.8,1.8,0,0,1-1.8-1.8V345.7a1.8,1.8,0,0,1,1.8-1.8h9.336a1.8,1.8,0,0,1,1.8,1.8Z" fill="#636363"/>
          </g>
        </g>
        <g id="Grupo_90176" data-name="Grupo 90176">
          <g id="Grupo_90175" data-name="Grupo 90175">
            <path id="Trazado_141098" data-name="Trazado 141098" d="M1266.244,368.353h-17.467a1.8,1.8,0,0,1-1.8-1.91l2.789-45.31a1.8,1.8,0,0,1,1.8-1.689h11.889a1.8,1.8,0,0,1,1.8,1.689l2.788,45.31a1.8,1.8,0,0,1-1.8,1.91Zm-15.553-3.6h13.638l-2.566-41.709h-8.5Z" fill="#12263f"/>
          </g>
        </g>
        <g id="Grupo_90178" data-name="Grupo 90178">
          <g id="Grupo_90177" data-name="Grupo 90177">
            <path id="Trazado_141099" data-name="Trazado 141099" d="M1351.919,350.054h-42.528a1.8,1.8,0,0,0-1.8,1.8V393.23a1.805,1.805,0,0,0,1.8,1.8h42.528a1.805,1.805,0,0,0,1.8-1.8V351.854A1.8,1.8,0,0,0,1351.919,350.054Zm-1.8,41.376h-38.928V353.654h38.928Z" fill="#12263f"/>
          </g>
        </g>
        <g id="Grupo_90180" data-name="Grupo 90180">
          <g id="Grupo_90179" data-name="Grupo 90179">
            <path id="Trazado_141100" data-name="Trazado 141100" d="M1263.587,334.807h-12.745a1.8,1.8,0,1,1,0-3.6h12.745a1.8,1.8,0,0,1,0,3.6Z" fill="#12263f"/>
          </g>
        </g>
        <g id="Grupo_90182" data-name="Grupo 90182">
          <g id="Grupo_90181" data-name="Grupo 90181">
            <path id="Trazado_141101" data-name="Trazado 141101" d="M1263.883,345.7h-12.745a1.8,1.8,0,0,1,0-3.6h12.745a1.8,1.8,0,0,1,0,3.6Z" fill="#12263f"/>
          </g>
        </g>
        <g id="Grupo_90184" data-name="Grupo 90184">
          <g id="Grupo_90183" data-name="Grupo 90183">
            <path id="Trazado_141102" data-name="Trazado 141102" d="M1264.179,356.59h-12.745a1.8,1.8,0,0,1,0-3.6h12.745a1.8,1.8,0,1,1,0,3.6Z" fill="#12263f"/>
          </g>
        </g>
        <g id="Grupo_90186" data-name="Grupo 90186">
          <g id="Grupo_90185" data-name="Grupo 90185">
            <path id="Trazado_141103" data-name="Trazado 141103" d="M1343.149,353.648h-15.467a1.8,1.8,0,0,1-1.8-1.91l2.47-40.12a1.8,1.8,0,0,1,1.8-1.69h10.528a1.8,1.8,0,0,1,1.8,1.69l2.47,40.12a1.8,1.8,0,0,1-1.8,1.91Zm-13.553-3.6h11.638l-2.248-36.52h-7.142Z" fill="#12263f"/>
          </g>
        </g>
        <g id="Grupo_90188" data-name="Grupo 90188">
          <g id="Grupo_90187" data-name="Grupo 90187">
            <path id="Trazado_141104" data-name="Trazado 141104" d="M1340.8,323.944H1329.51a1.8,1.8,0,1,1,0-3.6H1340.8a1.8,1.8,0,0,1,0,3.6Z" fill="#12263f"/>
          </g>
        </g>
        <g id="Grupo_90190" data-name="Grupo 90190">
          <g id="Grupo_90189" data-name="Grupo 90189">
            <path id="Trazado_141105" data-name="Trazado 141105" d="M1341.058,333.588h-11.286a1.8,1.8,0,0,1,0-3.6h11.286a1.8,1.8,0,1,1,0,3.6Z" fill="#12263f"/>
          </g>
        </g>
        <g id="Grupo_90192" data-name="Grupo 90192">
          <g id="Grupo_90191" data-name="Grupo 90191">
            <path id="Trazado_141106" data-name="Trazado 141106" d="M1341.32,343.231h-11.285a1.8,1.8,0,1,1,0-3.6h11.285a1.8,1.8,0,1,1,0,3.6Z" fill="#12263f"/>
          </g>
        </g>
        <g id="Grupo_90194" data-name="Grupo 90194">
          <g id="Grupo_90193" data-name="Grupo 90193">
            <path id="Trazado_141107" data-name="Trazado 141107" d="M1299.863,343.9h-9.336a1.8,1.8,0,0,0-1.8,1.8v9.336a1.8,1.8,0,0,0,1.8,1.8h9.336a1.8,1.8,0,0,0,1.8-1.8V345.7A1.8,1.8,0,0,0,1299.863,343.9Zm-1.8,9.336h-5.736V347.5h5.736Z" fill="#12263f"/>
          </g>
        </g>
        <g id="Grupo_90196" data-name="Grupo 90196">
          <g id="Grupo_90195" data-name="Grupo 90195">
            <path id="Trazado_141108" data-name="Trazado 141108" d="M1299.863,358.694h-9.336a1.8,1.8,0,0,0-1.8,1.8v9.336a1.8,1.8,0,0,0,1.8,1.8h9.336a1.8,1.8,0,0,0,1.8-1.8v-9.336A1.8,1.8,0,0,0,1299.863,358.694Zm-1.8,9.336h-5.736v-5.736h5.736Z" fill="#12263f"/>
          </g>
        </g>
        <g id="Grupo_90198" data-name="Grupo 90198">
          <g id="Grupo_90197" data-name="Grupo 90197">
            <path id="Trazado_141109" data-name="Trazado 141109" d="M1299.863,373.49h-9.336a1.8,1.8,0,0,0-1.8,1.8v9.336a1.8,1.8,0,0,0,1.8,1.8h9.336a1.8,1.8,0,0,0,1.8-1.8V375.29A1.8,1.8,0,0,0,1299.863,373.49Zm-1.8,9.336h-5.736V377.09h5.736Z" fill="#12263f"/>
          </g>
        </g>
        <g id="Grupo_90200" data-name="Grupo 90200">
          <g id="Grupo_90199" data-name="Grupo 90199">
            <path id="Trazado_141110" data-name="Trazado 141110" d="M1252.031,372.446h-9.348a1.805,1.805,0,0,0-1.8,1.8v9.336a1.805,1.805,0,0,0,1.8,1.8h9.348a1.8,1.8,0,0,0,1.8-1.8v-9.336A1.8,1.8,0,0,0,1252.031,372.446Zm-1.8,9.336h-5.748v-5.736h5.748Z" fill="#12263f"/>
            <rect id="Rectángulo_34159" data-name="Rectángulo 34159" width="5.748" height="5.736" transform="translate(1244.483 376.046)" fill="#afafaf"/>
          </g>
        </g>
        <g id="Grupo_90202" data-name="Grupo 90202">
          <g id="Grupo_90201" data-name="Grupo 90201">
            <path id="Trazado_141111" data-name="Trazado 141111" d="M1271.735,372.446H1262.4a1.8,1.8,0,0,0-1.8,1.8v9.336a1.8,1.8,0,0,0,1.8,1.8h9.336a1.8,1.8,0,0,0,1.8-1.8v-9.336A1.8,1.8,0,0,0,1271.735,372.446Zm-1.8,9.336H1264.2v-5.736h5.736Z" fill="#12263f"/>
            <rect id="Rectángulo_34160" data-name="Rectángulo 34160" width="5.736" height="5.736" transform="translate(1264.199 376.046)" fill="#afafaf"/>
          </g>
        </g>
        <g id="Grupo_90204" data-name="Grupo 90204">
          <g id="Grupo_90203" data-name="Grupo 90203">
            <path id="Trazado_141112" data-name="Trazado 141112" d="M1327.139,358.3h-7.992a1.805,1.805,0,0,0-1.8,1.8V373.01a1.805,1.805,0,0,0,1.8,1.8h7.992a1.8,1.8,0,0,0,1.8-1.8V360.1A1.8,1.8,0,0,0,1327.139,358.3Zm-1.8,12.912h-4.392V361.9h4.392Z" fill="#12263f"/>
            <rect id="Rectángulo_34161" data-name="Rectángulo 34161" width="4.392" height="9.312" transform="translate(1320.947 361.898)" fill="#afafaf"/>
          </g>
        </g>
        <g id="Grupo_90206" data-name="Grupo 90206">
          <g id="Grupo_90205" data-name="Grupo 90205">
            <path id="Trazado_141113" data-name="Trazado 141113" d="M1342.151,358.3h-7.992a1.8,1.8,0,0,0-1.8,1.8V373.01a1.8,1.8,0,0,0,1.8,1.8h7.992a1.8,1.8,0,0,0,1.8-1.8V360.1A1.8,1.8,0,0,0,1342.151,358.3Zm-1.8,12.912h-4.392V361.9h4.392Z" fill="#12263f"/>
            <rect id="Rectángulo_34162" data-name="Rectángulo 34162" width="4.392" height="9.312" transform="translate(1335.959 361.898)" fill="#afafaf"/>
          </g>
        </g>
        <g id="Grupo_90208" data-name="Grupo 90208">
          <g id="Grupo_90207" data-name="Grupo 90207">
            <path id="Trazado_141114" data-name="Trazado 141114" d="M1263.755,255.662a8.34,8.34,0,1,0,8.34,8.34A8.353,8.353,0,0,0,1263.755,255.662Zm0,13.08a4.74,4.74,0,1,1,4.74-4.74A4.742,4.742,0,0,1,1263.755,268.742Z" fill="#12263f"/>
          </g>
        </g>
        <g id="Grupo_90210" data-name="Grupo 90210">
          <g id="Grupo_90209" data-name="Grupo 90209">
            <path id="Trazado_141115" data-name="Trazado 141115" d="M1321.007,272.186a1.78,1.78,0,0,0-2.46-.648v.012a1.8,1.8,0,1,0,2.46.636Zm8.3,4.668h-.024a1.808,1.808,0,0,0-1.776,1.8v.084a1.8,1.8,0,1,0,3.6,0v-.108A1.8,1.8,0,0,0,1329.311,276.854Zm-8.892,5.988a1.827,1.827,0,0,0-.888-.24,1.809,1.809,0,0,0-.9,3.372,1.858,1.858,0,0,0,.9.228,1.8,1.8,0,0,0,1.56-.9,1.827,1.827,0,0,0,.24-.888A1.808,1.808,0,0,0,1320.419,282.842Z" fill="#12263f"/>
          </g>
        </g>
        <g id="Grupo_90212" data-name="Grupo 90212">
          <g id="Grupo_90211" data-name="Grupo 90211">
            <path id="Trazado_141116" data-name="Trazado 141116" d="M1298.279,270.914a1.794,1.794,0,1,0,.252.912A1.8,1.8,0,0,0,1298.279,270.914Zm8.292,4.68h-.024a1.808,1.808,0,0,0-1.776,1.8v.084a1.8,1.8,0,0,0,3.6,0v-.108A1.8,1.8,0,0,0,1306.571,275.594Zm-8.892,5.988a1.827,1.827,0,0,0-.888-.24,1.809,1.809,0,0,0-.9,3.372,1.872,1.872,0,0,0,.9.24,1.814,1.814,0,0,0,1.8-1.8A1.794,1.794,0,0,0,1297.679,281.582Z" fill="#12263f"/>
          </g>
        </g>
        <g id="Grupo_90214" data-name="Grupo 90214">
          <g id="Grupo_90213" data-name="Grupo 90213">
            <path id="Trazado_141117" data-name="Trazado 141117" d="M1288.564,227.517h-18.771a1.8,1.8,0,0,1,0-3.6h18.771a1.8,1.8,0,1,1,0,3.6Z" fill="#12263f"/>
          </g>
        </g>
        <g id="Grupo_90216" data-name="Grupo 90216">
          <g id="Grupo_90215" data-name="Grupo 90215">
            <path id="Trazado_141118" data-name="Trazado 141118" d="M1298.8,239.128H1282.94a1.8,1.8,0,1,1,0-3.6H1298.8a1.8,1.8,0,1,1,0,3.6Z" fill="#12263f"/>
          </g>
        </g>
        <g id="Grupo_90218" data-name="Grupo 90218">
          <g id="Grupo_90217" data-name="Grupo 90217">
            <path id="Trazado_141119" data-name="Trazado 141119" d="M1350.542,268.528h-8.282a1.8,1.8,0,1,1,0-3.6h8.282a1.8,1.8,0,1,1,0,3.6Z" fill="#12263f"/>
          </g>
        </g>
        <g id="Grupo_90220" data-name="Grupo 90220">
          <g id="Grupo_90219" data-name="Grupo 90219">
            <path id="Trazado_141120" data-name="Trazado 141120" d="M1350.542,261.178h-8.282a1.8,1.8,0,1,1,0-3.6h8.282a1.8,1.8,0,1,1,0,3.6Z" fill="#12263f"/>
          </g>
        </g>
        <g id="Grupo_90222" data-name="Grupo 90222">
          <g id="Grupo_90221" data-name="Grupo 90221">
            <path id="Trazado_141121" data-name="Trazado 141121" d="M1242.006,318.028h-10.92a1.8,1.8,0,1,1,0-3.6h10.92a1.8,1.8,0,1,1,0,3.6Z" fill="#12263f"/>
          </g>
        </g>
        <g id="Grupo_90224" data-name="Grupo 90224">
          <g id="Grupo_90223" data-name="Grupo 90223">
            <path id="Trazado_141122" data-name="Trazado 141122" d="M1242.006,334.807h-10.92a1.8,1.8,0,1,1,0-3.6h10.92a1.8,1.8,0,1,1,0,3.6Z" fill="#12263f"/>
          </g>
        </g>
        <g id="Grupo_90226" data-name="Grupo 90226">
          <g id="Grupo_90225" data-name="Grupo 90225">
            <path id="Trazado_141123" data-name="Trazado 141123" d="M1242.006,350.858h-10.92a1.8,1.8,0,1,1,0-3.6h10.92a1.8,1.8,0,1,1,0,3.6Z" fill="#12263f"/>
          </g>
        </g>
      </g>
    </g>
  </g>
</svg>
