<svg xmlns="http://www.w3.org/2000/svg" xmlns:xlink="http://www.w3.org/1999/xlink" width="404.957" height="387.94" viewBox="0 0 404.957 387.94">
  <defs>
    <clipPath id="clip-path">
      <rect id="Rectángulo_5157" data-name="Rectángulo 5157" width="206.7" height="285.616" fill="none"/>
    </clipPath>
    <linearGradient id="linear-gradient" x1="0.5" x2="0.5" y2="1" gradientUnits="objectBoundingBox">
      <stop offset="0" stop-color="#a9bc62"/>
      <stop offset="1" stop-color="#7eb501"/>
    </linearGradient>
    <radialGradient id="radial-gradient" cx="0.076" cy="0.019" r="1.465" gradientTransform="translate(0.001)" gradientUnits="objectBoundingBox">
      <stop offset="0" stop-color="#f6f6f7"/>
      <stop offset="0.477" stop-color="#f9f9fa"/>
      <stop offset="0.715" stop-color="#fff"/>
    </radialGradient>
    <filter id="Rectángulo_33811" x="194.957" y="148.101" width="210" height="133" filterUnits="userSpaceOnUse">
      <feOffset dy="3" input="SourceAlpha"/>
      <feGaussianBlur stdDeviation="8" result="blur"/>
      <feFlood flood-opacity="0.161"/>
      <feComposite operator="in" in2="blur"/>
      <feComposite in="SourceGraphic"/>
    </filter>
  </defs>
  <g id="Grupo_91149" data-name="Grupo 91149" transform="translate(-911.043 -1655.899)">
    <g id="Grupo_88821" data-name="Grupo 88821" transform="translate(983.479 1745.172)">
      <path id="Trazado_100695" data-name="Trazado 100695" d="M1689.245,3262.59c-2.192,2.893-2.728,1.892-4.46,4.522s-1.365,7.336-2.588,10.158c-1.831,4.226-6.659,5.274-6.659,5.274s-1.565-11.567,0-14.558,10.807-8.769,12.511-7.883A2.115,2.115,0,0,1,1689.245,3262.59Z" transform="translate(-1616.836 -3180.832)" fill="#f7c289"/>
      <g id="Grupo_53865" data-name="Grupo 53865" transform="translate(0 45.342)">
        <path id="Trazado_100696" data-name="Trazado 100696" d="M1533.6,3163.875a24.923,24.923,0,0,0-13.608,5.866c-4.221,3.585-12.1,17.392-13.407,29.31s-.248,17.844,3.828,18.782,13.2-5.893,13.2-5.893l-.4,8.9,41.55-5.453,1.484-9.095s6.544-18.9,3.925-28.493-13-16.252-13-16.252Z" transform="translate(-1506.059 -3161.55)" fill="#c02c21"/>
        <g id="Grupo_53864" data-name="Grupo 53864" transform="translate(7.399 28.636)">
          <g id="Grupo_53862" data-name="Grupo 53862" transform="translate(0 10.652)">
            <path id="Trazado_100697" data-name="Trazado 100697" d="M1527.684,3276.551a.1.1,0,0,1-.094-.076.1.1,0,0,1,.072-.118,35.6,35.6,0,0,1,8.349-.41.1.1,0,0,1,.088.106.1.1,0,0,1-.1.09,35.344,35.344,0,0,0-8.288.4Z" transform="translate(-1527.587 -3275.868)" fill="#c02c21"/>
          </g>
          <g id="Grupo_53863" data-name="Grupo 53863" transform="translate(4.159)">
            <path id="Trazado_100698" data-name="Trazado 100698" d="M1539.787,3255.764a.1.1,0,0,1-.062-.023.1.1,0,0,1-.012-.139c.046-.056,4.614-5.628,5.546-10.649a.1.1,0,0,1,.113-.078.1.1,0,0,1,.077.115c-.942,5.073-5.542,10.683-5.588,10.739A.1.1,0,0,1,1539.787,3255.764Z" transform="translate(-1539.69 -3244.873)" fill="#c02c21"/>
          </g>
        </g>
      </g>
      <g id="Grupo_53874" data-name="Grupo 53874" transform="translate(11.997 47.751)">
        <g id="Grupo_91142" data-name="Grupo 91142">
          <g id="Grupo_91144" data-name="Grupo 91144">
            <path id="Trazado_100699" data-name="Trazado 100699" d="M1552.49,3168.971l2.918,18.732s-1.767,12.911-2.9,18.754c-1.067,5.5-2.231,8.117-5.2,14.74-.688,1.533-6.2,17.051-6.314,29.211-.38,40.392,4.806,115.716,4.806,115.716l15.476-1.56,7.775-105.364,12.719,103.16,15.652.1s.147-96.367-2.334-114.232-6.9-27.979-6.9-27.979l-5.363-32.69-2.052-18.454-2.765,0,1.25,18.5-19.581-.263-3.925-18.783Z" transform="translate(-1540.969 -3168.561)" fill="#8d6e61"/>
          </g>
        </g>
        <g id="Grupo_53866" data-name="Grupo 53866" transform="translate(19.603 23.353)">
          <path id="Trazado_100700" data-name="Trazado 100700" d="M1611.168,3255.612h-6.024a7.2,7.2,0,0,1-7.135-7.25v-11.85h20.3v11.85A7.2,7.2,0,0,1,1611.168,3255.612Zm-12.966-18.9v11.653a7.005,7.005,0,0,0,6.942,7.052h6.024a7.005,7.005,0,0,0,6.942-7.052V3236.71Z" transform="translate(-1598.008 -3236.513)" fill="#513a32"/>
        </g>
        <g id="Grupo_53869" data-name="Grupo 53869" transform="translate(2.597 57.876)">
          <g id="Grupo_53867" data-name="Grupo 53867" transform="translate(0 0.227)">
            <path id="Trazado_100701" data-name="Trazado 100701" d="M1550.537,3337.736c-.059-.036-.116-.071-.172-.108-4.714,20.94.994,121.506,2.083,133.651l.212,0C1551.572,3459.144,1545.851,3358.732,1550.537,3337.736Z" transform="translate(-1548.526 -3337.628)" fill="#513a32"/>
          </g>
          <g id="Grupo_53868" data-name="Grupo 53868" transform="translate(1.856)">
            <path id="Trazado_100702" data-name="Trazado 100702" d="M1576.226,3340.375l-.9,0c-9.762-.067-18.363-1.253-21.4-2.951l.094-.173c3.015,1.684,11.58,2.861,21.312,2.927,10.54.068,19.345-1.133,23.544-3.21l.059.191C1594.829,3339.187,1586.391,3340.375,1576.226,3340.375Z" transform="translate(-1553.925 -3336.966)" fill="#513a32"/>
          </g>
        </g>
        <g id="Grupo_53871" data-name="Grupo 53871" transform="translate(0.159 68.354)">
          <path id="Trazado_100703" data-name="Trazado 100703" d="M1558.071,3369.867l-14.7,12.206-1.942-2.414,14.7-12.205Z" transform="translate(-1541.432 -3367.453)" fill="#513a32"/>
          <g id="Grupo_53870" data-name="Grupo 53870" transform="translate(2.644 3.328)">
            <path id="Trazado_100704" data-name="Trazado 100704" d="M1549.15,3403.554l-.024-.2a13.585,13.585,0,0,0,9.651-5.474c5.531-7.557,3.541-20.069,3.453-20.6l.178-.148c.089.535,2.1,13.243-3.476,20.866A13.775,13.775,0,0,1,1549.15,3403.554Z" transform="translate(-1549.126 -3377.136)" fill="#513a32"/>
          </g>
        </g>
        <g id="Grupo_53873" data-name="Grupo 53873" transform="translate(45.581 68.354)">
          <path id="Trazado_100705" data-name="Trazado 100705" d="M1675.541,3367.453l-1.942,2.414,8.232,6.836q-.372-2.444-.783-4.677Z" transform="translate(-1673.599 -3367.453)" fill="#513a32"/>
          <g id="Grupo_53872" data-name="Grupo 53872" transform="translate(1.483 3.645)">
            <path id="Trazado_100706" data-name="Trazado 100706" d="M1685.979,3399.963c-7.144-1.985-7.777-15.468-8.066-21.9l.2.164c.287,6.389.851,19.587,7.86,21.534Z" transform="translate(-1677.913 -3378.059)" fill="#513a32"/>
          </g>
        </g>
        <ellipse id="Elipse_4125" data-name="Elipse 4125" cx="1.466" cy="1.49" rx="1.466" ry="1.49" transform="translate(15.07 18.026)" fill="#ffd364"/>
      </g>
      <g id="Grupo_53875" data-name="Grupo 53875" transform="translate(39.105 59.487)">
        <path id="Trazado_100707" data-name="Trazado 100707" d="M1661.135,3204.03l-.846-.873c-.031-.035-.063-.068-.1-.1l-.021-.022h0a1.288,1.288,0,0,0-.864-.329h-23.03a1.317,1.317,0,0,0-1.149.68l-15.109,27.132a1.352,1.352,0,0,0,.2,1.594h0l.007.006.006.007.734.741.028-.359a1.3,1.3,0,0,0,.173.012h23.03a1.316,1.316,0,0,0,1.149-.68l15.109-27.132a1.348,1.348,0,0,0,.168-.58Z" transform="translate(-1619.845 -3202.708)" fill="#d2f4ff"/>
        <path id="Trazado_100708" data-name="Trazado 100708" d="M1661.561,3205h-23.03a1.316,1.316,0,0,0-1.148.68l-15.109,27.132a1.34,1.34,0,0,0,1.148,2h23.03a1.317,1.317,0,0,0,1.149-.68L1662.709,3207A1.341,1.341,0,0,0,1661.561,3205Z" transform="translate(-1621.325 -3204.212)" fill="#fff"/>
        <path id="Trazado_100709" data-name="Trazado 100709" d="M1674.2,3213.768a.634.634,0,0,0-.17-.862.616.616,0,0,0-.794.348.635.635,0,0,0,.17.862A.615.615,0,0,0,1674.2,3213.768Z" transform="translate(-1654.824 -3209.367)" fill="#2675aa"/>
        <path id="Trazado_100710" data-name="Trazado 100710" d="M1664.76,3284.658h-6.8l.514-.911h6.8Z" transform="translate(-1644.862 -3255.896)" fill="#d2f4ff"/>
      </g>
      <g id="Grupo_53879" data-name="Grupo 53879" transform="translate(15.579 68.3)">
        <path id="Trazado_100711" data-name="Trazado 100711" d="M1551.519,3245.111c-.841,1.718,2.72,7.95,2.72,7.95s8.481-4.943,11.144-6.851c2.573-1.844,3.891-2.878,4.937-5.342,1.092-2.576,1.08-4.925,1.677-5.733a3.686,3.686,0,0,0,.941-2.871l-2.006,1.128s-2.03,3.428-2.042,3.1a9.619,9.619,0,0,1,1.019-1.967,8.6,8.6,0,0,1,2.436-1.869c1.486-.78,3.023-1.382,2.979-1.735-.083-.664-2.416-.051-3.911.46-1.517.518-2.379.746-2.379.746l-.554-.392-.125-.821a4.263,4.263,0,0,0,1.057.013,1.956,1.956,0,0,0,1.081-.543,2.474,2.474,0,0,0,1.5-.067c.679-.2.857-.84.671-1.044a9.332,9.332,0,0,0-3.107-.9,3.1,3.1,0,0,0-2.163.669,3.163,3.163,0,0,0-2.618.748c-2.068,1.74-.611,9.229-2.659,11.224C1560.718,3242.384,1551.519,3245.111,1551.519,3245.111Z" transform="translate(-1551.39 -3228.352)" fill="#f7c289"/>
        <path id="Trazado_100712" data-name="Trazado 100712" d="M1595.288,3236.608l-.554-.392-.125-.821a11.009,11.009,0,0,0-2.33-.186,1.435,1.435,0,0,0-.67.974,1.225,1.225,0,0,1,.735-.061c.035.005.07.016.106.023a1.835,1.835,0,0,1,.4,0,1.692,1.692,0,0,1,.783.232.222.222,0,0,1,.066.075c.022.01.046.019.068.03l.023.012a1.745,1.745,0,0,1,.234.1.946.946,0,0,1,.516.776.158.158,0,0,1-.139.182.161.161,0,0,1-.213.094,3.49,3.49,0,0,0-.413-.118,2.4,2.4,0,0,0-2.127.933c-.022.039-.048.075-.069.115s-.048.095-.071.143l-.031.071h0l-.015.039a.239.239,0,0,1-.069.1c.028.666.087,1.152.087,1.152.153,2.151,2.217,8.409,2.269,6.284a10.655,10.655,0,0,1,1.393-5.39l1.019-1.967Z" transform="translate(-1577.646 -3232.83)" fill="#f7b472"/>
        <g id="Grupo_53876" data-name="Grupo 53876" transform="translate(12.503 3.177)">
          <path id="Trazado_100713" data-name="Trazado 100713" d="M1589.05,3241.655a.1.1,0,0,1-.094-.077,1.849,1.849,0,0,1,1.492-2.416,4.5,4.5,0,0,1,1.066-.03,2.6,2.6,0,0,0,.568,0,1.247,1.247,0,0,0-.724-1.057c-.709-.341-2.732-.533-3.41.423a.1.1,0,0,1-.135.023.1.1,0,0,1-.022-.137c.768-1.085,2.934-.83,3.65-.487a1.458,1.458,0,0,1,.836,1.24.157.157,0,0,1-.04.125c-.092.1-.3.093-.733.071a4.38,4.38,0,0,0-1.017.026,1.654,1.654,0,0,0-1.342,2.181.1.1,0,0,1-.074.117Z" transform="translate(-1587.772 -3237.597)" fill="#d8924c"/>
        </g>
        <g id="Grupo_53877" data-name="Grupo 53877" transform="translate(15.027 0.457)">
          <path id="Trazado_100714" data-name="Trazado 100714" d="M1599.017,3231.13a.1.1,0,0,1-.077-.039,3.6,3.6,0,0,0-3.693-1.029.1.1,0,0,1-.125-.055.1.1,0,0,1,.055-.127,3.755,3.755,0,0,1,3.918,1.093.1.1,0,0,1-.077.158Z" transform="translate(-1595.114 -3229.681)" fill="#d8924c"/>
        </g>
        <g id="Grupo_53878" data-name="Grupo 53878" transform="translate(13.935 2.281)">
          <path id="Trazado_100715" data-name="Trazado 100715" d="M1592.035,3236.113h0a.1.1,0,0,1-.094-.1,1.177,1.177,0,0,1,.79-1.018.064.064,0,0,1,.035,0c.014,0,1.417.069,2.216.186a.1.1,0,0,1,.082.111.1.1,0,0,1-.11.083c-.739-.108-2.007-.175-2.178-.184a.97.97,0,0,0-.642.831A.1.1,0,0,1,1592.035,3236.113Z" transform="translate(-1591.938 -3234.988)" fill="#d8924c"/>
        </g>
      </g>
      <g id="Grupo_53883" data-name="Grupo 53883" transform="translate(63.989 72.924)">
        <path id="Trazado_100716" data-name="Trazado 100716" d="M1702.983,3243.314c.105-1.284-.4-1.692-2.532-1.435s-4.676.719-4.639,1.435,2.5,1.041,2.5,1.041-5.856-.6-6.037,0c-.216.722,1.276,1.637,1.276,1.637s-1.061.4-.866.806,1.2.866,1.2.866-1.109-.358-.554.256a27.137,27.137,0,0,0,5.15,2.693c1.789.622,2.149.274,2.408-.365a1.154,1.154,0,0,0-.011-1.166,1.313,1.313,0,0,0,1.216-.812,2.53,2.53,0,0,0,.1-1.365,2.267,2.267,0,0,0,.7-1.237,1.469,1.469,0,0,0-.277-1.147Z" transform="translate(-1692.251 -3241.806)" fill="#f7c289"/>
        <g id="Grupo_53880" data-name="Grupo 53880" transform="translate(5.116 2.294)">
          <path id="Trazado_100717" data-name="Trazado 100717" d="M1710.57,3248.841c-.943,0-2.527-.064-3.347-.163a.1.1,0,0,1-.085-.109.1.1,0,0,1,.108-.086,30.14,30.14,0,0,0,4,.137.1.1,0,0,1,.112.081.1.1,0,0,1-.08.113A5.793,5.793,0,0,1,1710.57,3248.841Z" transform="translate(-1707.137 -3248.482)" fill="#d8924c"/>
        </g>
        <g id="Grupo_53881" data-name="Grupo 53881" transform="translate(1.201 4.087)">
          <path id="Trazado_100718" data-name="Trazado 100718" d="M1701.919,3254.492a35.715,35.715,0,0,1-6.1-.6.1.1,0,0,1-.071-.119.1.1,0,0,1,.117-.072,34.458,34.458,0,0,0,6.37.584.1.1,0,0,1,.1.09.1.1,0,0,1-.088.106C1702.178,3254.489,1702.065,3254.492,1701.919,3254.492Z" transform="translate(-1695.745 -3253.699)" fill="#d8924c"/>
        </g>
        <g id="Grupo_53882" data-name="Grupo 53882" transform="translate(1.372 5.713)">
          <path id="Trazado_100719" data-name="Trazado 100719" d="M1701.322,3259.7h0a19.415,19.415,0,0,1-5.019-1.083.1.1,0,0,1-.049-.13.1.1,0,0,1,.128-.05,19.134,19.134,0,0,0,4.948,1.066.1.1,0,0,1,0,.2Z" transform="translate(-1696.242 -3258.428)" fill="#d8924c"/>
        </g>
      </g>
      <g id="Grupo_53884" data-name="Grupo 53884" transform="translate(12.679 239.081)">
        <path id="Trazado_100720" data-name="Trazado 100720" d="M1546.934,3732.48c1.586-.031,20.394,0,20.394,0l-3.632,35.344a6.944,6.944,0,0,0,1.143,4.587l3.085,4.579a3.04,3.04,0,0,1-2.465,4.492l-10.218.549a3.9,3.9,0,0,1-4.1-3.643l.957-8.519Z" transform="translate(-1545.566 -3729.997)" fill="#12263f"/>
        <path id="Trazado_100721" data-name="Trazado 100721" d="M1542.953,3725.8v3.51h23.765v-4.03Z" transform="translate(-1542.953 -3725.282)" fill="#c02c21"/>
      </g>
      <g id="Grupo_53885" data-name="Grupo 53885" transform="translate(48.777 239.631)">
        <path id="Trazado_100722" data-name="Trazado 100722" d="M1675.526,3732.744c-1.587-.031-18.5,1.465-18.5,1.465l3.714,41.746a1.654,1.654,0,0,0,1.2,1.486c3.423.947,11.805,1.04,22.584,1.031,3.922,0,5.372-4.331,1.894-6.173-4.616-2.444-8.079-4.156-11.166-6.178-1.968-1.29-3.672-2.924-3.59-5.3Z" transform="translate(-1653.92 -3730.729)" fill="#12263f"/>
        <path id="Trazado_100723" data-name="Trazado 100723" d="M1647.988,3727.4v3.51h23.765v-4.03Z" transform="translate(-1647.988 -3726.881)" fill="#c02c21"/>
      </g>
      <g id="Grupo_53887" data-name="Grupo 53887" transform="translate(9.15)">
        <path id="Trazado_100724" data-name="Trazado 100724" d="M1673.554,3090.278c-.439,2.118-15.153,8.818-15.153,8.818l-1.62-11.171Z" transform="translate(-1614.132 -3067.886)" fill="#513a32"/>
        <path id="Trazado_100725" data-name="Trazado 100725" d="M1592.26,3137.371s1.88,6.293-1.544,8.225-4.505,2.41-4.505,2.41,1.994,8.3,10.041,8.667c8.175.375,10.385-7.994,10.385-7.994s-2.3.12-4.28-3.773a16.08,16.08,0,0,1-1.944-6.814Z" transform="translate(-1567.815 -3100.339)" fill="#f7c289"/>
        <path id="Trazado_100726" data-name="Trazado 100726" d="M1630.588,3081.791c3.256,5.588,3.946,6.509-.384,11.679s-3.365,7.489-3.535,9.877,4.944,9.919,4.944,9.919l11.011-.423s-5.114-3.8-1.024-7.281c3.51-2.99.319-6.02-.523-6.761-2.358-2.076-2.331-4.182-.33-7.426s-2.255-8.177-2.255-8.177Z" transform="translate(-1594.366 -3063.86)" fill="#12263f"/>
        <path id="Trazado_100727" data-name="Trazado 100727" d="M1546.432,3102.273c-3.147.884-15.152,2.52-13.611-2.551,2.385-7.848,22.177-8.294,22.177-8.294l-1.452,8.549Z" transform="translate(-1532.684 -3070.185)" fill="#513a32"/>
        <path id="Trazado_100728" data-name="Trazado 100728" d="M1606.55,3070.559c-2.993-1.521-8.526-1.468-11.6.525s-6.077,6.8-5.856,10.89c.258,4.771,4.038,13.823,9.39,14.375s9.229-8.9,10.705-13.156C1610.092,3080.6,1609.543,3072.079,1606.55,3070.559Z" transform="translate(-1569.702 -3055.79)" fill="#f7c289"/>
        <path id="Trazado_100729" data-name="Trazado 100729" d="M1566.845,3082.341s-6.521,3.517-5.326,7.476.853,3.863-1.536,6.771-5.52,4.295-3.7,7.415-.545,6.269-.545,6.269,12.609,3.851,15.022,2.855,6.218-4.178,2.413-11.853-5.409-12.511,0-14.6a13.066,13.066,0,0,0,7.2-7.259Z" transform="translate(-1547.816 -3062.302)" fill="#12263f"/>
        <path id="Trazado_100730" data-name="Trazado 100730" d="M1631.89,3082.692c3.669,3.38,4.557,5.358,4.237,9.7s-.593,7.1,1.552,5.939,2.776-3.413,2.674-7.75.419-6.5-1.889-7.891S1631.89,3082.692,1631.89,3082.692Z" transform="translate(-1597.796 -3064.047)" fill="#12263f"/>
        <path id="Trazado_100731" data-name="Trazado 100731" d="M1549.484,3053.99a40.3,40.3,0,0,0,10.135-6.443s-1.471-9.736,1.514-13.372,19-6.682,22.1-2.638,2.065,12.372,2.438,12.908a32.8,32.8,0,0,0,9.161,5.438,72.251,72.251,0,0,0,8.3,2.124s-.036,2.188-9.956-.218-18.829-2.893-25.539-.549S1549.484,3053.99,1549.484,3053.99Z" transform="translate(-1543.711 -3029.616)" fill="#8d6e61"/>
        <path id="Trazado_100732" data-name="Trazado 100732" d="M1578.378,3065.286s7.236-3.561,12.976-4.4,13.073,1.3,13.073,1.3l-.134-3.821a32.34,32.34,0,0,0-13.219-1.532c-6.742.89-13.009,5.515-13.009,5.515Z" transform="translate(-1562.469 -3047.356)" fill="#fff"/>
        <path id="Trazado_100733" data-name="Trazado 100733" d="M1611.936,3102.969a3.3,3.3,0,0,0-2.483-.183.2.2,0,0,0,.126.373,2.9,2.9,0,0,1,2.182.162A.2.2,0,0,0,1611.936,3102.969Z" transform="translate(-1582.986 -3077.534)" fill="#602f13"/>
        <path id="Trazado_100734" data-name="Trazado 100734" d="M1635.758,3104.084a3.3,3.3,0,0,0-2.488-.075.2.2,0,0,0,.141.367,2.9,2.9,0,0,1,2.187.068A.2.2,0,0,0,1635.758,3104.084Z" transform="translate(-1598.622 -3078.306)" fill="#602f13"/>
        <path id="Trazado_100735" data-name="Trazado 100735" d="M1615.651,3134.52l3.789.185s-1.056,1.447-2.3,1.251A1.859,1.859,0,0,1,1615.651,3134.52Z" transform="translate(-1587.138 -3098.468)" fill="#fff"/>
        <path id="Trazado_100736" data-name="Trazado 100736" d="M1612.545,3109.235c.122-.663-.107-1.262-.512-1.339s-.832.4-.954,1.061.107,1.262.512,1.339S1612.423,3109.9,1612.545,3109.235Z" transform="translate(-1584.115 -3080.988)" fill="#602f13"/>
        <path id="Trazado_100737" data-name="Trazado 100737" d="M1635.94,3109.967c.122-.663-.108-1.262-.512-1.339s-.832.4-.954,1.061.107,1.262.512,1.339S1635.818,3110.629,1635.94,3109.967Z" transform="translate(-1599.47 -3081.468)" fill="#602f13"/>
        <g id="Grupo_53886" data-name="Grupo 53886" transform="translate(31.032 28.926)">
          <path id="Trazado_100738" data-name="Trazado 100738" d="M1623.638,3118.442a2.381,2.381,0,0,1-.584-.065.1.1,0,0,1-.07-.12.1.1,0,0,1,.118-.071,2.229,2.229,0,0,0,1.5-.156c.064-.054.062-.094.061-.107a6.92,6.92,0,0,0-.257-.982c-.212-.712-.532-1.787-.786-3.039a.1.1,0,0,1,.076-.116.1.1,0,0,1,.114.076c.253,1.243.571,2.313.782,3.022a6.614,6.614,0,0,1,.265,1.027.321.321,0,0,1-.132.27A1.926,1.926,0,0,1,1623.638,3118.442Z" transform="translate(-1622.981 -3113.784)" fill="#d88d48"/>
        </g>
      </g>
    </g>
    <g id="Grupo_91148" data-name="Grupo 91148">
      <g id="Grupo_91146" data-name="Grupo 91146">
        <g id="Grupo_91145" data-name="Grupo 91145">
          <g id="Grupo_91143" data-name="Grupo 91143">
            <g id="Grupo_91141" data-name="Grupo 91141">
              <g id="Grupo_91140" data-name="Grupo 91140">
                <g id="Grupo_91139" data-name="Grupo 91139">
                  <g id="Grupo_88820" data-name="Grupo 88820" transform="translate(445.663 1602.968)">
                    <g id="Grupo_88815" data-name="Grupo 88815" transform="translate(537.816 52.931)">
                      <g id="Grupo_88814" data-name="Grupo 88814" transform="translate(0 36.804)">
                        <path id="Trazado_139637" data-name="Trazado 139637" d="M549.758,72.608c-1.541-2.444-2.378-2.586-4.017-.4a8.344,8.344,0,0,1-3.627,3.228c-.742.285-1.2.97-.528,2.12a2.736,2.736,0,0,1-.764,3.365,10.788,10.788,0,0,0-2.079,2.157c-.322.532-.88,1.2-.112,2.142,1,1.232.85,2.715.1,4.234-.657,1.339-.835,2.822.575,4.041a2.83,2.83,0,0,1,.609,2.951c-.556,2.11-.687,4.266-1.039,6.4-.285,1.713-.908,3.361-1.052,5.112a1.766,1.766,0,0,0,1.292,2.1c.766.2,1.26-.33,1.726-1.011A13.4,13.4,0,0,0,543,104.344a48.236,48.236,0,0,1,3.281-10.054c.663-1.393,2.4-1.764,2.683-3.466a3.487,3.487,0,0,1-.451-5.2c1.015-1.262,1.073-2.236.006-3.462a3.908,3.908,0,0,1-.835-1.683c-.176-.955-.328-2.507,1.006-2.453,2.1.084,3.045-1.285,4.262-2.434v-.212C552.233,74.054,550.544,73.85,549.758,72.608Z" transform="translate(-537.816 -69.411)" fill="#fff"/>
                        <path id="Trazado_139638" data-name="Trazado 139638" d="M563.738,77.444c-2-1.543-4.569-2.6-3.938-5.552-1.734-.148-2.648.8-2.708,1.674-.109,1.64-1.161,1.828-2.221,1.874-1.955.082-3.073,1.348-4.258,2.592l.212.212c-.03,1.539.1,2.966-1.189,4.339-.846.9-.517,2.646.375,3.719a2.468,2.468,0,0,1,.446,3.039c-.442.964.146,1.889,1.219,2.318.215-.071.506-.077.627-.225,2.337-2.835,6.078-3.578,8.792-5.893.867-.74,1.743-1.146,1.217-2.4C561.429,81.041,562.023,79.258,563.738,77.444Z" transform="translate(-524.832 -68.022)" fill="#fff"/>
                        <path id="Trazado_139639" data-name="Trazado 139639" d="M553.6,72.869c1.53-1.007.747-1.863-.013-2.786h-.425c-1.225-.075-1.423,1.131-2.337,1.595C551.584,72.861,552.095,73.859,553.6,72.869Z" transform="translate(-522.909 -70.08)" fill="#fff"/>
                      </g>
                      <g id="Grupo_91147" data-name="Grupo 91147">
                        <path id="Trazado_139640" data-name="Trazado 139640" d="M830.066,307.773c-1.2-2.271-2.148-4.586-1.515-7.256.215-.912-.427-1.65-.867-2.326a16.068,16.068,0,0,1-2.777-7.056,3.245,3.245,0,0,0-1.434-2.614c-1.434-.946-1.562-2.633-1.5-4.219a2.9,2.9,0,0,0-1.064-2.588,7.123,7.123,0,0,1-2.687-3.79c-.212-.882-.927-2.4-2.7-1.577a1.079,1.079,0,0,1-1.481-1.007c-.114-2.024-1.534-2.391-3.187-2.339-.983.03-1.923.067-2.374-1.049,2.657-2.659,5.226-5.361,7.951-7.893,1.277-1.187,1.322-3.412,3.387-3.79a5.988,5.988,0,0,0-2.979-5.434c-2.058-1.225-2.129-3.573-2.736-5.548-.395-1.288-.2-2.773-2.182-2.783-.524,0-.811-.442-.867-1.041-.258-2.818-1.726-5.309-2.155-8.106-.56-3.627-1.923-7.093-.511-10.932a8.03,8.03,0,0,0-.26-5.739,2.73,2.73,0,0,1,.1-1.925c.142-.358.667-.7.466-1.028-1.854-3,.856-4.026,2.371-5.56a6.41,6.41,0,0,0,1.706-5.337,3.631,3.631,0,0,1,1.451-3.466,7.177,7.177,0,0,0,1.992-8.286c-.6-1.183-1.174-1.824-2.6-1.292-1.062.4-1.753-.537-2.556-1.034-2.689-1.67-2.447-1.116-4.732.131-2.23,1.215-4.616,2.474-7.438,1.828a2.723,2.723,0,0,0-2.59.549,4.98,4.98,0,0,1-5.071.871,7.644,7.644,0,0,0-4.05.114,6.068,6.068,0,0,1-3.616-.361c-2.509-1.165-4.717-.391-6.839.734-2.363,1.253-4.728,1.056-6.417-.888-4.631-5.329-9.288-10.636-13.853-16.02-1.682-1.987-3.481-2.706-6.013-1.736a3.534,3.534,0,0,1-3.6-.82,8.161,8.161,0,0,0-2.766-1.745c-1.989-.7-3.758-1.176-5.6.442a6.151,6.151,0,0,1-4.238,1.326c-.354-.006-.794-.206-1.062.2-1.191,1.811-2.534.951-3.841.2a4.079,4.079,0,0,0-3.445-.509,4.584,4.584,0,0,1-4.069-.708,2.814,2.814,0,0,0-2.987-.144c-1.813.828-3.94.609-5.934.483a2.786,2.786,0,0,1-2.56-2.957c-.017-.64,0-1.279,0-1.921,0-3.423-1.3-4.425-4.7-3.627a2.12,2.12,0,0,1-2.582-1.916,25.541,25.541,0,0,0-1.949-5.533,14.276,14.276,0,0,0-.961-2.4c-.238-.378-.38-1.419.382-1.631,1.268-.356,1.605-1.751,2.76-2.183,1.1-.412,1.127-1.339,1.086-2.339-.051-1.279-.916-2.507-.06-3.869.318-.509-.374-1.266-.826-1.419-1.519-.513-1.558-1.934-2.105-3.041-.155-.315.172-.773-.225-1.06-3.481-2.532-3.822-6.582-4.884-10.252-.882-3.05-1.324-3.423-4.292-2.766-.142-.144-.352-.26-.416-.431-1.122-2.925-1.1-2.891-3.861-1.294-1.189.687-2.408-.152-3.616-.242-.1-.006-.223-.672-.193-1.019.028-.294.287-.56.4-.856.831-2.215,2.316-4.069,2.73-6.586.29-1.751,2.213-3.172,3.676-4.511.809-.738,1.2-1.369.481-2.59-1.242-2.1-.137-4.307.446-6.35a11.522,11.522,0,0,0,.775-4.075,2.9,2.9,0,0,1,1.749-2.713c1.363-.779,1.659-1.9,2.185-3.23a97.106,97.106,0,0,1,4.64-9.621c.753-1.423,2.356-1.816,3.816-2.122a3.82,3.82,0,0,0,3.086-2.543c1.1-2.481,2.382-4.921,3.68-7.331a5.349,5.349,0,0,1,4.333-2.889,16.075,16.075,0,0,0,5.747-2c1.294-.687,2.5-1.547,4.063-1.483.712.028.972-.367,1.095-1.058.116-.652-.037-1.431.826-2.09.824-.191,2,.7,3.026-.44s1.183-2.215.142-3.2a3.071,3.071,0,0,1-1.056-2.6c.069-1.843-1.337-2.359-2.758-2.524a5.822,5.822,0,0,1-3.848-2.161c-1.09-1.243-1.914-1.225-2.728.223-.8,1.419-1.571,2.477-3.453,2.382-1.052-.054-1.552,1.079-2.142,1.992-1.277-.863-2.3-.676-2.826.88-1.127-.436-1.882-1.53-3.163-.612a2.775,2.775,0,0,0-.981,3.219,2.65,2.65,0,0,1-.921,3c-2.545,2.1-4.9,4.4-8.52,4.788a7.408,7.408,0,0,0-4.7,2.908c-2.191,2.687-5.646,3.766-7.964,6.344-.712.792-2.109.914-3.354.938-2.189.041-4.447-.521-6.46,1.18-.794.672-2.144-.148-2.893-.826a2.326,2.326,0,0,0-3.206-.343c-1.193.9-1.846.028-2.582-.485-2.474-1.723-3.631-.382-4,1.946a7.748,7.748,0,0,1-1.326,3.631,2.794,2.794,0,0,1-2.365,1.279,4.907,4.907,0,0,0-1.908.227c-2.891,1.318-5.118-.633-7.451-1.595a2.806,2.806,0,0,0-3.653.934c-1.929,2.208-3.7,4.573-7.046,4.758a3.528,3.528,0,0,0-1.524.97c-1.852,1.7-2.526,4.277-4.618,5.857-1.146.867-.433,2.547-.189,3.76.219,1.071.157,2.075-.734,2.281-1.238.29-.755,1.869-1.9,2h.854c1.165.191,1.6.764,1.075,1.925-.354.783-.607,1.595-1.032,2.367a3.149,3.149,0,0,0-.021,3.588,1.9,1.9,0,0,1-.049,2.556,6.161,6.161,0,0,0-1.277,4.075c0,1.652-1,2.728-2.3,2.29-1.88-.629-2.792.509-3.861,1.552-1.59,1.554-2.423,3.65-3.822,5.35a6.485,6.485,0,0,1-2.756,2,15.118,15.118,0,0,0-6.554,4.887,9.8,9.8,0,0,1-6.511,3.94c-.646.133-1.264.382-1.912.459-.841.1-1.543.316-1.708,1.292a1.436,1.436,0,0,0,1.071,1.7,1.426,1.426,0,0,1,1.049,1.073c.389,3.262,2.318,6.095,2.58,9.387a3.447,3.447,0,0,1-1.069,2.989c-3.861-.9-4.054-1.56-1.431-5.208a5,5,0,0,1-2.515-2.421c-.927-1.777-3.245-2.3-4.64-3.852a9.086,9.086,0,0,1-2.348-3.228c-.541-1.627-1.792-1.91-3.365-1.084-2.017,1.06-2.247,1.635-1.27,3.41A5.815,5.815,0,0,0,590,146.41c2.936,2.219,2.874,5.979,4.6,8.827.719,1.187-.487,2.425-1.419,3.365a46.922,46.922,0,0,0-6.369,7.689,2.549,2.549,0,0,0-1.112-.582c-.957-.193-1.5-1.425-2.539-1.1s-1.165,1.316-1.339,2.309c-.127.725-1.075.9-1.67,1.27-2.569,1.612-2.715,2.517-.854,4.726,1.691,2.007,3.078,4.236,5.3,5.82a2.94,2.94,0,0,1,1.168,3.361c-.431,1.391.23,2.406,1.869,2.32,1.15-.06,1.667.592,2.148,1.5,1.532,2.893,1.507,6.048,1.713,9.183.167,2.543-.783,5.131,1.38,7.554,1.635,1.833-.788,6.267-3.324,6.475a3.755,3.755,0,0,0-2.311,1.371c-.91.818-.6,1.818.618,2.054.6.118,1.311.142,1.449.7.5,2.03,2.11,3.9,1.088,6.172-.457,1.013-.687,1.852.436,2.58.815.53.431,1.414.408,2.122-.054,1.588.045,3,1.494,4.088a1.674,1.674,0,0,1,.283,2.779c-1.086,1.27-.908,3.09-1.352,4.651-.251.888-.114,1.843-1.62,2.326a4.623,4.623,0,0,0-2.768,3.028,3.581,3.581,0,0,0,1.449,3.588c.77.562.775,1.541,1.427,2.116.32-.438.936-.7,1.21-1.18,1.129-1.964,2.129-1.809,3.558.2-.524.667-1.406,1.028-1.766,1.9.242,1.715,1.455,1.792,2.807,1.7.841-.056,1.814-.161,1.9,1.06.058.807.3,1.813-1.045,1.938-.3.026-.826.283-.818.406.18,2.644-1.689,3.35-3.653,4.09-.768.29-1.095,1.2-1.487,1.9-.421.755-.431,1.545-1.7,1.807-1.238.255-1.406,1.968-1.676,3.1a6.609,6.609,0,0,1-3.477,4.88c-1.4.682-1.384,2.073-1.657,3.226-.59,2.494-.867,2.929-3.247,3.165a1.8,1.8,0,0,0-1.459.685c-.725,1.307-2.08,1.532-3.247,2.1-.326-.421-1.013-.674-1.022-1.264-.015-.815-.283-1.064-1.1-1.092-1.049-.039-.807.964-1.137,1.215-.689.521-.058,1.337-.94,1.891-1.665,1.045-2.073-.575-3.017-1a2.5,2.5,0,0,0-2.344,2.189c-.073.667-.59,1.2-.888,1.215a1.519,1.519,0,0,0-1.678,1.768c.049,1.174-.371,2.365.788,3.457a3.7,3.7,0,0,1-1.039,6.125c-.755.376-.82,1.3-.586,1.449.682.433.375,1.1.53,1.582.26.809-.021,1.311-1.221,1.088-5.985-1.114-5.567-.217-7.734,3.914a13.421,13.421,0,0,0,4.545,3.719c2.069.841,2.942,2.67,3.831,4.492.406.828.747,1.728,1.925,1.485,2.447-.5,4.142.8,5.277,2.605A5.54,5.54,0,0,0,572.906,315a8.375,8.375,0,0,1,3.414,1.307,8.975,8.975,0,0,0,6.4,1.751c1.189-.182,2.408-.318,2.644,1.661a3.736,3.736,0,0,0,2.693,3.183c1.176.313,1.081,1.105,1.056,1.951a2.329,2.329,0,0,0,1.723,2.5c2.155.466,4.294,1.622,6.618.522a1.769,1.769,0,0,1,1.5.346c2.693,1.562,5.421,3,8.748,1.6a3.953,3.953,0,0,1,3.153.2c1.667.895,2.807.395,3.867-.9,1.921-2.35,4.595-2.423,6.352.034.772,1.077,1.389,2.047,2.822,2.1.682.026.919.742,1.013,1.082.584,2.1,2.367,2.007,3.651,1.592,1.554-.5,2.253-.174,2.809,1.165.313.751.764,1.4,1.7,1.271a2.185,2.185,0,0,1,2.178,1.041c1.676,1.992,3.174,3.108,6.133,1.721,1.994-.936,3.651-.758,5.133.878a3.823,3.823,0,0,0,3.2,1.082c2.084-.049,4.3,1.122,4.578,2.989a3.575,3.575,0,0,0,1.8,2.567,6.442,6.442,0,0,1,2.386,3.6,6.22,6.22,0,0,0,1.028,2.367c.71.94,1.315,1.912.5,3.217a1.674,1.674,0,0,0,.375,1.891c1.7,1.745,3.565,3.185,6.189,2.977a2.3,2.3,0,0,1,2.584,1.279,2.688,2.688,0,0,0,2.755,1.764c.562-.043,1.043.59,1.494,1.017.977.921,1.749,2.022,3.412,2,.985-.015,2.039,3.189,1.689,4.835a9.913,9.913,0,0,0-.635,3.2c.27,2.55.961,3.277,3.635,2.953,3.878-.472,6.007,1.618,5.374,5.376a15.679,15.679,0,0,0,0,3.833c.049.6.639,1.481,1.028,1.431,3.054-.4,3.53,3.331,5.987,3.665,3.221.438,6.41-.167,9.6-.59a30.293,30.293,0,0,1,4.264-.339c2.768.041,4.715-1.324,6.591-2.917,1.105-.942,1.989-2.155,3.653-1.876.837.142.884-1.095,1.715-.869.137-.069.275,0,.423.215,2.142,3.084,5.335,2.927,8.535,2.783a3.242,3.242,0,0,1,2.146.4c1.837,1.249,2.932,1.17,4.466-.2a12.186,12.186,0,0,0,1.067-1.067,2.032,2.032,0,0,1,3.217-.225,13.407,13.407,0,0,1,2.118,1.725,1.547,1.547,0,0,0,1.5.648c1.5-.182,2.623.3,2.979,1.91.109.491.386.627.861.652a5.915,5.915,0,0,1,2.575,1.243c1.326.768,2.4,1.818,4.245,1.908,1.185.058,2.333,1.77,3.38,2.854a1.511,1.511,0,0,1-.155,1.461c-2.788,4.307-5.494,8.657-8.466,12.855a51.016,51.016,0,0,0-5.415,8.906c-.247.562-.455,1.14-.959,1.38l.953-.137a1.385,1.385,0,0,0,1.871.62c1.526-1.414,2.586-.663,3.537.571,2.73-1.717,2.854-1.683,4.638-.543a6.349,6.349,0,0,1,1.665,1.541c1.629,2.157,3.157,4.391,4.721,6.595l.137.481a.362.362,0,0,1,.1-.238c1.264-1.217.925-2.865,1.217-4.3,1.367-6.739,2.537-13.518,3.824-20.276.906-4.754,1.734-9.526,2.605-14.289.964-5.258,1.683-10.565,2.831-15.78a71.731,71.731,0,0,0,1.884-17.3,1.149,1.149,0,0,0-.436-1.069c-1.631-1.107-2.414-2.972-3.837-4.275a2.385,2.385,0,0,1-.41-3.391,2.164,2.164,0,0,0-.075-2.743,38.254,38.254,0,0,0-3.129-3.7c-.532-.47-1.273-1.107-1.706-.974-1.768.552-2.02-.927-2.811-1.762-.942-.994-1.987-1.994-1.874-3.427.341-4.269.073-8.539.2-12.806.017-.53-.03-1.2.625-1.492,1.725-.77,3.532-1.358,4.94-2.743.255-.249.987-.133,1.453-.009s.97.3,1.268-.043c1.346-1.556,3.241-1.15,5.086-1.509.3,2.575,3.172,1.509,4.226,3.185,1.071-.556,1.747-1.391,2.835-1.71-.5-1.062-1.1-1.912-.811-2.936.556-1.964-.543-3.444-1.155-5.17-.682-1.921-1.846-1.792-3.114-1.625a16.306,16.306,0,0,1-7.9-.466,1.775,1.775,0,0,0-2.35.856v-.427a2.026,2.026,0,0,1-.652-1.706c-.043-3.344.028-6.7-.262-10.026-.163-1.886.7-2.7,2.2-2.708a3.827,3.827,0,0,0,2.992-1.56c.813-.882,2.874-1.131,3.356-.189,1.622,3.165,4.457,2.648,7.1,2.5,3.556-.2,7.108-.367,10.672-.412,3.06-.036,6.116-.281,9.176-.386.509-.017.814-.421,1.279-.444l.854.425c-2.144-1.946-2.344-2.876-1.3-4.917.661-1.29,2.009-1.056,2.271-.382.931,2.408,4.054,2.88,4.262,5.715,1.142-.62,2.165-.571,2.876-1.268l.854-.427c-.921-.333-1.182-.981-.633-1.7a7.092,7.092,0,0,1,3-2.084,5.845,5.845,0,0,0,3.009-2.376,5.572,5.572,0,0,1,4.929-2.52,2.713,2.713,0,0,1,.3,2.678c-1.03,2.419.266,4.037,1.813,5.312a7.619,7.619,0,0,1,2.962,6.666,4.874,4.874,0,0,0,.788,3.668c.678.837.152,2.1.268,3.161.271,2.483.431,2.547,2.987,2.161a1.793,1.793,0,0,0,1.71-3.017Z" transform="translate(-520.421 -52.931)" fill="#12263f"/>
                      </g>
                    </g>
                    <g id="Grupo_88816" data-name="Grupo 88816" transform="translate(636.955 85.076)">
                      <path id="Trazado_139641" data-name="Trazado 139641" d="M652.849,100.983a27.947,27.947,0,1,0-37.8,26.156c.075.116.144.232.223.346l8.724,13.6a1.068,1.068,0,0,0,1.809,0l8.758-13.649c.069-.1.131-.2.2-.3A27.953,27.953,0,0,0,652.849,100.983Z" transform="translate(-596.954 -73.035)" fill="url(#linear-gradient)"/>
                    </g>
                    <g id="Grupo_88837" data-name="Grupo 88837" transform="translate(640.824 88.732)">
                      <g id="Grupo_18531" data-name="Grupo 18531" transform="translate(0 0)">
                        <g id="Grupo_18423" data-name="Grupo 18423" transform="translate(0 0)">
                          <g id="Grupo_18421" data-name="Grupo 18421">
                            <g id="Grupo_18420" data-name="Grupo 18420">
                              <g id="Grupo_18419" data-name="Grupo 18419">
                                <path id="Trazado_40936" data-name="Trazado 40936" d="M241.576,2169.2a23.477,23.477,0,1,1-23.476-23.476A23.476,23.476,0,0,1,241.576,2169.2Z" transform="translate(-194.623 -2145.721)" fill="#fff"/>
                              </g>
                            </g>
                          </g>
                          <path id="Trazado_40937" data-name="Trazado 40937" d="M241.83,2169.474a23.476,23.476,0,1,0-23.476,23.477A23.384,23.384,0,0,0,241.83,2169.474Z" transform="translate(-194.877 -2145.998)" fill="url(#radial-gradient)"/>
                          <path id="Trazado_40938" data-name="Trazado 40938" d="M238.67,2171.874a17.919,17.919,0,1,0-17.919,17.92A17.855,17.855,0,0,0,238.67,2171.874Z" transform="translate(-197.202 -2148.32)" fill="none" stroke="#00223d" stroke-miterlimit="10" stroke-width="2"/>
                          <g id="Grupo_18422" data-name="Grupo 18422" transform="translate(4.159 13.18)">
                            <path id="Trazado_40939" data-name="Trazado 40939" d="M240.965,2164.488a23.479,23.479,0,0,1-40.42,23.379,23.4,23.4,0,0,0,40.42-23.379Z" transform="translate(-200.545 -2164.488)" fill="#eceef0"/>
                          </g>
                        </g>
                      </g>
                      <g id="Grupo_88824" data-name="Grupo 88824" transform="translate(-230.882 -226.792)">
                        <g id="Grupo_88822" data-name="Grupo 88822" transform="translate(238.909 234.898)">
                          <path id="Trazado_139645" data-name="Trazado 139645" d="M270.264,250.576A15.678,15.678,0,1,1,254.587,234.9,15.678,15.678,0,0,1,270.264,250.576Z" transform="translate(-238.909 -234.898)" fill="#12263f"/>
                        </g>
                        <g id="Grupo_88823" data-name="Grupo 88823" transform="translate(251.985 240.528)">
                          <path id="Trazado_139646" data-name="Trazado 139646" d="M300.486,260.766c-.719.228-1.923,1.281-1.58,1.945s1.8.467,2.158.318.6-1.092.532-1.563A.782.782,0,0,0,300.486,260.766Z" transform="translate(-298.846 -260.705)" fill="#fff"/>
                          <path id="Trazado_139647" data-name="Trazado 139647" d="M325.668,284.115c.614.262,2.059.26,2.25-.371s-.884-1.332-1.215-1.441-1.073.374-1.325.72A.655.655,0,0,0,325.668,284.115Z" transform="translate(-319.445 -277.579)" fill="#fff"/>
                          <path id="Trazado_139648" data-name="Trazado 139648" d="M321.533,298.158c-.944-.068-3.653,1.37-3.652,2.158s1.141,2.384,2.28,3.192,2.64,1.039,3.317.482.964-3.38.515-4.11A3.792,3.792,0,0,0,321.533,298.158Z" transform="translate(-313.728 -289.985)" fill="#fff"/>
                          <path id="Trazado_139649" data-name="Trazado 139649" d="M306.693,277.817a1.11,1.11,0,0,0,1.059,1.215c.493,0,.777-.4.847-1.013S306.834,277.143,306.693,277.817Z" transform="translate(-304.966 -273.775)" fill="#fff"/>
                          <path id="Trazado_139650" data-name="Trazado 139650" d="M323.77,275.914a.917.917,0,0,0-1.261-.266c-.3.226-.278.605-.016,1.013S324.02,276.395,323.77,275.914Z" transform="translate(-317.174 -272.277)" fill="#fff"/>
                        </g>
                        <path id="Trazado_139651" data-name="Trazado 139651" d="M270.177,284.152c-2.795,0-4.465-.409-5.455-1.917a29.99,29.99,0,0,1-1.673-4.791,48.188,48.188,0,0,0-2.7-7.525,2.048,2.048,0,0,0-1.519-1.158,3.9,3.9,0,0,0-2.692,1.344c-1.136,1.144-4.306,5.087-4.338,5.127a.5.5,0,0,1-.6.1.313.313,0,0,1-.129-.486c.131-.163,3.225-4.012,4.389-5.184a4.8,4.8,0,0,1,3.473-1.6,2.848,2.848,0,0,1,2.206,1.554,48.088,48.088,0,0,1,2.758,7.658,34.171,34.171,0,0,0,1.6,4.632c1.141,1.737,3.325,1.7,9.473,1.337a.414.414,0,0,1,.467.325.386.386,0,0,1-.4.376C273.121,284.058,271.519,284.152,270.177,284.152Z" transform="translate(-9.453 -25.92)" fill="#fff"/>
                        <path id="Trazado_139652" data-name="Trazado 139652" d="M250.322,279.3l3.491-3.345s1.878-2.517,3.781-2.327c1.454.146,2.24,4.2,3.345,7.854,1.891,6.254,2.182,7.126,4.509,7.563,0,0-8.294,1.29-12.508-2.181A7.979,7.979,0,0,1,250.322,279.3Z" transform="translate(-8.775 -30.271)" fill="#fff"/>
                      </g>
                    </g>
                  </g>
                </g>
                <g id="Grupo_88830" data-name="Grupo 88830" transform="translate(-80 -18)">
                  <g transform="matrix(1, 0, 0, 1, 991.04, 1673.9)" filter="url(#Rectángulo_33811)">
                    <path id="Rectángulo_33811-2" data-name="Rectángulo 33811" d="M10,0H75A10,10,0,0,1,85,10V162a0,0,0,0,1,0,0H10A10,10,0,0,1,0,152V10A10,10,0,0,1,10,0Z" transform="translate(380.96 169.1) rotate(90)" fill="#deecbf"/>
                  </g>
                  <text id="normatividad_y_jerarquía_" data-name="normatividad
y jerarquía " transform="translate(1218 1876)" fill="#12263f" font-size="19" font-family="Roboto-Black, Roboto" font-weight="800"><tspan x="0" y="0">NORMATIVIDAD</tspan><tspan x="0" y="18">Y JERARQUÍA </tspan></text>
                  <rect id="Rectángulo_33812" data-name="Rectángulo 33812" width="120" height="13" transform="translate(1218 1898)" fill="url(#linear-gradient)"/>
                  <text id="para_el_manejo_de_desastres_en_Colombia" data-name="para el manejo de desastres en Colombia" transform="translate(1222 1906)" fill="#12263f" font-size="5" font-family="Roboto-Black, Roboto" font-weight="800"><tspan x="0" y="0">PARA EL MANEJO DE DESASTRES EN COLOMBIA</tspan></text>
                </g>
                <g id="Grupo_88831" data-name="Grupo 88831" transform="translate(1138.513 1917.944)">
                  <path id="Trazado_139642" data-name="Trazado 139642" d="M672.224,197.858a27.947,27.947,0,1,0-37.8,26.156c.075.116.144.232.223.346l8.724,13.6a1.068,1.068,0,0,0,1.809,0l8.758-13.649c.069-.1.131-.2.2-.3A27.953,27.953,0,0,0,672.224,197.858Z" transform="translate(-616.329 -169.91)" fill="url(#linear-gradient)"/>
                </g>
                <g id="Grupo_88832" data-name="Grupo 88832" transform="translate(1142.802 1921.7)">
                  <g id="Grupo_18531-2" data-name="Grupo 18531" transform="translate(0 0)">
                    <g id="Grupo_18423-2" data-name="Grupo 18423" transform="translate(0 0)">
                      <g id="Grupo_18421-2" data-name="Grupo 18421">
                        <g id="Grupo_18420-2" data-name="Grupo 18420">
                          <g id="Grupo_18419-2" data-name="Grupo 18419">
                            <path id="Trazado_40936-2" data-name="Trazado 40936" d="M241.576,2169.2a23.477,23.477,0,1,1-23.476-23.476A23.476,23.476,0,0,1,241.576,2169.2Z" transform="translate(-194.623 -2145.721)" fill="#fff"/>
                          </g>
                        </g>
                      </g>
                      <path id="Trazado_40937-2" data-name="Trazado 40937" d="M241.83,2169.474a23.476,23.476,0,1,0-23.476,23.477A23.384,23.384,0,0,0,241.83,2169.474Z" transform="translate(-194.877 -2145.998)" fill="url(#radial-gradient)"/>
                      <path id="Trazado_40938-2" data-name="Trazado 40938" d="M238.67,2171.874a17.919,17.919,0,1,0-17.919,17.92A17.855,17.855,0,0,0,238.67,2171.874Z" transform="translate(-197.202 -2148.32)" fill="none" stroke="#00223d" stroke-miterlimit="10" stroke-width="2"/>
                      <g id="Grupo_18422-2" data-name="Grupo 18422" transform="translate(4.159 13.18)">
                        <path id="Trazado_40939-2" data-name="Trazado 40939" d="M240.965,2164.488a23.479,23.479,0,0,1-40.42,23.379,23.4,23.4,0,0,0,40.42-23.379Z" transform="translate(-200.545 -2164.488)" fill="#eceef0"/>
                      </g>
                    </g>
                  </g>
                  <g id="Grupo_88824-2" data-name="Grupo 88824" transform="translate(-230.882 -226.792)">
                    <g id="Grupo_88822-2" data-name="Grupo 88822" transform="translate(238.909 234.898)">
                      <path id="Trazado_139645-2" data-name="Trazado 139645" d="M270.264,250.576A15.678,15.678,0,1,1,254.587,234.9,15.678,15.678,0,0,1,270.264,250.576Z" transform="translate(-238.909 -234.898)" fill="#12263f"/>
                    </g>
                    <path id="Trazado_139656" data-name="Trazado 139656" d="M466.51,623.376c-1.087,1.812-1.9,1.664-1.9,1.664,1.832-3-1.191-4.643-3.662-5.975-1.613-.87-.919-1.9-1.181-2.066-.948.576-7.587,4.27-4.838,8.04,0,0-.886.157-2.046-1.918a8.836,8.836,0,0,0-1.749,4.917c0,4.693,5.092,5.848,7.509,6.112l-.149,2.348c-.471-.349-1.7-1.22-2.193-1.162-.555.066,1.592,1.915,2.034,2.19l-.113,1.942s.22.918,1.608.918,1.618-.918,1.618-.918l-.231-2.476a3.869,3.869,0,0,0,2.613-3.588,6.034,6.034,0,0,0,4.052-5.559A7.8,7.8,0,0,0,466.51,623.376Zm-9.494,7.658c0-1.521,2.3-3.48,2.753-3.48.485,0,2.755,1.958,2.755,3.48s-1.147,2.031-2.755,2.031C458.629,633.065,457.016,632.557,457.016,631.034Zm4.112,4.715-.1-1.617a11.83,11.83,0,0,0,2.067-.457A2.958,2.958,0,0,1,461.129,635.749Z" transform="translate(-204.925 -378.598)" fill="#fff"/>
                  </g>
                </g>
              </g>
            </g>
            <g id="Grupo_88833" data-name="Grupo 88833" transform="translate(1068.813 1797.646)">
              <path id="Trazado_139644" data-name="Trazado 139644" d="M633.474,165.565a27.947,27.947,0,1,0-37.8,26.158c.075.114.144.23.223.343l8.724,13.6a1.068,1.068,0,0,0,1.809,0l8.758-13.649c.069-.1.131-.2.2-.3A27.953,27.953,0,0,0,633.474,165.565Z" transform="translate(-577.579 -137.619)" fill="url(#linear-gradient)"/>
            </g>
            <g id="Grupo_88834" data-name="Grupo 88834" transform="translate(1073.262 1800.7)">
              <g id="Grupo_18531-3" data-name="Grupo 18531" transform="translate(0 0)">
                <g id="Grupo_18423-3" data-name="Grupo 18423" transform="translate(0 0)">
                  <g id="Grupo_18421-3" data-name="Grupo 18421">
                    <g id="Grupo_18420-3" data-name="Grupo 18420">
                      <g id="Grupo_18419-3" data-name="Grupo 18419">
                        <path id="Trazado_40936-3" data-name="Trazado 40936" d="M241.576,2169.2a23.477,23.477,0,1,1-23.476-23.476A23.476,23.476,0,0,1,241.576,2169.2Z" transform="translate(-194.623 -2145.721)" fill="#fff"/>
                      </g>
                    </g>
                  </g>
                  <path id="Trazado_40937-3" data-name="Trazado 40937" d="M241.83,2169.474a23.476,23.476,0,1,0-23.476,23.477A23.384,23.384,0,0,0,241.83,2169.474Z" transform="translate(-194.877 -2145.998)" fill="url(#radial-gradient)"/>
                  <path id="Trazado_40938-3" data-name="Trazado 40938" d="M238.67,2171.874a17.919,17.919,0,1,0-17.919,17.92A17.855,17.855,0,0,0,238.67,2171.874Z" transform="translate(-197.202 -2148.32)" fill="none" stroke="#00223d" stroke-miterlimit="10" stroke-width="2"/>
                  <g id="Grupo_18422-3" data-name="Grupo 18422" transform="translate(4.159 13.18)">
                    <path id="Trazado_40939-3" data-name="Trazado 40939" d="M240.965,2164.488a23.479,23.479,0,0,1-40.42,23.379,23.4,23.4,0,0,0,40.42-23.379Z" transform="translate(-200.545 -2164.488)" fill="#eceef0"/>
                  </g>
                </g>
              </g>
              <g id="Grupo_88824-3" data-name="Grupo 88824" transform="translate(-230.882 -226.792)">
                <g id="Grupo_88822-3" data-name="Grupo 88822" transform="translate(238.909 234.898)">
                  <path id="Trazado_139645-3" data-name="Trazado 139645" d="M270.264,250.576A15.678,15.678,0,1,1,254.587,234.9,15.678,15.678,0,0,1,270.264,250.576Z" transform="translate(-238.909 -234.898)" fill="#12263f"/>
                </g>
                <g id="Grupo_88829" data-name="Grupo 88829" transform="translate(-198.165 -189.286)">
                  <path id="Trazado_139657" data-name="Trazado 139657" d="M452.686,503.918a13.871,13.871,0,0,0-2.28.159c.551.129,2.492.237,3.544,1.3l-1.383.754a20.573,20.573,0,0,1,2.263,2.263s-2.317-.953-5.155-1.886c0,0,.9-.6,1.418-1a6.558,6.558,0,0,0-2.71-.967c-3.541,1.1-5.607,3.279-4.932,3.6,3.419,1.65,17.183,1.535,18.636.406C462.86,507.952,458.707,504,452.686,503.918Z" transform="translate(0 -60.724)" fill="#fff"/>
                  <path id="Trazado_139658" data-name="Trazado 139658" d="M466.363,436.365l-2.185-2.175-1.554.107.356.892-2.14.089-.892,1.159.357-1.961,1.6-.267-.624-.8,1.611-.49-3.273-3.258a1.236,1.236,0,0,0-1.92-.218l-8.09,5.134c-.579.392-.524,1.137.171,1.216l1.909.2-.706,6.545a1.38,1.38,0,0,0,.079.627,10.989,10.989,0,0,1,6.5-1.374c.07.008.139.019.208.028l.285-2.644a1.1,1.1,0,0,1,1.205-.971l1.959.211a1.094,1.094,0,0,1,.971,1.206l-.385,3.57a11.758,11.758,0,0,1,1.461.991l.741-6.872,1.91.2C466.622,437.591,466.84,436.876,466.363,436.365Zm-10,2.369-.14,1.3a.833.833,0,0,1-.917.739l-1.49-.161a.832.832,0,0,1-.738-.917l.14-1.3a.833.833,0,0,1,.917-.739l1.49.161A.833.833,0,0,1,456.361,438.734Z" transform="translate(-4.783)" fill="#fff"/>
                </g>
              </g>
            </g>
          </g>
        </g>
      </g>
    </g>
  </g>
</svg>
