<svg xmlns="http://www.w3.org/2000/svg" xmlns:xlink="http://www.w3.org/1999/xlink" width="407.005" height="406.57" viewBox="0 0 407.005 406.57">
  <defs>
    <linearGradient id="linear-gradient" x1="0.5" x2="0.5" y2="1" gradientUnits="objectBoundingBox">
      <stop offset="0" stop-color="#a9bc62"/>
      <stop offset="1" stop-color="#7eb501"/>
    </linearGradient>
    <linearGradient id="linear-gradient-4" x1="0.5" x2="0.5" y2="1" gradientUnits="objectBoundingBox">
      <stop offset="0" stop-color="#d9a171"/>
      <stop offset="1" stop-color="#a66d58"/>
    </linearGradient>
  </defs>
  <g id="Grupo_91150" data-name="Grupo 91150" transform="translate(-222.406 -2854.946)">
    <g id="Grupo_91118" data-name="Grupo 91118">
      <g id="Grupo_79784" data-name="Grupo 79784" transform="translate(-450.381 -1843.753)">
        <g id="Grupo_56942" data-name="Grupo 56942" transform="translate(672.787 4698.699)">
          <rect id="Rectángulo_5293" data-name="Rectángulo 5293" width="187.426" height="263.879" transform="translate(172.846 13.973)" fill="#344154" opacity="0.15"/>
          <g id="Grupo_56682" data-name="Grupo 56682" transform="translate(268.512 281.75)">
            <g id="Grupo_56681" data-name="Grupo 56681">
              <path id="Trazado_101894" data-name="Trazado 101894" d="M943.031,4997.732a16.439,16.439,0,0,1,4.006-1.742l.825-3.966,6.7-.117.964,3.935a16.4,16.4,0,0,1,4.066,1.6l3.387-2.22,4.821,4.656-2.1,3.461a16.387,16.387,0,0,1,1.742,4.008l3.966.826.118,6.7-3.934.964a16.431,16.431,0,0,1-1.6,4.065l2.219,3.387-4.655,4.823-3.462-2.1a16.442,16.442,0,0,1-4.008,1.742l-.826,3.967-6.7.116-.965-3.934a16.447,16.447,0,0,1-4.065-1.6l-3.387,2.219-4.822-4.654,2.1-3.461a16.4,16.4,0,0,1-1.742-4.008l-3.966-.827-.118-6.7,3.935-.964a16.438,16.438,0,0,1,1.6-4.065l-2.22-3.387,4.656-4.823,3.463,2.1Zm3.572,8.927a7.189,7.189,0,1,0,10.165-.179A7.188,7.188,0,0,0,946.6,5006.659Z" transform="translate(-931.599 -4991.907)" fill="#f5f5f5"/>
            </g>
          </g>
          <g id="Grupo_56683" data-name="Grupo 56683" transform="translate(0 327.179)">
            <path id="Trazado_101895" data-name="Trazado 101895" d="M1050.567,5035.735s.4-.017,1.205-.025l3.667-.022v.1c-18.946.1-96.107.171-188.352.171-53.367-.024-101.673-.048-136.648-.062-17.479-.03-31.624-.056-41.41-.07l-11.258-.042c-1.281-.009-2.26-.018-2.928-.022s-1-.021-1-.021.337-.017,1-.022l2.928-.022,11.258-.04,41.41-.07,136.648-.064c92.245,0,169.406.073,188.352.172v.1l-3.667-.023C1050.964,5035.751,1050.567,5035.735,1050.567,5035.735Z" transform="translate(-673.846 -5035.516)" fill="#1a2e35"/>
          </g>
          <g id="Grupo_56703" data-name="Grupo 56703" transform="translate(156.268 0)">
            <g id="Grupo_56699" data-name="Grupo 56699">
              <g id="Grupo_56685" data-name="Grupo 56685">
                <rect id="Rectángulo_5298" data-name="Rectángulo 5298" width="188.734" height="266.303" transform="translate(0.219 0.219)" fill="#fff"/>
                <g id="Grupo_56684" data-name="Grupo 56684">
                  <path id="Trazado_101896" data-name="Trazado 101896" d="M1012.806,4987.969c0-1.771-.081-108.982-.2-266.3l.2.2-188.712.02h-.022l.22-.218c-.016,99.792-.03,192.072-.042,266.3l-.178-.178,188.734.178-188.734.177h-.177v-.177c-.011-74.229-.026-166.51-.042-266.3v-.221h.24l188.712.02h.2v.2C1012.888,4878.987,1012.808,4986.2,1012.806,4987.969Z" transform="translate(-823.853 -4721.446)" fill="#1a2e35"/>
                </g>
              </g>
              <rect id="Rectángulo_5299" data-name="Rectángulo 5299" width="80.569" height="18.473" rx="6.688" transform="translate(12.933 177.029)" fill="#f5f5f5"/>
              <rect id="Rectángulo_5300" data-name="Rectángulo 5300" width="37.832" height="18.473" rx="6.688" transform="translate(52.421 177.029)" fill="#f5f5f5"/>
              <rect id="Rectángulo_5301" data-name="Rectángulo 5301" width="166.131" height="18.473" rx="6.688" transform="translate(12.552 214.894)" fill="#f5f5f5"/>
              <g id="Grupo_56686" data-name="Grupo 56686" transform="translate(15.142 169.377)">
                <path id="Trazado_101897" data-name="Trazado 101897" d="M873.172,4884.255c0,.122-7.788.22-17.391.22s-17.393-.1-17.393-.22,7.786-.218,17.393-.218S873.172,4884.134,873.172,4884.255Z" transform="translate(-838.388 -4884.037)" fill="#1a2e35"/>
              </g>
              <g id="Grupo_56687" data-name="Grupo 56687" transform="translate(15.579 207.05)">
                <path id="Trazado_101898" data-name="Trazado 101898" d="M895.227,4920.419c0,.121-12.631.22-28.208.22s-28.211-.1-28.211-.22,12.628-.219,28.211-.219S895.227,4920.3,895.227,4920.419Z" transform="translate(-838.808 -4920.201)" fill="#1a2e35"/>
              </g>
              <rect id="Rectángulo_5302" data-name="Rectángulo 5302" width="81.203" height="20.194" rx="6.508" transform="translate(9.586 135.091)" fill="#e1e1e1"/>
              <rect id="Rectángulo_5303" data-name="Rectángulo 5303" width="169.097" height="20.194" rx="6.508" transform="translate(9.586 12.312)" fill="#e1e1e1"/>
              <g id="Grupo_56688" data-name="Grupo 56688" transform="translate(63.137 22.19)">
                <path id="Trazado_101899" data-name="Trazado 101899" d="M951.475,4742.966c0,.121-15,.22-33.505.22s-33.51-.1-33.51-.22,15-.219,33.51-.219S951.475,4742.845,951.475,4742.966Z" transform="translate(-884.46 -4742.747)" fill="#1a2e35"/>
              </g>
              <g id="Grupo_56689" data-name="Grupo 56689" transform="translate(0.05 37.177)">
                <path id="Trazado_101900" data-name="Trazado 101900" d="M1012.8,4757.352c0,.122-42.291.22-94.447.22-52.174,0-94.456-.1-94.456-.22s42.281-.219,94.456-.219C970.513,4757.133,1012.8,4757.231,1012.8,4757.352Z" transform="translate(-823.901 -4757.133)" fill="#ececec"/>
              </g>
              <g id="Grupo_56690" data-name="Grupo 56690" transform="translate(0.05 126.509)">
                <path id="Trazado_101901" data-name="Trazado 101901" d="M1012.8,4843.105c0,.122-42.291.22-94.447.22-52.174,0-94.456-.1-94.456-.22s42.281-.218,94.456-.218C970.513,4842.887,1012.8,4842.984,1012.8,4843.105Z" transform="translate(-823.901 -4842.887)" fill="#ececec"/>
              </g>
              <rect id="Rectángulo_5304" data-name="Rectángulo 5304" width="80.569" height="18.473" rx="6.688" transform="translate(12.933 57.641)" fill="#f5f5f5"/>
              <rect id="Rectángulo_5305" data-name="Rectángulo 5305" width="37.832" height="18.473" rx="6.688" transform="translate(52.421 57.641)" fill="#f5f5f5"/>
              <rect id="Rectángulo_5306" data-name="Rectángulo 5306" width="79.779" height="18.473" rx="6.688" transform="translate(11.01 95.506)" fill="#f5f5f5"/>
              <rect id="Rectángulo_34190" data-name="Rectángulo 34190" width="79.779" height="18.473" rx="6.688" transform="translate(98.904 95.506)" fill="#f5f5f5"/>
              <g id="Grupo_56691" data-name="Grupo 56691" transform="translate(15.142 49.989)">
                <path id="Trazado_101902" data-name="Trazado 101902" d="M873.172,4769.651c0,.12-7.788.22-17.391.22s-17.393-.1-17.393-.22,7.786-.219,17.393-.219S873.172,4769.53,873.172,4769.651Z" transform="translate(-838.388 -4769.433)" fill="#1a2e35"/>
              </g>
              <g id="Grupo_56692" data-name="Grupo 56692" transform="translate(104.819 49.989)">
                <path id="Trazado_101903" data-name="Trazado 101903" d="M951.86,4769.651c0,.12-6.132.22-13.693.22s-13.7-.1-13.7-.22,6.131-.219,13.7-.219S951.86,4769.53,951.86,4769.651Z" transform="translate(-924.472 -4769.433)" fill="#1a2e35"/>
              </g>
              <g id="Grupo_56693" data-name="Grupo 56693" transform="translate(15.579 87.662)">
                <path id="Trazado_101904" data-name="Trazado 101904" d="M895.227,4805.815c0,.121-12.631.219-28.208.219s-28.211-.1-28.211-.219,12.628-.22,28.211-.22S895.227,4805.694,895.227,4805.815Z" transform="translate(-838.808 -4805.596)" fill="#1a2e35"/>
              </g>
              <g id="Grupo_56694" data-name="Grupo 56694" transform="translate(117.822 244.374)">
                <path id="Trazado_101905" data-name="Trazado 101905" d="M991.986,4956.247c0,.122-12.32.219-27.514.219s-27.518-.1-27.518-.219,12.318-.219,27.518-.219S991.986,4956.127,991.986,4956.247Z" transform="translate(-936.954 -4956.028)" fill="#1a2e35"/>
              </g>
            </g>
            <g id="Grupo_56700" data-name="Grupo 56700" transform="translate(20.305 61.984)">
              <path id="Trazado_101938" data-name="Trazado 101938" d="M904.164,4787.781a9.672,9.672,0,0,1-1.3.328,15.429,15.429,0,0,1-9.723-1.393,5.6,5.6,0,0,1-1.495-1.131,3.567,3.567,0,0,1-.9-1.8,2.657,2.657,0,0,1,.433-2.089,2.028,2.028,0,0,1,2.128-.677,1.535,1.535,0,0,1,.935.79,1.97,1.97,0,0,1,.158,1.229,4.425,4.425,0,0,1-1.165,2.162,10.579,10.579,0,0,1-4.225,2.886,10.188,10.188,0,0,1-5.455.5,6.1,6.1,0,0,1-2.668-1.173,3.171,3.171,0,0,1-1.3-2.7,2.962,2.962,0,0,1,.58-1.468,2.3,2.3,0,0,1,1.327-.927,1.652,1.652,0,0,1,1.575.519,2.354,2.354,0,0,1,.565,1.557,3.187,3.187,0,0,1-.388,1.6,3.6,3.6,0,0,1-1.144,1.2,10.389,10.389,0,0,1-3.014,1.21c-2.045.581-4.281,1.206-6.553.7a6.175,6.175,0,0,1-3.015-1.635,4.329,4.329,0,0,1-1.307-3.222,2.855,2.855,0,0,1,.912-2.044,2.091,2.091,0,0,1,2.222-.236,1.718,1.718,0,0,1,.84.818,1.758,1.758,0,0,1,.1,1.162,3.314,3.314,0,0,1-1.315,1.735,17.043,17.043,0,0,1-7.58,2.881,7.663,7.663,0,0,1-3.947-.346,3.975,3.975,0,0,1-2.426-2.974,2.712,2.712,0,0,1,2.007-3.029,1.878,1.878,0,0,1,1.8.646,2.865,2.865,0,0,1,.631,1.75,3.492,3.492,0,0,1-.385,1.775,4.159,4.159,0,0,1-1.2,1.307,9.2,9.2,0,0,1-3.09,1.3c-2.065.548-4.24.932-6.165.223a5.3,5.3,0,0,1-2.342-1.707,3.8,3.8,0,0,1-.83-2.595,3.639,3.639,0,0,1,1.125-2.288,2.477,2.477,0,0,1,2.247-.672l.091.024,0,.089a6.514,6.514,0,0,1-1.651,4.479,6.815,6.815,0,0,1-2.95,2.011,5.6,5.6,0,0,1-2.211.283,6.444,6.444,0,0,1-.756-.143,5.847,5.847,0,0,0,2.924-.264,6.762,6.762,0,0,0,2.849-2.012,6.331,6.331,0,0,0,1.55-4.342l.094.114a2.219,2.219,0,0,0-2.006.628,3.37,3.37,0,0,0-1.021,2.115,4.239,4.239,0,0,0,3,3.974c1.81.658,3.913.294,5.96-.264a8.9,8.9,0,0,0,2.962-1.249,3.825,3.825,0,0,0,1.081-1.187,3.1,3.1,0,0,0,.334-1.577,2.494,2.494,0,0,0-.543-1.513,1.484,1.484,0,0,0-1.424-.51,2.315,2.315,0,0,0-1.679,2.583,3.57,3.57,0,0,0,2.185,2.646,7.3,7.3,0,0,0,3.732.309,16.65,16.65,0,0,0,7.369-2.807,2.915,2.915,0,0,0,1.153-1.491,1.249,1.249,0,0,0-.7-1.482,1.66,1.66,0,0,0-1.749.176,2.417,2.417,0,0,0-.758,1.734,3.885,3.885,0,0,0,1.182,2.891,5.75,5.75,0,0,0,2.8,1.518c2.121.482,4.3-.1,6.336-.686a10.03,10.03,0,0,0,2.894-1.147,3.205,3.205,0,0,0,1.014-1.053,2.788,2.788,0,0,0,.339-1.391,1.949,1.949,0,0,0-.453-1.284,1.235,1.235,0,0,0-1.182-.4,2.361,2.361,0,0,0-1.593,2.034,2.785,2.785,0,0,0,1.146,2.351,5.723,5.723,0,0,0,2.492,1.1,9.845,9.845,0,0,0,5.256-.459,10.232,10.232,0,0,0,4.1-2.771,4.094,4.094,0,0,0,1.1-1.988,1.39,1.39,0,0,0-.866-1.667,1.73,1.73,0,0,0-1.805.562,2.382,2.382,0,0,0-.391,1.858,4.032,4.032,0,0,0,2.238,2.759,15.3,15.3,0,0,0,5.77,1.655,16.209,16.209,0,0,0,3.82-.135c.432-.071.762-.131.982-.18A2,2,0,0,1,904.164,4787.781Z" transform="translate(-843.345 -4780.947)" fill="#12263f"/>
            </g>
            <g id="Grupo_56701" data-name="Grupo 56701" transform="translate(111.566 61.377)">
              <path id="Trazado_101939" data-name="Trazado 101939" d="M982.888,4786.8a5.638,5.638,0,0,1-1.058.526,9.669,9.669,0,0,1-3.315.7,10.184,10.184,0,0,1-5.2-1.217,6.476,6.476,0,0,1-2.534-2.225,3.013,3.013,0,0,1-.454-1.83,2.555,2.555,0,0,1,.977-1.736,1.65,1.65,0,0,1,1.025-.339,1.573,1.573,0,0,1,1.022.434,2.5,2.5,0,0,1,.682,2.075,3.665,3.665,0,0,1-1.057,2,8.75,8.75,0,0,1-1.843,1.406,10.962,10.962,0,0,1-4.6,1.471,8.788,8.788,0,0,1-5.03-.938,4.927,4.927,0,0,1-1.95-1.887,3.668,3.668,0,0,1-.446-1.342,3.248,3.248,0,0,1,.206-1.424,3.3,3.3,0,0,1,2.005-2.023,1.921,1.921,0,0,1,1.514.151,2.346,2.346,0,0,1,1.015,1.132,3.5,3.5,0,0,1-.111,2.949,6.108,6.108,0,0,1-2.005,2.206,10.99,10.99,0,0,1-5.651,1.954,11.217,11.217,0,0,1-5.847-1.257,8.8,8.8,0,0,1-2.378-1.771,4.027,4.027,0,0,1-1.18-2.7,2.667,2.667,0,0,1,1.622-2.4,1.639,1.639,0,0,1,1.512.18,2.21,2.21,0,0,1,.835,1.23,3.177,3.177,0,0,1-.568,2.724,8.431,8.431,0,0,1-1.939,1.868,11.849,11.849,0,0,1-9.512,2.035,6.425,6.425,0,0,1-3.859-2.31,3.569,3.569,0,0,1-.715-2.048,3.882,3.882,0,0,1,.507-2.015,2.562,2.562,0,0,1,1.555-1.24,2.2,2.2,0,0,1,1.841.411,3.384,3.384,0,0,1,1.243,3.087,4.156,4.156,0,0,1-1.488,2.52,5.584,5.584,0,0,1-2.2,1.117,10.849,10.849,0,0,1-3.384.211l-.877-.077a1.482,1.482,0,0,1-.3-.045,1.57,1.57,0,0,1,.3,0l.878.033a11.324,11.324,0,0,0,3.335-.288,5.451,5.451,0,0,0,2.109-1.11,3.951,3.951,0,0,0,1.38-2.395,3.131,3.131,0,0,0-1.167-2.83,1.918,1.918,0,0,0-1.6-.348,2.269,2.269,0,0,0-1.358,1.108,3.387,3.387,0,0,0,.215,3.71,6.086,6.086,0,0,0,3.664,2.153,11.5,11.5,0,0,0,9.193-2.005,8.116,8.116,0,0,0,1.839-1.778,2.758,2.758,0,0,0,.5-2.374,1.8,1.8,0,0,0-.671-1,1.206,1.206,0,0,0-1.128-.13,2.253,2.253,0,0,0-1.339,2.007,3.6,3.6,0,0,0,1.071,2.406,8.421,8.421,0,0,0,2.263,1.679,10.822,10.822,0,0,0,5.618,1.2,10.569,10.569,0,0,0,5.423-1.872,5.669,5.669,0,0,0,1.869-2.042,3.066,3.066,0,0,0,.108-2.584,1.681,1.681,0,0,0-2.014-1.052,2.9,2.9,0,0,0-1.735,1.766,2.847,2.847,0,0,0-.186,1.234,3.294,3.294,0,0,0,.395,1.185,4.52,4.52,0,0,0,1.788,1.732,8.407,8.407,0,0,0,4.8.907,10.628,10.628,0,0,0,4.448-1.4,8.438,8.438,0,0,0,1.773-1.336,3.329,3.329,0,0,0,.974-1.8,2.174,2.174,0,0,0-.569-1.8,1.242,1.242,0,0,0-1.641-.082,2.266,2.266,0,0,0-.868,1.521,2.736,2.736,0,0,0,.4,1.653,6.245,6.245,0,0,0,2.411,2.152,10.164,10.164,0,0,0,8.369.654C982.524,4786.987,982.874,4786.774,982.888,4786.8Z" transform="translate(-930.949 -4780.363)" fill="#d9a171"/>
            </g>
            <g id="Grupo_56702" data-name="Grupo 56702" transform="translate(18.624 100.574)">
              <path id="Trazado_101940" data-name="Trazado 101940" d="M908.33,4822.424a2,2,0,0,1-.323.164l-.967.438c-.853.378-2.115.93-3.776,1.555a30.752,30.752,0,0,1-6.248,1.662,24.072,24.072,0,0,1-4.04.245,13.7,13.7,0,0,1-4.5-.679,5.351,5.351,0,0,1-3.416-3.557,3.474,3.474,0,0,1,.331-2.686,3.042,3.042,0,0,1,2.327-1.569,2.578,2.578,0,0,1,2.418,1.562,3.976,3.976,0,0,1,.213,3,5.86,5.86,0,0,1-1.764,2.53,11.483,11.483,0,0,1-2.645,1.705,9.066,9.066,0,0,1-6.393.747,6.478,6.478,0,0,1-4.442-4.9,5.33,5.33,0,0,1-.012-1.782,3.427,3.427,0,0,1,.724-1.669,2.267,2.267,0,0,1,1.622-.936,1.631,1.631,0,0,1,1.555,1.086,4.355,4.355,0,0,1-.621,3.579,10.815,10.815,0,0,1-2.361,2.8,9.959,9.959,0,0,1-13.2-.2,5.624,5.624,0,0,1-1.71-3.013,3.45,3.45,0,0,1,.112-1.753,3.539,3.539,0,0,1,.987-1.436,2.935,2.935,0,0,1,1.569-.738,2.078,2.078,0,0,1,1.657.519,3.2,3.2,0,0,1,.753,3.155,5.885,5.885,0,0,1-1.746,2.646,14.195,14.195,0,0,1-7.948,3.7,12.348,12.348,0,0,1-5.4-.485,6.022,6.022,0,0,1-2.223-1.332,4.165,4.165,0,0,1-1.205-2.175,3.794,3.794,0,0,1,.219-2.365,2.336,2.336,0,0,1,1.769-1.378,2.646,2.646,0,0,1,2.054.563,1.947,1.947,0,0,1,.653,1.875,2.942,2.942,0,0,1-.972,1.59,6.164,6.164,0,0,1-1.426.947,16.469,16.469,0,0,1-2.766,1.057,15.689,15.689,0,0,1-4.041.6,10.262,10.262,0,0,1-1.423-.061,2.421,2.421,0,0,1,.361-.007c.239,0,.594,0,1.058-.021a16.6,16.6,0,0,0,6.716-1.755,5.985,5.985,0,0,0,1.366-.925,2.733,2.733,0,0,0,.885-1.468,1.688,1.688,0,0,0-.581-1.629,2.383,2.383,0,0,0-1.843-.489,2.044,2.044,0,0,0-1.544,1.228,3.49,3.49,0,0,0-.183,2.174,4.59,4.59,0,0,0,3.238,3.253,12.036,12.036,0,0,0,5.247.443,13.845,13.845,0,0,0,5.346-1.839,13.988,13.988,0,0,0,2.374-1.785,5.516,5.516,0,0,0,1.628-2.465,2.81,2.81,0,0,0-.639-2.743,1.99,1.99,0,0,0-2.675.229,3.107,3.107,0,0,0-.865,1.261,3.023,3.023,0,0,0-.093,1.54,5.213,5.213,0,0,0,1.591,2.776,9.533,9.533,0,0,0,12.616.176A10.386,10.386,0,0,0,878,4822.7a5,5,0,0,0,.645-1.578,2.952,2.952,0,0,0-.052-1.621,1.194,1.194,0,0,0-1.137-.81,1.845,1.845,0,0,0-1.3.772,3.9,3.9,0,0,0-.627,3.1,6.062,6.062,0,0,0,4.138,4.572,8.671,8.671,0,0,0,6.1-.711c1.829-.879,3.593-2.158,4.216-3.992a3.59,3.59,0,0,0-.183-2.707,2.205,2.205,0,0,0-2.058-1.365,2.685,2.685,0,0,0-2.047,1.384,3.125,3.125,0,0,0-.306,2.424,5.029,5.029,0,0,0,3.2,3.351,13.456,13.456,0,0,0,4.393.691,24.113,24.113,0,0,0,4-.208,31.375,31.375,0,0,0,6.223-1.581c1.665-.6,2.936-1.125,3.8-1.476l.983-.4A2.457,2.457,0,0,1,908.33,4822.424Z" transform="translate(-841.731 -4817.991)" fill="#12263f"/>
            </g>
            <g id="Grupo_91117" data-name="Grupo 91117" transform="translate(106.518 100.574)">
              <path id="Trazado_101940-2" data-name="Trazado 101940" d="M908.33,4822.424a2,2,0,0,1-.323.164l-.967.438c-.853.378-2.115.93-3.776,1.555a30.752,30.752,0,0,1-6.248,1.662,24.072,24.072,0,0,1-4.04.245,13.7,13.7,0,0,1-4.5-.679,5.351,5.351,0,0,1-3.416-3.557,3.474,3.474,0,0,1,.331-2.686,3.042,3.042,0,0,1,2.327-1.569,2.578,2.578,0,0,1,2.418,1.562,3.976,3.976,0,0,1,.213,3,5.86,5.86,0,0,1-1.764,2.53,11.483,11.483,0,0,1-2.645,1.705,9.066,9.066,0,0,1-6.393.747,6.478,6.478,0,0,1-4.442-4.9,5.33,5.33,0,0,1-.012-1.782,3.427,3.427,0,0,1,.724-1.669,2.267,2.267,0,0,1,1.622-.936,1.631,1.631,0,0,1,1.555,1.086,4.355,4.355,0,0,1-.621,3.579,10.815,10.815,0,0,1-2.361,2.8,9.959,9.959,0,0,1-13.2-.2,5.624,5.624,0,0,1-1.71-3.013,3.45,3.45,0,0,1,.112-1.753,3.539,3.539,0,0,1,.987-1.436,2.935,2.935,0,0,1,1.569-.738,2.078,2.078,0,0,1,1.657.519,3.2,3.2,0,0,1,.753,3.155,5.885,5.885,0,0,1-1.746,2.646,14.195,14.195,0,0,1-7.948,3.7,12.348,12.348,0,0,1-5.4-.485,6.022,6.022,0,0,1-2.223-1.332,4.165,4.165,0,0,1-1.205-2.175,3.794,3.794,0,0,1,.219-2.365,2.336,2.336,0,0,1,1.769-1.378,2.646,2.646,0,0,1,2.054.563,1.947,1.947,0,0,1,.653,1.875,2.942,2.942,0,0,1-.972,1.59,6.164,6.164,0,0,1-1.426.947,16.469,16.469,0,0,1-2.766,1.057,15.689,15.689,0,0,1-4.041.6,10.262,10.262,0,0,1-1.423-.061,2.421,2.421,0,0,1,.361-.007c.239,0,.594,0,1.058-.021a16.6,16.6,0,0,0,6.716-1.755,5.985,5.985,0,0,0,1.366-.925,2.733,2.733,0,0,0,.885-1.468,1.688,1.688,0,0,0-.581-1.629,2.383,2.383,0,0,0-1.843-.489,2.044,2.044,0,0,0-1.544,1.228,3.49,3.49,0,0,0-.183,2.174,4.59,4.59,0,0,0,3.238,3.253,12.036,12.036,0,0,0,5.247.443,13.845,13.845,0,0,0,5.346-1.839,13.988,13.988,0,0,0,2.374-1.785,5.516,5.516,0,0,0,1.628-2.465,2.81,2.81,0,0,0-.639-2.743,1.99,1.99,0,0,0-2.675.229,3.107,3.107,0,0,0-.865,1.261,3.023,3.023,0,0,0-.093,1.54,5.213,5.213,0,0,0,1.591,2.776,9.533,9.533,0,0,0,12.616.176A10.386,10.386,0,0,0,878,4822.7a5,5,0,0,0,.645-1.578,2.952,2.952,0,0,0-.052-1.621,1.194,1.194,0,0,0-1.137-.81,1.845,1.845,0,0,0-1.3.772,3.9,3.9,0,0,0-.627,3.1,6.062,6.062,0,0,0,4.138,4.572,8.671,8.671,0,0,0,6.1-.711c1.829-.879,3.593-2.158,4.216-3.992a3.59,3.59,0,0,0-.183-2.707,2.205,2.205,0,0,0-2.058-1.365,2.685,2.685,0,0,0-2.047,1.384,3.125,3.125,0,0,0-.306,2.424,5.029,5.029,0,0,0,3.2,3.351,13.456,13.456,0,0,0,4.393.691,24.113,24.113,0,0,0,4-.208,31.375,31.375,0,0,0,6.223-1.581c1.665-.6,2.936-1.125,3.8-1.476l.983-.4A2.457,2.457,0,0,1,908.33,4822.424Z" transform="translate(-841.731 -4817.991)" fill="#d9a171"/>
            </g>
          </g>
          <g id="Grupo_56941" data-name="Grupo 56941" transform="translate(5.36 100.556)">
            <g id="Grupo_56895" data-name="Grupo 56895" transform="translate(50.47)">
              <g id="Grupo_56891" data-name="Grupo 56891" transform="translate(0 11.739)">
                <g id="Grupo_56761" data-name="Grupo 56761" transform="translate(12.061)">
                  <g id="Grupo_56760" data-name="Grupo 56760">
                    <g id="Grupo_56759" data-name="Grupo 56759">
                      <g id="Grupo_56743" data-name="Grupo 56743">
                        <g id="Grupo_56742" data-name="Grupo 56742">
                          <g id="Grupo_56741" data-name="Grupo 56741">
                            <g id="Grupo_56740" data-name="Grupo 56740">
                              <g id="Grupo_56739" data-name="Grupo 56739">
                                <g id="Grupo_56738" data-name="Grupo 56738">
                                  <g id="Grupo_56737" data-name="Grupo 56737">
                                    <g id="Grupo_56736" data-name="Grupo 56736">
                                      <g id="Grupo_56735" data-name="Grupo 56735">
                                        <g id="Grupo_56734" data-name="Grupo 56734">
                                          <g id="Grupo_56733" data-name="Grupo 56733">
                                            <g id="Grupo_56732" data-name="Grupo 56732">
                                              <g id="Grupo_56731" data-name="Grupo 56731">
                                                <g id="Grupo_56730" data-name="Grupo 56730">
                                                  <g id="Grupo_56729" data-name="Grupo 56729">
                                                    <path id="Trazado_101953" data-name="Trazado 101953" d="M739.977,4790.142l-.953,76.725c-.163,13.048,2.266,32.248,22.906,31.563h0c17.864-1.944,22.6-18.854,22.742-31.031.066-5.776.132-10.591.178-11.185,0,0,19.555-1.595,21.206-20.91.8-9.332.875-28.691.742-46.206a36.106,36.106,0,0,0-33.488-35.717l-1.866-.136C751.246,4752.951,739.712,4769.942,739.977,4790.142Z" transform="translate(-739.017 -4753.242)" fill="#ffbf9d"/>
                                                  </g>
                                                </g>
                                              </g>
                                            </g>
                                          </g>
                                        </g>
                                      </g>
                                    </g>
                                  </g>
                                </g>
                              </g>
                            </g>
                          </g>
                        </g>
                      </g>
                      <g id="Grupo_56758" data-name="Grupo 56758" transform="translate(21.207 93.693)">
                        <g id="Grupo_56757" data-name="Grupo 56757">
                          <g id="Grupo_56756" data-name="Grupo 56756">
                            <g id="Grupo_56755" data-name="Grupo 56755">
                              <g id="Grupo_56754" data-name="Grupo 56754">
                                <g id="Grupo_56753" data-name="Grupo 56753">
                                  <g id="Grupo_56752" data-name="Grupo 56752">
                                    <g id="Grupo_56751" data-name="Grupo 56751">
                                      <g id="Grupo_56750" data-name="Grupo 56750">
                                        <g id="Grupo_56749" data-name="Grupo 56749">
                                          <g id="Grupo_56748" data-name="Grupo 56748">
                                            <g id="Grupo_56747" data-name="Grupo 56747">
                                              <g id="Grupo_56746" data-name="Grupo 56746">
                                                <g id="Grupo_56745" data-name="Grupo 56745">
                                                  <g id="Grupo_56744" data-name="Grupo 56744">
                                                    <path id="Trazado_101954" data-name="Trazado 101954" d="M784,4852.46s-12.237-.177-24.627-9.28c0,0,5.109,14.568,24.526,14.235Z" transform="translate(-759.374 -4843.181)" fill="#ff9a6c"/>
                                                  </g>
                                                </g>
                                              </g>
                                            </g>
                                          </g>
                                        </g>
                                      </g>
                                    </g>
                                  </g>
                                </g>
                              </g>
                            </g>
                          </g>
                        </g>
                      </g>
                    </g>
                  </g>
                </g>
                <g id="Grupo_56845" data-name="Grupo 56845" transform="translate(33.397 29.177)">
                  <g id="Grupo_56844" data-name="Grupo 56844">
                    <g id="Grupo_56813" data-name="Grupo 56813" transform="translate(1.544 11.177)">
                      <g id="Grupo_56812" data-name="Grupo 56812">
                        <g id="Grupo_56811" data-name="Grupo 56811">
                          <g id="Grupo_56778" data-name="Grupo 56778">
                            <g id="Grupo_56777" data-name="Grupo 56777">
                              <g id="Grupo_56776" data-name="Grupo 56776">
                                <g id="Grupo_56775" data-name="Grupo 56775">
                                  <g id="Grupo_56774" data-name="Grupo 56774">
                                    <g id="Grupo_56773" data-name="Grupo 56773">
                                      <g id="Grupo_56772" data-name="Grupo 56772">
                                        <g id="Grupo_56771" data-name="Grupo 56771">
                                          <g id="Grupo_56770" data-name="Grupo 56770">
                                            <g id="Grupo_56769" data-name="Grupo 56769">
                                              <g id="Grupo_56768" data-name="Grupo 56768">
                                                <g id="Grupo_56767" data-name="Grupo 56767">
                                                  <g id="Grupo_56766" data-name="Grupo 56766">
                                                    <g id="Grupo_56765" data-name="Grupo 56765">
                                                      <g id="Grupo_56764" data-name="Grupo 56764">
                                                        <g id="Grupo_56763" data-name="Grupo 56763">
                                                          <g id="Grupo_56762" data-name="Grupo 56762">
                                                            <path id="Trazado_101955" data-name="Trazado 101955" d="M772.86,4795.4c-.383.391-2.614-1.406-5.85-1.492-3.231-.135-5.653,1.5-5.992,1.084-.168-.186.232-.9,1.286-1.641a8.114,8.114,0,0,1,4.812-1.365,7.815,7.815,0,0,1,4.642,1.69C772.732,4794.486,773.048,4795.222,772.86,4795.4Z" transform="translate(-760.981 -4791.979)" fill="#1a2e35"/>
                                                          </g>
                                                        </g>
                                                      </g>
                                                    </g>
                                                  </g>
                                                </g>
                                              </g>
                                            </g>
                                          </g>
                                        </g>
                                      </g>
                                    </g>
                                  </g>
                                </g>
                              </g>
                            </g>
                          </g>
                          <g id="Grupo_56794" data-name="Grupo 56794" transform="translate(6.55 7.557)">
                            <g id="Grupo_56793" data-name="Grupo 56793">
                              <g id="Grupo_56792" data-name="Grupo 56792">
                                <g id="Grupo_56791" data-name="Grupo 56791">
                                  <g id="Grupo_56790" data-name="Grupo 56790">
                                    <g id="Grupo_56789" data-name="Grupo 56789">
                                      <g id="Grupo_56788" data-name="Grupo 56788">
                                        <g id="Grupo_56787" data-name="Grupo 56787">
                                          <g id="Grupo_56786" data-name="Grupo 56786">
                                            <g id="Grupo_56785" data-name="Grupo 56785">
                                              <g id="Grupo_56784" data-name="Grupo 56784">
                                                <g id="Grupo_56783" data-name="Grupo 56783">
                                                  <g id="Grupo_56782" data-name="Grupo 56782">
                                                    <g id="Grupo_56781" data-name="Grupo 56781">
                                                      <g id="Grupo_56780" data-name="Grupo 56780">
                                                        <g id="Grupo_56779" data-name="Grupo 56779">
                                                          <path id="Trazado_101956" data-name="Trazado 101956" d="M772.5,4801.788a2.618,2.618,0,0,1-2.711,2.45,2.5,2.5,0,0,1-2.52-2.552,2.621,2.621,0,0,1,2.709-2.452A2.507,2.507,0,0,1,772.5,4801.788Z" transform="translate(-767.268 -4799.234)" fill="#1a2e35"/>
                                                        </g>
                                                      </g>
                                                    </g>
                                                  </g>
                                                </g>
                                              </g>
                                            </g>
                                          </g>
                                        </g>
                                      </g>
                                    </g>
                                  </g>
                                </g>
                              </g>
                            </g>
                          </g>
                          <g id="Grupo_56810" data-name="Grupo 56810" transform="translate(19.985 1.075)">
                            <g id="Grupo_56809" data-name="Grupo 56809">
                              <g id="Grupo_56808" data-name="Grupo 56808">
                                <g id="Grupo_56807" data-name="Grupo 56807">
                                  <g id="Grupo_56806" data-name="Grupo 56806">
                                    <g id="Grupo_56805" data-name="Grupo 56805">
                                      <g id="Grupo_56804" data-name="Grupo 56804">
                                        <g id="Grupo_56803" data-name="Grupo 56803">
                                          <g id="Grupo_56802" data-name="Grupo 56802">
                                            <g id="Grupo_56801" data-name="Grupo 56801">
                                              <g id="Grupo_56800" data-name="Grupo 56800">
                                                <g id="Grupo_56799" data-name="Grupo 56799">
                                                  <g id="Grupo_56798" data-name="Grupo 56798">
                                                    <g id="Grupo_56797" data-name="Grupo 56797">
                                                      <g id="Grupo_56796" data-name="Grupo 56796">
                                                        <g id="Grupo_56795" data-name="Grupo 56795">
                                                          <path id="Trazado_101957" data-name="Trazado 101957" d="M780.165,4817.864c0-.17,1.869-.354,4.889-.519.765-.023,1.493-.121,1.658-.629a3.87,3.87,0,0,0-.342-2.286q-.869-2.831-1.822-5.94c-2.515-8.452-4.276-15.379-3.935-15.478s2.656,6.673,5.171,15.125q.9,3.123,1.725,5.967a4.408,4.408,0,0,1,.176,3.007,1.908,1.908,0,0,1-1.328,1.018,5.105,5.105,0,0,1-1.3.085C782.033,4818.156,780.164,4818.035,780.165,4817.864Z" transform="translate(-780.165 -4793.012)" fill="#1a2e35"/>
                                                        </g>
                                                      </g>
                                                    </g>
                                                  </g>
                                                </g>
                                              </g>
                                            </g>
                                          </g>
                                        </g>
                                      </g>
                                    </g>
                                  </g>
                                </g>
                              </g>
                            </g>
                          </g>
                        </g>
                      </g>
                    </g>
                    <g id="Grupo_56828" data-name="Grupo 56828">
                      <g id="Grupo_56827" data-name="Grupo 56827">
                        <g id="Grupo_56826" data-name="Grupo 56826">
                          <g id="Grupo_56825" data-name="Grupo 56825">
                            <g id="Grupo_56824" data-name="Grupo 56824">
                              <g id="Grupo_56823" data-name="Grupo 56823">
                                <g id="Grupo_56822" data-name="Grupo 56822">
                                  <g id="Grupo_56821" data-name="Grupo 56821">
                                    <g id="Grupo_56820" data-name="Grupo 56820">
                                      <g id="Grupo_56819" data-name="Grupo 56819">
                                        <g id="Grupo_56818" data-name="Grupo 56818">
                                          <g id="Grupo_56817" data-name="Grupo 56817">
                                            <g id="Grupo_56816" data-name="Grupo 56816">
                                              <g id="Grupo_56815" data-name="Grupo 56815">
                                                <g id="Grupo_56814" data-name="Grupo 56814">
                                                  <path id="Trazado_101958" data-name="Trazado 101958" d="M771.546,4783.679c-.313.717-2.9.177-6.006.337-3.105.094-5.652.842-6.012.153-.158-.33.324-.991,1.378-1.631a10.155,10.155,0,0,1,9.155-.374C771.156,4782.717,771.682,4783.337,771.546,4783.679Z" transform="translate(-759.499 -4781.25)" fill="#1a2e35"/>
                                                </g>
                                              </g>
                                            </g>
                                          </g>
                                        </g>
                                      </g>
                                    </g>
                                  </g>
                                </g>
                              </g>
                            </g>
                          </g>
                        </g>
                      </g>
                    </g>
                    <g id="Grupo_56843" data-name="Grupo 56843" transform="translate(30.908 5.913)">
                      <g id="Grupo_56842" data-name="Grupo 56842">
                        <g id="Grupo_56841" data-name="Grupo 56841">
                          <g id="Grupo_56840" data-name="Grupo 56840">
                            <g id="Grupo_56839" data-name="Grupo 56839">
                              <g id="Grupo_56838" data-name="Grupo 56838">
                                <g id="Grupo_56837" data-name="Grupo 56837">
                                  <g id="Grupo_56836" data-name="Grupo 56836">
                                    <g id="Grupo_56835" data-name="Grupo 56835">
                                      <g id="Grupo_56834" data-name="Grupo 56834">
                                        <g id="Grupo_56833" data-name="Grupo 56833">
                                          <g id="Grupo_56832" data-name="Grupo 56832">
                                            <g id="Grupo_56831" data-name="Grupo 56831">
                                              <g id="Grupo_56830" data-name="Grupo 56830">
                                                <g id="Grupo_56829" data-name="Grupo 56829">
                                                  <path id="Trazado_101959" data-name="Trazado 101959" d="M801.04,4789.438c-.34.585-2.865-.064-5.924-.159-3.061-.15-5.6.3-5.923-.314-.142-.292.363-.815,1.429-1.281a10.7,10.7,0,0,1,4.526-.748,11.041,11.041,0,0,1,4.5,1.109C800.7,4788.593,801.19,4789.157,801.04,4789.438Z" transform="translate(-789.168 -4786.926)" fill="#1a2e35"/>
                                                </g>
                                              </g>
                                            </g>
                                          </g>
                                        </g>
                                      </g>
                                    </g>
                                  </g>
                                </g>
                              </g>
                            </g>
                          </g>
                        </g>
                      </g>
                    </g>
                  </g>
                </g>
                <g id="Grupo_56858" data-name="Grupo 56858" transform="translate(0 50.373)">
                  <g id="Grupo_56857" data-name="Grupo 56857">
                    <g id="Grupo_56856" data-name="Grupo 56856">
                      <g id="Grupo_56855" data-name="Grupo 56855">
                        <g id="Grupo_56854" data-name="Grupo 56854">
                          <g id="Grupo_56853" data-name="Grupo 56853">
                            <g id="Grupo_56852" data-name="Grupo 56852">
                              <g id="Grupo_56851" data-name="Grupo 56851">
                                <g id="Grupo_56850" data-name="Grupo 56850">
                                  <g id="Grupo_56849" data-name="Grupo 56849">
                                    <g id="Grupo_56848" data-name="Grupo 56848">
                                      <g id="Grupo_56847" data-name="Grupo 56847">
                                        <g id="Grupo_56846" data-name="Grupo 56846">
                                          <path id="Trazado_101960" data-name="Trazado 101960" d="M740.994,4802.553c-.32-.167-13-4.9-13.538,8.348s12.869,11.06,12.907,10.682S740.994,4802.553,740.994,4802.553Z" transform="translate(-727.44 -4801.597)" fill="#ffbf9d"/>
                                        </g>
                                      </g>
                                    </g>
                                  </g>
                                </g>
                              </g>
                            </g>
                          </g>
                        </g>
                      </g>
                    </g>
                  </g>
                </g>
                <g id="Grupo_56872" data-name="Grupo 56872" transform="translate(3.364 54.59)">
                  <g id="Grupo_56871" data-name="Grupo 56871">
                    <g id="Grupo_56870" data-name="Grupo 56870">
                      <g id="Grupo_56869" data-name="Grupo 56869">
                        <g id="Grupo_56868" data-name="Grupo 56868">
                          <g id="Grupo_56867" data-name="Grupo 56867">
                            <g id="Grupo_56866" data-name="Grupo 56866">
                              <g id="Grupo_56865" data-name="Grupo 56865">
                                <g id="Grupo_56864" data-name="Grupo 56864">
                                  <g id="Grupo_56863" data-name="Grupo 56863">
                                    <g id="Grupo_56862" data-name="Grupo 56862">
                                      <g id="Grupo_56861" data-name="Grupo 56861">
                                        <g id="Grupo_56860" data-name="Grupo 56860">
                                          <g id="Grupo_56859" data-name="Grupo 56859">
                                            <path id="Trazado_101961" data-name="Trazado 101961" d="M736.387,4816.229c-.057-.045-.237.152-.634.314a2.3,2.3,0,0,1-1.727-.034c-1.378-.572-2.466-2.842-2.432-5.232a7.633,7.633,0,0,1,.781-3.277,2.668,2.668,0,0,1,1.809-1.7,1.176,1.176,0,0,1,1.335.688c.163.378.068.639.137.665.036.035.294-.21.209-.763a1.474,1.474,0,0,0-.488-.851,1.752,1.752,0,0,0-1.261-.389,3.245,3.245,0,0,0-2.495,1.955,7.845,7.845,0,0,0-.952,3.66c-.024,2.674,1.24,5.228,3.133,5.86a2.474,2.474,0,0,0,2.124-.264C736.349,4816.548,736.432,4816.255,736.387,4816.229Z" transform="translate(-730.669 -4805.645)" fill="#ff9a6c"/>
                                          </g>
                                        </g>
                                      </g>
                                    </g>
                                  </g>
                                </g>
                              </g>
                            </g>
                          </g>
                        </g>
                      </g>
                    </g>
                  </g>
                </g>
                <g id="Grupo_56873" data-name="Grupo 56873" transform="translate(44.79 66.924)">
                  <path id="Trazado_101962" data-name="Trazado 101962" d="M777.446,4826.014c.145-.334-2.451-1.111-4.275-3.546a14.883,14.883,0,0,1-1.833-3.459c-.386-.962-.679-1.566-.822-1.521s-.1.693.11,1.74a9.782,9.782,0,0,0,1.705,3.874,7.9,7.9,0,0,0,3.384,2.59C776.726,4826.1,777.41,4826.128,777.446,4826.014Z" transform="translate(-770.435 -4817.485)" fill="#1a2e35"/>
                </g>
                <g id="Grupo_56882" data-name="Grupo 56882" transform="translate(64.442 41.573)">
                  <g id="Grupo_56881" data-name="Grupo 56881">
                    <g id="Grupo_56880" data-name="Grupo 56880">
                      <g id="Grupo_56879" data-name="Grupo 56879">
                        <g id="Grupo_56878" data-name="Grupo 56878">
                          <g id="Grupo_56877" data-name="Grupo 56877">
                            <g id="Grupo_56876" data-name="Grupo 56876">
                              <g id="Grupo_56875" data-name="Grupo 56875">
                                <g id="Grupo_56874" data-name="Grupo 56874">
                                  <path id="Trazado_101963" data-name="Trazado 101963" d="M801.179,4796.567c-.384.391-2.614-1.405-5.85-1.492-3.232-.135-5.653,1.5-5.992,1.085-.168-.186.232-.9,1.286-1.641a8.109,8.109,0,0,1,4.811-1.365,7.812,7.812,0,0,1,4.643,1.69C801.051,4795.656,801.367,4796.393,801.179,4796.567Z" transform="translate(-789.299 -4793.15)" fill="#1a2e35"/>
                                </g>
                              </g>
                            </g>
                          </g>
                        </g>
                      </g>
                    </g>
                  </g>
                </g>
                <g id="Grupo_56890" data-name="Grupo 56890" transform="translate(70.559 48.851)">
                  <g id="Grupo_56889" data-name="Grupo 56889">
                    <g id="Grupo_56888" data-name="Grupo 56888">
                      <g id="Grupo_56887" data-name="Grupo 56887">
                        <g id="Grupo_56886" data-name="Grupo 56886">
                          <g id="Grupo_56885" data-name="Grupo 56885">
                            <g id="Grupo_56884" data-name="Grupo 56884">
                              <g id="Grupo_56883" data-name="Grupo 56883">
                                <path id="Trazado_101964" data-name="Trazado 101964" d="M800.4,4802.689a2.62,2.62,0,0,1-2.711,2.452,2.505,2.505,0,0,1-2.519-2.552,2.621,2.621,0,0,1,2.708-2.454A2.507,2.507,0,0,1,800.4,4802.689Z" transform="translate(-795.171 -4800.136)" fill="#1a2e35"/>
                              </g>
                            </g>
                          </g>
                        </g>
                      </g>
                    </g>
                  </g>
                </g>
              </g>
              <g id="Grupo_56892" data-name="Grupo 56892" transform="translate(1.078)">
                <path id="Trazado_101965" data-name="Trazado 101965" d="M820.712,4763.921a10.451,10.451,0,0,0-13.036-4.125,14.306,14.306,0,0,0-24.645-12.354,5.846,5.846,0,0,0-2.849-3.921,11.535,11.535,0,0,0-4.755-1.417,22.739,22.739,0,0,0-20.774,9.058,24.753,24.753,0,0,0-20.976,7.654c-6.223,6.892-7.4,22.868-.58,36.667l1.6,8.653c2.138-.006,4.093.147,5.411,1.331,1.791,1.609,2.591,4.639,5.566,3.489,1.515-.585,2.9-3.761,3.4-5.3a75.378,75.378,0,0,0,3.264-31.909,24.22,24.22,0,0,1,7.482-5.4l-.228.205c5.4-1.875,11.5-3.719,16.625-1.184,3.973,1.965,6.308,6.087,9.278,9.378a30.33,30.33,0,0,0,21.614,9.982c.285,5.439-.171,13.126.115,18.564l4.575-8.711,0,.043c.375-.638.684-1.28.984-1.925l.1-.2v-.024l0-.006c.837-.68,1.472-1.925,2.886-3.544a11.409,11.409,0,0,0,1.874-11.675A10.454,10.454,0,0,0,820.712,4763.921Z" transform="translate(-728.474 -4741.973)" fill="#1a2e35"/>
                <path id="Trazado_101966" data-name="Trazado 101966" d="M811.032,4787.528l-.018-.015h0Z" transform="translate(-725.029 -4740.073)" fill="#1a2e35"/>
              </g>
              <g id="Grupo_56893" data-name="Grupo 56893" transform="translate(62.791 22.147)">
                <path id="Trazado_101967" data-name="Trazado 101967" d="M810.321,4763.232c.013,0,.047.094.1.285a3.9,3.9,0,0,1,.122.856,5.753,5.753,0,0,1-.771,3.1,5.926,5.926,0,0,1-1.48,1.714,5.3,5.3,0,0,1-2.414,1.03,5.977,5.977,0,0,1-5.523-2.079l.329-.283a3.649,3.649,0,0,1,.932,2.6,4.791,4.791,0,0,1-1.48,3.338,5.41,5.41,0,0,1-3.133,1.334,8.416,8.416,0,0,1-5.446-1.5,17.785,17.785,0,0,1-2.911-2.474,7.38,7.38,0,0,1-.927-1.045,9.911,9.911,0,0,1,1.046.923,20.509,20.509,0,0,0,2.96,2.334,8.22,8.22,0,0,0,5.236,1.358,5.031,5.031,0,0,0,2.882-1.243,4.4,4.4,0,0,0,1.337-3.035,3.23,3.23,0,0,0-.812-2.292l.328-.282a5.621,5.621,0,0,0,5.124,1.968,5.187,5.187,0,0,0,3.7-2.511,5.861,5.861,0,0,0,.862-2.956C810.389,4763.641,810.281,4763.241,810.321,4763.232Z" transform="translate(-787.715 -4763.232)" fill="#375a64"/>
              </g>
              <g id="Grupo_56894" data-name="Grupo 56894" transform="translate(55.916 7.627)">
                <path id="Trazado_101968" data-name="Trazado 101968" d="M794.021,4749.3c.007-.013.105.032.284.127a5.843,5.843,0,0,1,.739.5,6.447,6.447,0,0,1,2,2.6,5.079,5.079,0,0,1-.455,4.772,3.913,3.913,0,0,1-2.414,1.657,3.974,3.974,0,0,1-3.087-.6,3.441,3.441,0,0,1-.734-.731l.379-.215a3.709,3.709,0,0,1-.1,2.977,4.069,4.069,0,0,1-1.927,1.974,5.363,5.363,0,0,1-4.513-.009,7.191,7.191,0,0,1-2.432-1.833,3.486,3.486,0,0,1-.645-.9c.028-.021.266.292.765.79a7.672,7.672,0,0,0,2.43,1.67,5.114,5.114,0,0,0,4.217-.068,3.7,3.7,0,0,0,1.718-1.8,3.3,3.3,0,0,0,.083-2.628l-.7-1.625,1.079,1.411a3.04,3.04,0,0,0,.635.629,3.57,3.57,0,0,0,2.742.534,3.516,3.516,0,0,0,2.171-1.466,4.8,4.8,0,0,0,.5-4.429,6.692,6.692,0,0,0-1.819-2.577C794.37,4749.545,794,4749.331,794.021,4749.3Z" transform="translate(-781.115 -4749.294)" fill="#375a64"/>
              </g>
            </g>
            <g id="Grupo_56940" data-name="Grupo 56940" transform="translate(0 102.179)">
              <g id="Grupo_56910" data-name="Grupo 56910" transform="translate(197.789)">
                <g id="Grupo_56896" data-name="Grupo 56896" transform="translate(1.797)">
                  <path id="Trazado_101969" data-name="Trazado 101969" d="M902.7,4842.09l-30.565,23.34a3.957,3.957,0,0,0-.585,5.741h0a3.957,3.957,0,0,0,5.417.53l30.313-23.556,4.1-8.087Z" transform="translate(-870.581 -4840.058)" fill="#8d6e61"/>
                  <path id="Trazado_101970" data-name="Trazado 101970" d="M906.18,4840.939l2.168,2.524-2.343,4.646a1.861,1.861,0,0,1-2.038-2.115,1.637,1.637,0,0,1-1.849-2.122s-1.59-.141-.693-1.819Z" transform="translate(-869.305 -4840.021)" fill="#fff" opacity="0.5"/>
                  <path id="Trazado_101971" data-name="Trazado 101971" d="M872.075,4864.47l5.016,6.128,1.684-1.309-4.811-6.263Z" transform="translate(-870.519 -4839.098)" fill="#1a2e35"/>
                </g>
                <g id="Grupo_56897" data-name="Grupo 56897" transform="translate(0 3.954)">
                  <path id="Trazado_101972" data-name="Trazado 101972" d="M869.955,4923.781l-1.1-.2,22.518-39.363-3.558-11.347s-4.126-16.161-.688-20.288c0,0,7.521-8.854,9.961-8.731s4.392.611,4.88,2.439c0,0,4.148-.486,5.246.855a21.133,21.133,0,0,1,1.952,2.928s4.514-.367,5.734,3.538c0,0,4.27,2.2,4.636,5.368s-.854,17.935-2.2,21.716-6.344,11.71-7.808,23.423-6.623,19.314-11.209,36.432l-12.458,4.926Z" transform="translate(-868.856 -4843.853)" fill="#ffbf9d"/>
                </g>
                <g id="Grupo_56899" data-name="Grupo 56899" transform="translate(28.617 6.135)">
                  <g id="Grupo_56898" data-name="Grupo 56898">
                    <path id="Trazado_101973" data-name="Trazado 101973" d="M900.607,4845.957a13.359,13.359,0,0,0-4.231,6.732,7.644,7.644,0,0,1,4.231-6.732Z" transform="translate(-896.326 -4845.946)" fill="#ff9a6c"/>
                  </g>
                </g>
                <g id="Grupo_56901" data-name="Grupo 56901" transform="translate(35.762 10.158)">
                  <g id="Grupo_56900" data-name="Grupo 56900">
                    <path id="Trazado_101974" data-name="Trazado 101974" d="M907.49,4849.821a13.069,13.069,0,0,0-4.266,6.066,7.079,7.079,0,0,1,4.266-6.066Z" transform="translate(-903.185 -4849.808)" fill="#ff9a6c"/>
                  </g>
                </g>
                <g id="Grupo_56903" data-name="Grupo 56903" transform="translate(42.005 13.582)">
                  <g id="Grupo_56902" data-name="Grupo 56902">
                    <path id="Trazado_101975" data-name="Trazado 101975" d="M912.977,4853.105c.1.119-1.026,1.1-2.054,2.585s-1.576,2.868-1.72,2.82a7.943,7.943,0,0,1,3.774-5.406Z" transform="translate(-909.177 -4853.096)" fill="#ff9a6c"/>
                  </g>
                </g>
                <g id="Grupo_56905" data-name="Grupo 56905" transform="translate(19.733 13.94)">
                  <g id="Grupo_56904" data-name="Grupo 56904">
                    <path id="Trazado_101976" data-name="Trazado 101976" d="M892.724,4854.385a5.4,5.4,0,0,0-4.919.335c-.045-.043.12-.319.529-.623a3.7,3.7,0,0,1,3.781-.255C892.563,4854.087,892.763,4854.336,892.724,4854.385Z" transform="translate(-887.798 -4853.44)" fill="#ff9a6c"/>
                  </g>
                </g>
                <g id="Grupo_56907" data-name="Grupo 56907" transform="translate(29.142 16.975)">
                  <g id="Grupo_56906" data-name="Grupo 56906">
                    <path id="Trazado_101977" data-name="Trazado 101977" d="M901.326,4859.878a6.54,6.54,0,0,0-4.5-3.428c0-.062.347-.143.914-.069a4.485,4.485,0,0,1,3.409,2.6C901.373,4859.506,901.387,4859.864,901.326,4859.878Z" transform="translate(-896.83 -4856.352)" fill="#ff9a6c"/>
                  </g>
                </g>
                <g id="Grupo_56909" data-name="Grupo 56909" transform="translate(36.668 20.296)">
                  <g id="Grupo_56908" data-name="Grupo 56908">
                    <path id="Trazado_101978" data-name="Trazado 101978" d="M909.942,4861.65a7.324,7.324,0,0,0-5.886-1.594c-.022-.059.3-.264.892-.4a5.032,5.032,0,0,1,4.429,1.2C909.818,4861.272,909.991,4861.61,909.942,4861.65Z" transform="translate(-904.055 -4859.54)" fill="#ff9a6c"/>
                  </g>
                </g>
              </g>
              <g id="Grupo_56934" data-name="Grupo 56934" transform="translate(0 9.577)">
                <g id="Grupo_56911" data-name="Grupo 56911" transform="translate(0 55.763)">
                  <path id="Trazado_101979" data-name="Trazado 101979" d="M692.149,4902.779s-13.8,78.383-13.134,85.711,4.337,18.989,12.662,20.987a36.628,36.628,0,0,0,15.988,0L697.67,4913.2Z" transform="translate(-678.992 -4902.779)" fill="#c02c21"/>
                </g>
                <g id="Grupo_56912" data-name="Grupo 56912" transform="translate(12.983)">
                  <path id="Trazado_101980" data-name="Trazado 101980" d="M732.037,4864.583s-16.516,11.741-20.167,15.193c-15.269,14.44-18.464,20.351-20.241,25.236s10.6,118.37,10.6,118.37l2.507,19.828h0l115.924.3h0v-101.3l-17.417-71.292-10.716-3.05-2.164-8.5s-13.315-9.832-35.277-10.115c-6.757-.088-16.314,2.567-21.653,6.709h0Z" transform="translate(-691.455 -4849.25)" fill="#c02c21"/>
                </g>
                <g id="Grupo_56913" data-name="Grupo 56913" transform="translate(102.228 21.602)">
                  <path id="Trazado_101981" data-name="Trazado 101981" d="M786.7,4870.343s11.913-.536,12.966-.293c3.672.847,13.756,10.091,25.241,21.482,10.957,10.868,32.516,33.479,32.516,33.479s3.875-3.913,8.293,1.31l17.02-24.757s25.546,3.138,29.563,22.419c0,0-7.83,14.948-14.243,25.638,0,0-23.742,39.4-42.495,32.263-17.13-6.516-38.609-23.944-41.633-27.667l-25.219-18s-17.273-32.938-9.641-49.408Z" transform="translate(-777.123 -4869.987)" fill="#c02c21"/>
                </g>
                <g id="Grupo_56915" data-name="Grupo 56915" transform="translate(53.566 13.146)">
                  <g id="Grupo_56914" data-name="Grupo 56914">
                    <path id="Trazado_101982" data-name="Trazado 101982" d="M790.9,4867.339a2.933,2.933,0,0,1-.612-.125l-1.72-.454c-1.5-.379-3.669-.9-6.381-1.415a177.753,177.753,0,0,0-21.4-2.637,146.216,146.216,0,0,0-21.548.063c-2.748.235-4.957.579-6.473.854l-1.744.345a2.931,2.931,0,0,1-.618.087,2.821,2.821,0,0,1,.593-.187c.448-.116,1.021-.261,1.729-.439a56.5,56.5,0,0,1,6.477-1.019,132.253,132.253,0,0,1,21.616-.215,157.85,157.85,0,0,1,21.434,2.793c2.712.56,4.88,1.137,6.363,1.577l1.7.547A2.848,2.848,0,0,1,790.9,4867.339Z" transform="translate(-730.411 -4861.87)" fill="#1a2e35"/>
                  </g>
                </g>
                <g id="Grupo_56917" data-name="Grupo 56917" transform="translate(67.638 3.98)">
                  <g id="Grupo_56916" data-name="Grupo 56916">
                    <path id="Trazado_101983" data-name="Trazado 101983" d="M745.185,4861.808a38.1,38.1,0,0,1-1.214-8.737,38.25,38.25,0,0,1,1.214,8.737Z" transform="translate(-743.92 -4853.071)" fill="#1a2e35"/>
                  </g>
                </g>
                <g id="Grupo_56919" data-name="Grupo 56919" transform="translate(72.171 3.574)">
                  <g id="Grupo_56918" data-name="Grupo 56918">
                    <path id="Trazado_101984" data-name="Trazado 101984" d="M749.331,4861.454a13.83,13.83,0,0,1-.608-8.772c.151.021-.077,1.987.1,4.4C748.981,4859.5,749.478,4861.411,749.331,4861.454Z" transform="translate(-748.271 -4852.681)" fill="#1a2e35"/>
                  </g>
                </g>
                <g id="Grupo_56921" data-name="Grupo 56921" transform="translate(53.948 13.475)" opacity="0.3">
                  <g id="Grupo_56920" data-name="Grupo 56920">
                    <path id="Trazado_101985" data-name="Trazado 101985" d="M730.778,4863.944c18.142,3.211,36.532.03,55.731,2.3-18.539-3.836-37.844-5.656-55.731-2.3" transform="translate(-730.778 -4862.185)"/>
                  </g>
                </g>
                <g id="Grupo_56923" data-name="Grupo 56923" transform="translate(13.589 85.748)" opacity="0.3">
                  <g id="Grupo_56922" data-name="Grupo 56922">
                    <path id="Trazado_101986" data-name="Trazado 101986" d="M700.558,5008.426c-10.2-23.9-9-50.913-7.613-76.863Z" transform="translate(-692.036 -4931.563)"/>
                  </g>
                </g>
                <g id="Grupo_56925" data-name="Grupo 56925" transform="translate(13.152 72.852)">
                  <g id="Grupo_56924" data-name="Grupo 56924">
                    <path id="Trazado_101987" data-name="Trazado 101987" d="M691.622,4919.184a1.379,1.379,0,0,1,.054.3c.027.229.062.521.107.889.086.817.207,1.963.363,3.421.3,3.008.723,7.3,1.246,12.589,1.036,10.632,2.453,25.32,4.141,41.529s3.382,30.873,4.735,41.468c.666,5.3,1.239,9.582,1.641,12.542.193,1.453.343,2.595.451,3.41.043.367.077.66.1.888a1.273,1.273,0,0,1,.018.306,1.383,1.383,0,0,1-.07-.3l-.154-.882c-.13-.81-.314-1.947-.546-3.4-.462-2.951-1.091-7.229-1.8-12.523-1.445-10.586-3.192-25.244-4.885-41.463s-3.048-30.907-3.993-41.547c-.455-5.3-.825-9.593-1.084-12.605-.114-1.463-.2-2.609-.267-3.429-.023-.37-.042-.665-.056-.895A1.341,1.341,0,0,1,691.622,4919.184Z" transform="translate(-691.616 -4919.184)" fill="#1a2e35"/>
                  </g>
                </g>
                <g id="Grupo_56927" data-name="Grupo 56927" transform="translate(18.928 59.806)">
                  <g id="Grupo_56926" data-name="Grupo 56926">
                    <path id="Trazado_101988" data-name="Trazado 101988" d="M769.874,4906.882a4.026,4.026,0,0,1-.747.041l-2.141.014c-1.858-.008-4.548.02-7.868.1-6.641.149-15.813.637-25.878,1.828s-19.1,2.883-25.589,4.3c-3.246.705-5.866,1.308-7.67,1.752l-2.085.487a4.3,4.3,0,0,1-.736.137,4.071,4.071,0,0,1,.709-.236l2.061-.582c1.791-.5,4.4-1.163,7.642-1.912a242.211,242.211,0,0,1,51.539-6.133c3.326-.032,6.018,0,7.877.065l2.141.081A4.3,4.3,0,0,1,769.874,4906.882Z" transform="translate(-697.161 -4906.66)" fill="#1a2e35"/>
                  </g>
                </g>
                <g id="Grupo_56929" data-name="Grupo 56929" transform="translate(47.088 36.942)">
                  <g id="Grupo_56928" data-name="Grupo 56928">
                    <path id="Trazado_101989" data-name="Trazado 101989" d="M724.23,4933.178c-.142,0,.125-10.859.595-24.241s.965-24.23,1.106-24.225-.125,10.857-.595,24.243S724.371,4933.184,724.23,4933.178Z" transform="translate(-724.192 -4884.712)" fill="#1a2e35"/>
                  </g>
                </g>
                <g id="Grupo_56931" data-name="Grupo 56931" transform="translate(93.336 20.173)">
                  <g id="Grupo_56930" data-name="Grupo 56930">
                    <path id="Trazado_101990" data-name="Trazado 101990" d="M781.622,4932.509a4.788,4.788,0,0,1-.435-.681c-.288-.5-.676-1.162-1.161-2-1.036-1.779-2.491-4.278-4.277-7.347a63.739,63.739,0,0,1-5.365-11.432,37.472,37.472,0,0,1-1.6-7.309,44.043,44.043,0,0,1-.023-8.031,42.645,42.645,0,0,1,3.827-14.964,24.659,24.659,0,0,1,3.773-5.629,21.415,21.415,0,0,1,4.533-3.785,17.271,17.271,0,0,1,8.042-2.694,11.333,11.333,0,0,1,3.117.173,28.72,28.72,0,0,0-3.1.026,17.547,17.547,0,0,0-7.865,2.8,21.343,21.343,0,0,0-4.41,3.762,24.508,24.508,0,0,0-3.666,5.554,42.8,42.8,0,0,0-3.741,14.8,44.173,44.173,0,0,0,.012,7.93,37.5,37.5,0,0,0,1.55,7.216,65.7,65.7,0,0,0,5.232,11.4l4.136,7.427q.677,1.282,1.078,2.046A4.691,4.691,0,0,1,781.622,4932.509Z" transform="translate(-768.588 -4868.615)" fill="#1a2e35"/>
                  </g>
                </g>
                <g id="Grupo_56933" data-name="Grupo 56933" transform="translate(20.37 60.257)" opacity="0.3">
                  <g id="Grupo_56932" data-name="Grupo 56932">
                    <path id="Trazado_101991" data-name="Trazado 101991" d="M698.979,4915.458a138.158,138.158,0,0,0,21.784-2.874,33.216,33.216,0,0,0-1.22,9.745,22.361,22.361,0,0,0,4.843-8.913,13.49,13.49,0,0,0,5.5,9.018,29.463,29.463,0,0,0,.49-9.931q16.259-1.958,32.3-5.346a219.056,219.056,0,0,0-64.129,7.983" transform="translate(-698.545 -4907.092)"/>
                  </g>
                </g>
              </g>
              <g id="Grupo_56935" data-name="Grupo 56935" transform="translate(114.376 98.081)">
                <path id="Trazado_101992" data-name="Trazado 101992" d="M834.575,4968.358a2.937,2.937,0,0,1-.5-.3l-1.385-.924c-1.2-.809-2.919-2-5.035-3.485-4.232-2.969-10.032-7.139-16.356-11.854s-11.976-9.088-16.029-12.3c-2.027-1.6-3.659-2.913-4.775-3.831l-1.281-1.063a2.815,2.815,0,0,1-.428-.394,3.01,3.01,0,0,1,.484.324l1.331,1,4.861,3.72c4.1,3.145,9.779,7.476,16.1,12.191s12.09,8.92,16.274,11.954c2.061,1.5,3.742,2.717,4.953,3.6.552.408,1,.737,1.338.991A2.705,2.705,0,0,1,834.575,4968.358Z" transform="translate(-788.784 -4934.209)" fill="#1a2e35"/>
              </g>
              <g id="Grupo_56936" data-name="Grupo 56936" transform="translate(181.864 85.173)">
                <path id="Trazado_101993" data-name="Trazado 101993" d="M860.165,4943.034c-.076,0-.027-1.273-.175-3.31a34.7,34.7,0,0,0-4.687-15.08c-1.032-1.762-1.793-2.78-1.731-2.826a3.475,3.475,0,0,1,.594.67,22.288,22.288,0,0,1,1.4,1.995,30.832,30.832,0,0,1,4.732,15.225,22.048,22.048,0,0,1-.025,2.437A3.515,3.515,0,0,1,860.165,4943.034Z" transform="translate(-853.569 -4921.818)" fill="#1a2e35"/>
              </g>
              <g id="Grupo_56937" data-name="Grupo 56937" transform="translate(191.666 87.078)">
                <path id="Trazado_101994" data-name="Trazado 101994" d="M864.988,4941.053c-.07-.012.091-1,.212-2.592a32.405,32.405,0,0,0-1.42-12.336c-.481-1.527-.861-2.449-.8-2.477a2.162,2.162,0,0,1,.35.612,18.128,18.128,0,0,1,.74,1.766,27.127,27.127,0,0,1,1.435,12.466,18.245,18.245,0,0,1-.319,1.887A2.171,2.171,0,0,1,864.988,4941.053Z" transform="translate(-862.978 -4923.647)" fill="#1a2e35"/>
              </g>
              <g id="Grupo_56938" data-name="Grupo 56938" transform="translate(204.087 69.197)">
                <path id="Trazado_101995" data-name="Trazado 101995" d="M904.038,4930.928c-.025.005.012-.162-.2-.317a1.012,1.012,0,0,1-.342-.371c-.1-.175-.162-.393-.283-.6-.225-.42-.784-.749-1.191-1.371a8.91,8.91,0,0,1-1.016-2.222,14.817,14.817,0,0,0-2.89-5.453,24.027,24.027,0,0,0-2.6-2.6,27.482,27.482,0,0,0-3.141-2.4,25.734,25.734,0,0,0-3.361-2.084l-3.334-1.633c-1.066-.5-2.053-1.023-3.022-1.439l-2.7-1.148a12.123,12.123,0,0,1-1.173-.535c-.357-.215-.655-.446-.957-.613l-.874-.465c-.275-.146-.5-.335-.7-.463-.415-.258-.781-.4-1.014-.527a1.127,1.127,0,0,1-.345-.212,1.718,1.718,0,0,1,.38.132,8.2,8.2,0,0,1,1.067.463,11.627,11.627,0,0,0,1.6.858c.325.168.637.394.978.585s.755.32,1.16.495l2.71,1.1c.972.4,1.984.915,3.062,1.412l3.346,1.609a25.239,25.239,0,0,1,3.412,2.1,26.848,26.848,0,0,1,3.182,2.442,23.628,23.628,0,0,1,2.631,2.659,14.756,14.756,0,0,1,2.874,5.613,9.036,9.036,0,0,0,.925,2.185c.351.591.9.938,1.135,1.425.123.234.171.453.251.62a.992.992,0,0,0,.284.364C904.117,4930.75,904.042,4930.943,904.038,4930.928Z" transform="translate(-874.902 -4906.482)" fill="#1a2e35"/>
              </g>
              <g id="Grupo_56939" data-name="Grupo 56939" transform="translate(124.978 106.706)">
                <path id="Trazado_101996" data-name="Trazado 101996" d="M799.182,5037.655c-.122,0-.22-21.3-.22-47.581s.1-47.586.22-47.586.219,21.3.219,47.586S799.3,5037.655,799.182,5037.655Z" transform="translate(-798.962 -4942.488)" fill="#1a2e35"/>
              </g>
            </g>
          </g>
        </g>
      </g>
      <g id="Contract" transform="translate(467.989 2901.946)">
        <g id="Grupo_86709" data-name="Grupo 86709">
          <g id="Grupo_86657" data-name="Grupo 86657" transform="translate(30.034 13.478)">
            <path id="Trazado_141150" data-name="Trazado 141150" d="M185.952,72.877l27.663-1.168a8.97,8.97,0,0,1,9.346,8.757l.977,42.728a8.97,8.97,0,0,1-8.036,9.127h0a2.98,2.98,0,0,0-2.669,3.079l3.475,90.246a11.2,11.2,0,0,1-10.691,11.615l-105.677,4.692a2.981,2.981,0,0,1-3.112-2.889L92.554,82.408a2.98,2.98,0,0,1,2.767-3.062Z" transform="translate(-92.553 -71.701)" fill="#8d6e61"/>
          </g>
          <g id="Grupo_86658" data-name="Grupo 86658" transform="translate(34.623 13.689)" opacity="0.3">
            <path id="Trazado_141151" data-name="Trazado 141151" d="M100.533,236.258l.089,2.962,113.762-10.46L212.209,72.067s-27.615,4.185-28.117,4.185S100.533,236.258,100.533,236.258Z" transform="translate(-100.533 -72.067)"/>
          </g>
          <g id="Grupo_86662" data-name="Grupo 86662" transform="translate(12.02 4.158)">
            <g id="Grupo_86659" data-name="Grupo 86659" transform="translate(0.123 0.073)">
              <path id="Trazado_141152" data-name="Trazado 141152" d="M158.323,57.631l33.014-2.013,3.408,162.408L78.548,229.81,61.435,68.255Z" transform="translate(-61.435 -55.617)" fill="#ebebeb"/>
            </g>
            <g id="Grupo_86661" data-name="Grupo 86661">
              <g id="Grupo_86660" data-name="Grupo 86660">
                <path id="Trazado_141153" data-name="Trazado 141153" d="M158.232,57.576s-.579.075-1.711.2l-5.023.567-19.3,2.146L61.357,68.312l.1-.123c4.595,43.286,10.564,99.514,17.15,161.552l-.163-.133,26.045-2.642,90.153-9.136-.127.144c-1.459-71.01-2.655-129.251-3.335-162.41l.073.067L166.682,57.1l-6.312.367c-1.417.08-2.138.112-2.138.112s.719-.056,2.135-.148l6.309-.4,24.566-1.531.072,0v.072c.711,33.158,1.959,91.4,3.481,162.407l0,.131-.131.013-90.151,9.151L78.472,229.9l-.148.015-.016-.148c-6.557-62.04-12.5-118.271-17.076-161.559l-.011-.112.111-.012,70.856-7.719,19.305-2.087,5.026-.535C157.651,57.629,158.232,57.576,158.232,57.576Z" transform="translate(-61.221 -55.49)" fill="#263238"/>
              </g>
            </g>
          </g>
          <g id="Grupo_86666" data-name="Grupo 86666" transform="translate(6.37)">
            <g id="Grupo_86663" data-name="Grupo 86663" transform="translate(0 0.133)">
              <path id="Trazado_141154" data-name="Trazado 141154" d="M51.393,59.83l15.73,163.45,121.7-11.464L171.269,48.489Z" transform="translate(-51.393 -48.489)" fill="#fff"/>
            </g>
            <g id="Grupo_86665" data-name="Grupo 86665" transform="translate(0)">
              <g id="Grupo_86664" data-name="Grupo 86664">
                <path id="Trazado_141155" data-name="Trazado 141155" d="M51.393,59.732,171.258,48.269l.12-.012.013.12C176.325,94.228,182.4,150.7,188.968,211.7l.016.151-.151.014-.863.082L67.136,223.317,67,223.33l-.013-.135c-9.234-96.78-15.482-162.272-15.6-163.463.116,1.19,6.472,66.672,15.865,163.437l-.147-.122,120.832-11.4.862-.081-.135.165c-6.544-61-12.6-117.479-17.522-163.331l.133.108Z" transform="translate(-51.393 -48.258)" fill="#263238"/>
              </g>
            </g>
          </g>
          <g id="Grupo_86675" data-name="Grupo 86675" transform="translate(99.7 117.543)">
            <g id="Grupo_86668" data-name="Grupo 86668" transform="translate(0)">
              <g id="Grupo_86667" data-name="Grupo 86667">
                <path id="Trazado_141156" data-name="Trazado 141156" d="M213.721,270.594a17.937,17.937,0,1,1,17.9,17.979A17.958,17.958,0,0,1,213.721,270.594Zm35.545.083a17.608,17.608,0,1,0-17.649,17.566A17.628,17.628,0,0,0,249.266,270.678Z" transform="translate(-213.721 -252.699)" fill="#e0e0e0"/>
              </g>
            </g>
            <g id="Grupo_86670" data-name="Grupo 86670" transform="translate(2.045 2.292)">
              <g id="Grupo_86669" data-name="Grupo 86669">
                <path id="Trazado_141157" data-name="Trazado 141157" d="M217.278,272.294a15.644,15.644,0,1,1,15.608,15.681A15.663,15.663,0,0,1,217.278,272.294Zm28.981.068a13.337,13.337,0,1,0-13.368,13.3A13.352,13.352,0,0,0,246.259,272.362Z" transform="translate(-217.278 -256.686)" fill="url(#linear-gradient)"/>
              </g>
            </g>
            <g id="Grupo_86672" data-name="Grupo 86672" transform="translate(5.895 12.94)">
              <g id="Grupo_86671" data-name="Grupo 86671">
                <path id="Trazado_141158" data-name="Trazado 141158" d="M223.974,280.395a11.453,11.453,0,0,1,1.24-5.189l2.059,1.041a9.17,9.17,0,0,0-.991,4.153,9.268,9.268,0,0,0,14.093,7.932l1.2,1.969a11.576,11.576,0,0,1-17.605-9.906Z" transform="translate(-223.974 -275.206)" fill="url(#linear-gradient)"/>
              </g>
            </g>
            <g id="Grupo_86674" data-name="Grupo 86674" transform="translate(12.127 6.583)">
              <g id="Grupo_86673" data-name="Grupo 86673">
                <path id="Trazado_141159" data-name="Trazado 141159" d="M234.814,265.453a11.576,11.576,0,0,1,15.137,16.436L248,280.657A9.269,9.269,0,0,0,235.881,267.5Z" transform="translate(-234.814 -264.149)" fill="url(#linear-gradient)"/>
              </g>
            </g>
          </g>
          <g id="Grupo_86678" data-name="Grupo 86678" transform="translate(20.757 42.179)">
            <g id="Grupo_86677" data-name="Grupo 86677">
              <path id="Trazado_141168" data-name="Trazado 141168" d="M179.023,121.622c.008.083-22.957,2.318-51.287,4.993s-51.312,4.778-51.32,4.7,22.952-2.317,51.292-4.993S179.016,121.54,179.023,121.622Z" transform="translate(-76.416 -121.62)" fill="#263238"/>
            </g>
          </g>
          <g id="Grupo_86680" data-name="Grupo 86680" transform="translate(20.32 40.892)">
            <g id="Grupo_86679" data-name="Grupo 86679">
              <path id="Trazado_141169" data-name="Trazado 141169" d="M123.023,119.385c.008.083-10.59,1.15-23.668,2.385s-23.691,2.169-23.7,2.087,10.588-1.15,23.671-2.385S123.014,119.3,123.023,119.385Z" transform="translate(-75.656 -119.38)" fill="#263238"/>
            </g>
          </g>
          <g id="Grupo_86682" data-name="Grupo 86682" transform="translate(21.204 48.84)">
            <g id="Grupo_86681" data-name="Grupo 86681">
              <path id="Trazado_141170" data-name="Trazado 141170" d="M179.8,133.206c.008.082-22.957,2.318-51.287,4.993s-51.312,4.777-51.32,4.7,22.952-2.318,51.292-4.993S179.794,133.123,179.8,133.206Z" transform="translate(-77.194 -133.204)" fill="#263238"/>
            </g>
          </g>
          <g id="Grupo_86684" data-name="Grupo 86684" transform="translate(21.651 55.499)">
            <g id="Grupo_86683" data-name="Grupo 86683">
              <path id="Trazado_141171" data-name="Trazado 141171" d="M180.579,144.789c.008.082-22.957,2.318-51.287,4.993s-51.312,4.777-51.32,4.7,22.952-2.318,51.292-4.993S180.572,144.707,180.579,144.789Z" transform="translate(-77.972 -144.787)" fill="#263238"/>
            </g>
          </g>
          <g id="Grupo_86686" data-name="Grupo 86686" transform="translate(22.098 62.159)">
            <g id="Grupo_86685" data-name="Grupo 86685">
              <path id="Trazado_141172" data-name="Trazado 141172" d="M181.357,156.372c.008.082-22.957,2.318-51.287,4.993s-51.312,4.777-51.32,4.7,22.952-2.318,51.292-4.993S181.35,156.29,181.357,156.372Z" transform="translate(-78.75 -156.37)" fill="#263238"/>
            </g>
          </g>
          <g id="Grupo_86688" data-name="Grupo 86688" transform="translate(22.546 68.818)">
            <g id="Grupo_86687" data-name="Grupo 86687">
              <path id="Trazado_141173" data-name="Trazado 141173" d="M182.135,167.955c.008.082-22.957,2.318-51.287,4.993s-51.312,4.777-51.32,4.7,22.952-2.317,51.292-4.993S182.128,167.873,182.135,167.955Z" transform="translate(-79.528 -167.953)" fill="#263238"/>
            </g>
          </g>
          <g id="Grupo_86690" data-name="Grupo 86690" transform="translate(22.993 75.478)">
            <g id="Grupo_86689" data-name="Grupo 86689">
              <path id="Trazado_141174" data-name="Trazado 141174" d="M182.913,179.538c.008.083-22.957,2.318-51.287,4.993s-51.312,4.778-51.32,4.7,22.952-2.318,51.292-4.993S182.906,179.456,182.913,179.538Z" transform="translate(-80.306 -179.536)" fill="#263238"/>
            </g>
          </g>
          <g id="Grupo_86692" data-name="Grupo 86692" transform="translate(24.78 82.138)">
            <g id="Grupo_86691" data-name="Grupo 86691">
              <path id="Trazado_141175" data-name="Trazado 141175" d="M184.681,191.122c.008.082-22.657,2.289-50.617,4.93s-50.643,4.714-50.65,4.632,22.652-2.289,50.622-4.93S184.674,191.04,184.681,191.122Z" transform="translate(-83.414 -191.12)" fill="#263238"/>
            </g>
          </g>
          <g id="Grupo_86694" data-name="Grupo 86694" transform="translate(25.368 94.946)">
            <g id="Grupo_86693" data-name="Grupo 86693">
              <path id="Trazado_141176" data-name="Trazado 141176" d="M145.578,213.4c.007.082-13.675,1.382-30.556,2.9s-30.579,2.686-30.586,2.6S98.108,217.524,115,216,145.571,213.319,145.578,213.4Z" transform="translate(-84.436 -213.397)" fill="#263238"/>
            </g>
          </g>
          <g id="Grupo_86696" data-name="Grupo 86696" transform="translate(32.676 149.988)">
            <g id="Grupo_86695" data-name="Grupo 86695">
              <path id="Trazado_141177" data-name="Trazado 141177" d="M134.368,309.138c.007.082-8.32.857-18.6,1.729S97.155,312.38,97.148,312.3s8.318-.857,18.6-1.729S134.361,309.056,134.368,309.138Z" transform="translate(-97.148 -309.131)"/>
            </g>
          </g>
          <g id="Grupo_86698" data-name="Grupo 86698" transform="translate(33.01 156.342)">
            <g id="Grupo_86697" data-name="Grupo 86697">
              <path id="Trazado_141178" data-name="Trazado 141178" d="M118.621,320.194c.007.082-4.665.546-10.433,1.036s-10.452.82-10.459.738,4.663-.546,10.434-1.036S118.614,320.111,118.621,320.194Z" transform="translate(-97.729 -320.181)"/>
            </g>
          </g>
          <g id="Grupo_86700" data-name="Grupo 86700" transform="translate(28.039 109.474)">
            <g id="Grupo_86699" data-name="Grupo 86699">
              <path id="Trazado_141179" data-name="Trazado 141179" d="M113.664,238.673c.008.082-5.488.691-12.275,1.36s-12.3,1.144-12.306,1.062,5.487-.691,12.277-1.36S113.656,238.591,113.664,238.673Z" transform="translate(-89.083 -238.664)" fill="url(#linear-gradient-4)"/>
            </g>
          </g>
          <g id="Grupo_86701" data-name="Grupo 86701" transform="translate(19.207 135.692)" opacity="0.3">
            <path id="Trazado_141180" data-name="Trazado 141180" d="M74.106,295.842l11.171-2.159,6.247-9.417-17.8,5.847Z" transform="translate(-73.721 -284.265)"/>
          </g>
          <g id="Grupo_86704" data-name="Grupo 86704" transform="translate(0 132.409)">
            <g id="Grupo_86702" data-name="Grupo 86702">
              <path id="Trazado_141181" data-name="Trazado 141181" d="M40.314,281.378l29.828-2.824,7.182,3.283-5.732,6.448-30.3,3.267Z" transform="translate(-40.314 -278.554)" fill="#12263f"/>
            </g>
            <g id="Grupo_86703" data-name="Grupo 86703" transform="translate(9.883 4.699)">
              <path id="Trazado_141182" data-name="Trazado 141182" d="M61.012,286.728l.383,3.825-.885.089-.158-1.568-1.737.175.158,1.568-.885.089L57.5,287.08l.885-.089.152,1.509,1.737-.175-.151-1.509Z" transform="translate(-57.503 -286.728)" fill="#fff"/>
              <path id="Trazado_141183" data-name="Trazado 141183" d="M68.21,289.4l-2.224.224a.788.788,0,0,0,.9.506,1,1,0,0,0,.709-.359l.5.446a1.725,1.725,0,0,1-2.995-.748A1.5,1.5,0,0,1,66.52,287.8a1.463,1.463,0,0,1,1.683,1.371C68.21,289.238,68.208,289.332,68.21,289.4Zm-2.285-.273,1.448-.145a.738.738,0,0,0-1.448.145Z" transform="translate(-60.73 -287.18)" fill="#fff"/>
              <path id="Trazado_141184" data-name="Trazado 141184" d="M73.053,287.123l.079.788c-.072,0-.126,0-.192.008a.725.725,0,0,0-.7.9l.139,1.388-.853.085-.294-2.94.814-.082.039.388A1.193,1.193,0,0,1,73.053,287.123Z" transform="translate(-63.339 -286.896)" fill="#fff"/>
              <path id="Trazado_141185" data-name="Trazado 141185" d="M78.22,288.4,76,288.622a.788.788,0,0,0,.9.507,1,1,0,0,0,.709-.359l.5.446a1.725,1.725,0,0,1-2.995-.749A1.5,1.5,0,0,1,76.53,286.8a1.463,1.463,0,0,1,1.683,1.371C78.22,288.234,78.218,288.328,78.22,288.4Zm-2.285-.274,1.448-.145a.738.738,0,0,0-1.448.145Z" transform="translate(-64.985 -286.753)" fill="#fff"/>
            </g>
          </g>
          <g id="Grupo_86706" data-name="Grupo 86706" transform="translate(42.562 108.746)">
            <g id="Grupo_86705" data-name="Grupo 86705">
              <path id="Trazado_141186" data-name="Trazado 141186" d="M162.224,237.4s.035.009.1.034a1.441,1.441,0,0,1,.29.137,4.155,4.155,0,0,1,.96.812,13.754,13.754,0,0,1,2.417,4.168,17.462,17.462,0,0,1,1.253,7.5,11.35,11.35,0,0,1-.407,2.287,15.269,15.269,0,0,1-4.1,6.6,15.936,15.936,0,0,1-4.928,3.224,13.5,13.5,0,0,1-6.294.99,13.808,13.808,0,0,1-11.052-7.893,11.262,11.262,0,0,1-1-3.653,8.583,8.583,0,0,1,.4-3.854,6.2,6.2,0,0,1,2.3-3.218,4.459,4.459,0,0,1,1.913-.715,4.58,4.58,0,0,1,2.046.24,6.04,6.04,0,0,1,3.154,2.616,9.7,9.7,0,0,1,1.251,3.985,17.408,17.408,0,0,1-1.228,8.368,16.466,16.466,0,0,1-5.056,6.772,15.178,15.178,0,0,1-7.61,3.062,14.268,14.268,0,0,1-7.811-1.272,13.343,13.343,0,0,1-5.556-5.162,12.95,12.95,0,0,1-1.88-6.971,9.449,9.449,0,0,1,.67-3.431,6.8,6.8,0,0,1,1.965-2.76,4.065,4.065,0,0,1,3.118-.922,4.668,4.668,0,0,1,2.749,1.531,5.851,5.851,0,0,1,1.379,2.7,7.6,7.6,0,0,1,0,2.9,15.05,15.05,0,0,1-2.046,4.947,23.783,23.783,0,0,1-2.872,3.819,26,26,0,0,1-3.057,2.817,26.471,26.471,0,0,1-2.91,1.935,22.4,22.4,0,0,1-4.416,1.949c-1.053.336-1.622.451-1.622.451s.137-.049.408-.131.679-.183,1.2-.377a23.225,23.225,0,0,0,4.377-1.993,26.626,26.626,0,0,0,2.88-1.946,26.044,26.044,0,0,0,3.021-2.818,23.685,23.685,0,0,0,2.833-3.8,14.908,14.908,0,0,0,2-4.887,7.4,7.4,0,0,0,0-2.817,5.637,5.637,0,0,0-1.333-2.588,4.433,4.433,0,0,0-2.611-1.448,3.818,3.818,0,0,0-2.93.878,6.547,6.547,0,0,0-1.884,2.663,9.185,9.185,0,0,0-.645,3.34,12.689,12.689,0,0,0,1.854,6.822,13.072,13.072,0,0,0,5.444,5.046,13.981,13.981,0,0,0,7.654,1.238,14.887,14.887,0,0,0,7.459-3.005,16.172,16.172,0,0,0,4.962-6.65,17.124,17.124,0,0,0,1.209-8.222,9.4,9.4,0,0,0-1.208-3.864,5.746,5.746,0,0,0-3-2.492,4.279,4.279,0,0,0-1.916-.228,4.167,4.167,0,0,0-1.786.666,5.915,5.915,0,0,0-2.187,3.07,8.3,8.3,0,0,0-.393,3.733,11,11,0,0,0,.972,3.568,13.558,13.558,0,0,0,10.823,7.76,13.279,13.279,0,0,0,6.185-.957,15.742,15.742,0,0,0,4.868-3.163,15.115,15.115,0,0,0,4.077-6.5,11.173,11.173,0,0,0,.412-2.25,17.441,17.441,0,0,0-1.195-7.449,14,14,0,0,0-2.353-4.17,4.326,4.326,0,0,0-.93-.826C162.365,237.443,162.219,237.413,162.224,237.4Z" transform="translate(-114.342 -237.399)"/>
            </g>
          </g>
          <g id="Grupo_86708" data-name="Grupo 86708" transform="translate(35.683 12.089)">
            <g id="Grupo_86707" data-name="Grupo 86707">
              <path id="Trazado_141187" data-name="Trazado 141187" d="M166.325,85.513s-.017-.1-.039-.282-.053-.464-.095-.818c-.08-.727-.2-1.785-.352-3.16-.3-2.759-.737-6.777-1.289-11.859l.1.08-62.088,6.545h0l.133-.164c.577,5.534,1.14,10.934,1.682,16.129l-.161-.131,44.308-4.562,13.052-1.321,3.518-.348.915-.086c.208-.018.319-.024.319-.024s-.1.017-.3.041l-.9.1-3.483.383-13.01,1.4-44.4,4.7-.145.015-.016-.145c-.544-5.195-1.109-10.595-1.688-16.128l-.016-.149.149-.016h0l62.1-6.427.09-.01.009.09c.512,5.11.917,9.15,1.2,11.923.133,1.368.236,2.422.306,3.144.032.348.057.614.075.8S166.325,85.513,166.325,85.513Z" transform="translate(-102.378 -69.285)" fill="#455a64"/>
            </g>
          </g>
          <text id="Decretos_y_leyes" data-name="Decretos y leyes" transform="matrix(0.995, -0.105, 0.105, 0.995, 40.333, 29.222)" fill="#12263f" font-size="7" font-family="Roboto-Bold, Roboto" font-weight="700"><tspan x="0" y="0">Decretos y leyes</tspan></text>
        </g>
      </g>
    </g>
  </g>
</svg>
