<svg xmlns="http://www.w3.org/2000/svg" xmlns:xlink="http://www.w3.org/1999/xlink" width="117.692" height="117.691" viewBox="0 0 117.692 117.691">
  <defs>
    <radialGradient id="radial-gradient" cx="0.076" cy="0.019" r="1.465" gradientTransform="translate(0.001)" gradientUnits="objectBoundingBox">
      <stop offset="0" stop-color="#f6f6f7"/>
      <stop offset="0.477" stop-color="#f9f9fa"/>
      <stop offset="0.715" stop-color="#fff"/>
    </radialGradient>
  </defs>
  <g id="Grupo_91134" data-name="Grupo 91134" transform="translate(-586.654 -586.309)">
    <g id="Grupo_87336" data-name="Grupo 87336" transform="translate(586.654 586.309)">
      <g id="Grupo_18531" data-name="Grupo 18531" transform="translate(0 0)">
        <g id="Grupo_18423" data-name="Grupo 18423" transform="translate(0 0)">
          <g id="Grupo_18421" data-name="Grupo 18421">
            <g id="Grupo_18420" data-name="Grupo 18420">
              <g id="Grupo_18419" data-name="Grupo 18419">
                <path id="Trazado_40936" data-name="Trazado 40936" d="M312.314,2204.565a58.846,58.846,0,1,1-58.845-58.844A58.845,58.845,0,0,1,312.314,2204.565Z" transform="translate(-194.623 -2145.721)" fill="#fff"/>
              </g>
            </g>
          </g>
          <path id="Trazado_40937" data-name="Trazado 40937" d="M311.665,2203.857A58.844,58.844,0,1,0,252.82,2262.7,58.613,58.613,0,0,0,311.665,2203.857Z" transform="translate(-193.974 -2145.013)" fill="url(#radial-gradient)"/>
          <path id="Trazado_40938" data-name="Trazado 40938" d="M291.975,2198.12a44.917,44.917,0,1,0-44.917,44.917A44.75,44.75,0,0,0,291.975,2198.12Z" transform="translate(-188.034 -2139.08)" fill="none" stroke="#00223d" stroke-miterlimit="10" stroke-width="4"/>
          <g id="Grupo_18422" data-name="Grupo 18422" transform="translate(10.425 33.038)">
            <path id="Trazado_40939" data-name="Trazado 40939" d="M301.861,2164.488a58.853,58.853,0,0,1-101.316,58.6,58.666,58.666,0,0,0,101.316-58.6Z" transform="translate(-200.545 -2164.488)" fill="#eceef0"/>
          </g>
        </g>
      </g>
      <g id="lYsqsh.tif" transform="translate(-1663.913 -35.767)">
        <g id="Grupo_90230" data-name="Grupo 90230" transform="translate(1699.235 67.08)">
          <path id="Trazado_141135" data-name="Trazado 141135" d="M1713.159,67.08a16.763,16.763,0,0,1,2.982,1.229,6.767,6.767,0,0,1,3.135,6.019c.01,8.648.042,17.3.045,25.944a1.409,1.409,0,0,0,.609,1.252,12.939,12.939,0,1,1-20.445,12.687c-.97-5.341.9-9.715,5.241-12.99a1.011,1.011,0,0,0,.478-.917q-.015-12.944,0-25.887a6.9,6.9,0,0,1,3.588-6.394,15.423,15.423,0,0,1,2.564-.943ZM1702.6,111.813c.039.466.043.959.126,1.438a9.618,9.618,0,0,0,19.112-.789c.137-3.869-1.654-6.733-4.792-8.824a2.175,2.175,0,0,1-1.105-1.99c.019-3.854-.006-7.709-.015-11.563-.013-5.34-.014-10.68-.047-16.02a3.632,3.632,0,0,0-7.152-.864,6.024,6.024,0,0,0-.133,1.453q-.016,13.4,0,26.793a2.162,2.162,0,0,1-1.166,2.064A9.52,9.52,0,0,0,1702.6,111.813Z" transform="translate(-1699.235 -67.08)" fill="#12263f"/>
          <path id="Trazado_141136" data-name="Trazado 141136" d="M2001.73,67.08a1.935,1.935,0,0,1,1.34,2.144c-.033.579.015,1.162-.014,1.742a1.687,1.687,0,1,1-3.373-.068c-.01-.543.035-1.09-.011-1.629a1.975,1.975,0,0,1,1.267-2.188Z" transform="translate(-1965.701 -67.08)" fill="#12263f"/>
          <path id="Trazado_141137" data-name="Trazado 141137" d="M1963.29,346.642c-.476.577-.95,1.157-1.43,1.731a1.7,1.7,0,1,1-2.633-2.12q2.228-2.73,4.481-5.44a1.686,1.686,0,0,1,2.795.015q2.211,2.672,4.409,5.354a1.7,1.7,0,1,1-2.592,2.17c-.473-.558-.934-1.127-1.522-1.839v.782q0,8.772,0,17.543a3.679,3.679,0,0,1-.085.892,1.667,1.667,0,0,1-1.781,1.244,1.688,1.688,0,0,1-1.507-1.571c-.014-.206-.008-.414-.008-.62q0-8.743,0-17.487v-.606Z" transform="translate(-1929.434 -309.217)" fill="#12263f"/>
          <path id="Trazado_141138" data-name="Trazado 141138" d="M1966.483,143.511a6.139,6.139,0,1,1,6.156-6.089A6.157,6.157,0,0,1,1966.483,143.511Zm2.772-6.122a2.757,2.757,0,0,0-2.748-2.773,2.79,2.79,0,0,0-2.757,2.779,2.76,2.76,0,0,0,2.734,2.731A2.731,2.731,0,0,0,1969.256,137.389Z" transform="translate(-1930.848 -123.98)" fill="#12263f"/>
          <path id="Trazado_141139" data-name="Trazado 141139" d="M1931.507,100.486a1.777,1.777,0,0,1-.954,1.66,1.565,1.565,0,0,1-1.835-.221,20.45,20.45,0,0,1-1.748-1.75,1.674,1.674,0,0,1,2.327-2.387,19.086,19.086,0,0,1,1.822,1.832A2.806,2.806,0,0,1,1931.507,100.486Z" transform="translate(-1900.871 -93.98)" fill="#12263f"/>
          <path id="Trazado_141140" data-name="Trazado 141140" d="M2062.38,235.24a4.838,4.838,0,0,1-.972-.539,18.874,18.874,0,0,1-1.478-1.462,1.69,1.69,0,1,1,2.373-2.4c.53.5,1.053,1.016,1.546,1.555a1.606,1.606,0,0,1,.288,1.877A1.768,1.768,0,0,1,2062.38,235.24Z" transform="translate(-2018.685 -211.864)" fill="#12263f"/>
          <path id="Trazado_141141" data-name="Trazado 141141" d="M1999.824,257.634c0-.356-.009-.713,0-1.069a1.681,1.681,0,0,1,3.358-.121,18.307,18.307,0,0,1,0,2.417,1.668,1.668,0,0,1-1.73,1.575,1.689,1.689,0,0,1-1.63-1.733C1999.816,258.347,1999.823,257.991,1999.824,257.634Z" transform="translate(-1965.842 -233.643)" fill="#12263f"/>
          <path id="Trazado_141142" data-name="Trazado 141142" d="M1899.053,170.7c.356,0,.713-.011,1.068,0a1.684,1.684,0,0,1,.076,3.367,21.1,21.1,0,0,1-2.36,0,1.683,1.683,0,0,1,.091-3.362C1898.3,170.685,1898.678,170.7,1899.053,170.7Z" transform="translate(-1873.985 -158.98)" fill="#12263f"/>
          <path id="Trazado_141143" data-name="Trazado 141143" d="M2086.781,170.693c.356,0,.713-.012,1.068,0a1.683,1.683,0,0,1,.068,3.363,21.421,21.421,0,0,1-2.36,0,1.684,1.684,0,0,1,.1-3.366c.375-.013.75,0,1.125,0Z" transform="translate(-2040.457 -158.975)" fill="#12263f"/>
          <path id="Trazado_141144" data-name="Trazado 141144" d="M2061.162,102.376a1.767,1.767,0,0,1-1.7-1.013,1.571,1.571,0,0,1,.25-1.786c.539-.6,1.112-1.169,1.706-1.712a1.679,1.679,0,0,1,2.386,2.351,19.755,19.755,0,0,1-1.755,1.741A3.11,3.11,0,0,1,2061.162,102.376Z" transform="translate(-2018.593 -94.005)" fill="#12263f"/>
          <path id="Trazado_141145" data-name="Trazado 141145" d="M1928.376,235.212a1.757,1.757,0,0,1-1.682-1.022,1.572,1.572,0,0,1,.265-1.783c.541-.6,1.112-1.169,1.708-1.71a1.671,1.671,0,0,1,2.254.038,1.627,1.627,0,0,1,.18,2.239,18.82,18.82,0,0,1-1.869,1.863A2.67,2.67,0,0,1,1928.376,235.212Z" transform="translate(-1900.837 -211.83)" fill="#12263f"/>
          <path id="Trazado_141146" data-name="Trazado 141146" d="M1767.837,149.23a6.2,6.2,0,0,1,4.317,7.113,6.138,6.138,0,1,1-7.7-7.115v-.711q0-15.342,0-30.685a3.369,3.369,0,0,1,.064-.838,1.65,1.65,0,0,1,1.789-1.228,1.685,1.685,0,0,1,1.518,1.56c.02.205.01.413.01.62q0,15.286,0,30.572Zm1.043,5.922a2.718,2.718,0,0,0-2.766-2.735,2.745,2.745,0,1,0,2.766,2.735Z" transform="translate(-1753.133 -110.257)" fill="#12263f"/>
        </g>
      </g>
    </g>
  </g>
</svg>
