<svg xmlns="http://www.w3.org/2000/svg" xmlns:xlink="http://www.w3.org/1999/xlink" width="117.692" height="117.691" viewBox="0 0 117.692 117.691">
  <defs>
    <radialGradient id="radial-gradient" cx="0.076" cy="0.019" r="1.465" gradientTransform="translate(0.001)" gradientUnits="objectBoundingBox">
      <stop offset="0" stop-color="#f6f6f7"/>
      <stop offset="0.477" stop-color="#f9f9fa"/>
      <stop offset="0.715" stop-color="#fff"/>
    </radialGradient>
  </defs>
  <g id="Grupo_91133" data-name="Grupo 91133" transform="translate(-303.654 -586.309)">
    <g id="Grupo_87331" data-name="Grupo 87331" transform="translate(303.654 586.309)">
      <g id="Grupo_18531" data-name="Grupo 18531" transform="translate(0 0)">
        <g id="Grupo_18423" data-name="Grupo 18423" transform="translate(0 0)">
          <g id="Grupo_18421" data-name="Grupo 18421">
            <g id="Grupo_18420" data-name="Grupo 18420">
              <g id="Grupo_18419" data-name="Grupo 18419">
                <path id="Trazado_40936" data-name="Trazado 40936" d="M312.314,2204.565a58.846,58.846,0,1,1-58.845-58.844A58.845,58.845,0,0,1,312.314,2204.565Z" transform="translate(-194.623 -2145.721)" fill="#fff"/>
              </g>
            </g>
          </g>
          <path id="Trazado_40937" data-name="Trazado 40937" d="M311.665,2203.857A58.844,58.844,0,1,0,252.82,2262.7,58.613,58.613,0,0,0,311.665,2203.857Z" transform="translate(-193.974 -2145.013)" fill="url(#radial-gradient)"/>
          <path id="Trazado_40938" data-name="Trazado 40938" d="M291.975,2198.12a44.917,44.917,0,1,0-44.917,44.917A44.75,44.75,0,0,0,291.975,2198.12Z" transform="translate(-188.034 -2139.08)" fill="none" stroke="#00223d" stroke-miterlimit="10" stroke-width="4"/>
          <g id="Grupo_18422" data-name="Grupo 18422" transform="translate(10.425 33.038)">
            <path id="Trazado_40939" data-name="Trazado 40939" d="M301.861,2164.488a58.853,58.853,0,0,1-101.316,58.6,58.666,58.666,0,0,0,101.316-58.6Z" transform="translate(-200.545 -2164.488)" fill="#eceef0"/>
          </g>
        </g>
      </g>
      <g id="vcjCSE" transform="translate(-1488.365 -164.127)">
        <g id="Grupo_90229" data-name="Grupo 90229" transform="translate(1516.711 192.053)">
          <path id="Trazado_141125" data-name="Trazado 141125" d="M1552.251,258.412c1.572.252,3.106.367,4.568.757a10.882,10.882,0,0,1,8.123,11.113,11.22,11.22,0,0,1-9.224,10.6,2.8,2.8,0,0,1-1.52-5.364c.4-.154.829-.222,1.237-.354a5.5,5.5,0,0,0,3.829-6,5.246,5.246,0,0,0-4.526-4.837,38.159,38.159,0,0,0-4.429-.22c-1.984-.063-2.843-.8-3.187-2.75a19.064,19.064,0,0,0-.47-2.089c-1.265-4.279-4.129-6.081-8.847-5.59-3.5.364-6.015,3.22-6.349,7.2-.2,2.415-.98,3.187-3.385,3.36-2.487.179-4.411,1.2-5.317,3.652-.88,2.384-.2,4.649,1.908,6.536a2.882,2.882,0,0,1,.546,4.074,2.827,2.827,0,0,1-4.19.248,10.932,10.932,0,0,1-4.091-11.1c.766-4.4,3.532-7.194,7.788-8.473.819-.246,1.379-.457,1.675-1.431,1.92-6.318,6.357-9.638,12.746-9.673,6.2-.034,10.753,3.342,12.813,9.492C1552.052,257.866,1552.166,258.171,1552.251,258.412Z" transform="translate(-1516.711 -232.001)" fill="#12263f"/>
          <path id="Trazado_141126" data-name="Trazado 141126" d="M1643.887,232.553a11.115,11.115,0,0,1,10.087,15.728,2.2,2.2,0,0,1-2.891,1.363c-1.2-.5-1.572-1.589-1.014-2.975,1.286-3.195.737-6.033-1.568-8.106-2.238-2.012-5.24-2.259-8.247-.678-1.381.726-2.449.522-3.107-.593a2.154,2.154,0,0,1,.918-3.05A10.318,10.318,0,0,1,1643.887,232.553Z" transform="translate(-1602.378 -220.938)" fill="#12263f"/>
          <path id="Trazado_141127" data-name="Trazado 141127" d="M1608.011,342.664c.154-.594.36-1.425.584-2.25,1.105-4.089,2.2-8.181,3.331-12.262.5-1.792,1.663-2.541,3.12-2.121,1.424.411,2.071,1.723,1.616,3.441q-1.863,7.041-3.782,14.068a2.474,2.474,0,0,1-4.87-.876Z" transform="translate(-1581.824 -287.525)" fill="#12263f"/>
          <path id="Trazado_141128" data-name="Trazado 141128" d="M1552.238,345.585c-2.1-.029-3.338-1.5-2.956-2.957q1.953-7.467,4.029-14.9a2.45,2.45,0,0,1,4.74,1.231c-1.285,4.982-2.6,9.959-4.072,14.887C1553.737,344.656,1552.631,345.21,1552.238,345.585Z" transform="translate(-1539.892 -287.551)" fill="#12263f"/>
          <path id="Trazado_141129" data-name="Trazado 141129" d="M1582.031,349.036c-.335,1.245-.728,2.717-1.126,4.186-.948,3.495-1.888,6.992-2.853,10.482-.453,1.637-1.665,2.474-3.022,2.147a2.5,2.5,0,0,1-1.748-3.368q1.9-7.113,3.859-14.211a2.352,2.352,0,0,1,2.892-1.9A2.488,2.488,0,0,1,1582.031,349.036Z" transform="translate(-1556.964 -302.077)" fill="#12263f"/>
          <path id="Trazado_141130" data-name="Trazado 141130" d="M1654.068,196.179c0-.716-.052-1.437.013-2.148a1.971,1.971,0,0,1,2.043-1.976,1.873,1.873,0,0,1,2.113,1.723,25.2,25.2,0,0,1,0,4.713,1.874,1.874,0,0,1-2.209,1.761,1.994,1.994,0,0,1-1.955-2.068C1654.033,197.518,1654.067,196.848,1654.068,196.179Z" transform="translate(-1614.661 -192.053)" fill="#12263f"/>
          <path id="Trazado_141131" data-name="Trazado 141131" d="M1716,267.76a15,15,0,0,1-2.281-.02,2.1,2.1,0,0,1,.188-4.167,38.173,38.173,0,0,1,4.143,0,1.935,1.935,0,0,1,2.011,1.981,1.913,1.913,0,0,1-1.781,2.186A15.534,15.534,0,0,1,1716,267.76Z" transform="translate(-1655.939 -243.021)" fill="#12263f"/>
          <path id="Trazado_141132" data-name="Trazado 141132" d="M1702.156,215.353a7.605,7.605,0,0,1-.81,1.6c-.93,1.022-1.907,2.005-2.923,2.942a1.9,1.9,0,0,1-2.816.029,1.964,1.964,0,0,1-.12-2.932,21.066,21.066,0,0,1,3.06-2.992,2.734,2.734,0,0,1,2.212-.236C1701.334,213.964,1701.689,214.786,1702.156,215.353Z" transform="translate(-1643.788 -207.443)" fill="#12263f"/>
          <path id="Trazado_141133" data-name="Trazado 141133" d="M1699.973,311.728a9.507,9.507,0,0,1-1.564-.905c-.948-.864-1.86-1.771-2.739-2.707a2.039,2.039,0,0,1-.032-3.041,2.018,2.018,0,0,1,2.938.063,20.937,20.937,0,0,1,2.875,2.96,2.66,2.66,0,0,1,.237,2.208C1701.443,310.906,1700.579,311.256,1699.973,311.728Z" transform="translate(-1643.849 -272.23)" fill="#12263f"/>
          <path id="Trazado_141134" data-name="Trazado 141134" d="M1605.14,213.416c1.819-.056,5.675,3.661,5.445,4.943a2.672,2.672,0,0,1-1.2,1.756,2.368,2.368,0,0,1-2.074-.2,18.53,18.53,0,0,1-3.227-3.222,2.467,2.467,0,0,1-.208-2.065C1604.11,214.032,1604.88,213.648,1605.14,213.416Z" transform="translate(-1578.786 -207.289)" fill="#12263f"/>
        </g>
      </g>
    </g>
  </g>
</svg>
