<svg xmlns="http://www.w3.org/2000/svg" xmlns:xlink="http://www.w3.org/1999/xlink" width="1221" height="256" viewBox="0 0 1221 256">
  <defs>
    <linearGradient id="linear-gradient" x1="0.5" x2="0.5" y2="1" gradientUnits="objectBoundingBox">
      <stop offset="0" stop-color="#fff"/>
      <stop offset="1" stop-color="#d2e6ee"/>
    </linearGradient>
    <linearGradient id="linear-gradient-2" x1="0.5" x2="0.5" y2="1" gradientUnits="objectBoundingBox">
      <stop offset="0" stop-color="#a9bc62"/>
      <stop offset="1" stop-color="#7eb501"/>
    </linearGradient>
    <filter id="Rectángulo_34201" x="0" y="0" width="277" height="256" filterUnits="userSpaceOnUse">
      <feOffset dy="3" input="SourceAlpha"/>
      <feGaussianBlur stdDeviation="8" result="blur"/>
      <feFlood flood-opacity="0.161"/>
      <feComposite operator="in" in2="blur"/>
      <feComposite in="SourceGraphic"/>
    </filter>
    <radialGradient id="radial-gradient" cx="0.076" cy="0.019" r="1.465" gradientTransform="translate(0.001)" gradientUnits="objectBoundingBox">
      <stop offset="0" stop-color="#f6f6f7"/>
      <stop offset="0.477" stop-color="#f9f9fa"/>
      <stop offset="0.715" stop-color="#fff"/>
    </radialGradient>
    <filter id="Rectángulo_34206" x="236" y="0" width="277" height="256" filterUnits="userSpaceOnUse">
      <feOffset dy="3" input="SourceAlpha"/>
      <feGaussianBlur stdDeviation="8" result="blur-2"/>
      <feFlood flood-opacity="0.161"/>
      <feComposite operator="in" in2="blur-2"/>
      <feComposite in="SourceGraphic"/>
    </filter>
    <filter id="Rectángulo_34204" x="708" y="0" width="277" height="256" filterUnits="userSpaceOnUse">
      <feOffset dy="3" input="SourceAlpha"/>
      <feGaussianBlur stdDeviation="8" result="blur-3"/>
      <feFlood flood-opacity="0.161"/>
      <feComposite operator="in" in2="blur-3"/>
      <feComposite in="SourceGraphic"/>
    </filter>
    <filter id="Rectángulo_34205" x="944" y="0" width="277" height="256" filterUnits="userSpaceOnUse">
      <feOffset dy="3" input="SourceAlpha"/>
      <feGaussianBlur stdDeviation="8" result="blur-4"/>
      <feFlood flood-opacity="0.161"/>
      <feComposite operator="in" in2="blur-4"/>
      <feComposite in="SourceGraphic"/>
    </filter>
    <filter id="Rectángulo_34203" x="472" y="0" width="277" height="256" filterUnits="userSpaceOnUse">
      <feOffset dy="3" input="SourceAlpha"/>
      <feGaussianBlur stdDeviation="8" result="blur-5"/>
      <feFlood flood-opacity="0.161"/>
      <feComposite operator="in" in2="blur-5"/>
      <feComposite in="SourceGraphic"/>
    </filter>
  </defs>
  <g id="Grupo_91151" data-name="Grupo 91151" transform="translate(-188 -1461)">
    <rect id="Rectángulo_34197" data-name="Rectángulo 34197" width="229" height="227" transform="translate(920 1469)" fill="url(#linear-gradient)"/>
    <g id="Grupo_91128" data-name="Grupo 91128">
      <rect id="Rectángulo_34207" data-name="Rectángulo 34207" width="229" height="6" transform="translate(212 1690)" fill="url(#linear-gradient-2)"/>
      <g transform="matrix(1, 0, 0, 1, 188, 1461)" filter="url(#Rectángulo_34201)">
        <path id="Rectángulo_34201-2" data-name="Rectángulo 34201" d="M20,0H209a20,20,0,0,1,20,20V208a0,0,0,0,1,0,0H0a0,0,0,0,1,0,0V20A20,20,0,0,1,20,0Z" transform="translate(24 21)" fill="#fff"/>
      </g>
      <path id="Trazado_142530" data-name="Trazado 142530" d="M15.45,21V6.781h4.58a6.737,6.737,0,0,1,3.389.854,6.006,6.006,0,0,1,2.349,2.412,7.283,7.283,0,0,1,.854,3.491v.654a7.325,7.325,0,0,1-.825,3.5,6.032,6.032,0,0,1-2.324,2.422A6.589,6.589,0,0,1,20.128,21ZM18.878,9.428v8.936h1.191a2.666,2.666,0,0,0,2.266-1.05,5.145,5.145,0,0,0,.791-3.12v-.615a5.1,5.1,0,0,0-.791-3.105,2.713,2.713,0,0,0-2.3-1.045ZM31.7,21H28.4V10.434h3.3ZM28.2,7.709a1.469,1.469,0,0,1,.508-1.152,2.159,2.159,0,0,1,2.637,0,1.469,1.469,0,0,1,.508,1.152,1.469,1.469,0,0,1-.508,1.152,2.159,2.159,0,0,1-2.637,0A1.469,1.469,0,0,1,28.2,7.709ZM39.679,21a3.716,3.716,0,0,1-.312-.947A3.06,3.06,0,0,1,36.827,21.2a3.749,3.749,0,0,1-2.539-.9,2.875,2.875,0,0,1-1.045-2.271,2.955,2.955,0,0,1,1.27-2.6,6.468,6.468,0,0,1,3.691-.879H39.22v-.559q0-1.462-1.26-1.462a1.03,1.03,0,0,0-1.172,1.158H33.5a2.95,2.95,0,0,1,1.3-2.487,5.479,5.479,0,0,1,3.325-.956,4.8,4.8,0,0,1,3.193.986,3.429,3.429,0,0,1,1.2,2.705v4.678a4.79,4.79,0,0,0,.449,2.227V21Zm-2.061-2.148a1.836,1.836,0,0,0,1.021-.264,1.653,1.653,0,0,0,.581-.6V16.3h-.957q-1.719,0-1.719,1.543a.942.942,0,0,0,.3.728A1.1,1.1,0,0,0,37.618,18.852Zm6.338-3.213a7.134,7.134,0,0,1,.527-2.832A4.245,4.245,0,0,1,46,10.907a3.99,3.99,0,0,1,2.295-.669,3.173,3.173,0,0,1,2.578,1.113l.117-.918h2.988V20.6a4.455,4.455,0,0,1-.649,2.427,4.167,4.167,0,0,1-1.88,1.582,6.91,6.91,0,0,1-2.852.552,5.961,5.961,0,0,1-2.251-.439,4.063,4.063,0,0,1-1.665-1.143l1.377-1.934a3.018,3.018,0,0,0,2.422,1.084,1.96,1.96,0,0,0,2.188-2.246V20.15A3.09,3.09,0,0,1,48.272,21.2a3.819,3.819,0,0,1-3.125-1.479,6.13,6.13,0,0,1-1.191-3.96Zm3.3.205a3.759,3.759,0,0,0,.488,2.056,1.541,1.541,0,0,0,1.367.757,1.748,1.748,0,0,0,1.553-.713V13.5a1.7,1.7,0,0,0-1.533-.723,1.551,1.551,0,0,0-1.377.786A4.287,4.287,0,0,0,47.257,15.844Zm11.611-5.41.107,1.24a3.583,3.583,0,0,1,3.018-1.436,3.015,3.015,0,0,1,2.466.986,4.7,4.7,0,0,1,.845,2.969V21H62V14.33a1.783,1.783,0,0,0-.322-1.177,1.491,1.491,0,0,0-1.172-.376,1.569,1.569,0,0,0-1.436.762V21H55.782V10.434Zm7.842,5.186a6.236,6.236,0,0,1,.615-2.817,4.4,4.4,0,0,1,1.768-1.9,5.323,5.323,0,0,1,2.705-.664,4.858,4.858,0,0,1,3.74,1.47,5.64,5.64,0,0,1,1.367,4v.117a5.472,5.472,0,0,1-1.372,3.921,4.871,4.871,0,0,1-3.716,1.45,4.927,4.927,0,0,1-3.623-1.353,5.29,5.29,0,0,1-1.475-3.667ZM70,15.824a3.932,3.932,0,0,0,.459,2.148,1.529,1.529,0,0,0,1.357.684q1.758,0,1.8-2.705v-.332q0-2.842-1.816-2.842-1.65,0-1.787,2.451Zm13.887,2.207a.76.76,0,0,0-.439-.674,6.684,6.684,0,0,0-1.67-.527,7.615,7.615,0,0,1-2.031-.718,3.4,3.4,0,0,1-1.221-1.079,2.577,2.577,0,0,1-.42-1.455,2.92,2.92,0,0,1,1.2-2.4,4.948,4.948,0,0,1,3.145-.942,5.482,5.482,0,0,1,3.359.947,2.962,2.962,0,0,1,1.27,2.49h-3.3q0-1.27-1.338-1.27a1.326,1.326,0,0,0-.869.288.892.892,0,0,0-.352.718.819.819,0,0,0,.43.713,4.06,4.06,0,0,0,1.372.449,11.857,11.857,0,0,1,1.655.42,3.007,3.007,0,0,1,2.383,2.939,2.767,2.767,0,0,1-1.284,2.354,5.631,5.631,0,0,1-3.325.908,5.747,5.747,0,0,1-2.422-.488,4.05,4.05,0,0,1-1.66-1.328,3.007,3.007,0,0,1-.6-1.768h3.076a1.272,1.272,0,0,0,.488,1.069,2.009,2.009,0,0,0,1.2.337,1.58,1.58,0,0,0,1.011-.273A.875.875,0,0,0,83.888,18.031ZM92.433,7.807v2.627h1.738v2.285H92.433v4.834a1.234,1.234,0,0,0,.215.83,1.152,1.152,0,0,0,.85.234,4.828,4.828,0,0,0,.82-.059v2.354a6.074,6.074,0,0,1-1.855.283,3.448,3.448,0,0,1-2.51-.8,3.282,3.282,0,0,1-.811-2.432V12.719H87.794V10.434h1.348V7.807ZM98.937,21h-3.3V10.434h3.3ZM95.44,7.709a1.469,1.469,0,0,1,.508-1.152,2.159,2.159,0,0,1,2.637,0,1.469,1.469,0,0,1,.508,1.152,1.469,1.469,0,0,1-.508,1.152,2.159,2.159,0,0,1-2.637,0A1.469,1.469,0,0,1,95.44,7.709Zm9.99,10.947a1.464,1.464,0,0,0,1.074-.376,1.379,1.379,0,0,0,.371-1.05h3.086a3.653,3.653,0,0,1-1.245,2.852,4.631,4.631,0,0,1-3.208,1.113,4.689,4.689,0,0,1-3.633-1.445,5.7,5.7,0,0,1-1.328-4v-.137a6.436,6.436,0,0,1,.591-2.827,4.3,4.3,0,0,1,1.7-1.885,5.081,5.081,0,0,1,2.637-.659,4.573,4.573,0,0,1,3.271,1.143,4.053,4.053,0,0,1,1.211,3.1h-3.086a1.806,1.806,0,0,0-.4-1.26,1.382,1.382,0,0,0-1.074-.439q-1.279,0-1.494,1.631a11.508,11.508,0,0,0-.068,1.426,4.52,4.52,0,0,0,.381,2.207A1.319,1.319,0,0,0,105.431,18.656ZM117.306,21a3.716,3.716,0,0,1-.312-.947,3.06,3.06,0,0,1-2.539,1.143,3.749,3.749,0,0,1-2.539-.9,2.875,2.875,0,0,1-1.045-2.271,2.955,2.955,0,0,1,1.27-2.6,6.468,6.468,0,0,1,3.691-.879h1.016v-.559q0-1.462-1.26-1.462a1.03,1.03,0,0,0-1.172,1.158h-3.291a2.95,2.95,0,0,1,1.3-2.487,5.479,5.479,0,0,1,3.325-.956,4.8,4.8,0,0,1,3.193.986,3.429,3.429,0,0,1,1.2,2.705v4.678a4.79,4.79,0,0,0,.449,2.227V21Zm-2.061-2.148a1.836,1.836,0,0,0,1.021-.264,1.653,1.653,0,0,0,.581-.6V16.3h-.957q-1.719,0-1.719,1.543a.942.942,0,0,0,.3.728A1.1,1.1,0,0,0,115.245,18.852Zm13.115-5.439-1.084-.078a1.947,1.947,0,0,0-1.992.977V21h-3.291V10.434h3.086l.107,1.357a2.548,2.548,0,0,1,2.314-1.553,3.209,3.209,0,0,1,.918.117ZM26.881,45.656a1.464,1.464,0,0,0,1.074-.376,1.379,1.379,0,0,0,.371-1.05h3.086a3.653,3.653,0,0,1-1.245,2.852A4.631,4.631,0,0,1,26.959,48.2a4.689,4.689,0,0,1-3.633-1.445,5.7,5.7,0,0,1-1.328-4v-.137a6.436,6.436,0,0,1,.591-2.827,4.3,4.3,0,0,1,1.7-1.885,5.081,5.081,0,0,1,2.637-.659A4.573,4.573,0,0,1,30.2,38.381a4.053,4.053,0,0,1,1.211,3.1H28.326a1.807,1.807,0,0,0-.4-1.26,1.382,1.382,0,0,0-1.074-.439q-1.279,0-1.494,1.631a11.508,11.508,0,0,0-.068,1.426,4.52,4.52,0,0,0,.381,2.207A1.319,1.319,0,0,0,26.881,45.656Zm5.508-3.037A6.236,6.236,0,0,1,33,39.8a4.4,4.4,0,0,1,1.768-1.9,5.323,5.323,0,0,1,2.705-.664,4.858,4.858,0,0,1,3.74,1.47,5.64,5.64,0,0,1,1.367,4v.117a5.472,5.472,0,0,1-1.372,3.921A4.871,4.871,0,0,1,37.5,48.2a4.927,4.927,0,0,1-3.623-1.353A5.29,5.29,0,0,1,32.4,43.176Zm3.291.205a3.932,3.932,0,0,0,.459,2.148,1.529,1.529,0,0,0,1.357.684q1.758,0,1.8-2.705v-.332q0-2.842-1.816-2.842-1.65,0-1.787,2.451Zm11.465-5.391.107,1.24a3.633,3.633,0,0,1,3.018-1.436,2.675,2.675,0,0,1,2.705,1.592,3.516,3.516,0,0,1,3.105-1.592q3.213,0,3.3,3.887V48h-3.3V41.33a2.014,2.014,0,0,0-.273-1.182,1.164,1.164,0,0,0-1-.371,1.559,1.559,0,0,0-1.455.869l.01.137V48h-3.3V41.35a2.117,2.117,0,0,0-.264-1.2,1.161,1.161,0,0,0-1.006-.371,1.578,1.578,0,0,0-1.445.869V48H44.059V37.434Zm20.41,9.424A3.393,3.393,0,0,1,64.732,48.2,3.328,3.328,0,0,1,62.1,47.185a4.251,4.251,0,0,1-.894-2.905V37.434H64.5V44.3a1.183,1.183,0,0,0,1.318,1.357,1.72,1.72,0,0,0,1.611-.811V37.434h3.311V48H67.652Zm8.008-9.424.107,1.24a3.583,3.583,0,0,1,3.018-1.436,3.015,3.015,0,0,1,2.466.986A4.7,4.7,0,0,1,82,41.193V48H78.7V41.33a1.783,1.783,0,0,0-.322-1.177,1.491,1.491,0,0,0-1.172-.376,1.569,1.569,0,0,0-1.436.762V48H72.477V37.434ZM87.291,48h-3.3V37.434h3.3Zm-3.5-13.291a1.469,1.469,0,0,1,.508-1.152,2.159,2.159,0,0,1,2.637,0,1.561,1.561,0,0,1,0,2.3,2.159,2.159,0,0,1-2.637,0A1.469,1.469,0,0,1,83.795,34.709Zm5.107,7.93a6.455,6.455,0,0,1,1.084-3.955,3.568,3.568,0,0,1,3.027-1.445A3.035,3.035,0,0,1,95.4,38.352V33h3.3V48H95.738l-.166-1.133A3.116,3.116,0,0,1,92.994,48.2a3.562,3.562,0,0,1-2.988-1.445A6.659,6.659,0,0,1,88.9,42.639Zm3.291.205q0,2.813,1.641,2.813a1.62,1.62,0,0,0,1.563-.918V40.715a1.576,1.576,0,0,0-1.543-.937q-1.523,0-1.65,2.461ZM106.52,48a3.716,3.716,0,0,1-.312-.947,3.06,3.06,0,0,1-2.539,1.143,3.749,3.749,0,0,1-2.539-.9,2.875,2.875,0,0,1-1.045-2.271,2.955,2.955,0,0,1,1.27-2.6,6.468,6.468,0,0,1,3.691-.879h1.016v-.559q0-1.462-1.26-1.462a1.03,1.03,0,0,0-1.172,1.158h-3.291a2.95,2.95,0,0,1,1.3-2.487,5.479,5.479,0,0,1,3.325-.956,4.8,4.8,0,0,1,3.193.986,3.429,3.429,0,0,1,1.2,2.705v4.678a4.79,4.79,0,0,0,.449,2.227V48Zm-2.061-2.148a1.836,1.836,0,0,0,1.021-.264,1.653,1.653,0,0,0,.581-.6V43.3H105.1q-1.719,0-1.719,1.543a.942.942,0,0,0,.3.728A1.1,1.1,0,0,0,104.459,45.852Zm6.309-3.213a6.455,6.455,0,0,1,1.084-3.955,3.568,3.568,0,0,1,3.027-1.445,3.035,3.035,0,0,1,2.383,1.113V33h3.3V48H117.6l-.166-1.133a3.116,3.116,0,0,1-2.578,1.328,3.562,3.562,0,0,1-2.988-1.445A6.659,6.659,0,0,1,110.768,42.639Zm3.291.205q0,2.813,1.641,2.813a1.62,1.62,0,0,0,1.563-.918V40.715a1.576,1.576,0,0,0-1.543-.937q-1.523,0-1.65,2.461Z" transform="translate(255 1621)" fill="#12263f"/>
      <g id="Grupo_91119" data-name="Grupo 91119" transform="translate(269.182 1490.363)">
        <g id="Grupo_18423" data-name="Grupo 18423" transform="translate(0 0)">
          <g id="Grupo_18421" data-name="Grupo 18421">
            <g id="Grupo_18420" data-name="Grupo 18420">
              <g id="Grupo_18419" data-name="Grupo 18419">
                <path id="Trazado_40936" data-name="Trazado 40936" d="M309.259,2203.037a57.318,57.318,0,1,1-57.317-57.316A57.317,57.317,0,0,1,309.259,2203.037Z" transform="translate(-194.623 -2145.721)" fill="#fff"/>
              </g>
            </g>
          </g>
          <path id="Trazado_40937" data-name="Trazado 40937" d="M308.648,2202.372a57.316,57.316,0,1,0-57.317,57.319A57.091,57.091,0,0,0,308.648,2202.372Z" transform="translate(-194.013 -2145.056)" fill="url(#radial-gradient)"/>
          <path id="Trazado_40938" data-name="Trazado 40938" d="M289.672,2196.986a43.75,43.75,0,1,0-43.75,43.75A43.587,43.587,0,0,0,289.672,2196.986Z" transform="translate(-188.43 -2139.479)" fill="none" stroke="#00223d" stroke-miterlimit="10" stroke-width="4"/>
          <g id="Grupo_18422" data-name="Grupo 18422" transform="translate(10.154 32.18)">
            <path id="Trazado_40939" data-name="Trazado 40939" d="M299.231,2164.488a57.325,57.325,0,0,1-98.686,57.081,57.143,57.143,0,0,0,98.686-57.081Z" transform="translate(-200.545 -2164.488)" fill="#eceef0"/>
          </g>
        </g>
        <g id="sjUquF" transform="translate(-220.87 -261.966)">
          <g id="Grupo_91124" data-name="Grupo 91124" transform="translate(257.781 292.875)">
            <path id="Trazado_141837" data-name="Trazado 141837" d="M290.378,315.98c-1.9-.083-2.467-.908-2.393-2.657.151-3.577.045-7.163.045-10.984-1.851,0-3.623-.063-5.388.021-1.253.059-1.691-.422-1.647-1.642.064-1.777.016-3.557.016-5.515H279.24c-5.726,0-11.452.027-17.177-.022-1.387-.012-1.944.407-1.938,1.88q.07,16.583,0,33.166c-.007,1.472.522,1.929,1.917,1.9,2.837-.064,5.682.1,8.511-.064,1.684-.1,2.487.483,2.7,2.3h-3.363c-3.485,0-6.971-.04-10.455.021-1.254.022-1.646-.461-1.644-1.668q.038-19.048-.005-38.1c0-1.32.5-1.746,1.761-1.739,6.771.033,13.543-.007,20.314.051a3.1,3.1,0,0,1,1.93.815c2.651,2.558,5.235,5.186,7.809,7.822a2.342,2.342,0,0,1,.748,1.357C290.4,307.248,290.378,311.578,290.378,315.98Z" transform="translate(-257.781 -292.875)" fill="#12263f"/>
            <path id="Trazado_141838" data-name="Trazado 141838" d="M332.615,390.357c3.4,2.275,6.838,4.553,10.252,6.861a2.647,2.647,0,0,1,1.143,3.372,2.462,2.462,0,0,1-2.92,1.53,4.231,4.231,0,0,1-1.749-1.047c-2.952-2.67-5.867-5.381-8.781-8.066-6.764,4.085-12.249,3.78-16.3-.873a11.256,11.256,0,0,1,14.047-17.2C333.593,377.961,335.135,383.4,332.615,390.357Zm-18.369-5.683a8.485,8.485,0,0,0,8.378,8.528,8.512,8.512,0,1,0-8.378-8.528Z" transform="translate(-295.435 -349.379)" fill="#12263f"/>
            <path id="Trazado_141839" data-name="Trazado 141839" d="M288.26,339.536c2.979,0,5.959-.009,8.939.006.6,0,1.353-.23,1.391.831.038,1.032-.643.927-1.294.927-6.009,0-12.018.016-18.026-.037a1.54,1.54,0,0,1-1.2-.808c-.212-.961.587-.921,1.252-.92Q283.791,339.541,288.26,339.536Z" transform="translate(-271.982 -325.583)" fill="#12263f"/>
            <path id="Trazado_141840" data-name="Trazado 141840" d="M298.375,360.3c-.431.03-.819.08-1.208.08q-8.892.008-17.785,0c-.6,0-1.4.249-1.438-.792-.042-1.1.768-.954,1.454-.955,5.928,0,11.857.017,17.785-.021C298.349,358.6,298.748,359.006,298.375,360.3Z" transform="translate(-271.918 -338.964)" fill="#12263f"/>
            <path id="Trazado_141841" data-name="Trazado 141841" d="M293.695,320.542c.431,1.262.091,1.715-1.181,1.7-4.371-.053-8.743-.017-13.114-.025-.663,0-1.48.212-1.465-.92.014-1.049.781-.833,1.388-.834q6.929-.011,13.859,0A4.055,4.055,0,0,1,293.695,320.542Z" transform="translate(-271.912 -312.207)" fill="#12263f"/>
            <path id="Trazado_141842" data-name="Trazado 141842" d="M290.28,377.774a2.809,2.809,0,0,1-2.994,1.745c-2.773-.1-5.552,0-8.328-.064-.341-.007-.672-.478-1.008-.734a4.6,4.6,0,0,1,1.025-.913,3.016,3.016,0,0,1,1.176-.033Z" transform="translate(-271.924 -352.374)" fill="#12263f"/>
            <path id="Trazado_141843" data-name="Trazado 141843" d="M286.513,397.113c.163,1.35-.334,1.735-1.433,1.7-1.939-.065-3.883.03-5.821-.053-.443-.019-.868-.486-1.3-.748.4-.3.791-.844,1.2-.858C281.585,397.071,284.015,397.113,286.513,397.113Z" transform="translate(-271.93 -365.958)" fill="#12263f"/>
            <path id="Trazado_141844" data-name="Trazado 141844" d="M330.863,402.11c1.909-1.692,3.771-3.33,5.616-4.987.689-.619,1.416-1.094,2.177-.232.691.783.231,1.457-.427,2.037-2.123,1.874-4.25,3.744-6.355,5.639a1.426,1.426,0,0,1-2.394-.16q-1.2-1.519-2.448-3c-.566-.676-.9-1.427-.139-2.09s1.459-.242,2.023.459C329.537,400.544,330.182,401.3,330.863,402.11Z" transform="translate(-305.929 -365.481)" fill="#12263f"/>
          </g>
        </g>
      </g>
    </g>
    <g id="Grupo_91129" data-name="Grupo 91129">
      <rect id="Rectángulo_34194" data-name="Rectángulo 34194" width="229" height="6" transform="translate(448 1690)" fill="#12263f"/>
      <g transform="matrix(1, 0, 0, 1, 188, 1461)" filter="url(#Rectángulo_34206)">
        <path id="Rectángulo_34206-2" data-name="Rectángulo 34206" d="M20,0H209a20,20,0,0,1,20,20V208a0,0,0,0,1,0,0H0a0,0,0,0,1,0,0V20A20,20,0,0,1,20,0Z" transform="translate(260 21)" fill="#fff"/>
      </g>
      <path id="Trazado_142531" data-name="Trazado 142531" d="M16.261,16.773a5.72,5.72,0,0,1-.8,2.773A4.921,4.921,0,0,1,13.4,21.411a6.674,6.674,0,0,1-3.022.661,5.441,5.441,0,0,1-4.414-1.932,8.283,8.283,0,0,1-1.611-5.454v-.744a9.557,9.557,0,0,1,.728-3.868A5.747,5.747,0,0,1,7.179,7.513a5.605,5.605,0,0,1,3.164-.9A5.917,5.917,0,0,1,14.5,8.05a5.826,5.826,0,0,1,1.787,3.972H12.872a2.786,2.786,0,0,0-.654-1.973,2.594,2.594,0,0,0-1.875-.6,2.018,2.018,0,0,0-1.875,1.012A6.82,6.82,0,0,0,7.843,13.7v1.064a7.56,7.56,0,0,0,.571,3.44,2.06,2.06,0,0,0,1.968,1.033,2.538,2.538,0,0,0,1.807-.589,2.578,2.578,0,0,0,.664-1.87Zm1.055-.6a6.916,6.916,0,0,1,.615-2.98A4.561,4.561,0,0,1,19.7,11.185a5.1,5.1,0,0,1,2.705-.7,4.724,4.724,0,0,1,3.74,1.555,6.18,6.18,0,0,1,1.367,4.23v.124a5.992,5.992,0,0,1-1.372,4.147,4.735,4.735,0,0,1-3.716,1.534A4.779,4.779,0,0,1,18.8,20.641a5.767,5.767,0,0,1-1.475-3.879Zm3.291.217a4.355,4.355,0,0,0,.459,2.272,1.505,1.505,0,0,0,1.357.723q1.758,0,1.8-2.861v-.351q0-3.006-1.816-3.006-1.65,0-1.787,2.593Zm11.377-5.7L32.091,12a3.515,3.515,0,0,1,3.018-1.518,2.936,2.936,0,0,1,2.466,1.043,5.172,5.172,0,0,1,.845,3.14v7.2h-3.3V14.811a1.965,1.965,0,0,0-.322-1.245,1.442,1.442,0,0,0-1.172-.4,1.55,1.55,0,0,0-1.436.806v7.891H28.9V10.689Zm12.725,8.7a1.417,1.417,0,0,0,1.074-.4,1.508,1.508,0,0,0,.371-1.11h3.086a3.968,3.968,0,0,1-1.245,3.016,4.479,4.479,0,0,1-3.208,1.178,4.562,4.562,0,0,1-3.633-1.529,6.246,6.246,0,0,1-1.328-4.235v-.145a7.142,7.142,0,0,1,.591-2.99,4.469,4.469,0,0,1,1.7-1.994,4.865,4.865,0,0,1,2.637-.7,4.426,4.426,0,0,1,3.271,1.209,4.419,4.419,0,0,1,1.211,3.274H46.153a1.983,1.983,0,0,0-.4-1.332,1.346,1.346,0,0,0-1.074-.465q-1.279,0-1.494,1.725a12.867,12.867,0,0,0-.068,1.508,5.021,5.021,0,0,0,.381,2.334A1.3,1.3,0,0,0,44.708,19.386ZM54.1,21.865H50.8V10.689h3.3Zm-3.5-14.058a1.6,1.6,0,0,1,.508-1.219,2.067,2.067,0,0,1,2.637,0,1.6,1.6,0,0,1,.508,1.219,1.6,1.6,0,0,1-.508,1.219,2.067,2.067,0,0,1-2.637,0A1.6,1.6,0,0,1,50.606,7.808ZM61.241,22.072a5.266,5.266,0,0,1-3.936-1.534,5.459,5.459,0,0,1-1.5-3.992v-.289a7.2,7.2,0,0,1,.6-3.026,4.562,4.562,0,0,1,1.753-2.03,5.066,5.066,0,0,1,2.734-.718,4.447,4.447,0,0,1,3.516,1.462,5.953,5.953,0,0,1,1.289,4.075v1.353H59.151a2.549,2.549,0,0,0,.771,1.477,2.216,2.216,0,0,0,1.543.537,2.893,2.893,0,0,0,2.441-1.157l1.5,1.88a4.248,4.248,0,0,1-1.743,1.431A5.617,5.617,0,0,1,61.241,22.072Zm-.371-8.9q-1.445,0-1.719,2.024h3.32v-.269a1.788,1.788,0,0,0-.4-1.3A1.545,1.545,0,0,0,60.87,13.168Zm9.17-2.479L70.147,12a3.515,3.515,0,0,1,3.018-1.518,2.936,2.936,0,0,1,2.466,1.043,5.172,5.172,0,0,1,.845,3.14v7.2h-3.3V14.811a1.965,1.965,0,0,0-.322-1.245,1.442,1.442,0,0,0-1.172-.4,1.55,1.55,0,0,0-1.436.806v7.891H66.954V10.689ZM82.13,7.911v2.779h1.738v2.417H82.13v5.113a1.361,1.361,0,0,0,.215.878,1.11,1.11,0,0,0,.85.248,4.57,4.57,0,0,0,.82-.062v2.489a5.77,5.77,0,0,1-1.855.3,3.33,3.33,0,0,1-2.51-.847,3.6,3.6,0,0,1-.811-2.572V13.106H77.491V10.689h1.348V7.911Zm6.5,13.955h-3.3V10.689h3.3Zm-3.5-14.058a1.6,1.6,0,0,1,.508-1.219,2.067,2.067,0,0,1,2.637,0,1.6,1.6,0,0,1,.508,1.219,1.6,1.6,0,0,1-.508,1.219,2.067,2.067,0,0,1-2.637,0A1.6,1.6,0,0,1,85.138,7.808Zm9.4,11.372h4.814v2.686H90.382V19.924l4.688-6.549H90.587V10.689h8.662v1.88Zm12.363,2.686a4.088,4.088,0,0,1-.312-1,2.994,2.994,0,0,1-2.539,1.209,3.627,3.627,0,0,1-2.539-.955,3.116,3.116,0,0,1-1.045-2.4,3.189,3.189,0,0,1,1.27-2.748,6.193,6.193,0,0,1,3.691-.93h1.016v-.592q0-1.546-1.26-1.546-1.172,0-1.172,1.225h-3.291a3.176,3.176,0,0,1,1.3-2.631,5.267,5.267,0,0,1,3.325-1.011,4.63,4.63,0,0,1,3.193,1.043,3.72,3.72,0,0,1,1.2,2.861v4.948a5.315,5.315,0,0,0,.449,2.355v.176Zm-2.061-2.272a1.76,1.76,0,0,0,1.021-.279,1.708,1.708,0,0,0,.581-.63V16.9h-.957q-1.719,0-1.719,1.632a1.025,1.025,0,0,0,.3.77A1.061,1.061,0,0,0,104.845,19.593ZM117.96,13.84l-1.084-.083a1.921,1.921,0,0,0-1.992,1.033v7.075h-3.291V10.689h3.086l.107,1.436a2.548,2.548,0,0,1,2.314-1.642,3.045,3.045,0,0,1,.918.124Zm9.639,8.026h-3.3V6h3.3Zm7.979,0a4.088,4.088,0,0,1-.312-1,2.994,2.994,0,0,1-2.539,1.209,3.627,3.627,0,0,1-2.539-.955,3.116,3.116,0,0,1-1.045-2.4,3.189,3.189,0,0,1,1.27-2.748,6.193,6.193,0,0,1,3.691-.93h1.016v-.592q0-1.546-1.26-1.546-1.172,0-1.172,1.225H129.4a3.176,3.176,0,0,1,1.3-2.631,5.267,5.267,0,0,1,3.325-1.011,4.63,4.63,0,0,1,3.193,1.043,3.72,3.72,0,0,1,1.2,2.861v4.948a5.315,5.315,0,0,0,.449,2.355v.176Zm-2.061-2.272a1.76,1.76,0,0,0,1.021-.279,1.708,1.708,0,0,0,.581-.63V16.9h-.957q-1.719,0-1.719,1.632a1.025,1.025,0,0,0,.3.77A1.061,1.061,0,0,0,133.517,19.593ZM26.881,47.944a1.417,1.417,0,0,0,1.074-.4,1.508,1.508,0,0,0,.371-1.11h3.086a3.968,3.968,0,0,1-1.245,3.016,4.479,4.479,0,0,1-3.208,1.178A4.562,4.562,0,0,1,23.326,49.1,6.246,6.246,0,0,1,22,44.866v-.145a7.142,7.142,0,0,1,.591-2.99,4.469,4.469,0,0,1,1.7-1.994,4.865,4.865,0,0,1,2.637-.7,4.173,4.173,0,0,1,4.482,4.483H28.326a1.983,1.983,0,0,0-.4-1.332,1.346,1.346,0,0,0-1.074-.465q-1.279,0-1.494,1.725a12.867,12.867,0,0,0-.068,1.508,5.021,5.021,0,0,0,.381,2.334A1.3,1.3,0,0,0,26.881,47.944Zm5.508-3.212A6.916,6.916,0,0,1,33,41.752a4.561,4.561,0,0,1,1.768-2.009,5.1,5.1,0,0,1,2.705-.7,4.724,4.724,0,0,1,3.74,1.555,6.18,6.18,0,0,1,1.367,4.23v.124A5.992,5.992,0,0,1,41.212,49.1,4.735,4.735,0,0,1,37.5,50.63,4.779,4.779,0,0,1,33.873,49.2,5.767,5.767,0,0,1,32.4,45.321Zm3.291.217a4.355,4.355,0,0,0,.459,2.272,1.505,1.505,0,0,0,1.357.723q1.758,0,1.8-2.861v-.351q0-3.006-1.816-3.006-1.65,0-1.787,2.593Zm11.465-5.7.107,1.312a3.563,3.563,0,0,1,3.018-1.518,2.662,2.662,0,0,1,2.705,1.684,3.464,3.464,0,0,1,3.105-1.684q3.213,0,3.3,4.111v7.272h-3.3V43.369a2.228,2.228,0,0,0-.273-1.25,1.132,1.132,0,0,0-1-.393,1.55,1.55,0,0,0-1.455.919l.01.145v7.633h-3.3V43.389a2.344,2.344,0,0,0-.264-1.27,1.129,1.129,0,0,0-1.006-.393,1.569,1.569,0,0,0-1.445.919v7.778H44.059V39.247Zm20.41,9.968a3.327,3.327,0,0,1-2.822,1.415A3.235,3.235,0,0,1,62.1,49.561a4.672,4.672,0,0,1-.894-3.073V39.247H64.5v7.261q0,1.436,1.318,1.436a1.7,1.7,0,0,0,1.611-.857v-7.84h3.311V50.423H67.652Zm8.008-9.968.107,1.312a3.515,3.515,0,0,1,3.018-1.518,2.936,2.936,0,0,1,2.466,1.043A5.172,5.172,0,0,1,82,43.224v7.2H78.7V43.369a1.965,1.965,0,0,0-.322-1.245,1.442,1.442,0,0,0-1.172-.4,1.55,1.55,0,0,0-1.436.806v7.891H72.477V39.247ZM87.291,50.423h-3.3V39.247h3.3Zm-3.5-14.058a1.6,1.6,0,0,1,.508-1.219,2.067,2.067,0,0,1,2.637,0,1.717,1.717,0,0,1,0,2.438,2.067,2.067,0,0,1-2.637,0A1.6,1.6,0,0,1,83.795,36.365ZM88.9,44.753a7.118,7.118,0,0,1,1.084-4.183,3.5,3.5,0,0,1,3.027-1.529A2.971,2.971,0,0,1,95.4,40.218v-5.66h3.3V50.423H95.738l-.166-1.2a3.067,3.067,0,0,1-2.578,1.4A3.5,3.5,0,0,1,90.006,49.1,7.346,7.346,0,0,1,88.9,44.753Zm3.291.217q0,2.975,1.641,2.975a1.61,1.61,0,0,0,1.563-.971V42.718a1.57,1.57,0,0,0-1.543-.992q-1.523,0-1.65,2.6Zm14.326,5.454a4.088,4.088,0,0,1-.312-1,2.994,2.994,0,0,1-2.539,1.209,3.627,3.627,0,0,1-2.539-.955,3.116,3.116,0,0,1-1.045-2.4,3.189,3.189,0,0,1,1.27-2.748,6.193,6.193,0,0,1,3.691-.93h1.016V43q0-1.546-1.26-1.546-1.172,0-1.172,1.225h-3.291a3.176,3.176,0,0,1,1.3-2.631,5.267,5.267,0,0,1,3.325-1.011,4.63,4.63,0,0,1,3.193,1.043,3.72,3.72,0,0,1,1.2,2.861v4.948a5.315,5.315,0,0,0,.449,2.355v.176Zm-2.061-2.272a1.76,1.76,0,0,0,1.021-.279,1.708,1.708,0,0,0,.581-.63V45.455H105.1q-1.719,0-1.719,1.632a1.025,1.025,0,0,0,.3.77A1.061,1.061,0,0,0,104.459,48.151Zm6.309-3.4a7.118,7.118,0,0,1,1.084-4.183,3.5,3.5,0,0,1,3.027-1.529,2.971,2.971,0,0,1,2.383,1.178v-5.66h3.3V50.423H117.6l-.166-1.2a3.067,3.067,0,0,1-2.578,1.4,3.5,3.5,0,0,1-2.988-1.529A7.346,7.346,0,0,1,110.768,44.753Zm3.291.217q0,2.975,1.641,2.975a1.61,1.61,0,0,0,1.563-.971V42.718a1.57,1.57,0,0,0-1.543-.992q-1.523,0-1.65,2.6Z" transform="translate(491 1621)" fill="#12263f"/>
      <g id="Grupo_91120" data-name="Grupo 91120" transform="translate(505.182 1490.363)">
        <g id="Grupo_18423-2" data-name="Grupo 18423" transform="translate(0 0)">
          <g id="Grupo_18421-2" data-name="Grupo 18421">
            <g id="Grupo_18420-2" data-name="Grupo 18420">
              <g id="Grupo_18419-2" data-name="Grupo 18419">
                <path id="Trazado_40936-2" data-name="Trazado 40936" d="M309.259,2203.037a57.318,57.318,0,1,1-57.317-57.316A57.317,57.317,0,0,1,309.259,2203.037Z" transform="translate(-194.623 -2145.721)" fill="#fff"/>
              </g>
            </g>
          </g>
          <path id="Trazado_40937-2" data-name="Trazado 40937" d="M308.648,2202.372a57.316,57.316,0,1,0-57.317,57.319A57.091,57.091,0,0,0,308.648,2202.372Z" transform="translate(-194.013 -2145.056)" fill="url(#radial-gradient)"/>
          <path id="Trazado_40938-2" data-name="Trazado 40938" d="M289.672,2196.986a43.75,43.75,0,1,0-43.75,43.75A43.587,43.587,0,0,0,289.672,2196.986Z" transform="translate(-188.43 -2139.479)" fill="none" stroke="#00223d" stroke-miterlimit="10" stroke-width="4"/>
          <g id="Grupo_18422-2" data-name="Grupo 18422" transform="translate(10.154 32.18)">
            <path id="Trazado_40939-2" data-name="Trazado 40939" d="M299.231,2164.488a57.325,57.325,0,0,1-98.686,57.081,57.143,57.143,0,0,0,98.686-57.081Z" transform="translate(-200.545 -2164.488)" fill="#eceef0"/>
          </g>
        </g>
        <g id="_9LAf5S.tif" data-name="9LAf5S.tif" transform="translate(-536.553 -121.768)">
          <g id="Grupo_91125" data-name="Grupo 91125" transform="translate(570.712 151.876)">
            <path id="Trazado_141845" data-name="Trazado 141845" d="M574.227,183.047c-.478-.045-.873-.064-1.262-.122a2.575,2.575,0,0,1-2.087-3.459,4.092,4.092,0,0,1,.891-1.462,10.74,10.74,0,0,0,2.726-5.259c.462-1.9.785-3.839,1.084-5.774a16.174,16.174,0,0,1,8.4-12.114,23.846,23.846,0,0,1,13.8-2.907,25.167,25.167,0,0,1,11.216,3.382,15.4,15.4,0,0,1,6.462,6.85,12.566,12.566,0,0,1,1.069,4.109c.193,2.1.4,4.2.5,6.3a10.288,10.288,0,0,1-1.264,5.3c-.8,1.513-1.634,3.006-2.5,4.48a30.2,30.2,0,0,0-3.853,9.51,22.59,22.59,0,0,0-.3,7.152c.135,1.089-.106,1.466-1.161,1.779q-9.052,2.687-18.105,5.366c-1,.295-1.532.044-1.794-.962a18.291,18.291,0,0,1-.422-2.546c-.062-.552-.01-1.117-.018-1.676a4.743,4.743,0,0,0-1.181-3.223c-.373-.416-.756-.826-1.094-1.27a1.361,1.361,0,0,0-1.327-.535,29.613,29.613,0,0,1-3.117.245,5.31,5.31,0,0,1-4.977-3.511,18.472,18.472,0,0,1-.308-2.5,2.237,2.237,0,0,0-.355-.963,2.539,2.539,0,0,1-.5-2.134.607.607,0,0,0-.072-.471,2.518,2.518,0,0,1-.619-2.549C574.141,183.754,574.168,183.412,574.227,183.047Zm15.706,20.616a2.747,2.747,0,0,0,.288-.022q8.1-2.394,16.2-4.781c.321-.094.3-.266.287-.522a26.013,26.013,0,0,1,.322-6.355,31.415,31.415,0,0,1,4.025-10.42q1.257-2.143,2.453-4.323a9.379,9.379,0,0,0,1.254-4.208,33.427,33.427,0,0,0-.825-8.1c-.718-3.4-2.9-5.775-5.777-7.552a21.966,21.966,0,0,0-9.749-3.06,24.139,24.139,0,0,0-11.005,1.338c-4.35,1.68-7.546,4.562-8.928,9.115a45.37,45.37,0,0,0-.944,5.085,23.129,23.129,0,0,1-2.3,7.274,27.206,27.206,0,0,1-1.99,2.675,2.023,2.023,0,0,0-.2.574,2.649,2.649,0,0,0,.542.165c.609.052,1.224.051,1.831.118,1.126.124,1.506.659,1.3,1.763-.164.879-.325,1.758-.49,2.651.189.055.327.091.463.134a1.152,1.152,0,0,1,.7,1.726,2.6,2.6,0,0,0-.269.466.558.558,0,0,0,.041.451,2.632,2.632,0,0,1,.738,1.753c.031.612.049,1.224.074,1.836a2.379,2.379,0,0,0,1.965,2.383,8,8,0,0,0,1.874.069c.844-.042,1.683-.2,2.527-.226a2.84,2.84,0,0,1,2.31.864,28.464,28.464,0,0,1,2.219,2.716,7.362,7.362,0,0,1,1.069,4.34C589.933,202.268,589.933,202.947,589.933,203.663Z" transform="translate(-570.712 -151.876)" fill="#12263f"/>
            <path id="Trazado_141846" data-name="Trazado 141846" d="M738.588,233.061a5.948,5.948,0,0,1-.76-.37,7.71,7.71,0,0,1-1.026-.792.862.862,0,0,0-1.111-.135.656.656,0,0,0-.467.613c-.031.466-.121.928-.178,1.392-.089.718-.4,1.128-1.109,1.172a23.969,23.969,0,0,1-3.014-.006,1.1,1.1,0,0,1-1.046-1.113c-.061-.482-.158-.962-.188-1.445-.021-.339-.184-.461-.468-.614a.887.887,0,0,0-1.153.173,12.35,12.35,0,0,1-1.068.827,1.052,1.052,0,0,1-1.4-.017c-.77-.7-1.508-1.441-2.209-2.211a1.042,1.042,0,0,1,0-1.4c.328-.452.684-.884,1.015-1.334a.96.96,0,0,0-.553-1.328c-.517-.073-1.035-.138-1.553-.209a1.1,1.1,0,0,1-1.1-1.06,26.581,26.581,0,0,1,0-3.016c.04-.674.454-1,1.134-1.09.5-.067,1-.126,1.5-.2a.937.937,0,0,0,.551-1.354c-.311-.42-.642-.826-.95-1.248a1.088,1.088,0,0,1,0-1.529c.663-.732,1.365-1.434,2.1-2.1a1.108,1.108,0,0,1,1.533-.012,6.849,6.849,0,0,1,.931.739.94.94,0,0,0,1.337.143.745.745,0,0,0,.313-.413c.1-.511.157-1.032.222-1.55a1.125,1.125,0,0,1,1.133-1.147,28.28,28.28,0,0,1,2.907,0,1.121,1.121,0,0,1,1.124,1.1,13.018,13.018,0,0,1,.157,1.341.814.814,0,0,0,.627.8.727.727,0,0,0,.876-.108c.361-.324.761-.606,1.154-.894a1.116,1.116,0,0,1,1.533,0,28.934,28.934,0,0,1,2.051,2.068,1.112,1.112,0,0,1,0,1.615,12.082,12.082,0,0,1-.8,1.025.8.8,0,0,0-.146,1.014c.153.325.3.523.68.544.466.025.929.112,1.393.171a1.118,1.118,0,0,1,1.131,1.091,30.021,30.021,0,0,1,0,3.015,1.094,1.094,0,0,1-1.046,1.053c-.5.072-1,.161-1.5.194a.666.666,0,0,0-.623.455.9.9,0,0,0,.159,1.156,12.2,12.2,0,0,1,.829,1.067,1.053,1.053,0,0,1,0,1.4c-.7.771-1.451,1.5-2.208,2.213A2.506,2.506,0,0,1,738.588,233.061Zm.532-3.243c-.378-.493-.726-.95-1.077-1.4a1.249,1.249,0,0,1-.117-1.413c.275-.582.506-1.186.734-1.789a1.221,1.221,0,0,1,1.038-.9c.465-.056.926-.15,1.391-.181.325-.022.438-.148.436-.466s-.156-.4-.43-.425c-.448-.042-.893-.11-1.339-.165a1.27,1.27,0,0,1-1.123-1.009,9.062,9.062,0,0,0-.655-1.589,1.308,1.308,0,0,1,.126-1.6c.346-.429.673-.873.972-1.262l-.44-.634c-.529.406-.962.728-1.383,1.065a1.305,1.305,0,0,1-1.552.13,13.709,13.709,0,0,0-1.69-.692,1.208,1.208,0,0,1-.92-1.013c-.066-.481-.144-.962-.189-1.445-.027-.288-.135-.419-.436-.414-.284.005-.424.1-.451.4-.043.484-.128.963-.19,1.445a1.2,1.2,0,0,1-.912,1.02,13.66,13.66,0,0,0-1.69.689,1.3,1.3,0,0,1-1.551-.12c-.433-.347-.88-.675-1.3-1l-.607.458c.412.542.772,1.012,1.129,1.485a1.211,1.211,0,0,1,.094,1.365,19.142,19.142,0,0,0-.738,1.787,1.215,1.215,0,0,1-1.025.91c-.5.067-1.006.1-1.495.213a.557.557,0,0,0-.317.431.543.543,0,0,0,.339.4c.49.11.995.153,1.494.22a1.183,1.183,0,0,1,.991.872c.23.621.484,1.235.762,1.836a1.216,1.216,0,0,1-.084,1.323c-.243.335-.5.66-.754.989-.424.554-.423.56.216.973.448-.341.91-.685,1.362-1.039a1.248,1.248,0,0,1,1.413-.124q.9.418,1.831.769a1.155,1.155,0,0,1,.837.958c.068.481.152.961.192,1.445.026.311.13.448.461.444.31,0,.4-.144.428-.423.037-.43.1-.858.151-1.287a1.321,1.321,0,0,1,1.062-1.2,8.981,8.981,0,0,0,1.494-.6,1.346,1.346,0,0,1,1.812.2c.372.305.762.588,1.2.927Z" transform="translate(-704.856 -205.835)" fill="#12263f"/>
            <path id="Trazado_141847" data-name="Trazado 141847" d="M784.592,280.792a4.953,4.953,0,1,1,4.94-4.935A5.208,5.208,0,0,1,784.592,280.792Zm-2.623-4.992a2.616,2.616,0,0,0,5.228.161,2.616,2.616,0,1,0-5.228-.161Z" transform="translate(-756.983 -257.987)" fill="#12263f"/>
          </g>
        </g>
      </g>
    </g>
    <g id="Grupo_91131" data-name="Grupo 91131">
      <rect id="Rectángulo_34198" data-name="Rectángulo 34198" width="229" height="6" transform="translate(920 1690)" fill="#12263f"/>
      <g transform="matrix(1, 0, 0, 1, 188, 1461)" filter="url(#Rectángulo_34204)">
        <path id="Rectángulo_34204-2" data-name="Rectángulo 34204" d="M20,0H209a20,20,0,0,1,20,20V208a0,0,0,0,1,0,0H0a0,0,0,0,1,0,0V20A20,20,0,0,1,20,0Z" transform="translate(732 21)" fill="#fff"/>
      </g>
      <path id="Trazado_142533" data-name="Trazado 142533" d="M18.68,16.176V21H15.252V6.781h5.674a6.608,6.608,0,0,1,2.886.6,4.526,4.526,0,0,1,1.943,1.709,4.667,4.667,0,0,1,.688,2.515,4.114,4.114,0,0,1-1.489,3.325,6.179,6.179,0,0,1-4.087,1.245Zm0-2.646h2.246a2.118,2.118,0,0,0,1.519-.5,1.85,1.85,0,0,0,.522-1.406,2.287,2.287,0,0,0-.537-1.592,1.9,1.9,0,0,0-1.465-.605H18.68ZM31.59,21h-3.3V6h3.3Zm7.979,0a3.716,3.716,0,0,1-.312-.947A3.06,3.06,0,0,1,36.717,21.2a3.749,3.749,0,0,1-2.539-.9,2.875,2.875,0,0,1-1.045-2.271,2.955,2.955,0,0,1,1.27-2.6,6.468,6.468,0,0,1,3.691-.879h1.016v-.559q0-1.462-1.26-1.462a1.03,1.03,0,0,0-1.172,1.158H33.387a2.95,2.95,0,0,1,1.3-2.487,5.479,5.479,0,0,1,3.325-.956,4.8,4.8,0,0,1,3.193.986,3.429,3.429,0,0,1,1.2,2.705v4.678a4.79,4.79,0,0,0,.449,2.227V21Zm-2.061-2.148a1.836,1.836,0,0,0,1.021-.264,1.653,1.653,0,0,0,.581-.6V16.3h-.957q-1.719,0-1.719,1.543a.942.942,0,0,0,.3.728A1.1,1.1,0,0,0,37.508,18.852Zm9.746-8.418.107,1.24a3.583,3.583,0,0,1,3.018-1.436,3.015,3.015,0,0,1,2.466.986,4.7,4.7,0,0,1,.845,2.969V21h-3.3V14.33a1.783,1.783,0,0,0-.322-1.177,1.491,1.491,0,0,0-1.172-.376,1.569,1.569,0,0,0-1.436.762V21H44.168V10.434ZM58.982,21h-3.3V10.434h3.3Zm-3.5-13.291a1.469,1.469,0,0,1,.508-1.152,2.159,2.159,0,0,1,2.637,0,1.469,1.469,0,0,1,.508,1.152,1.469,1.469,0,0,1-.508,1.152,2.159,2.159,0,0,1-2.637,0A1.469,1.469,0,0,1,55.486,7.709ZM61.775,21V12.719H60.242V10.434h1.533v-.352A4.034,4.034,0,0,1,63.162,6.85a5.541,5.541,0,0,1,3.6-1.055,12.787,12.787,0,0,1,3.438.566l-.449,2.6-.547-.146a8.7,8.7,0,0,0-2.246-.283q-1.885,0-1.885,1.719v.186h2.07v2.285h-2.07V21Zm9.941,0H68.406V10.434h3.311Zm6.475-2.344a1.464,1.464,0,0,0,1.074-.376,1.379,1.379,0,0,0,.371-1.05h3.086a3.653,3.653,0,0,1-1.245,2.852A4.631,4.631,0,0,1,78.27,21.2a4.689,4.689,0,0,1-3.633-1.445,5.7,5.7,0,0,1-1.328-4v-.137a6.436,6.436,0,0,1,.591-2.827A4.3,4.3,0,0,1,75.6,10.9a5.081,5.081,0,0,1,2.637-.659,4.573,4.573,0,0,1,3.271,1.143,4.053,4.053,0,0,1,1.211,3.1H79.637a1.806,1.806,0,0,0-.4-1.26,1.382,1.382,0,0,0-1.074-.439q-1.279,0-1.494,1.631a11.508,11.508,0,0,0-.068,1.426,4.52,4.52,0,0,0,.381,2.207A1.319,1.319,0,0,0,78.191,18.656ZM90.066,21a3.716,3.716,0,0,1-.312-.947A3.06,3.06,0,0,1,87.215,21.2a3.749,3.749,0,0,1-2.539-.9,2.875,2.875,0,0,1-1.045-2.271,2.955,2.955,0,0,1,1.27-2.6,6.468,6.468,0,0,1,3.691-.879h1.016v-.559q0-1.462-1.26-1.462a1.03,1.03,0,0,0-1.172,1.158H83.885a2.95,2.95,0,0,1,1.3-2.487,5.479,5.479,0,0,1,3.325-.956,4.8,4.8,0,0,1,3.193.986,3.429,3.429,0,0,1,1.2,2.705v4.678a4.79,4.79,0,0,0,.449,2.227V21Zm-2.061-2.148a1.836,1.836,0,0,0,1.021-.264,1.653,1.653,0,0,0,.581-.6V16.3H88.65q-1.719,0-1.719,1.543a.942.942,0,0,0,.3.728A1.1,1.1,0,0,0,88.006,18.852Zm11.191-.2a1.464,1.464,0,0,0,1.074-.376,1.379,1.379,0,0,0,.371-1.05h3.086a3.653,3.653,0,0,1-1.245,2.852A4.631,4.631,0,0,1,99.275,21.2a4.689,4.689,0,0,1-3.633-1.445,5.7,5.7,0,0,1-1.328-4v-.137a6.436,6.436,0,0,1,.591-2.827,4.3,4.3,0,0,1,1.7-1.885,5.081,5.081,0,0,1,2.637-.659,4.573,4.573,0,0,1,3.271,1.143,4.053,4.053,0,0,1,1.211,3.1h-3.086a1.806,1.806,0,0,0-.4-1.26,1.382,1.382,0,0,0-1.074-.439q-1.279,0-1.494,1.631a11.508,11.508,0,0,0-.068,1.426,4.52,4.52,0,0,0,.381,2.207A1.319,1.319,0,0,0,99.2,18.656ZM108.592,21h-3.3V10.434h3.3ZM105.1,7.709a1.469,1.469,0,0,1,.508-1.152,2.159,2.159,0,0,1,2.637,0,1.469,1.469,0,0,1,.508,1.152,1.469,1.469,0,0,1-.508,1.152,2.159,2.159,0,0,1-2.637,0A1.469,1.469,0,0,1,105.1,7.709Zm5.107,7.91a6.236,6.236,0,0,1,.615-2.817,4.4,4.4,0,0,1,1.768-1.9,5.323,5.323,0,0,1,2.705-.664,4.858,4.858,0,0,1,3.74,1.47,5.64,5.64,0,0,1,1.367,4v.117a5.472,5.472,0,0,1-1.372,3.921,4.871,4.871,0,0,1-3.716,1.45,4.927,4.927,0,0,1-3.623-1.353,5.29,5.29,0,0,1-1.475-3.667Zm3.291.205a3.932,3.932,0,0,0,.459,2.148,1.529,1.529,0,0,0,1.357.684q1.758,0,1.8-2.705v-.332q0-2.842-1.816-2.842-1.65,0-1.787,2.451ZM115.74,6h3.477L116.5,9.066l-2.686,0Zm9.131,4.434.107,1.24A3.583,3.583,0,0,1,128,10.238a3.015,3.015,0,0,1,2.466.986,4.7,4.7,0,0,1,.845,2.969V21h-3.3V14.33a1.783,1.783,0,0,0-.322-1.177,1.491,1.491,0,0,0-1.172-.376,1.569,1.569,0,0,0-1.436.762V21h-3.291V10.434Zm12.822,5.205a6.455,6.455,0,0,1,1.084-3.955,3.568,3.568,0,0,1,3.027-1.445,3.035,3.035,0,0,1,2.383,1.113V6h3.3V21h-2.959l-.166-1.133a3.116,3.116,0,0,1-2.578,1.328A3.562,3.562,0,0,1,138.8,19.75,6.659,6.659,0,0,1,137.693,15.639Zm3.291.205q0,2.813,1.641,2.813a1.62,1.62,0,0,0,1.563-.918V13.715a1.576,1.576,0,0,0-1.543-.937q-1.523,0-1.65,2.461ZM154.471,21.2a5.432,5.432,0,0,1-3.936-1.45,5.008,5.008,0,0,1-1.5-3.774V15.7a6.489,6.489,0,0,1,.6-2.861,4.395,4.395,0,0,1,1.753-1.919,5.292,5.292,0,0,1,2.734-.679,4.574,4.574,0,0,1,3.516,1.382,5.43,5.43,0,0,1,1.289,3.853v1.279h-6.543a2.372,2.372,0,0,0,.771,1.4,2.3,2.3,0,0,0,1.543.508,2.958,2.958,0,0,0,2.441-1.094l1.5,1.777a4.2,4.2,0,0,1-1.743,1.353A5.891,5.891,0,0,1,154.471,21.2Zm-.371-8.418q-1.445,0-1.719,1.914h3.32v-.254a1.63,1.63,0,0,0-.4-1.226A1.593,1.593,0,0,0,154.1,12.777ZM163.719,21h-3.3V6h3.3ZM21.282,46.857A3.393,3.393,0,0,1,18.46,48.2a3.328,3.328,0,0,1-2.632-1.011,4.251,4.251,0,0,1-.894-2.905V37.434h3.291V44.3a1.183,1.183,0,0,0,1.318,1.357,1.72,1.72,0,0,0,1.611-.811V37.434h3.311V48H21.38ZM31.8,45.031a.76.76,0,0,0-.439-.674,6.685,6.685,0,0,0-1.67-.527,7.615,7.615,0,0,1-2.031-.718,3.4,3.4,0,0,1-1.221-1.079,2.577,2.577,0,0,1-.42-1.455,2.92,2.92,0,0,1,1.2-2.4,4.948,4.948,0,0,1,3.145-.942,5.482,5.482,0,0,1,3.359.947,2.962,2.962,0,0,1,1.27,2.49h-3.3q0-1.27-1.338-1.27a1.326,1.326,0,0,0-.869.288.892.892,0,0,0-.352.718.819.819,0,0,0,.43.713,4.06,4.06,0,0,0,1.372.449,11.857,11.857,0,0,1,1.655.42,3.007,3.007,0,0,1,2.383,2.939,2.767,2.767,0,0,1-1.284,2.354,5.632,5.632,0,0,1-3.325.908,5.747,5.747,0,0,1-2.422-.488,4.05,4.05,0,0,1-1.66-1.328,3.007,3.007,0,0,1-.6-1.768h3.076a1.272,1.272,0,0,0,.488,1.069,2.009,2.009,0,0,0,1.2.337,1.58,1.58,0,0,0,1.011-.273A.875.875,0,0,0,31.8,45.031Zm4.3-2.412a6.236,6.236,0,0,1,.615-2.817,4.4,4.4,0,0,1,1.768-1.9,5.323,5.323,0,0,1,2.705-.664,4.858,4.858,0,0,1,3.74,1.47,5.64,5.64,0,0,1,1.367,4v.117a5.472,5.472,0,0,1-1.372,3.921A4.871,4.871,0,0,1,41.2,48.2a4.927,4.927,0,0,1-3.623-1.353,5.29,5.29,0,0,1-1.475-3.667Zm3.291.205a3.932,3.932,0,0,0,.459,2.148,1.529,1.529,0,0,0,1.357.684q1.758,0,1.8-2.705v-.332q0-2.842-1.816-2.842-1.65,0-1.787,2.451Zm12.92-.186a6.455,6.455,0,0,1,1.084-3.955,3.568,3.568,0,0,1,3.027-1.445A3.035,3.035,0,0,1,58.8,38.352V33h3.3V48H59.144l-.166-1.133A3.116,3.116,0,0,1,56.4,48.2a3.562,3.562,0,0,1-2.988-1.445A6.659,6.659,0,0,1,52.308,42.639Zm3.291.205q0,2.813,1.641,2.813a1.62,1.62,0,0,0,1.563-.918V40.715a1.576,1.576,0,0,0-1.543-.937q-1.523,0-1.65,2.461ZM69.085,48.2a5.432,5.432,0,0,1-3.936-1.45,5.008,5.008,0,0,1-1.5-3.774V42.7a6.489,6.489,0,0,1,.6-2.861A4.395,4.395,0,0,1,66,37.917a5.292,5.292,0,0,1,2.734-.679,4.574,4.574,0,0,1,3.516,1.382,5.43,5.43,0,0,1,1.289,3.853v1.279H67a2.372,2.372,0,0,0,.771,1.4,2.3,2.3,0,0,0,1.543.508,2.958,2.958,0,0,0,2.441-1.094l1.5,1.777a4.2,4.2,0,0,1-1.743,1.353A5.891,5.891,0,0,1,69.085,48.2Zm-.371-8.418q-1.445,0-1.719,1.914h3.32v-.254a1.63,1.63,0,0,0-.4-1.226A1.593,1.593,0,0,0,68.714,39.777ZM78.333,48h-3.3V33h3.3Zm10.84-13.193v2.627h1.738v2.285H89.173v4.834a1.234,1.234,0,0,0,.215.83,1.152,1.152,0,0,0,.85.234,4.828,4.828,0,0,0,.82-.059v2.354A6.074,6.074,0,0,1,89.2,48.2a3.448,3.448,0,0,1-2.51-.8,3.282,3.282,0,0,1-.811-2.432V39.719H84.534V37.434h1.348V34.807ZM97.317,48.2a5.432,5.432,0,0,1-3.936-1.45,5.008,5.008,0,0,1-1.5-3.774V42.7a6.489,6.489,0,0,1,.6-2.861,4.395,4.395,0,0,1,1.753-1.919,5.292,5.292,0,0,1,2.734-.679,4.574,4.574,0,0,1,3.516,1.382,5.43,5.43,0,0,1,1.289,3.853v1.279H95.228a2.372,2.372,0,0,0,.771,1.4,2.3,2.3,0,0,0,1.543.508,2.958,2.958,0,0,0,2.441-1.094l1.5,1.777a4.2,4.2,0,0,1-1.743,1.353A5.891,5.891,0,0,1,97.317,48.2Zm-.371-8.418q-1.445,0-1.719,1.914h3.32v-.254a1.63,1.63,0,0,0-.4-1.226A1.593,1.593,0,0,0,96.946,39.777Zm12.539.635-1.084-.078a1.947,1.947,0,0,0-1.992.977V48h-3.291V37.434H106.2l.107,1.357a2.548,2.548,0,0,1,2.314-1.553,3.209,3.209,0,0,1,.918.117Zm7.578,0-1.084-.078a1.947,1.947,0,0,0-1.992.977V48H110.7V37.434h3.086l.107,1.357a2.548,2.548,0,0,1,2.314-1.553,3.209,3.209,0,0,1,.918.117ZM121.722,48h-3.3V37.434h3.3Zm-3.5-13.291a1.469,1.469,0,0,1,.508-1.152,2.159,2.159,0,0,1,2.637,0,1.561,1.561,0,0,1,0,2.3,2.159,2.159,0,0,1-2.637,0A1.469,1.469,0,0,1,118.226,34.709Zm9.355.1v2.627h1.738v2.285h-1.738v4.834a1.234,1.234,0,0,0,.215.83,1.152,1.152,0,0,0,.85.234,4.828,4.828,0,0,0,.82-.059v2.354a6.074,6.074,0,0,1-1.855.283,3.448,3.448,0,0,1-2.51-.8,3.282,3.282,0,0,1-.811-2.432V39.719h-1.348V37.434h1.348V34.807Zm2.324,7.813a6.236,6.236,0,0,1,.615-2.817,4.4,4.4,0,0,1,1.768-1.9,5.323,5.323,0,0,1,2.705-.664,4.858,4.858,0,0,1,3.74,1.47,5.64,5.64,0,0,1,1.367,4v.117a5.472,5.472,0,0,1-1.372,3.921,4.871,4.871,0,0,1-3.716,1.45,4.927,4.927,0,0,1-3.623-1.353,5.29,5.29,0,0,1-1.475-3.667Zm3.291.205a3.932,3.932,0,0,0,.459,2.148,1.529,1.529,0,0,0,1.357.684q1.758,0,1.8-2.705v-.332q0-2.842-1.816-2.842-1.65,0-1.787,2.451Zm14.746-2.412-1.084-.078a1.947,1.947,0,0,0-1.992.977V48h-3.291V37.434h3.086l.107,1.357a2.548,2.548,0,0,1,2.314-1.553,3.209,3.209,0,0,1,.918.117ZM152.6,48h-3.3V37.434h3.3Zm-3.5-13.291a1.469,1.469,0,0,1,.508-1.152,2.159,2.159,0,0,1,2.637,0,1.561,1.561,0,0,1,0,2.3,2.159,2.159,0,0,1-2.637,0A1.469,1.469,0,0,1,149.1,34.709Zm5.107,7.91a6.236,6.236,0,0,1,.615-2.817,4.4,4.4,0,0,1,1.768-1.9,5.323,5.323,0,0,1,2.705-.664,4.858,4.858,0,0,1,3.74,1.47,5.64,5.64,0,0,1,1.367,4v.117a5.472,5.472,0,0,1-1.372,3.921,4.871,4.871,0,0,1-3.716,1.45,4.927,4.927,0,0,1-3.623-1.353,5.29,5.29,0,0,1-1.475-3.667Zm3.291.205a3.932,3.932,0,0,0,.459,2.148,1.529,1.529,0,0,0,1.357.684q1.758,0,1.8-2.705v-.332q0-2.842-1.816-2.842-1.65,0-1.787,2.451Z" transform="translate(945 1621)" fill="#12263f"/>
      <g id="Grupo_91122" data-name="Grupo 91122" transform="translate(977.182 1490.363)">
        <g id="Grupo_18423-3" data-name="Grupo 18423" transform="translate(0 0)">
          <g id="Grupo_18421-3" data-name="Grupo 18421">
            <g id="Grupo_18420-3" data-name="Grupo 18420">
              <g id="Grupo_18419-3" data-name="Grupo 18419">
                <path id="Trazado_40936-3" data-name="Trazado 40936" d="M309.259,2203.037a57.318,57.318,0,1,1-57.317-57.316A57.317,57.317,0,0,1,309.259,2203.037Z" transform="translate(-194.623 -2145.721)" fill="#fff"/>
              </g>
            </g>
          </g>
          <path id="Trazado_40937-3" data-name="Trazado 40937" d="M308.648,2202.372a57.316,57.316,0,1,0-57.317,57.319A57.091,57.091,0,0,0,308.648,2202.372Z" transform="translate(-194.013 -2145.056)" fill="url(#radial-gradient)"/>
          <path id="Trazado_40938-3" data-name="Trazado 40938" d="M289.672,2196.986a43.75,43.75,0,1,0-43.75,43.75A43.587,43.587,0,0,0,289.672,2196.986Z" transform="translate(-188.43 -2139.479)" fill="none" stroke="#00223d" stroke-miterlimit="10" stroke-width="4"/>
          <g id="Grupo_18422-3" data-name="Grupo 18422" transform="translate(10.154 32.18)">
            <path id="Trazado_40939-3" data-name="Trazado 40939" d="M299.231,2164.488a57.325,57.325,0,0,1-98.686,57.081,57.143,57.143,0,0,0,98.686-57.081Z" transform="translate(-200.545 -2164.488)" fill="#eceef0"/>
          </g>
        </g>
        <g id="jZ2h9z" transform="translate(560.067 296.801)">
          <g id="Grupo_88849" data-name="Grupo 88849" transform="translate(-521.118 -266.06)">
            <path id="Trazado_142491" data-name="Trazado 142491" d="M-521.079-239.4c-.01-.135-.029-.271-.029-.406,0-4.791.011-9.582-.007-14.372a5.317,5.317,0,0,1,2.345-4.582,5.094,5.094,0,0,1,3.071-.929c.681.007,1.362,0,2.043,0,.5,0,.711-.166.716-.654a1.857,1.857,0,0,1,1.882-1.718c.567.02,1.135-.007,1.7.008a.335.335,0,0,0,.379-.246,5.571,5.571,0,0,1,2.282-2.79,5.788,5.788,0,0,1,5.141-.64,5.888,5.888,0,0,1,3.356,2.855.821.821,0,0,1,.124.241c.088.555.437.637.927.585a12.133,12.133,0,0,1,1.327-.01,1.824,1.824,0,0,1,1.837,1.757c.023.428.224.607.686.613a24.225,24.225,0,0,1,2.717.049,5.24,5.24,0,0,1,4.49,3.591,9,9,0,0,1,.278,3.2c.013.987,0,1.974-.011,2.96a.513.513,0,0,1-.1.329q-1.97,1.99-3.957,3.963a.83.83,0,0,1-.137.076v-.386q0-4.087,0-8.174a1.211,1.211,0,0,0-1.373-1.385q-6.692,0-13.385,0-5.363,0-10.726,0c-.977,0-1.41.434-1.41,1.412q0,5.62,0,11.239,0,3.522,0,7.043a2.18,2.18,0,0,1-.086.427c-.3-.311-.591-.628-.9-.931q-1.343-1.328-2.694-2.646Zm17.6-20.025a2.279,2.279,0,0,0,2.224-2.175,2.27,2.27,0,0,0-2.223-2.246,2.271,2.271,0,0,0-2.189,2.211A2.268,2.268,0,0,0-503.477-259.423Z" transform="translate(521.115 266.06)" fill="#12263f"/>
            <path id="Trazado_142492" data-name="Trazado 142492" d="M-168.681-30.581l14.808-14.841,6.409,6.526-14.767,14.769Z" transform="translate(192.692 60.454)" fill="#12263f"/>
            <path id="Trazado_142493" data-name="Trazado 142493" d="M-520.587,132.28q1.348,1.323,2.694,2.646c.306.3.6.62.9.931a3.378,3.378,0,0,1,.081.523q.007,8.071.01,16.141a2.6,2.6,0,0,0,.162.911.994.994,0,0,0,.975.612c.295.012.59,0,.885,0q7.9,0,15.8,0a2.815,2.815,0,0,1,.519.1c.1.078.2.149.286.236.456.456.908.915,1.362,1.373l2.461,2.48a2.286,2.286,0,0,1-.354.055q-10.382,0-20.763,0a5.338,5.338,0,0,1-4.846-2.724,5.172,5.172,0,0,1-.7-2.73q.015-9.821.007-19.642c0-.123.019-.246.03-.37Z" transform="translate(521.118 -105.142)" fill="#12263f"/>
            <path id="Trazado_142494" data-name="Trazado 142494" d="M-185.923,246.6l-2.461-2.48c-.454-.458-.906-.918-1.363-1.373-.087-.087-.19-.158-.286-.236a.766.766,0,0,1,.246-.094q2.774-.011,5.549-.009c.518,0,1.037.009,1.555,0a1.165,1.165,0,0,0,1.2-1.244c.007-1.211,0-2.422,0-3.633,0-1.964.005-3.927-.006-5.891a.832.832,0,0,1,.282-.649c1.18-1.172,2.347-2.356,3.52-3.534.11-.11.232-.207.394-.351.008.175.019.293.019.411q-.006,4.2-.013,8.41c0,1.781.013,3.563.011,5.344a5.286,5.286,0,0,1-4.778,5.313c-1.227.116-2.47.054-3.706.069A.54.54,0,0,1-185.923,246.6Z" transform="translate(212.588 -193.505)" fill="#12263f"/>
            <path id="Trazado_142495" data-name="Trazado 142495" d="M71.328-123.16c1.112-1.125,2.165-2.265,3.3-3.317a2.666,2.666,0,0,1,3.811.261c.829.837,1.635,1.7,2.5,2.5a2.769,2.769,0,0,1,.01,3.907c-.986.984-1.972,1.966-2.949,2.959-.173.176-.279.116-.416-.022q-2.081-2.1-4.167-4.193Z" transform="translate(-30.965 136.624)" fill="#12263f"/>
            <path id="Trazado_142496" data-name="Trazado 142496" d="M-231.055,201.926l-9.726,3.29,3.293-9.736Z" transform="translate(259.88 -164.037)" fill="#12263f"/>
            <path id="Trazado_142497" data-name="Trazado 142497" d="M-413.391,123.488l1.838,2.146,3.772-4.065,1.356,1.254-5.184,5.59-3.188-3.724Z" transform="translate(422.04 -95.16)" fill="#12263f"/>
            <path id="Trazado_142498" data-name="Trazado 142498" d="M-411.592-46.785l-3.187-3.724,1.4-1.2,1.782,2.093c.323-.3.639-.575.923-.876.931-.985,1.849-1.984,2.78-2.969a.279.279,0,0,1,.266-.039c.4.358.792.733,1.212,1.129Z" transform="translate(422.024 67.999)" fill="#12263f"/>
            <path id="Trazado_142499" data-name="Trazado 142499" d="M-407.7,297.619l1.31,1.237-5.154,5.6-3.188-3.72,1.4-1.21,1.838,2.146Z" transform="translate(421.984 -259.216)" fill="#12263f"/>
            <path id="Trazado_142500" data-name="Trazado 142500" d="M-520.09,125.757l-.494.543q0-.51,0-1.02Z" transform="translate(520.621 -98.619)" fill="#12263f"/>
          </g>
        </g>
      </g>
    </g>
    <g id="Grupo_91132" data-name="Grupo 91132">
      <rect id="Rectángulo_34200" data-name="Rectángulo 34200" width="229" height="6" transform="translate(1156 1690)" fill="url(#linear-gradient-2)"/>
      <g transform="matrix(1, 0, 0, 1, 188, 1461)" filter="url(#Rectángulo_34205)">
        <path id="Rectángulo_34205-2" data-name="Rectángulo 34205" d="M20,0H209a20,20,0,0,1,20,20V208a0,0,0,0,1,0,0H0a0,0,0,0,1,0,0V20A20,20,0,0,1,20,0Z" transform="translate(968 21)" fill="#fff"/>
      </g>
      <path id="Trazado_142534" data-name="Trazado 142534" d="M41.209,16.186a5.193,5.193,0,0,1-.8,2.622,4.833,4.833,0,0,1-2.056,1.763,7,7,0,0,1-3.022.625,5.584,5.584,0,0,1-4.414-1.826A7.54,7.54,0,0,1,29.3,14.213v-.7a8.607,8.607,0,0,1,.728-3.657,5.513,5.513,0,0,1,2.095-2.422,5.844,5.844,0,0,1,3.164-.854,6.129,6.129,0,0,1,4.16,1.362,5.383,5.383,0,0,1,1.787,3.755H37.82a2.547,2.547,0,0,0-.654-1.865,2.691,2.691,0,0,0-1.875-.566,2.048,2.048,0,0,0-1.875.957,6.151,6.151,0,0,0-.625,3.057v1.006a6.806,6.806,0,0,0,.571,3.252,2.091,2.091,0,0,0,1.968.977,2.632,2.632,0,0,0,1.807-.557,2.363,2.363,0,0,0,.664-1.768ZM48.631,21a3.716,3.716,0,0,1-.312-.947A3.06,3.06,0,0,1,45.779,21.2a3.749,3.749,0,0,1-2.539-.9A2.875,2.875,0,0,1,42.2,18.021a2.955,2.955,0,0,1,1.27-2.6,6.468,6.468,0,0,1,3.691-.879h1.016v-.559q0-1.462-1.26-1.462a1.03,1.03,0,0,0-1.172,1.158H42.449a2.95,2.95,0,0,1,1.3-2.487,5.479,5.479,0,0,1,3.325-.956,4.8,4.8,0,0,1,3.193.986,3.429,3.429,0,0,1,1.2,2.705v4.678a4.79,4.79,0,0,0,.449,2.227V21ZM46.57,18.852a1.836,1.836,0,0,0,1.021-.264,1.653,1.653,0,0,0,.581-.6V16.3h-.957q-1.719,0-1.719,1.543a.942.942,0,0,0,.3.728A1.1,1.1,0,0,0,46.57,18.852ZM63.1,15.795A6.372,6.372,0,0,1,62,19.726,3.554,3.554,0,0,1,59,21.2a3.046,3.046,0,0,1-2.393-1.064v4.932H53.318V10.434h3.076l.1.977a3.046,3.046,0,0,1,2.49-1.172,3.582,3.582,0,0,1,3.037,1.44,6.45,6.45,0,0,1,1.084,3.96Zm-3.291-.205q0-2.812-1.641-2.812a1.549,1.549,0,0,0-1.562.84v4.16a1.6,1.6,0,0,0,1.582.879q1.572,0,1.621-2.715ZM70.506,21a3.716,3.716,0,0,1-.312-.947A3.06,3.06,0,0,1,67.654,21.2a3.749,3.749,0,0,1-2.539-.9,2.875,2.875,0,0,1-1.045-2.271,2.955,2.955,0,0,1,1.27-2.6,6.468,6.468,0,0,1,3.691-.879h1.016v-.559q0-1.462-1.26-1.462a1.03,1.03,0,0,0-1.172,1.158H64.324a2.95,2.95,0,0,1,1.3-2.487,5.479,5.479,0,0,1,3.325-.956,4.8,4.8,0,0,1,3.193.986,3.429,3.429,0,0,1,1.2,2.705v4.678a4.79,4.79,0,0,0,.449,2.227V21Zm-2.061-2.148a1.836,1.836,0,0,0,1.021-.264,1.653,1.653,0,0,0,.581-.6V16.3H69.09q-1.719,0-1.719,1.543a.942.942,0,0,0,.3.728A1.1,1.1,0,0,0,68.445,18.852Zm11.191-.2a1.464,1.464,0,0,0,1.074-.376,1.379,1.379,0,0,0,.371-1.05h3.086a3.653,3.653,0,0,1-1.245,2.852A4.631,4.631,0,0,1,79.715,21.2a4.689,4.689,0,0,1-3.633-1.445,5.7,5.7,0,0,1-1.328-4v-.137a6.436,6.436,0,0,1,.591-2.827,4.3,4.3,0,0,1,1.7-1.885,5.081,5.081,0,0,1,2.637-.659,4.573,4.573,0,0,1,3.271,1.143,4.053,4.053,0,0,1,1.211,3.1H81.082a1.806,1.806,0,0,0-.4-1.26,1.382,1.382,0,0,0-1.074-.439q-1.279,0-1.494,1.631a11.508,11.508,0,0,0-.068,1.426,4.52,4.52,0,0,0,.381,2.207A1.319,1.319,0,0,0,79.637,18.656ZM89.031,21h-3.3V10.434h3.3Zm-3.5-13.291a1.469,1.469,0,0,1,.508-1.152,2.159,2.159,0,0,1,2.637,0,1.469,1.469,0,0,1,.508,1.152,1.469,1.469,0,0,1-.508,1.152,2.159,2.159,0,0,1-2.637,0A1.469,1.469,0,0,1,85.535,7.709Zm5.107,7.93a6.455,6.455,0,0,1,1.084-3.955,3.568,3.568,0,0,1,3.027-1.445,3.035,3.035,0,0,1,2.383,1.113V6h3.3V21H97.479l-.166-1.133A3.116,3.116,0,0,1,94.734,21.2a3.562,3.562,0,0,1-2.988-1.445A6.659,6.659,0,0,1,90.643,15.639Zm3.291.205q0,2.813,1.641,2.813a1.62,1.62,0,0,0,1.563-.918V13.715a1.576,1.576,0,0,0-1.543-.937q-1.523,0-1.65,2.461ZM108.26,21a3.716,3.716,0,0,1-.312-.947,3.06,3.06,0,0,1-2.539,1.143,3.749,3.749,0,0,1-2.539-.9,2.875,2.875,0,0,1-1.045-2.271,2.955,2.955,0,0,1,1.27-2.6,6.468,6.468,0,0,1,3.691-.879H107.8v-.559q0-1.462-1.26-1.462a1.03,1.03,0,0,0-1.172,1.158h-3.291a2.95,2.95,0,0,1,1.3-2.487,5.479,5.479,0,0,1,3.325-.956,4.8,4.8,0,0,1,3.193.986,3.429,3.429,0,0,1,1.2,2.705v4.678a4.79,4.79,0,0,0,.449,2.227V21ZM106.2,18.852a1.836,1.836,0,0,0,1.021-.264,1.653,1.653,0,0,0,.581-.6V16.3h-.957q-1.719,0-1.719,1.543a.942.942,0,0,0,.3.728A1.1,1.1,0,0,0,106.2,18.852Zm6.309-3.213a6.455,6.455,0,0,1,1.084-3.955,3.568,3.568,0,0,1,3.027-1.445A3.035,3.035,0,0,1,119,11.352V6h3.3V21h-2.959l-.166-1.133A3.116,3.116,0,0,1,116.6,21.2a3.562,3.562,0,0,1-2.988-1.445A6.659,6.659,0,0,1,112.508,15.639Zm3.291.205q0,2.813,1.641,2.813A1.62,1.62,0,0,0,119,17.738V13.715a1.576,1.576,0,0,0-1.543-.937q-1.523,0-1.65,2.461Zm12.939-.205a6.455,6.455,0,0,1,1.084-3.955,3.568,3.568,0,0,1,3.027-1.445,3.035,3.035,0,0,1,2.383,1.113V6h3.3V21h-2.959l-.166-1.133A3.116,3.116,0,0,1,132.83,21.2a3.562,3.562,0,0,1-2.988-1.445A6.659,6.659,0,0,1,128.738,15.639Zm3.291.205q0,2.813,1.641,2.813a1.62,1.62,0,0,0,1.563-.918V13.715a1.576,1.576,0,0,0-1.543-.937q-1.523,0-1.65,2.461ZM145.516,21.2a5.432,5.432,0,0,1-3.936-1.45,5.008,5.008,0,0,1-1.5-3.774V15.7a6.489,6.489,0,0,1,.6-2.861,4.395,4.395,0,0,1,1.753-1.919,5.292,5.292,0,0,1,2.734-.679,4.574,4.574,0,0,1,3.516,1.382,5.43,5.43,0,0,1,1.289,3.853v1.279h-6.543a2.372,2.372,0,0,0,.771,1.4,2.3,2.3,0,0,0,1.543.508,2.958,2.958,0,0,0,2.441-1.094l1.5,1.777a4.2,4.2,0,0,1-1.743,1.353A5.891,5.891,0,0,1,145.516,21.2Zm-.371-8.418q-1.445,0-1.719,1.914h3.32v-.254a1.63,1.63,0,0,0-.4-1.226A1.593,1.593,0,0,0,145.145,12.777ZM57.879,40.412l-1.084-.078a1.947,1.947,0,0,0-1.992.977V48H51.512V37.434H54.6l.107,1.357a2.548,2.548,0,0,1,2.314-1.553,3.209,3.209,0,0,1,.918.117Zm6.3,7.783a5.432,5.432,0,0,1-3.936-1.45,5.008,5.008,0,0,1-1.5-3.774V42.7a6.489,6.489,0,0,1,.6-2.861,4.395,4.395,0,0,1,1.753-1.919,5.292,5.292,0,0,1,2.734-.679,4.574,4.574,0,0,1,3.516,1.382,5.43,5.43,0,0,1,1.289,3.853v1.279H62.088a2.372,2.372,0,0,0,.771,1.4,2.3,2.3,0,0,0,1.543.508,2.958,2.958,0,0,0,2.441-1.094l1.5,1.777A4.2,4.2,0,0,1,66.6,47.692,5.891,5.891,0,0,1,64.178,48.2Zm-.371-8.418q-1.445,0-1.719,1.914h3.32v-.254a1.63,1.63,0,0,0-.4-1.226A1.593,1.593,0,0,0,63.807,39.777ZM75.906,48a3.716,3.716,0,0,1-.312-.947A3.06,3.06,0,0,1,73.055,48.2a3.749,3.749,0,0,1-2.539-.9,2.875,2.875,0,0,1-1.045-2.271,2.955,2.955,0,0,1,1.27-2.6,6.468,6.468,0,0,1,3.691-.879h1.016v-.559q0-1.462-1.26-1.462a1.03,1.03,0,0,0-1.172,1.158H69.725a2.95,2.95,0,0,1,1.3-2.487,5.479,5.479,0,0,1,3.325-.956,4.8,4.8,0,0,1,3.193.986,3.429,3.429,0,0,1,1.2,2.705v4.678a4.79,4.79,0,0,0,.449,2.227V48Zm-2.061-2.148a1.836,1.836,0,0,0,1.021-.264,1.653,1.653,0,0,0,.581-.6V43.3H74.49q-1.719,0-1.719,1.543a.942.942,0,0,0,.3.728A1.1,1.1,0,0,0,73.846,45.852Zm11.191-.2a1.464,1.464,0,0,0,1.074-.376,1.379,1.379,0,0,0,.371-1.05h3.086a3.653,3.653,0,0,1-1.245,2.852A4.631,4.631,0,0,1,85.115,48.2a4.689,4.689,0,0,1-3.633-1.445,5.7,5.7,0,0,1-1.328-4v-.137a6.436,6.436,0,0,1,.591-2.827,4.3,4.3,0,0,1,1.7-1.885,5.081,5.081,0,0,1,2.637-.659,4.573,4.573,0,0,1,3.271,1.143,4.053,4.053,0,0,1,1.211,3.1H86.482a1.806,1.806,0,0,0-.4-1.26,1.382,1.382,0,0,0-1.074-.439q-1.279,0-1.494,1.631a11.508,11.508,0,0,0-.068,1.426,4.52,4.52,0,0,0,.381,2.207A1.319,1.319,0,0,0,85.037,45.656Zm10.391,0A1.464,1.464,0,0,0,96.5,45.28a1.379,1.379,0,0,0,.371-1.05h3.086a3.653,3.653,0,0,1-1.245,2.852A4.631,4.631,0,0,1,95.506,48.2a4.689,4.689,0,0,1-3.633-1.445,5.7,5.7,0,0,1-1.328-4v-.137a6.436,6.436,0,0,1,.591-2.827,4.3,4.3,0,0,1,1.7-1.885,5.081,5.081,0,0,1,2.637-.659,4.573,4.573,0,0,1,3.271,1.143,4.053,4.053,0,0,1,1.211,3.1H96.873a1.806,1.806,0,0,0-.4-1.26,1.382,1.382,0,0,0-1.074-.439q-1.279,0-1.494,1.631a11.508,11.508,0,0,0-.068,1.426,4.52,4.52,0,0,0,.381,2.207A1.319,1.319,0,0,0,95.428,45.656ZM104.822,48h-3.3V37.434h3.3Zm-3.5-13.291a1.469,1.469,0,0,1,.508-1.152,2.159,2.159,0,0,1,2.637,0,1.561,1.561,0,0,1,0,2.3,2.159,2.159,0,0,1-2.637,0A1.469,1.469,0,0,1,101.326,34.709Zm5.107,7.91a6.236,6.236,0,0,1,.615-2.817,4.4,4.4,0,0,1,1.768-1.9,5.323,5.323,0,0,1,2.705-.664,4.858,4.858,0,0,1,3.74,1.47,5.64,5.64,0,0,1,1.367,4v.117a5.472,5.472,0,0,1-1.372,3.921,4.871,4.871,0,0,1-3.716,1.45,4.927,4.927,0,0,1-3.623-1.353,5.29,5.29,0,0,1-1.475-3.667Zm3.291.205a3.932,3.932,0,0,0,.459,2.148,1.529,1.529,0,0,0,1.357.684q1.758,0,1.8-2.705v-.332q0-2.842-1.816-2.842-1.65,0-1.787,2.451ZM111.971,33h3.477l-2.715,3.066-2.686,0Zm9.131,4.434.107,1.24a3.583,3.583,0,0,1,3.018-1.436,3.015,3.015,0,0,1,2.466.986,4.7,4.7,0,0,1,.845,2.969V48h-3.3V41.33a1.783,1.783,0,0,0-.322-1.177,1.491,1.491,0,0,0-1.172-.376,1.569,1.569,0,0,0-1.436.762V48h-3.291V37.434Z" transform="translate(1181 1621)" fill="#12263f"/>
      <g id="Grupo_91123" data-name="Grupo 91123" transform="translate(1213.182 1490.363)">
        <g id="Grupo_18423-4" data-name="Grupo 18423" transform="translate(0 0)">
          <g id="Grupo_18421-4" data-name="Grupo 18421">
            <g id="Grupo_18420-4" data-name="Grupo 18420">
              <g id="Grupo_18419-4" data-name="Grupo 18419">
                <path id="Trazado_40936-4" data-name="Trazado 40936" d="M309.259,2203.037a57.318,57.318,0,1,1-57.317-57.316A57.317,57.317,0,0,1,309.259,2203.037Z" transform="translate(-194.623 -2145.721)" fill="#fff"/>
              </g>
            </g>
          </g>
          <path id="Trazado_40937-4" data-name="Trazado 40937" d="M308.648,2202.372a57.316,57.316,0,1,0-57.317,57.319A57.091,57.091,0,0,0,308.648,2202.372Z" transform="translate(-194.013 -2145.056)" fill="url(#radial-gradient)"/>
          <path id="Trazado_40938-4" data-name="Trazado 40938" d="M289.672,2196.986a43.75,43.75,0,1,0-43.75,43.75A43.587,43.587,0,0,0,289.672,2196.986Z" transform="translate(-188.43 -2139.479)" fill="none" stroke="#00223d" stroke-miterlimit="10" stroke-width="4"/>
          <g id="Grupo_18422-4" data-name="Grupo 18422" transform="translate(10.154 32.18)">
            <path id="Trazado_40939-4" data-name="Trazado 40939" d="M299.231,2164.488a57.325,57.325,0,0,1-98.686,57.081,57.143,57.143,0,0,0,98.686-57.081Z" transform="translate(-200.545 -2164.488)" fill="#eceef0"/>
          </g>
        </g>
        <g id="SW7Co4.tif" transform="translate(-1787.27 46.006)">
          <g id="Grupo_91127" data-name="Grupo 91127" transform="translate(1820.477 -13.744)">
            <path id="Trazado_142504" data-name="Trazado 142504" d="M1887.479,96.965a17.284,17.284,0,0,1,1.911.178,4.635,4.635,0,0,1-.933,9.17q-15.842.009-31.684,0a4.645,4.645,0,0,1,.041-9.291h.909c.012-.191.032-.357.032-.524q0-8.038,0-16.076a14.851,14.851,0,0,1,29.475-2.722,18.672,18.672,0,0,1,.229,2.824c.023,5.262.014,10.524.015,15.786C1887.479,96.521,1887.479,96.731,1887.479,96.965Zm-3.716.035v-.415c0-5.244.009-10.487-.012-15.731a14.59,14.59,0,0,0-.228-2.709,11.132,11.132,0,0,0-22.047,2.452q-.006,7.865-.006,15.731V97Zm-11.078,3.738q-7.8,0-15.6,0c-.723,0-1.171.358-1.179.918s.441.941,1.156.941q15.543,0,31.086,0c.723,0,1.171-.358,1.18-.919s-.442-.93-1.157-.942c-.135,0-.271,0-.406,0Z" transform="translate(-1848.495 -56.206)" fill="#12263f"/>
            <path id="Trazado_142505" data-name="Trazado 142505" d="M1844.833,81.721l-4.845-2.791,1.869-3.239,4.838,2.8Z" transform="translate(-1837.718 -65.29)" fill="#12263f"/>
            <path id="Trazado_142506" data-name="Trazado 142506" d="M2160.026,81.767l-1.868-3.234,4.833-2.8,1.883,3.234Z" transform="translate(-2118.888 -65.327)" fill="#12263f"/>
            <path id="Trazado_142507" data-name="Trazado 142507" d="M1916.148,10.384l-3.227,1.865-2.8-4.833,3.24-1.878Z" transform="translate(-1899.693 -3.296)" fill="#12263f"/>
            <path id="Trazado_142508" data-name="Trazado 142508" d="M2097.031,12.177l-3.237-1.868,2.8-4.848,3.233,1.878Z" transform="translate(-2062.01 -3.228)" fill="#12263f"/>
            <path id="Trazado_142509" data-name="Trazado 142509" d="M2015.815-8.245h-3.646v-5.5h3.646Z" transform="translate(-1989.876 13.744)" fill="#12263f"/>
            <path id="Trazado_142510" data-name="Trazado 142510" d="M1820.477,181.444v-3.637H1826v3.637Z" transform="translate(-1820.477 -155.531)" fill="#12263f"/>
            <path id="Trazado_142511" data-name="Trazado 142511" d="M2188.038,177.617h5.477v3.666h-5.477Z" transform="translate(-2145.293 -155.363)" fill="#12263f"/>
            <path id="Trazado_142512" data-name="Trazado 142512" d="M2012.232,129.72h3.633v14.8h-3.633Z" transform="translate(-1989.932 -113.036)" fill="#12263f"/>
            <path id="Trazado_142513" data-name="Trazado 142513" d="M2011.944,275.2a1.855,1.855,0,1,1,1.831,1.892A1.831,1.831,0,0,1,2011.944,275.2Z" transform="translate(-1989.677 -239.991)" fill="#12263f"/>
          </g>
        </g>
      </g>
    </g>
    <g id="Grupo_91130" data-name="Grupo 91130">
      <rect id="Rectángulo_34196" data-name="Rectángulo 34196" width="229" height="6" transform="translate(684 1690)" fill="url(#linear-gradient-2)"/>
      <g transform="matrix(1, 0, 0, 1, 188, 1461)" filter="url(#Rectángulo_34203)">
        <path id="Rectángulo_34203-2" data-name="Rectángulo 34203" d="M20,0H209a20,20,0,0,1,20,20V208a0,0,0,0,1,0,0H0a0,0,0,0,1,0,0V20A20,20,0,0,1,20,0Z" transform="translate(496 21)" fill="#fff"/>
      </g>
      <path id="Trazado_142532" data-name="Trazado 142532" d="M34.168,19.242a5.511,5.511,0,0,1-2.314,1.416,9.982,9.982,0,0,1-3.34.537,5.955,5.955,0,0,1-4.463-1.709,6.918,6.918,0,0,1-1.787-4.756l-.01-1.23A8.485,8.485,0,0,1,23,9.833,5.511,5.511,0,0,1,25.12,7.421a6.008,6.008,0,0,1,3.2-.845,6.3,6.3,0,0,1,4.126,1.216,5.152,5.152,0,0,1,1.714,3.628h-3.3a2.7,2.7,0,0,0-.762-1.7,2.458,2.458,0,0,0-1.66-.508,2.237,2.237,0,0,0-1.992,1.094,5.84,5.84,0,0,0-.713,3.125v.859a5.717,5.717,0,0,0,.728,3.2,2.573,2.573,0,0,0,2.29,1.069,2.88,2.88,0,0,0,1.992-.6V15.756H28.357V13.4h5.811ZM41.121,21.2a5.432,5.432,0,0,1-3.936-1.45,5.008,5.008,0,0,1-1.5-3.774V15.7a6.489,6.489,0,0,1,.6-2.861,4.395,4.395,0,0,1,1.753-1.919,5.292,5.292,0,0,1,2.734-.679,4.574,4.574,0,0,1,3.516,1.382,5.43,5.43,0,0,1,1.289,3.853v1.279H39.031a2.372,2.372,0,0,0,.771,1.4,2.3,2.3,0,0,0,1.543.508,2.958,2.958,0,0,0,2.441-1.094l1.5,1.777a4.2,4.2,0,0,1-1.743,1.353A5.891,5.891,0,0,1,41.121,21.2Zm-.371-8.418q-1.445,0-1.719,1.914h3.32v-.254a1.63,1.63,0,0,0-.4-1.226A1.593,1.593,0,0,0,40.75,12.777Zm9.17-2.344.107,1.24a3.583,3.583,0,0,1,3.018-1.436,3.015,3.015,0,0,1,2.466.986,4.7,4.7,0,0,1,.845,2.969V21h-3.3V14.33a1.783,1.783,0,0,0-.322-1.177,1.491,1.491,0,0,0-1.172-.376,1.569,1.569,0,0,0-1.436.762V21H46.834V10.434ZM63.289,21.2a5.432,5.432,0,0,1-3.936-1.45,5.008,5.008,0,0,1-1.5-3.774V15.7a6.489,6.489,0,0,1,.6-2.861A4.395,4.395,0,0,1,60.2,10.917a5.292,5.292,0,0,1,2.734-.679,4.574,4.574,0,0,1,3.516,1.382,5.43,5.43,0,0,1,1.289,3.853v1.279H61.2a2.372,2.372,0,0,0,.771,1.4,2.3,2.3,0,0,0,1.543.508,2.958,2.958,0,0,0,2.441-1.094l1.5,1.777a4.2,4.2,0,0,1-1.743,1.353A5.891,5.891,0,0,1,63.289,21.2Zm-.371-8.418q-1.445,0-1.719,1.914h3.32v-.254a1.63,1.63,0,0,0-.4-1.226A1.593,1.593,0,0,0,62.918,12.777Zm12.539.635-1.084-.078a1.947,1.947,0,0,0-1.992.977V21H69.09V10.434h3.086l.107,1.357A2.548,2.548,0,0,1,74.6,10.238a3.209,3.209,0,0,1,.918.117ZM82.3,21a3.716,3.716,0,0,1-.312-.947A3.06,3.06,0,0,1,79.451,21.2a3.749,3.749,0,0,1-2.539-.9,2.875,2.875,0,0,1-1.045-2.271,2.955,2.955,0,0,1,1.27-2.6,6.468,6.468,0,0,1,3.691-.879h1.016v-.559q0-1.462-1.26-1.462a1.03,1.03,0,0,0-1.172,1.158H76.121a2.95,2.95,0,0,1,1.3-2.487,5.479,5.479,0,0,1,3.325-.956,4.8,4.8,0,0,1,3.193.986,3.429,3.429,0,0,1,1.2,2.705v4.678a4.79,4.79,0,0,0,.449,2.227V21Zm-2.061-2.148a1.836,1.836,0,0,0,1.021-.264,1.653,1.653,0,0,0,.581-.6V16.3h-.957q-1.719,0-1.719,1.543a.942.942,0,0,0,.3.728A1.1,1.1,0,0,0,80.242,18.852Zm13.115-5.439-1.084-.078a1.947,1.947,0,0,0-1.992.977V21H86.99V10.434h3.086l.107,1.357A2.548,2.548,0,0,1,92.5,10.238a3.209,3.209,0,0,1,.918.117Zm11.7,4.619a.76.76,0,0,0-.439-.674,6.684,6.684,0,0,0-1.67-.527,7.615,7.615,0,0,1-2.031-.718A3.4,3.4,0,0,1,99.7,15.033a2.577,2.577,0,0,1-.42-1.455,2.92,2.92,0,0,1,1.2-2.4,4.948,4.948,0,0,1,3.145-.942,5.482,5.482,0,0,1,3.359.947,2.962,2.962,0,0,1,1.27,2.49h-3.3q0-1.27-1.338-1.27a1.326,1.326,0,0,0-.869.288.892.892,0,0,0-.352.718.819.819,0,0,0,.43.713,4.06,4.06,0,0,0,1.372.449,11.857,11.857,0,0,1,1.655.42,3.007,3.007,0,0,1,2.383,2.939,2.767,2.767,0,0,1-1.284,2.354,5.631,5.631,0,0,1-3.325.908,5.747,5.747,0,0,1-2.422-.488,4.05,4.05,0,0,1-1.66-1.328,3.007,3.007,0,0,1-.6-1.768h3.076a1.272,1.272,0,0,0,.488,1.069,2.009,2.009,0,0,0,1.2.337,1.58,1.58,0,0,0,1.011-.273A.875.875,0,0,0,105.057,18.031ZM113.24,21h-3.3V10.434h3.3Zm-3.5-13.291a1.469,1.469,0,0,1,.508-1.152,2.159,2.159,0,0,1,2.637,0,1.469,1.469,0,0,1,.508,1.152,1.469,1.469,0,0,1-.508,1.152,2.159,2.159,0,0,1-2.637,0A1.469,1.469,0,0,1,109.744,7.709ZM120.8,18.031a.76.76,0,0,0-.439-.674,6.684,6.684,0,0,0-1.67-.527,7.615,7.615,0,0,1-2.031-.718,3.4,3.4,0,0,1-1.221-1.079,2.577,2.577,0,0,1-.42-1.455,2.92,2.92,0,0,1,1.2-2.4,4.948,4.948,0,0,1,3.145-.942,5.482,5.482,0,0,1,3.359.947,2.962,2.962,0,0,1,1.27,2.49h-3.3q0-1.27-1.338-1.27a1.326,1.326,0,0,0-.869.288.892.892,0,0,0-.352.718.819.819,0,0,0,.43.713,4.06,4.06,0,0,0,1.372.449,11.857,11.857,0,0,1,1.655.42,3.007,3.007,0,0,1,2.383,2.939,2.767,2.767,0,0,1-1.284,2.354,5.631,5.631,0,0,1-3.325.908,5.747,5.747,0,0,1-2.422-.488,4.05,4.05,0,0,1-1.66-1.328,3.007,3.007,0,0,1-.6-1.768h3.076a1.272,1.272,0,0,0,.488,1.069,2.009,2.009,0,0,0,1.2.337,1.58,1.58,0,0,0,1.011-.273A.875.875,0,0,0,120.8,18.031Zm8.545-10.225v2.627h1.738v2.285h-1.738v4.834a1.234,1.234,0,0,0,.215.83,1.152,1.152,0,0,0,.85.234,4.828,4.828,0,0,0,.82-.059v2.354a6.074,6.074,0,0,1-1.855.283,3.448,3.448,0,0,1-2.51-.8,3.282,3.282,0,0,1-.811-2.432V12.719h-1.348V10.434h1.348V7.807ZM137.488,21.2a5.432,5.432,0,0,1-3.936-1.45,5.008,5.008,0,0,1-1.5-3.774V15.7a6.489,6.489,0,0,1,.6-2.861,4.395,4.395,0,0,1,1.753-1.919,5.292,5.292,0,0,1,2.734-.679,4.574,4.574,0,0,1,3.516,1.382,5.43,5.43,0,0,1,1.289,3.853v1.279H135.4a2.372,2.372,0,0,0,.771,1.4,2.3,2.3,0,0,0,1.543.508,2.958,2.958,0,0,0,2.441-1.094l1.5,1.777a4.2,4.2,0,0,1-1.743,1.353A5.891,5.891,0,0,1,137.488,21.2Zm-.371-8.418q-1.445,0-1.719,1.914h3.32v-.254a1.63,1.63,0,0,0-.4-1.226A1.593,1.593,0,0,0,137.117,12.777Zm9.258-2.344.107,1.24a3.633,3.633,0,0,1,3.018-1.436,2.675,2.675,0,0,1,2.705,1.592,3.516,3.516,0,0,1,3.105-1.592q3.213,0,3.3,3.887V21h-3.3V14.33a2.014,2.014,0,0,0-.273-1.182,1.164,1.164,0,0,0-1-.371,1.559,1.559,0,0,0-1.455.869l.01.137V21h-3.3V14.35a2.117,2.117,0,0,0-.264-1.2,1.161,1.161,0,0,0-1.006-.371,1.578,1.578,0,0,0-1.445.869V21h-3.291V10.434ZM166.443,21a3.716,3.716,0,0,1-.312-.947,3.06,3.06,0,0,1-2.539,1.143,3.749,3.749,0,0,1-2.539-.9,2.875,2.875,0,0,1-1.045-2.271,2.955,2.955,0,0,1,1.27-2.6,6.468,6.468,0,0,1,3.691-.879h1.016v-.559q0-1.462-1.26-1.462a1.03,1.03,0,0,0-1.172,1.158h-3.291a2.95,2.95,0,0,1,1.3-2.487,5.479,5.479,0,0,1,3.325-.956,4.8,4.8,0,0,1,3.193.986,3.429,3.429,0,0,1,1.2,2.705v4.678a4.79,4.79,0,0,0,.449,2.227V21Zm-2.061-2.148a1.836,1.836,0,0,0,1.021-.264,1.653,1.653,0,0,0,.581-.6V16.3h-.957q-1.719,0-1.719,1.543a.942.942,0,0,0,.3.728A1.1,1.1,0,0,0,164.383,18.852Zm12.256-.82a.76.76,0,0,0-.439-.674,6.684,6.684,0,0,0-1.67-.527,7.615,7.615,0,0,1-2.031-.718,3.4,3.4,0,0,1-1.221-1.079,2.577,2.577,0,0,1-.42-1.455,2.92,2.92,0,0,1,1.2-2.4,4.948,4.948,0,0,1,3.145-.942,5.482,5.482,0,0,1,3.359.947,2.962,2.962,0,0,1,1.27,2.49h-3.3q0-1.27-1.338-1.27a1.326,1.326,0,0,0-.869.288.892.892,0,0,0-.352.718.819.819,0,0,0,.43.713,4.06,4.06,0,0,0,1.372.449,11.857,11.857,0,0,1,1.655.42,3.007,3.007,0,0,1,2.383,2.939,2.767,2.767,0,0,1-1.284,2.354,5.632,5.632,0,0,1-3.325.908,5.747,5.747,0,0,1-2.422-.488,4.05,4.05,0,0,1-1.66-1.328,3.007,3.007,0,0,1-.6-1.768H173.6a1.272,1.272,0,0,0,.488,1.069,2.009,2.009,0,0,0,1.2.337,1.58,1.58,0,0,0,1.011-.273A.875.875,0,0,0,176.639,18.031Zm9.277-2.393A6.455,6.455,0,0,1,187,11.684a3.568,3.568,0,0,1,3.027-1.445,3.035,3.035,0,0,1,2.383,1.113V6h3.3V21h-2.959l-.166-1.133a3.116,3.116,0,0,1-2.578,1.328,3.562,3.562,0,0,1-2.988-1.445A6.659,6.659,0,0,1,185.916,15.639Zm3.291.205q0,2.813,1.641,2.813a1.62,1.62,0,0,0,1.563-.918V13.715a1.576,1.576,0,0,0-1.543-.937q-1.523,0-1.65,2.461ZM202.693,21.2a5.432,5.432,0,0,1-3.936-1.45,5.008,5.008,0,0,1-1.5-3.774V15.7a6.489,6.489,0,0,1,.6-2.861,4.395,4.395,0,0,1,1.753-1.919,5.292,5.292,0,0,1,2.734-.679,4.574,4.574,0,0,1,3.516,1.382,5.43,5.43,0,0,1,1.289,3.853v1.279H200.6a2.372,2.372,0,0,0,.771,1.4,2.3,2.3,0,0,0,1.543.508,2.958,2.958,0,0,0,2.441-1.094l1.5,1.777a4.2,4.2,0,0,1-1.743,1.353A5.891,5.891,0,0,1,202.693,21.2Zm-.371-8.418q-1.445,0-1.719,1.914h3.32v-.254a1.63,1.63,0,0,0-.4-1.226A1.593,1.593,0,0,0,202.322,12.777ZM22.8,48H19.5V37.434h3.3ZM19.3,34.709a1.469,1.469,0,0,1,.508-1.152,2.159,2.159,0,0,1,2.637,0,1.561,1.561,0,0,1,0,2.3,2.159,2.159,0,0,1-2.637,0A1.469,1.469,0,0,1,19.3,34.709Zm8.545,2.725.107,1.24a3.583,3.583,0,0,1,3.018-1.436,3.015,3.015,0,0,1,2.466.986,4.7,4.7,0,0,1,.845,2.969V48h-3.3V41.33a1.783,1.783,0,0,0-.322-1.177,1.491,1.491,0,0,0-1.172-.376,1.569,1.569,0,0,0-1.436.762V48H24.764V37.434ZM36.834,48V39.719H35.3V37.434h1.533v-.84a3.651,3.651,0,0,1,1.064-2.8,4.206,4.206,0,0,1,2.988-1A6.544,6.544,0,0,1,42.43,33l.01,2.422a3.007,3.007,0,0,0-.811-.088q-1.494,0-1.494,1.289v.811H42.2v2.285H40.135V48Zm6.1-5.381a6.236,6.236,0,0,1,.615-2.817,4.4,4.4,0,0,1,1.768-1.9,5.323,5.323,0,0,1,2.705-.664,4.858,4.858,0,0,1,3.74,1.47,5.64,5.64,0,0,1,1.367,4v.117a5.472,5.472,0,0,1-1.372,3.921,4.871,4.871,0,0,1-3.716,1.45,4.927,4.927,0,0,1-3.623-1.353,5.29,5.29,0,0,1-1.475-3.667Zm3.291.205a3.932,3.932,0,0,0,.459,2.148,1.529,1.529,0,0,0,1.357.684q1.758,0,1.8-2.705v-.332q0-2.842-1.816-2.842-1.65,0-1.787,2.451Zm14.746-2.412-1.084-.078a1.947,1.947,0,0,0-1.992.977V48H54.607V37.434h3.086l.107,1.357a2.548,2.548,0,0,1,2.314-1.553,3.209,3.209,0,0,1,.918.117Zm4.3-2.979.107,1.24A3.633,3.633,0,0,1,68.4,37.238,2.675,2.675,0,0,1,71.1,38.83a3.517,3.517,0,0,1,3.105-1.592q3.213,0,3.3,3.887V48h-3.3V41.33a2.014,2.014,0,0,0-.273-1.182,1.164,1.164,0,0,0-1-.371,1.559,1.559,0,0,0-1.455.869l.01.137V48h-3.3V41.35a2.117,2.117,0,0,0-.264-1.2,1.161,1.161,0,0,0-1.006-.371,1.578,1.578,0,0,0-1.445.869V48H62.186V37.434ZM85.34,48a3.716,3.716,0,0,1-.312-.947A3.06,3.06,0,0,1,82.488,48.2a3.749,3.749,0,0,1-2.539-.9A2.875,2.875,0,0,1,78.9,45.021a2.955,2.955,0,0,1,1.27-2.6,6.468,6.468,0,0,1,3.691-.879h1.016v-.559q0-1.462-1.26-1.462a1.03,1.03,0,0,0-1.172,1.158H79.158a2.95,2.95,0,0,1,1.3-2.487,5.479,5.479,0,0,1,3.325-.956,4.8,4.8,0,0,1,3.193.986,3.429,3.429,0,0,1,1.2,2.705v4.678a4.79,4.79,0,0,0,.449,2.227V48Zm-2.061-2.148a1.836,1.836,0,0,0,1.021-.264,1.653,1.653,0,0,0,.581-.6V43.3h-.957q-1.719,0-1.719,1.543a.942.942,0,0,0,.3.728A1.1,1.1,0,0,0,83.279,45.852Zm11.191-.2a1.464,1.464,0,0,0,1.074-.376,1.379,1.379,0,0,0,.371-1.05H99a3.653,3.653,0,0,1-1.245,2.852A4.631,4.631,0,0,1,94.549,48.2a4.689,4.689,0,0,1-3.633-1.445,5.7,5.7,0,0,1-1.328-4v-.137a6.436,6.436,0,0,1,.591-2.827,4.3,4.3,0,0,1,1.7-1.885,5.081,5.081,0,0,1,2.637-.659,4.573,4.573,0,0,1,3.271,1.143A4.053,4.053,0,0,1,99,41.477H95.916a1.806,1.806,0,0,0-.4-1.26,1.382,1.382,0,0,0-1.074-.439q-1.279,0-1.494,1.631a11.508,11.508,0,0,0-.068,1.426,4.52,4.52,0,0,0,.381,2.207A1.319,1.319,0,0,0,94.471,45.656ZM103.865,48h-3.3V37.434h3.3Zm-3.5-13.291a1.469,1.469,0,0,1,.508-1.152,2.159,2.159,0,0,1,2.637,0,1.561,1.561,0,0,1,0,2.3,2.159,2.159,0,0,1-2.637,0A1.469,1.469,0,0,1,100.369,34.709Zm5.107,7.91a6.236,6.236,0,0,1,.615-2.817,4.4,4.4,0,0,1,1.768-1.9,5.323,5.323,0,0,1,2.705-.664,4.858,4.858,0,0,1,3.74,1.47,5.64,5.64,0,0,1,1.367,4v.117a5.472,5.472,0,0,1-1.372,3.921,4.871,4.871,0,0,1-3.716,1.45,4.927,4.927,0,0,1-3.623-1.353,5.29,5.29,0,0,1-1.475-3.667Zm3.291.205a3.932,3.932,0,0,0,.459,2.148,1.529,1.529,0,0,0,1.357.684q1.758,0,1.8-2.705v-.332q0-2.842-1.816-2.842-1.65,0-1.787,2.451ZM111.014,33h3.477l-2.715,3.066-2.686,0Zm9.131,4.434.107,1.24a3.583,3.583,0,0,1,3.018-1.436,3.015,3.015,0,0,1,2.466.986,4.7,4.7,0,0,1,.845,2.969V48h-3.3V41.33a1.783,1.783,0,0,0-.322-1.177,1.491,1.491,0,0,0-1.172-.376,1.569,1.569,0,0,0-1.436.762V48h-3.291V37.434Zm17.461,5.957,1.758-5.957h3.525l-4.307,12.334-.186.449a3.272,3.272,0,0,1-3.242,2.051,5.158,5.158,0,0,1-1.357-.195V49.729h.43a2.251,2.251,0,0,0,1.06-.2,1.216,1.216,0,0,0,.542-.718l.264-.7L132.42,37.434h3.516ZM154.676,48a3.716,3.716,0,0,1-.312-.947,3.06,3.06,0,0,1-2.539,1.143,3.749,3.749,0,0,1-2.539-.9,2.875,2.875,0,0,1-1.045-2.271,2.955,2.955,0,0,1,1.27-2.6,6.468,6.468,0,0,1,3.691-.879h1.016v-.559q0-1.462-1.26-1.462a1.03,1.03,0,0,0-1.172,1.158h-3.291a2.95,2.95,0,0,1,1.3-2.487,5.479,5.479,0,0,1,3.325-.956,4.8,4.8,0,0,1,3.193.986,3.429,3.429,0,0,1,1.2,2.705v4.678a4.79,4.79,0,0,0,.449,2.227V48Zm-2.061-2.148a1.836,1.836,0,0,0,1.021-.264,1.652,1.652,0,0,0,.581-.6V43.3h-.957q-1.719,0-1.719,1.543a.942.942,0,0,0,.3.728A1.1,1.1,0,0,0,152.615,45.852ZM162.811,48h-3.3V33h3.3Zm7.139.2a5.432,5.432,0,0,1-3.936-1.45,5.008,5.008,0,0,1-1.5-3.774V42.7a6.489,6.489,0,0,1,.6-2.861,4.395,4.395,0,0,1,1.753-1.919,5.292,5.292,0,0,1,2.734-.679,4.574,4.574,0,0,1,3.516,1.382,5.43,5.43,0,0,1,1.289,3.853v1.279h-6.543a2.372,2.372,0,0,0,.771,1.4,2.3,2.3,0,0,0,1.543.508,2.958,2.958,0,0,0,2.441-1.094l1.5,1.777a4.2,4.2,0,0,1-1.743,1.353A5.891,5.891,0,0,1,169.949,48.2Zm-.371-8.418q-1.445,0-1.719,1.914h3.32v-.254a1.63,1.63,0,0,0-.4-1.226A1.593,1.593,0,0,0,169.578,39.777Zm12.539.635-1.084-.078a1.947,1.947,0,0,0-1.992.977V48H175.75V37.434h3.086l.107,1.357a2.548,2.548,0,0,1,2.314-1.553,3.209,3.209,0,0,1,.918.117Zm5.508-5.605v2.627h1.738v2.285h-1.738v4.834a1.234,1.234,0,0,0,.215.83,1.152,1.152,0,0,0,.85.234,4.828,4.828,0,0,0,.82-.059v2.354a6.074,6.074,0,0,1-1.855.283,3.448,3.448,0,0,1-2.51-.8,3.282,3.282,0,0,1-.811-2.432V39.719h-1.348V37.434h1.348V34.807ZM196.609,48a3.716,3.716,0,0,1-.312-.947,3.06,3.06,0,0,1-2.539,1.143,3.749,3.749,0,0,1-2.539-.9,2.875,2.875,0,0,1-1.045-2.271,2.955,2.955,0,0,1,1.27-2.6,6.468,6.468,0,0,1,3.691-.879h1.016v-.559q0-1.462-1.26-1.462a1.03,1.03,0,0,0-1.172,1.158h-3.291a2.95,2.95,0,0,1,1.3-2.487,5.479,5.479,0,0,1,3.325-.956,4.8,4.8,0,0,1,3.193.986,3.429,3.429,0,0,1,1.2,2.705v4.678a4.79,4.79,0,0,0,.449,2.227V48Zm-2.061-2.148a1.836,1.836,0,0,0,1.021-.264,1.652,1.652,0,0,0,.581-.6V43.3h-.957q-1.719,0-1.719,1.543a.942.942,0,0,0,.3.728A1.1,1.1,0,0,0,194.549,45.852Zm12.256-.82a.76.76,0,0,0-.439-.674,6.685,6.685,0,0,0-1.67-.527,7.615,7.615,0,0,1-2.031-.718,3.4,3.4,0,0,1-1.221-1.079,2.577,2.577,0,0,1-.42-1.455,2.92,2.92,0,0,1,1.2-2.4,4.948,4.948,0,0,1,3.145-.942,5.482,5.482,0,0,1,3.359.947,2.962,2.962,0,0,1,1.27,2.49h-3.3q0-1.27-1.338-1.27a1.326,1.326,0,0,0-.869.288.892.892,0,0,0-.352.718.819.819,0,0,0,.43.713,4.06,4.06,0,0,0,1.372.449,11.857,11.857,0,0,1,1.655.42,3.007,3.007,0,0,1,2.383,2.939,2.767,2.767,0,0,1-1.284,2.354,5.632,5.632,0,0,1-3.325.908,5.747,5.747,0,0,1-2.422-.488,4.05,4.05,0,0,1-1.66-1.328,3.007,3.007,0,0,1-.6-1.768h3.076a1.272,1.272,0,0,0,.488,1.069,2.009,2.009,0,0,0,1.2.337,1.58,1.58,0,0,0,1.011-.273A.875.875,0,0,0,206.8,45.031Z" transform="translate(684 1621)" fill="#12263f"/>
      <g id="Grupo_91121" data-name="Grupo 91121" transform="translate(741.182 1490.363)">
        <g id="Grupo_18423-5" data-name="Grupo 18423" transform="translate(0 0)">
          <g id="Grupo_18421-5" data-name="Grupo 18421">
            <g id="Grupo_18420-5" data-name="Grupo 18420">
              <g id="Grupo_18419-5" data-name="Grupo 18419">
                <path id="Trazado_40936-5" data-name="Trazado 40936" d="M309.259,2203.037a57.318,57.318,0,1,1-57.317-57.316A57.317,57.317,0,0,1,309.259,2203.037Z" transform="translate(-194.623 -2145.721)" fill="#fff"/>
              </g>
            </g>
          </g>
          <path id="Trazado_40937-5" data-name="Trazado 40937" d="M308.648,2202.372a57.316,57.316,0,1,0-57.317,57.319A57.091,57.091,0,0,0,308.648,2202.372Z" transform="translate(-194.013 -2145.056)" fill="url(#radial-gradient)"/>
          <path id="Trazado_40938-5" data-name="Trazado 40938" d="M289.672,2196.986a43.75,43.75,0,1,0-43.75,43.75A43.587,43.587,0,0,0,289.672,2196.986Z" transform="translate(-188.43 -2139.479)" fill="none" stroke="#00223d" stroke-miterlimit="10" stroke-width="4"/>
          <g id="Grupo_18422-5" data-name="Grupo 18422" transform="translate(10.154 32.18)">
            <path id="Trazado_40939-5" data-name="Trazado 40939" d="M299.231,2164.488a57.325,57.325,0,0,1-98.686,57.081,57.143,57.143,0,0,0,98.686-57.081Z" transform="translate(-200.545 -2164.488)" fill="#eceef0"/>
          </g>
        </g>
        <g id="Grupo_91126" data-name="Grupo 91126" transform="translate(-1415.238 -321.504)">
          <path id="Trazado_142501" data-name="Trazado 142501" d="M1500.339,387.74c.883,0,1.615-.042,2.339.011.918.066,1.395.69.987,1.367-1.623,2.693-3.423,5.244-6.682,6.142a11.714,11.714,0,0,1-3.045.46q-19.894.045-39.789.019a9.493,9.493,0,0,1-7.848-3.868c-.611-.786-1.174-1.613-1.717-2.449-.576-.888-.233-1.567.826-1.676.381-.039.768-.01,1.153-.011h1.186v-1.4q0-12.631,0-25.262c0-2.225.924-3.165,3.113-3.166h46.363c2.188,0,3.112.941,3.113,3.167q0,12.573,0,25.146Zm-1.928-.064c.019-.292.042-.478.042-.664,0-8.65-.007-17.3.021-25.949,0-1.14-.561-1.31-1.517-1.309q-22.889.026-45.779.013c-1.454,0-1.551.1-1.551,1.592q0,12.571,0,25.142c0,.373.032.747.051,1.174Zm-51.274,2.03a8.068,8.068,0,0,0,7.3,4.175q19.6.024,39.19,0a8.749,8.749,0,0,0,2.164-.239,7.638,7.638,0,0,0,5.055-3.836,3.133,3.133,0,0,0-.454-.088c-5.955,0-11.911-.024-17.866.029a1.966,1.966,0,0,0-1.289.844,2.752,2.752,0,0,1-2.281,1.508c-3.381,0-6.762.035-10.142-.04a2.173,2.173,0,0,1-1.665-.787c-.795-1.682-2.155-1.675-3.647-1.571-.727.051-1.46.009-2.19.009Zm32.111.369.024-.252h-10.751l0,.252Z" transform="translate(0)" fill="#12263f"/>
          <path id="Trazado_142502" data-name="Trazado 142502" d="M1531.733,399.365c-2.727,0-5.455-.043-8.181.016a3.819,3.819,0,0,1-3.738-2.183c-.751-1.418-.315-2.669.462-3.986,2.725-4.619,5.373-9.284,8.019-13.949a3.841,3.841,0,0,1,7.069-.02c2.723,4.753,5.5,9.477,8.221,14.229,1.13,1.97.911,3.7-.806,5.01a4.857,4.857,0,0,1-2.63.848c-2.8.106-5.611.039-8.417.039Zm.01-1.907v-.012c2.8,0,5.6-.012,8.4,0,1.885.011,2.717-1.342,1.8-2.991-.652-1.168-1.342-2.315-2.01-3.474-2.087-3.616-4.161-7.24-6.261-10.848-1.067-1.833-2.591-1.81-3.678.038-.971,1.652-1.921,3.316-2.879,4.975-1.8,3.119-3.62,6.229-5.393,9.364a1.832,1.832,0,0,0,1.627,2.935C1526.141,397.479,1528.942,397.458,1531.743,397.458Z" transform="translate(-57.79 -14.628)" fill="#12263f"/>
          <path id="Trazado_142503" data-name="Trazado 142503" d="M1565.561,409.225c1.266.927,1.735,1.949,1.35,3.222a3,3,0,0,1-2.439,1.817,2.783,2.783,0,0,1-2.509-1.708c-.472-1.3-.033-2.293,1.285-3.276a5.982,5.982,0,0,1-.946-1.823c-.229-2.054-.286-4.127-.422-6.192-.059-.9.4-1.259,1.234-1.262.882,0,1.764-.006,2.646,0,.854.007,1.255.422,1.2,1.3-.145,2.179-.216,4.366-.442,6.537C1566.464,408.325,1565.9,408.757,1565.561,409.225Zm-1.842-7.185c.52,1.712-.18,3.417.525,4.919l.522-.025c.077-1.623.154-3.246.235-4.965Zm1.692,9.529c-.476-.347-.779-.731-1.008-.691a1.046,1.046,0,0,0-.621.742c-.031.176.39.61.6.607C1564.661,412.222,1564.932,411.9,1565.411,411.569Z" transform="translate(-90.374 -32.386)" fill="#12263f"/>
        </g>
      </g>
    </g>
    <g id="vw0tez.tif" transform="translate(661.674 1531.406)">
      <g id="Grupo_88565" data-name="Grupo 88565" transform="translate(0)">
        <path id="Trazado_140945" data-name="Trazado 140945" d="M0,26.679a2.509,2.509,0,0,0,.427.074q8.468.006,16.936,0h.512V0L38.652,48.48,17.908,96.886V70.323a1.808,1.808,0,0,0-.416-.114q-8.618-.007-17.236,0A.969.969,0,0,0,0,70.282Z" fill="url(#linear-gradient-2)"/>
      </g>
    </g>
    <g id="vw0tez.tif-2" data-name="vw0tez.tif" transform="translate(897.674 1531.406)">
      <g id="Grupo_88565-2" data-name="Grupo 88565" transform="translate(0)">
        <path id="Trazado_140945-2" data-name="Trazado 140945" d="M0,26.679a2.509,2.509,0,0,0,.427.074q8.468.006,16.936,0h.512V0L38.652,48.48,17.908,96.886V70.323a1.808,1.808,0,0,0-.416-.114q-8.618-.007-17.236,0A.969.969,0,0,0,0,70.282Z" fill="url(#linear-gradient-2)"/>
      </g>
    </g>
    <g id="vw0tez.tif-3" data-name="vw0tez.tif" transform="translate(1133.674 1531.406)">
      <g id="Grupo_88565-3" data-name="Grupo 88565" transform="translate(0)">
        <path id="Trazado_140945-3" data-name="Trazado 140945" d="M0,26.679a2.509,2.509,0,0,0,.427.074q8.468.006,16.936,0h.512V0L38.652,48.48,17.908,96.886V70.323a1.808,1.808,0,0,0-.416-.114q-8.618-.007-17.236,0A.969.969,0,0,0,0,70.282Z" fill="url(#linear-gradient-2)"/>
      </g>
    </g>
    <g id="vw0tez.tif-4" data-name="vw0tez.tif" transform="translate(425.674 1531.406)">
      <g id="Grupo_88565-4" data-name="Grupo 88565" transform="translate(0)">
        <path id="Trazado_140945-4" data-name="Trazado 140945" d="M0,26.679a2.509,2.509,0,0,0,.427.074q8.468.006,16.936,0h.512V0L38.652,48.48,17.908,96.886V70.323a1.808,1.808,0,0,0-.416-.114q-8.618-.007-17.236,0A.969.969,0,0,0,0,70.282Z" fill="url(#linear-gradient-2)"/>
      </g>
    </g>
  </g>
</svg>
