<svg id="Grupo_87333" data-name="Grupo 87333" xmlns="http://www.w3.org/2000/svg" xmlns:xlink="http://www.w3.org/1999/xlink" width="117.692" height="117.691" viewBox="0 0 117.692 117.691">
  <defs>
    <radialGradient id="radial-gradient" cx="0.076" cy="0.019" r="1.465" gradientTransform="translate(0.001)" gradientUnits="objectBoundingBox">
      <stop offset="0" stop-color="#f6f6f7"/>
      <stop offset="0.477" stop-color="#f9f9fa"/>
      <stop offset="0.715" stop-color="#fff"/>
    </radialGradient>
  </defs>
  <g id="Grupo_18531" data-name="Grupo 18531" transform="translate(0 0)">
    <g id="Grupo_18423" data-name="Grupo 18423" transform="translate(0 0)">
      <g id="Grupo_18421" data-name="Grupo 18421">
        <g id="Grupo_18420" data-name="Grupo 18420">
          <g id="Grupo_18419" data-name="Grupo 18419">
            <path id="Trazado_40936" data-name="Trazado 40936" d="M312.314,2204.565a58.846,58.846,0,1,1-58.845-58.844A58.845,58.845,0,0,1,312.314,2204.565Z" transform="translate(-194.623 -2145.721)" fill="#fff"/>
          </g>
        </g>
      </g>
      <path id="Trazado_40937" data-name="Trazado 40937" d="M311.665,2203.857A58.844,58.844,0,1,0,252.82,2262.7,58.613,58.613,0,0,0,311.665,2203.857Z" transform="translate(-193.974 -2145.013)" fill="url(#radial-gradient)"/>
      <path id="Trazado_40938" data-name="Trazado 40938" d="M291.975,2198.12a44.917,44.917,0,1,0-44.917,44.917A44.75,44.75,0,0,0,291.975,2198.12Z" transform="translate(-188.034 -2139.08)" fill="none" stroke="#00223d" stroke-miterlimit="10" stroke-width="4"/>
      <g id="Grupo_18422" data-name="Grupo 18422" transform="translate(10.425 33.038)">
        <path id="Trazado_40939" data-name="Trazado 40939" d="M301.861,2164.488a58.853,58.853,0,0,1-101.316,58.6,58.666,58.666,0,0,0,101.316-58.6Z" transform="translate(-200.545 -2164.488)" fill="#eceef0"/>
      </g>
    </g>
  </g>
  <g id="_6s7JYX.tif" data-name="6s7JYX.tif" transform="translate(-1872.841 -88.007)">
    <g id="Grupo_90231" data-name="Grupo 90231" transform="translate(1908.244 124.392)">
      <path id="Trazado_141147" data-name="Trazado 141147" d="M1908.244,152.688c1.072-4.492,3.6-8.258,6.04-12.064a2.3,2.3,0,0,1,4-.035c.765,1.123,1.479,2.281,2.215,3.424.107.166.212.334.348.547.129-.175.239-.314.34-.46a119.531,119.531,0,0,1,8.281-10.634,2.382,2.382,0,0,1,3.765-.054c.882.991,1.726,2.016,2.588,3.025.1.123.215.242.333.375.885-1.352,1.681-2.717,2.622-3.973,1.9-2.534,3.853-5.025,5.826-7.5a2.338,2.338,0,0,1,3.72-.054q1.181,1.313,2.291,2.689a61.529,61.529,0,0,1,6.286,9.061,20.837,20.837,0,0,1,2.063,5.043,10.487,10.487,0,0,1-.3,5.785,12.511,12.511,0,0,1-8.531,8.473c-.813.261-1.675.372-2.528.555,0,.632.023,1.277,0,1.92a16.175,16.175,0,0,1-12.9,15.033c-.777.152-1.568.237-2.353.353h-2.092l-.386-.088a30.3,30.3,0,0,1-4.139-.988,15.821,15.821,0,0,1-9.984-11.06.783.783,0,0,0-.72-.689,7.8,7.8,0,0,1-6.1-4.778,18.254,18.254,0,0,1-.684-2.314Zm23.115-14.4c-1.929,2.568-3.8,5.035-5.644,7.529-.668.906-1.261,1.867-1.865,2.819a1.74,1.74,0,0,0-.126,1.586,10.745,10.745,0,0,1,.7,3.326,7.7,7.7,0,0,1-3.912,6.735.505.505,0,0,0-.283.668,11.616,11.616,0,0,0,13.548,8.374,11.257,11.257,0,0,0,8.287-6.775,8.873,8.873,0,0,0,.715-6.058,22.011,22.011,0,0,0-1.566-4.012,72.43,72.43,0,0,0-7.989-11.918C1932.649,139.838,1932.05,139.133,1931.359,138.291Zm15.154-7.978a1.769,1.769,0,0,0-.139.121,61.491,61.491,0,0,0-6.827,10.013.673.673,0,0,0,.09.842,58.469,58.469,0,0,1,5.965,9.681c.647,1.328.657,1.329,2.146,1.123,4.908-.68,8.5-6.275,5.989-11.063a63.621,63.621,0,0,0-5.846-8.994C1947.452,131.46,1946.987,130.9,1946.513,130.313Zm-30.135,15.748a2.5,2.5,0,0,0-.177.237c-.765,1.375-1.567,2.731-2.276,4.134a9.919,9.919,0,0,0-.967,2.541,3.413,3.413,0,0,0,4.258,3.746,3.335,3.335,0,0,0,2.386-4.366A35.1,35.1,0,0,0,1916.379,146.061Z" transform="translate(-1908.244 -124.392)" fill="#12263f"/>
      <path id="Trazado_141148" data-name="Trazado 141148" d="M2192.252,429.792a9.628,9.628,0,0,1-2.585,6.714,1.127,1.127,0,1,1-1.719-1.451,7.747,7.747,0,0,0,1.831-3.472,7.243,7.243,0,0,0-.088-3.247c-.224-.919.2-1.578,1.009-1.627a1.1,1.1,0,0,1,1.192.908C2192.07,428.471,2192.18,429.341,2192.252,429.792Z" transform="translate(-2159.758 -396.543)" fill="#12263f"/>
      <path id="Trazado_141149" data-name="Trazado 141149" d="M2130.818,530.449c-.968-.015-1.41-.252-1.581-.9a1.073,1.073,0,0,1,.755-1.354c.872-.175,1.756-.3,2.641-.389a1.06,1.06,0,0,1,1.148.992,1.126,1.126,0,0,1-.922,1.271C2132.184,530.222,2131.5,530.325,2130.818,530.449Z" transform="translate(-2107.152 -487.553)" fill="#12263f"/>
      <path id="Trazado_141150" data-name="Trazado 141150" d="M2286.265,222.947a4.631,4.631,0,0,1-.969-.693c-.883-1.115-1.729-2.26-2.569-3.409a1.146,1.146,0,0,1,.2-1.637,1.129,1.129,0,0,1,1.6.22c.911,1.156,1.786,2.342,2.655,3.53a1.028,1.028,0,0,1,.046,1.258A4.612,4.612,0,0,1,2286.265,222.947Z" transform="translate(-2245.136 -207.735)" fill="#12263f"/>
      <path id="Trazado_141151" data-name="Trazado 141151" d="M2324.867,275.264c.278.182.647.3.814.559a7.3,7.3,0,0,1,.768,1.6,1.079,1.079,0,0,1-.647,1.3,1.1,1.1,0,0,1-1.36-.4,8.4,8.4,0,0,1-.734-1.51A1.219,1.219,0,0,1,2324.867,275.264Z" transform="translate(-2282.199 -260.211)" fill="#12263f"/>
    </g>
  </g>
</svg>
