<svg xmlns="http://www.w3.org/2000/svg" xmlns:xlink="http://www.w3.org/1999/xlink" width="117.692" height="117.691" viewBox="0 0 117.692 117.691">
  <defs>
    <radialGradient id="radial-gradient" cx="0.076" cy="0.019" r="1.465" gradientTransform="translate(0.001)" gradientUnits="objectBoundingBox">
      <stop offset="0" stop-color="#f6f6f7"/>
      <stop offset="0.477" stop-color="#f9f9fa"/>
      <stop offset="0.715" stop-color="#fff"/>
    </radialGradient>
  </defs>
  <g id="Grupo_91135" data-name="Grupo 91135" transform="translate(-1160.654 -586.309)">
    <g id="Grupo_87334" data-name="Grupo 87334" transform="translate(1160.654 586.309)">
      <g id="Grupo_18531" data-name="Grupo 18531" transform="translate(0 0)">
        <g id="Grupo_18423" data-name="Grupo 18423" transform="translate(0 0)">
          <g id="Grupo_18421" data-name="Grupo 18421">
            <g id="Grupo_18420" data-name="Grupo 18420">
              <g id="Grupo_18419" data-name="Grupo 18419">
                <path id="Trazado_40936" data-name="Trazado 40936" d="M312.314,2204.565a58.846,58.846,0,1,1-58.845-58.844A58.845,58.845,0,0,1,312.314,2204.565Z" transform="translate(-194.623 -2145.721)" fill="#fff"/>
              </g>
            </g>
          </g>
          <path id="Trazado_40937" data-name="Trazado 40937" d="M311.665,2203.857A58.844,58.844,0,1,0,252.82,2262.7,58.613,58.613,0,0,0,311.665,2203.857Z" transform="translate(-193.974 -2145.013)" fill="url(#radial-gradient)"/>
          <path id="Trazado_40938" data-name="Trazado 40938" d="M291.975,2198.12a44.917,44.917,0,1,0-44.917,44.917A44.75,44.75,0,0,0,291.975,2198.12Z" transform="translate(-188.034 -2139.08)" fill="none" stroke="#00223d" stroke-miterlimit="10" stroke-width="4"/>
          <g id="Grupo_18422" data-name="Grupo 18422" transform="translate(10.425 33.038)">
            <path id="Trazado_40939" data-name="Trazado 40939" d="M301.861,2164.488a58.853,58.853,0,0,1-101.316,58.6,58.666,58.666,0,0,0,101.316-58.6Z" transform="translate(-200.545 -2164.488)" fill="#eceef0"/>
          </g>
        </g>
      </g>
      <g id="FfLnON" transform="translate(-2069.266 -74.795)">
        <g id="Grupo_90232" data-name="Grupo 90232" transform="translate(2101.974 107.46)">
          <path id="Trazado_141152" data-name="Trazado 141152" d="M2182.242,201.8a13.469,13.469,0,1,0,2.734,26.629c5.71-1.155,9.35-4.692,10.732-10.428a12.192,12.192,0,0,0,0-5.633A13.641,13.641,0,0,0,2182.242,201.8Zm12.96,2.952a4.263,4.263,0,0,0,1.158-.554q2.416-2.264,4.752-4.612a1.887,1.887,0,0,0-2.687-2.646q-2.328,2.232-4.622,4.5a1.792,1.792,0,0,0-.389,2.054A2.094,2.094,0,0,0,2195.2,204.755Zm-25.272-.472a2.041,2.041,0,0,0-.992-1.693q-2.328-1.772-4.635-3.572a1.9,1.9,0,1,0-2.339,2.99c.808.631,1.617,1.261,2.434,1.88.918.695,1.837,1.389,2.772,2.06A1.862,1.862,0,0,0,2169.93,204.284Zm26.476,19.925-.051.11a1.885,1.885,0,0,0-1.174,3.357q2.5,1.962,5.032,3.891a1.873,1.873,0,0,0,2.431-2.85,10.7,10.7,0,0,0-.9-.713c-1.377-1.079-2.743-2.174-4.14-3.226A6.46,6.46,0,0,0,2196.405,224.209Zm-25,3.484a1.891,1.891,0,0,0-3.2-1.305c-.955.915-1.88,1.86-2.827,2.784-.568.555-1.163,1.082-1.726,1.641a1.91,1.91,0,0,0-.023,2.716,1.883,1.883,0,0,0,2.625.039c1.538-1.477,3.056-2.973,4.581-4.464A1.889,1.889,0,0,0,2171.4,227.693Z" transform="translate(-2156.065 -188.821)" fill="#12263f"/>
          <path id="Trazado_141153" data-name="Trazado 141153" d="M2387.451,107.46a6.9,6.9,0,0,1,.931.564,1.751,1.751,0,0,1,.587,1.412c0,2.078.01,4.157,0,6.235a1.9,1.9,0,1,1-3.793.048c-.025-2.107-.019-4.214,0-6.321a1.878,1.878,0,0,1,1.332-1.841,1.373,1.373,0,0,0,.178-.1Z" transform="translate(-2360.927 -107.46)" fill="#12263f"/>
          <path id="Trazado_141154" data-name="Trazado 141154" d="M2386.759,610.969a2.072,2.072,0,0,1-1.461-1.52,2.294,2.294,0,0,1-.051-.423c0-2.1-.009-4.191,0-6.286a1.893,1.893,0,0,1,3.783-.123c.043,2.18.037,4.362,0,6.542a1.776,1.776,0,0,1-1.2,1.669c-.1.042-.2.094-.3.141Z" transform="translate(-2361.007 -558.607)" fill="#12263f"/>
          <path id="Trazado_141155" data-name="Trazado 141155" d="M2101.974,395.819a4.373,4.373,0,0,1,.708-1.08,1.992,1.992,0,0,1,1.153-.446c2.135-.043,4.271-.033,6.406-.019a1.888,1.888,0,1,1,0,3.775c-1.721.006-3.442-.015-5.163-.024-.4,0-.795,0-1.192-.006a1.784,1.784,0,0,1-1.8-1.288c-.029-.078-.069-.152-.1-.228Z" transform="translate(-2101.974 -369.724)" fill="#12263f"/>
          <path id="Trazado_141156" data-name="Trazado 141156" d="M2604.509,396.532c-.048.118-.092.238-.144.354a1.81,1.81,0,0,1-1.718,1.19q-3.225.023-6.45,0a1.886,1.886,0,0,1,.021-3.771q3.225-.021,6.449,0a1.786,1.786,0,0,1,1.654,1.089c.062.123.125.246.188.368Z" transform="translate(-2552.233 -369.752)" fill="#12263f"/>
          <path id="Trazado_141157" data-name="Trazado 141157" d="M2262.463,259.188a13.642,13.642,0,0,1,13.464,10.569,12.2,12.2,0,0,1,0,5.633c-1.383,5.736-5.022,9.272-10.732,10.428a13.458,13.458,0,1,1-2.734-26.629Z" transform="translate(-2236.287 -246.206)" fill="#12263f"/>
          <path id="Trazado_141158" data-name="Trazado 141158" d="M2538.582,204.755a2.094,2.094,0,0,1-1.787-1.257,1.791,1.791,0,0,1,.389-2.054q2.292-2.27,4.622-4.5a1.887,1.887,0,0,1,2.687,2.646q-2.336,2.346-4.752,4.612A4.271,4.271,0,0,1,2538.582,204.755Z" transform="translate(-2499.445 -188.821)" fill="#12263f"/>
          <path id="Trazado_141159" data-name="Trazado 141159" d="M2169.93,226.8a1.862,1.862,0,0,1-2.76,1.665c-.935-.672-1.854-1.366-2.772-2.06-.817-.619-1.626-1.249-2.434-1.88a1.9,1.9,0,1,1,2.339-2.99q2.312,1.793,4.635,3.572A2.041,2.041,0,0,1,2169.93,226.8Z" transform="translate(-2156.065 -211.341)" fill="#12263f"/>
          <path id="Trazado_141160" data-name="Trazado 141160" d="M2552.754,521.079a6.444,6.444,0,0,1,1.2.57c1.4,1.052,2.763,2.147,4.14,3.226a10.669,10.669,0,0,1,.9.713,1.873,1.873,0,0,1-2.431,2.849q-2.532-1.925-5.032-3.891a1.885,1.885,0,0,1,1.174-3.357Z" transform="translate(-2512.414 -485.691)" fill="#12263f"/>
          <path id="Trazado_141161" data-name="Trazado 141161" d="M2192.189,542.025a1.887,1.887,0,0,1-.567,1.412c-1.524,1.49-3.043,2.987-4.581,4.464a1.883,1.883,0,0,1-2.625-.039,1.91,1.91,0,0,1,.022-2.716c.563-.559,1.158-1.087,1.726-1.641.946-.924,1.872-1.869,2.827-2.784a1.891,1.891,0,0,1,3.2,1.305Z" transform="translate(-2176.854 -503.153)" fill="#12263f"/>
        </g>
      </g>
    </g>
  </g>
</svg>
