<svg xmlns="http://www.w3.org/2000/svg" xmlns:xlink="http://www.w3.org/1999/xlink" width="189.65" height="189.65" viewBox="0 0 189.65 189.65">
  <defs>
    <linearGradient id="linear-gradient" x1="0.5" x2="0.5" y2="1" gradientUnits="objectBoundingBox">
      <stop offset="0" stop-color="#a9bc62"/>
      <stop offset="1" stop-color="#7eb501"/>
    </linearGradient>
  </defs>
  <g id="Grupo_91135" data-name="Grupo 91135" transform="translate(-295 -1623.528)">
    <g id="Grupo_89958" data-name="Grupo 89958" transform="translate(-180.424 1409.621)">
      <circle id="Elipse_4159" data-name="Elipse 4159" cx="94.825" cy="94.825" r="94.825" transform="translate(475.424 213.907)" fill="#f1f1f2"/>
      <g id="Grupo_89955" data-name="Grupo 89955">
        <g id="Grupo_89904" data-name="Grupo 89904">
          <g id="Grupo_89887" data-name="Grupo 89887">
            <g id="Grupo_89886" data-name="Grupo 89886">
              <path id="Trazado_140947" data-name="Trazado 140947" d="M558.542,238.08a12.078,12.078,0,1,0,12.072,12.072A12.091,12.091,0,0,0,558.542,238.08Zm0,20.556a8.478,8.478,0,1,1,8.472-8.484A8.491,8.491,0,0,1,558.542,258.636Z" fill="#12263f"/>
              <path id="Trazado_140948" data-name="Trazado 140948" d="M567.014,250.152a8.478,8.478,0,1,1-8.472-8.472A8.489,8.489,0,0,1,567.014,250.152Z" fill="#fbb03b"/>
            </g>
          </g>
          <g id="Grupo_89889" data-name="Grupo 89889">
            <g id="Grupo_89888" data-name="Grupo 89888">
              <path id="Trazado_140949" data-name="Trazado 140949" d="M558.539,235.013a1.8,1.8,0,0,1-1.8-1.8v-8.569a1.8,1.8,0,1,1,3.6,0v8.569A1.8,1.8,0,0,1,558.539,235.013Z" fill="#12263f"/>
            </g>
          </g>
          <g id="Grupo_89891" data-name="Grupo 89891">
            <g id="Grupo_89890" data-name="Grupo 89890">
              <path id="Trazado_140950" data-name="Trazado 140950" d="M558.539,277.907a1.8,1.8,0,0,1-1.8-1.8v-8.569a1.8,1.8,0,0,1,3.6,0v8.569A1.8,1.8,0,0,1,558.539,277.907Z" fill="#12263f"/>
            </g>
          </g>
          <g id="Grupo_89893" data-name="Grupo 89893">
            <g id="Grupo_89892" data-name="Grupo 89892">
              <path id="Trazado_140951" data-name="Trazado 140951" d="M546.4,240.04a1.8,1.8,0,0,1-1.273-.527l-6.058-6.06a1.8,1.8,0,0,1,2.545-2.545l6.059,6.059a1.8,1.8,0,0,1-1.273,3.073Z" fill="#12263f"/>
            </g>
          </g>
          <g id="Grupo_89895" data-name="Grupo 89895">
            <g id="Grupo_89894" data-name="Grupo 89894">
              <path id="Trazado_140952" data-name="Trazado 140952" d="M576.733,270.37a1.79,1.79,0,0,1-1.272-.527l-6.059-6.06a1.8,1.8,0,1,1,2.546-2.545l6.058,6.06a1.8,1.8,0,0,1-1.273,3.072Z" fill="#12263f"/>
            </g>
          </g>
          <g id="Grupo_89897" data-name="Grupo 89897">
            <g id="Grupo_89896" data-name="Grupo 89896">
              <path id="Trazado_140953" data-name="Trazado 140953" d="M541.377,252.175h-8.569a1.8,1.8,0,0,1,0-3.6h8.569a1.8,1.8,0,0,1,0,3.6Z" fill="#12263f"/>
            </g>
          </g>
          <g id="Grupo_89899" data-name="Grupo 89899">
            <g id="Grupo_89898" data-name="Grupo 89898">
              <path id="Trazado_140954" data-name="Trazado 140954" d="M584.271,252.175H575.7a1.8,1.8,0,0,1,0-3.6h8.57a1.8,1.8,0,0,1,0,3.6Z" fill="#12263f"/>
            </g>
          </g>
          <g id="Grupo_89901" data-name="Grupo 89901">
            <g id="Grupo_89900" data-name="Grupo 89900">
              <path id="Trazado_140955" data-name="Trazado 140955" d="M540.344,270.37a1.8,1.8,0,0,1-1.272-3.072l6.058-6.06a1.8,1.8,0,0,1,2.546,2.545l-6.059,6.06A1.791,1.791,0,0,1,540.344,270.37Z" fill="#12263f"/>
            </g>
          </g>
          <g id="Grupo_89903" data-name="Grupo 89903">
            <g id="Grupo_89902" data-name="Grupo 89902">
              <path id="Trazado_140956" data-name="Trazado 140956" d="M570.675,240.04a1.8,1.8,0,0,1-1.273-3.073l6.059-6.059a1.8,1.8,0,0,1,2.545,2.545l-6.058,6.06A1.8,1.8,0,0,1,570.675,240.04Z" fill="#12263f"/>
            </g>
          </g>
        </g>
        <g id="Grupo_89906" data-name="Grupo 89906">
          <g id="Grupo_89905" data-name="Grupo 89905">
            <path id="Trazado_140957" data-name="Trazado 140957" d="M549.906,316.488h-6.082c-2.611,0-4.745-2.5-5.074-5.952-.029-.3-.046-.594-.046-.9,0-3.243,1.6-5.891,3.826-6.64.83-2.339,2.58-3.836,4.614-3.836,2.12,0,3.925,1.621,4.709,4.126,1.893,1.018,3.173,3.481,3.173,6.35C555.019,313.486,552.77,316.488,549.906,316.488Zm-6.122-10.1c-.543.057-1.48,1.281-1.48,3.25,0,.189.013.377.029.56.16,1.665.975,2.69,1.491,2.69h6.082c.534,0,1.516-1.23,1.52-3.242,0-1.84-.838-3.129-1.439-3.247a1.8,1.8,0,0,1-1.422-1.436c-.267-1.437-1-2.2-1.421-2.2s-1.146.755-1.417,2.173a1.805,1.805,0,0,1-1.861,1.459Z" fill="#12263f"/>
          </g>
        </g>
        <g id="Grupo_89908" data-name="Grupo 89908">
          <g id="Grupo_89907" data-name="Grupo 89907">
            <path id="Trazado_140958" data-name="Trazado 140958" d="M546.865,326a1.8,1.8,0,0,1-1.8-1.8V307.825a1.8,1.8,0,1,1,3.6,0V324.2A1.8,1.8,0,0,1,546.865,326Z" fill="#12263f"/>
          </g>
        </g>
        <g id="Grupo_89910" data-name="Grupo 89910">
          <g id="Grupo_89909" data-name="Grupo 89909">
            <path id="Trazado_140959" data-name="Trazado 140959" d="M522.638,237.852a10.424,10.424,0,0,0-10.332-9.12,10.05,10.05,0,0,0-1.692.132,11.162,11.162,0,0,0-20.58,6,10.8,10.8,0,0,0,.408,2.976,7.725,7.725,0,0,0,2.2,15.132H520.43a7.722,7.722,0,0,0,2.208-15.12Zm-2.208,11.52H492.638a4.122,4.122,0,1,1,0-8.244h.324a1.808,1.808,0,0,0,1.584-2.664,7.5,7.5,0,0,1-.912-3.6,7.568,7.568,0,0,1,14.437-3.18,1.8,1.8,0,0,0,2.171.96,7.053,7.053,0,0,1,2.064-.312,6.8,6.8,0,0,1,6.8,6.792c0,.024-.012.144-.012.168a1.8,1.8,0,0,0,1.656,1.848,4.123,4.123,0,0,1-.324,8.232Z" fill="#12263f"/>
            <path id="Trazado_140960" data-name="Trazado 140960" d="M524.546,245.256a4.123,4.123,0,0,1-4.116,4.116H492.638a4.122,4.122,0,1,1,0-8.244h.324a1.808,1.808,0,0,0,1.584-2.664,7.5,7.5,0,0,1-.912-3.6,7.568,7.568,0,0,1,14.437-3.18,1.8,1.8,0,0,0,2.171.96,7.053,7.053,0,0,1,2.064-.312,6.8,6.8,0,0,1,6.8,6.792c0,.024-.012.144-.012.168a1.8,1.8,0,0,0,1.656,1.848A4.139,4.139,0,0,1,524.546,245.256Z" fill="#b0c0d2"/>
          </g>
        </g>
        <g id="Grupo_89912" data-name="Grupo 89912">
          <g id="Grupo_89911" data-name="Grupo 89911">
            <path id="Trazado_140961" data-name="Trazado 140961" d="M655.646,287.928a1.819,1.819,0,0,0-1.272-.528h-.012l-1.56.012-3.96.012a5.245,5.245,0,0,0-3.42.912l-3.576,2.472a6.044,6.044,0,0,0-1.944,2.256l-2.664,5.28a1.967,1.967,0,0,1-1.68,1.212h-.024l-3.1-.048h-.1a5.142,5.142,0,0,0-3.2,1.128l-2.64,2.052a1.547,1.547,0,0,1-1.752.168l-3.7-2a5.14,5.14,0,0,0-5.555.42l-2.8,2.064a6.094,6.094,0,0,0-1.956,2.484l-1.32,3.036a2.529,2.529,0,0,1-.984,1.152l-2.076,1.164a6.7,6.7,0,0,0-2.652,8.076l1.585,4.284a3.326,3.326,0,0,1,.2,1.32l-.168,4.464a2.856,2.856,0,0,1-1.259,2.364l-5.041,2.844a6.561,6.561,0,0,0-2.952,7.068l1.032,5.016c.012.1.036.192.048.288l.637,5.472a3.086,3.086,0,0,1-1.033,2.784l-4.74,3.54a6.307,6.307,0,0,0-2.364,3.84l-.972,4.728a7,7,0,0,0,.192,3.552l.924,2.892a6.347,6.347,0,0,0,.912,1.692c2.22,2.976,6.468,3.552,6.684,3.588a.638.638,0,0,0,.156.012H610.5l43.1-.024a1.81,1.81,0,0,0,1.8-1.788V376.6l.768-87.384A1.848,1.848,0,0,0,655.646,287.928Zm-57.9,87.468c-.648-.12-3.792-.8-4.536-2.844l-.9-2.832a3.439,3.439,0,0,1-.1-1.74l.972-4.728a2.79,2.79,0,0,1,.985-1.68l4.739-3.528a6.682,6.682,0,0,0,2.461-6.1l-.649-5.472c-.024-.192-.048-.4-.084-.588l-1.032-5.028a3.015,3.015,0,0,1,1.189-3.192l5.039-2.844a6.419,6.419,0,0,0,3.1-5.364L609.1,325a7.14,7.14,0,0,0-.42-2.712l-1.6-4.284a3.115,3.115,0,0,1,1.044-3.684l2.076-1.176a6.023,6.023,0,0,0,2.52-2.844l1.32-3.036a2.67,2.67,0,0,1,.792-1.032l2.8-2.064a1.7,1.7,0,0,1,.972-.336,1.673,1.673,0,0,1,.744.192l3.7,2a5.121,5.121,0,0,0,5.664-.492l2.64-2.052a1.5,1.5,0,0,1,1.032-.372l3.1.048h.084a5.537,5.537,0,0,0,4.9-3.192l2.665-5.28a2.433,2.433,0,0,1,.767-.924l3.588-2.46a1.56,1.56,0,0,1,1.08-.288.677.677,0,0,0,.217.012l3.779-.012-.731,84.36-41.4.024Z" fill="#12263f"/>
          </g>
        </g>
        <g id="Grupo_89914" data-name="Grupo 89914">
          <g id="Grupo_89913" data-name="Grupo 89913">
            <path id="Trazado_140962" data-name="Trazado 140962" d="M517.106,282.4H502.55a1.805,1.805,0,0,0-1.8,1.8V298.08a1.805,1.805,0,0,0,1.8,1.8h14.556a1.8,1.8,0,0,0,1.8-1.8V284.2A1.8,1.8,0,0,0,517.106,282.4Zm-1.8,13.884H504.35V286h10.956Z" fill="#12263f"/>
          </g>
        </g>
        <g id="Grupo_89916" data-name="Grupo 89916">
          <g id="Grupo_89915" data-name="Grupo 89915">
            <path id="Trazado_140963" data-name="Trazado 140963" d="M637.838,342.828l-6.156-4.584a1.877,1.877,0,0,0-.756-.336l-7.476-1.332-5.772-1.02a1.8,1.8,0,0,0-1.464.384,1.822,1.822,0,0,0-.648,1.38v21.552a1.8,1.8,0,0,0,1.8,1.8H636.6a1.805,1.805,0,0,0,1.8-1.8V344.136A1.824,1.824,0,0,0,637.838,342.828ZM634.8,357.072H619.166v-17.6l9.24,1.656,1.476.264,2.508,1.86,2.412,1.788Z" fill="#12263f"/>
          </g>
        </g>
        <g id="Grupo_89918" data-name="Grupo 89918">
          <g id="Grupo_89917" data-name="Grupo 89917">
            <path id="Trazado_140964" data-name="Trazado 140964" d="M646.958,349.944l-2.532-6.6-2.544-6.6a1.78,1.78,0,0,0-1.44-1.128l-15.552-2.148a1.793,1.793,0,0,0-1.908,1.1,1.768,1.768,0,0,0,.468,2,.547.547,0,0,0,.121.12l5.963,4.428.348.264,2.508,1.86,2.412,1.788,3.6,2.676,5.808,4.32a1.778,1.778,0,0,0,2.161-.012A1.8,1.8,0,0,0,646.958,349.944Zm-9.12-7.116-6.156-4.584-.336-.252,7.56,1.044,2.46,6.408Z" fill="#12263f"/>
          </g>
        </g>
        <g id="Grupo_89920" data-name="Grupo 89920">
          <g id="Grupo_89919" data-name="Grupo 89919">
            <path id="Trazado_140965" data-name="Trazado 140965" d="M630.592,350.312h-6.975a1.8,1.8,0,0,1-1.8-1.8v-5.593a1.8,1.8,0,0,1,1.8-1.8h6.975a1.8,1.8,0,0,1,1.8,1.8v5.593A1.8,1.8,0,0,1,630.592,350.312Zm-5.175-3.6h3.375v-1.993h-3.375Z" fill="#12263f"/>
          </g>
        </g>
        <g id="Grupo_89922" data-name="Grupo 89922">
          <g id="Grupo_89921" data-name="Grupo 89921">
            <path id="Trazado_140966" data-name="Trazado 140966" d="M628.946,362h-24.66a1.8,1.8,0,0,0-1.8,1.8V369a1.8,1.8,0,0,0,1.8,1.8h24.66a1.8,1.8,0,0,0,1.8-1.8v-5.2A1.8,1.8,0,0,0,628.946,362Zm-1.8,5.2h-21.06v-1.6h21.06Z" fill="#12263f"/>
          </g>
        </g>
        <g id="Grupo_89924" data-name="Grupo 89924">
          <g id="Grupo_89923" data-name="Grupo 89923">
            <path id="Trazado_140967" data-name="Trazado 140967" d="M643.742,362H633.219a1.8,1.8,0,0,0-1.8,1.8V369a1.8,1.8,0,0,0,1.8,1.8h10.523a1.8,1.8,0,0,0,1.8-1.8v-5.2A1.8,1.8,0,0,0,643.742,362Zm-1.8,5.2h-6.923v-1.6h6.923Z" fill="#12263f"/>
          </g>
        </g>
        <g id="Grupo_89926" data-name="Grupo 89926">
          <g id="Grupo_89925" data-name="Grupo 89925">
            <path id="Trazado_140968" data-name="Trazado 140968" d="M530.006,277.056l-38.028-8.064-2.088-.444a1.8,1.8,0,0,0-2.171,1.752v32.424a1.794,1.794,0,0,0,1.787,1.8l1.836.012a1.03,1.03,0,0,0,.192-.012,2.008,2.008,0,0,1,1.224.276l3.576,2.076a1.973,1.973,0,0,1,.72.72l2.665,4.464a5.622,5.622,0,0,0,4.835,2.748h.084l3.1-.036a2.069,2.069,0,0,1,1.152.324l2.628,1.74c.588.384,1.32.864,18.036,1.608h.084a1.8,1.8,0,0,0,1.8-1.8V278.82A1.81,1.81,0,0,0,530.006,277.056Zm-2.172,37.7h-.12l-1.248-.072c-1.476-.072-2.808-.144-4.008-.2l-.648-.036c-.648-.036-1.26-.084-1.824-.108q-.81-.054-1.512-.108c-1.008-.072-1.86-.144-2.568-.2-.108-.012-.216-.012-.311-.024q-.829-.072-1.369-.144c-.107-.012-.216-.036-.312-.048a5.419,5.419,0,0,1-.588-.1l-2.46-1.62a5.735,5.735,0,0,0-3.18-.924l-3.108.036h-.024a2.044,2.044,0,0,1-1.752-.984l-2.652-4.464a5.492,5.492,0,0,0-2-1.992l-3.575-2.088a7.158,7.158,0,0,0-.673-.336,5.7,5.7,0,0,0-2.579-.408v-28.4l24.431,5.184,12.084,2.556Z" fill="#12263f"/>
            <path id="Trazado_140969" data-name="Trazado 140969" d="M515.75,277.716l-24.431-5.184v28.4a5.539,5.539,0,0,1,2.579.408,7.158,7.158,0,0,1,.673.336l3.575,2.088a5.492,5.492,0,0,1,2,1.992l2.652,4.464a2.044,2.044,0,0,0,1.752.984h.024l3.108-.036a5.735,5.735,0,0,1,3.18.924l2.46,1.62a5.419,5.419,0,0,0,.588.1,2.14,2.14,0,0,0,.312.048q.54.072,1.369.144c.1.012.2.012.311.024.708.06,1.56.132,2.568.2q.7.054,1.512.108c.564.024,1.176.072,1.824.108l.648.036c1.2.06,2.532.132,4.008.2l1.248.072h.12V280.272Zm3.156,20.364a1.8,1.8,0,0,1-1.8,1.8H502.55a1.805,1.805,0,0,1-1.8-1.8V284.2a1.805,1.805,0,0,1,1.8-1.8h14.556a1.8,1.8,0,0,1,1.8,1.8Z" fill="#636363"/>
          </g>
        </g>
        <g id="Grupo_89928" data-name="Grupo 89928">
          <g id="Grupo_89927" data-name="Grupo 89927">
            <path id="Trazado_140970" data-name="Trazado 140970" d="M551.414,368.688l-.972-4.008a5.606,5.606,0,0,0-2.46-3.432l-4.752-2.988a2.022,2.022,0,0,1-.924-1.992l.648-4.644.036-.18,1.032-4.26a5.636,5.636,0,0,0-3.048-6.384l-4.464-2.136c-.264-1.176-.552-4.464-.732-12.66q-.036-1.656-.072-3.6c-.011-1.08-.035-2.22-.048-3.444-.012-1.188-.024-1.992-.036-2.232a1.8,1.8,0,0,0-1.727-1.716s-.961-.036-2.461-.1c-.5-.012-1.092-.036-1.715-.072-.648-.024-1.285-.06-1.885-.084h-.12l-1.248-.072c-1.476-.072-2.808-.144-4.008-.2l-.648-.036c-.648-.036-1.26-.084-1.824-.108q-.81-.054-1.512-.108c-1.008-.072-1.86-.144-2.568-.2a2.5,2.5,0,0,1-.311-.024q-.829-.072-1.369-.144a2.14,2.14,0,0,1-.312-.048,5.419,5.419,0,0,1-.588-.1l-2.46-1.62a5.735,5.735,0,0,0-3.18-.924l-3.108.036h-.024a2.044,2.044,0,0,1-1.752-.984l-2.652-4.464a5.492,5.492,0,0,0-2-1.992l-3.575-2.088a7.158,7.158,0,0,0-.673-.336,5.539,5.539,0,0,0-2.579-.408h-.037l-3.563-.012-1.969-.012a1.775,1.775,0,0,0-1.284.54,1.826,1.826,0,0,0-.528,1.284l.768,74.46v.024a1.8,1.8,0,0,0,1.8,1.776h1.8l53.065-.024a1.644,1.644,0,0,0,.348-.036c1.943-.384,6.2-1.44,7.967-3.54a3.157,3.157,0,0,0,.612-1.008l.9-2.4A5.544,5.544,0,0,0,551.414,368.688Zm-63.852-64.164,3.78.012a1.03,1.03,0,0,0,.192-.012,2.008,2.008,0,0,1,1.224.276l3.576,2.076a1.973,1.973,0,0,1,.72.72l2.665,4.464a5.622,5.622,0,0,0,4.835,2.748h.084l3.1-.036a2.069,2.069,0,0,1,1.152.324l2.628,1.74c.588.384,1.32.864,18.036,1.608h.084c.937.036,1.764.072,2.424.108V319c.024,1.872.048,3.588.084,5.148v.144c.3,16.428,1.02,16.776,2.244,17.352l5.04,2.4a2.029,2.029,0,0,1,1.093,2.3l-1.033,4.26c-.036.18-.072.372-.1.54l-.648,4.632a5.659,5.659,0,0,0,2.568,5.532l4.74,2.988a1.944,1.944,0,0,1,.888,1.236l.972,4a2.01,2.01,0,0,1-.072,1.188l-.888,2.364c-.4.648-3.168,1.752-5.76,2.292L488.3,375.4Z" fill="#12263f"/>
          </g>
        </g>
        <g id="Grupo_89930" data-name="Grupo 89930">
          <g id="Grupo_89929" data-name="Grupo 89929">
            <path id="Trazado_140971" data-name="Trazado 140971" d="M632.126,223.56h-27.84a1.8,1.8,0,0,0-1.8,1.8v8.424l-4.98,1.6a1.834,1.834,0,0,0-1.1,1.008,1.772,1.772,0,0,0,.048,1.5l3.421,6.96-4.945-1.74a1.754,1.754,0,0,0-1.644.228,1.8,1.8,0,0,0-.756,1.464v47.964a1.806,1.806,0,0,0,1.152,1.68,2,2,0,0,0,.648.12,1.8,1.8,0,0,0,1.332-.588,3.917,3.917,0,0,1,.4-.384c.108-.084.217-.168.324-.24a.432.432,0,0,1,.12-.084l4.08-2.436a3.583,3.583,0,0,1,.48-.24,4,4,0,0,1,1.032-.276,3.915,3.915,0,0,1,.529-.036,3.985,3.985,0,0,1,1.607.336l5.388,2.364a7.589,7.589,0,0,0,7.092-.528l3.84-2.424a4.255,4.255,0,0,1,2.173-.6l4.511.06h.108a8.418,8.418,0,0,0,.96-.06c.264-.036.516-.084.768-.144A7.247,7.247,0,0,0,631,288.54a5.6,5.6,0,0,0,.721-.444c.011,0,.023-.012.035-.024a5.016,5.016,0,0,0,.624-.516.521.521,0,0,0,.084-.072,5.874,5.874,0,0,0,.6-.624c.1-.12.192-.24.288-.372a4.337,4.337,0,0,0,.264-.384.251.251,0,0,0,.048-.072v-.012l.048-.072a1.763,1.763,0,0,0,.216-.852V225.36A1.8,1.8,0,0,0,632.126,223.56Zm-2.136,61.308a3.265,3.265,0,0,1-.456.348,1.893,1.893,0,0,1-.288.18c-.1.06-.216.108-.324.168a1.865,1.865,0,0,1-.276.1.677.677,0,0,1-.144.048,2.371,2.371,0,0,1-.312.084,4.031,4.031,0,0,1-.852.1h-.06l-4.512-.06a7.7,7.7,0,0,0-4.14,1.152l-3.84,2.424a4.032,4.032,0,0,1-3.732.276l-5.388-2.364a7.617,7.617,0,0,0-6.936.432l-2.6,1.56V247.344l6.708,2.364a1.792,1.792,0,0,0,1.944-.492,1.811,1.811,0,0,0,.264-1.992l-4.44-9.048,4.236-1.368a1.8,1.8,0,0,0,1.248-1.716V227.16h24.24v57.36A4.409,4.409,0,0,1,629.99,284.868Z" fill="#12263f"/>
            <path id="Trazado_140972" data-name="Trazado 140972" d="M606.086,227.16v7.932a1.8,1.8,0,0,1-1.248,1.716l-4.236,1.368,4.44,9.048a1.811,1.811,0,0,1-.264,1.992,1.792,1.792,0,0,1-1.944.492l-6.708-2.364v41.964l2.6-1.56a7.617,7.617,0,0,1,6.936-.432l5.388,2.364a4.032,4.032,0,0,0,3.732-.276l3.84-2.424a7.7,7.7,0,0,1,4.14-1.152l4.512.06h.06a4.031,4.031,0,0,0,.852-.1,2.371,2.371,0,0,0,.312-.084.677.677,0,0,0,.144-.048,1.865,1.865,0,0,0,.276-.1c.108-.06.228-.108.324-.168a1.168,1.168,0,0,0,.288-.18,3.265,3.265,0,0,0,.456-.348,4.409,4.409,0,0,0,.336-.348V227.16Zm18.685,53.748a1.806,1.806,0,0,1-1.8,1.8H611.426a1.805,1.805,0,0,1-1.8-1.8v-9.6a1.8,1.8,0,0,1,1.8-1.8h11.545a1.8,1.8,0,0,1,1.8,1.8Zm0-19.332a1.8,1.8,0,0,1-1.8,1.8H611.426a1.8,1.8,0,0,1-1.8-1.8v-9.588a1.8,1.8,0,0,1,1.8-1.8h11.545a1.8,1.8,0,0,1,1.8,1.8Zm0-19.32a1.806,1.806,0,0,1-1.8,1.8H611.426a1.805,1.805,0,0,1-1.8-1.8v-9.6a1.8,1.8,0,0,1,1.8-1.8h11.545a1.8,1.8,0,0,1,1.8,1.8Z" fill="#636363"/>
          </g>
        </g>
        <g id="Grupo_89932" data-name="Grupo 89932">
          <g id="Grupo_89931" data-name="Grupo 89931">
            <path id="Trazado_140973" data-name="Trazado 140973" d="M596.5,293.268a.432.432,0,0,0-.12.084c.036-.024.084-.048.12-.072l4.08-2.448Zm0,0a.432.432,0,0,0-.12.084c.036-.024.084-.048.12-.072l4.08-2.448Zm59.532-21.2a1.9,1.9,0,0,0-1.284-.528l-8.1.024a7.465,7.465,0,0,0-4.308.936l-5.219,2.9a7.246,7.246,0,0,0-2.641,2.508l-.552.888-3.288,5.292c-.012.012-.024.036-.036.048a4.245,4.245,0,0,1-.276.384,4.409,4.409,0,0,1-.336.348,3.265,3.265,0,0,1-.456.348,1.168,1.168,0,0,1-.288.18c-.1.06-.216.108-.324.168a1.865,1.865,0,0,1-.276.1.677.677,0,0,1-.144.048,2.371,2.371,0,0,1-.312.084,4.031,4.031,0,0,1-.852.1h-.06l-4.512-.06a7.7,7.7,0,0,0-4.14,1.152l-3.84,2.424a4.032,4.032,0,0,1-3.732.276l-5.388-2.364a7.617,7.617,0,0,0-6.936.432l-2.6,1.56-1.476.876a7.162,7.162,0,0,0-1.655,1.368,6.414,6.414,0,0,0-.469.576,5.549,5.549,0,0,0-.528.816l-1.944,3.588a3.677,3.677,0,0,1-1.7,1.572l-3.024,1.392a7.185,7.185,0,0,0-3.792,4.032,6.867,6.867,0,0,0,.2,5.292l2.316,5.064a3.26,3.26,0,0,1,.3,1.536l-.252,5.28a3.3,3.3,0,0,1-.624,1.752,3.51,3.51,0,0,1-1.5,1.248l-5.04,2.3-2.3,1.056a7.082,7.082,0,0,0-4.02,8.136l1.5,5.928a3.35,3.35,0,0,1,.072.336l.936,6.456a3.474,3.474,0,0,1-1.692,3.444l-6.911,4.164a7.126,7.126,0,0,0-3.265,4.356l-1.4,5.58a6.829,6.829,0,0,0,.276,4.236l1.32,3.336a5.56,5.56,0,0,0,2.1,2.364c2.988,2.088,8.04,3.216,9.888,3.564a1.6,1.6,0,0,0,.337.036H610.5l43.14-.012a1.8,1.8,0,0,0,1.8-1.776v-.5l1.116-103.344A1.855,1.855,0,0,0,656.03,272.064ZM573.95,375.4c-4.4-.876-8.736-2.616-9.155-3.684l-1.321-3.348a3.144,3.144,0,0,1-.132-2.016l1.4-5.58a3.539,3.539,0,0,1,1.632-2.16l6.912-4.164a7.046,7.046,0,0,0,3.4-7.044l-.936-6.456c-.036-.24-.084-.468-.144-.708l-1.5-5.928a3.431,3.431,0,0,1,2.016-3.972l7.356-3.36a7.111,7.111,0,0,0,4.212-6.108l.264-5.268a7.068,7.068,0,0,0-.624-3.216L585,307.32a3.4,3.4,0,0,1-.1-2.544,3.63,3.63,0,0,1,1.92-2.016l3.024-1.38a7.268,7.268,0,0,0,3.372-3.144l1.932-3.576a4.155,4.155,0,0,1,.5-.684,3.917,3.917,0,0,1,.4-.384c.108-.084.217-.168.324-.24.036-.024.084-.048.12-.072l4.08-2.448a3.583,3.583,0,0,1,.48-.24,4,4,0,0,1,1.032-.276,3.915,3.915,0,0,1,.529-.036,3.985,3.985,0,0,1,1.607.336l5.388,2.364a7.589,7.589,0,0,0,7.092-.528l3.84-2.424a4.255,4.255,0,0,1,2.173-.6l4.511.06h.108a8.418,8.418,0,0,0,.96-.06c.264-.036.516-.084.768-.144A7.247,7.247,0,0,0,631,288.54a5.6,5.6,0,0,0,.721-.444c.011,0,.023-.012.035-.024a5.016,5.016,0,0,0,.624-.516.521.521,0,0,0,.084-.072,5.874,5.874,0,0,0,.6-.624c.1-.12.192-.24.288-.372a4.337,4.337,0,0,0,.264-.384.251.251,0,0,0,.048-.072v-.012l.048-.072,3.828-6.144a3.735,3.735,0,0,1,1.333-1.26l5.219-2.9a4.055,4.055,0,0,1,2.316-.492.472.472,0,0,0,.18.012l6.348-.024-.132,12.276-.948,87.972-41.435.012ZM596.5,293.268a.432.432,0,0,0-.12.084c.036-.024.084-.048.12-.072l4.08-2.448Z" fill="#12263f"/>
            <path id="Trazado_140974" data-name="Trazado 140974" d="M648.771,291.024a.677.677,0,0,1-.217-.012,1.56,1.56,0,0,0-1.08.288l-3.588,2.46a2.433,2.433,0,0,0-.767.924l-2.665,5.28a5.537,5.537,0,0,1-4.9,3.192h-.084l-3.1-.048a1.5,1.5,0,0,0-1.032.372l-2.64,2.052a5.121,5.121,0,0,1-5.664.492l-3.7-2a1.673,1.673,0,0,0-.744-.192,1.7,1.7,0,0,0-.972.336l-2.8,2.064a2.67,2.67,0,0,0-.792,1.032l-1.32,3.036a6.023,6.023,0,0,1-2.52,2.844l-2.076,1.176A3.115,3.115,0,0,0,607.082,318l1.6,4.284A7.14,7.14,0,0,1,609.1,325l-.168,4.464a6.419,6.419,0,0,1-3.1,5.364l-5.039,2.844a3.015,3.015,0,0,0-1.189,3.192l1.032,5.028c.036.192.06.4.084.588l.649,5.472a6.682,6.682,0,0,1-2.461,6.1l-4.739,3.528a2.79,2.79,0,0,0-.985,1.68l-.972,4.728a3.439,3.439,0,0,0,.1,1.74l.9,2.832c.744,2.04,3.888,2.724,4.536,2.844h12.673l41.4-.024.731-84.36ZM630.746,369a1.8,1.8,0,0,1-1.8,1.8h-24.66a1.8,1.8,0,0,1-1.8-1.8v-5.2a1.8,1.8,0,0,1,1.8-1.8h24.66a1.8,1.8,0,0,1,1.8,1.8Zm14.8,0a1.8,1.8,0,0,1-1.8,1.8H633.219a1.8,1.8,0,0,1-1.8-1.8v-5.2a1.8,1.8,0,0,1,1.8-1.8h10.523a1.8,1.8,0,0,1,1.8,1.8Zm.829-16.98a1.778,1.778,0,0,1-2.161.012l-5.808-4.32v11.16a1.805,1.805,0,0,1-1.8,1.8H617.366a1.8,1.8,0,0,1-1.8-1.8V337.32a1.822,1.822,0,0,1,.648-1.38,1.8,1.8,0,0,1,1.464-.384l5.772,1.02a1.768,1.768,0,0,1-.468-2,1.793,1.793,0,0,1,1.908-1.1l15.552,2.148a1.78,1.78,0,0,1,1.44,1.128l2.544,6.6,2.532,6.6A1.8,1.8,0,0,1,646.371,352.02Z" fill="#8d6e61"/>
          </g>
        </g>
        <g id="Grupo_89934" data-name="Grupo 89934">
          <g id="Grupo_89933" data-name="Grupo 89933">
            <path id="Trazado_140975" data-name="Trazado 140975" d="M622.971,230.856H611.426a1.8,1.8,0,0,0-1.8,1.8v9.6a1.805,1.805,0,0,0,1.8,1.8h11.545a1.806,1.806,0,0,0,1.8-1.8v-9.6A1.8,1.8,0,0,0,622.971,230.856Zm-1.8,9.6h-7.945v-6h7.945Z" fill="#12263f"/>
          </g>
        </g>
        <g id="Grupo_89936" data-name="Grupo 89936">
          <g id="Grupo_89935" data-name="Grupo 89935">
            <path id="Trazado_140976" data-name="Trazado 140976" d="M622.971,250.188H611.426a1.8,1.8,0,0,0-1.8,1.8v9.588a1.8,1.8,0,0,0,1.8,1.8h11.545a1.8,1.8,0,0,0,1.8-1.8v-9.588A1.8,1.8,0,0,0,622.971,250.188Zm-1.8,9.588h-7.945v-5.988h7.945Z" fill="#12263f"/>
          </g>
        </g>
        <g id="Grupo_89938" data-name="Grupo 89938">
          <g id="Grupo_89937" data-name="Grupo 89937">
            <path id="Trazado_140977" data-name="Trazado 140977" d="M622.971,269.508H611.426a1.8,1.8,0,0,0-1.8,1.8v9.6a1.805,1.805,0,0,0,1.8,1.8h11.545a1.806,1.806,0,0,0,1.8-1.8v-9.6A1.8,1.8,0,0,0,622.971,269.508Zm-1.8,9.6h-7.945v-6h7.945Z" fill="#12263f"/>
          </g>
        </g>
        <g id="Grupo_89940" data-name="Grupo 89940">
          <g id="Grupo_89939" data-name="Grupo 89939">
            <path id="Trazado_140978" data-name="Trazado 140978" d="M655.442,376.7a.132.132,0,0,0-.036-.108,1.767,1.767,0,0,0-1.68-1.2H486.506a1.8,1.8,0,0,0-1.8,1.8V392.82a1.8,1.8,0,0,0,1.8,1.8h167.22a1.8,1.8,0,0,0,1.8-1.8V377.2A1.369,1.369,0,0,0,655.442,376.7Zm-3.516,14.316H488.306V379h163.62Z" fill="#12263f"/>
            <rect id="Rectángulo_34158" data-name="Rectángulo 34158" width="163.62" height="12.024" transform="translate(488.306 378.996)" fill="url(#linear-gradient)"/>
          </g>
        </g>
        <g id="Grupo_89942" data-name="Grupo 89942">
          <g id="Grupo_89941" data-name="Grupo 89941">
            <path id="Trazado_140979" data-name="Trazado 140979" d="M576.026,295.41h-22.56a1.8,1.8,0,0,1,0-3.6h22.56a1.8,1.8,0,0,1,0,3.6Z" fill="#12263f"/>
          </g>
        </g>
        <g id="Grupo_89944" data-name="Grupo 89944">
          <g id="Grupo_89943" data-name="Grupo 89943">
            <path id="Trazado_140980" data-name="Trazado 140980" d="M583.076,287.762H566.57a1.8,1.8,0,0,1,0-3.6h16.506a1.8,1.8,0,0,1,0,3.6Z" fill="#12263f"/>
          </g>
        </g>
        <g id="Grupo_89946" data-name="Grupo 89946">
          <g id="Grupo_89945" data-name="Grupo 89945">
            <path id="Trazado_140981" data-name="Trazado 140981" d="M654.369,227.156H640.512a1.8,1.8,0,1,1,0-3.6h13.857a1.8,1.8,0,0,1,0,3.6Z" fill="#12263f"/>
          </g>
        </g>
        <g id="Grupo_89948" data-name="Grupo 89948">
          <g id="Grupo_89947" data-name="Grupo 89947">
            <path id="Trazado_140982" data-name="Trazado 140982" d="M654.369,244.957H640.512a1.8,1.8,0,1,1,0-3.6h13.857a1.8,1.8,0,0,1,0,3.6Z" fill="#12263f"/>
          </g>
        </g>
        <g id="Grupo_89950" data-name="Grupo 89950">
          <g id="Grupo_89949" data-name="Grupo 89949">
            <path id="Trazado_140983" data-name="Trazado 140983" d="M654.369,262.757H640.512a1.8,1.8,0,1,1,0-3.6h13.857a1.8,1.8,0,0,1,0,3.6Z" fill="#12263f"/>
          </g>
        </g>
        <g id="Grupo_89952" data-name="Grupo 89952">
          <g id="Grupo_89951" data-name="Grupo 89951">
            <path id="Trazado_140984" data-name="Trazado 140984" d="M583.076,326H533.933a1.8,1.8,0,0,1,0-3.6h49.143a1.8,1.8,0,0,1,0,3.6Z" fill="#12263f"/>
          </g>
        </g>
        <g id="Grupo_89954" data-name="Grupo 89954">
          <g id="Grupo_89953" data-name="Grupo 89953">
            <path id="Trazado_140985" data-name="Trazado 140985" d="M540.674,279.636l-11.328-11.784-11.316-11.8a1.8,1.8,0,0,0-1.968-.42l-30.984,12.192a1.8,1.8,0,0,0,.288,3.432l2.353.5,28.031,5.952,12.084,2.556,3.6.768,7.572,1.608a1.955,1.955,0,0,0,.372.036,1.8,1.8,0,0,0,1.3-3.048Zm-10.668-2.58-38.028-8.064,24.288-9.564,17.76,18.48Z" fill="#12263f"/>
          </g>
        </g>
      </g>
    </g>
  </g>
</svg>
