<svg xmlns="http://www.w3.org/2000/svg" xmlns:xlink="http://www.w3.org/1999/xlink" width="189.65" height="189.65" viewBox="0 0 189.65 189.65">
  <defs>
    <linearGradient id="linear-gradient" x1="0.5" x2="0.5" y2="1" gradientUnits="objectBoundingBox">
      <stop offset="0" stop-color="#a9bc62"/>
      <stop offset="1" stop-color="#7eb501"/>
    </linearGradient>
  </defs>
  <g id="Grupo_91136" data-name="Grupo 91136" transform="translate(-705.175 -1623.378)">
    <g id="Grupo_90108" data-name="Grupo 90108" transform="translate(-118.556 1409.471)">
      <circle id="Elipse_4160" data-name="Elipse 4160" cx="94.825" cy="94.825" r="94.825" transform="translate(823.731 213.907)" fill="#f1f1f2"/>
      <g id="Grupo_90107" data-name="Grupo 90107">
        <g id="Grupo_89980" data-name="Grupo 89980">
          <g id="Grupo_89963" data-name="Grupo 89963">
            <g id="Grupo_89962" data-name="Grupo 89962">
              <path id="Trazado_140992" data-name="Trazado 140992" d="M962.472,284.741a18.218,18.218,0,1,1,18.218-18.218A18.239,18.239,0,0,1,962.472,284.741Zm0-32.836a14.618,14.618,0,1,0,14.618,14.618A14.635,14.635,0,0,0,962.472,251.9Z" fill="#12263f"/>
            </g>
          </g>
          <g id="Grupo_89965" data-name="Grupo 89965">
            <g id="Grupo_89964" data-name="Grupo 89964">
              <path id="Trazado_140993" data-name="Trazado 140993" d="M962.472,241.264a1.8,1.8,0,0,1-1.8-1.8V225.779a1.8,1.8,0,1,1,3.6,0v13.685A1.8,1.8,0,0,1,962.472,241.264Z" fill="#12263f"/>
            </g>
          </g>
          <g id="Grupo_89967" data-name="Grupo 89967">
            <g id="Grupo_89966" data-name="Grupo 89966">
              <path id="Trazado_140994" data-name="Trazado 140994" d="M962.472,309.766a1.8,1.8,0,0,1-1.8-1.8V294.281a1.8,1.8,0,1,1,3.6,0v13.685A1.8,1.8,0,0,1,962.472,309.766Z" fill="#12263f"/>
            </g>
          </g>
          <g id="Grupo_89969" data-name="Grupo 89969">
            <g id="Grupo_89968" data-name="Grupo 89968">
              <path id="Trazado_140995" data-name="Trazado 140995" d="M943.091,249.292a1.8,1.8,0,0,1-1.273-.527l-9.676-9.677a1.8,1.8,0,0,1,2.546-2.545l9.676,9.676a1.8,1.8,0,0,1-1.273,3.073Z" fill="#12263f"/>
            </g>
          </g>
          <g id="Grupo_89971" data-name="Grupo 89971">
            <g id="Grupo_89970" data-name="Grupo 89970">
              <path id="Trazado_140996" data-name="Trazado 140996" d="M991.529,297.73a1.791,1.791,0,0,1-1.272-.528l-9.676-9.676a1.8,1.8,0,0,1,2.545-2.545l9.676,9.676a1.8,1.8,0,0,1-1.273,3.073Z" fill="#12263f"/>
            </g>
          </g>
          <g id="Grupo_89973" data-name="Grupo 89973">
            <g id="Grupo_89972" data-name="Grupo 89972">
              <path id="Trazado_140997" data-name="Trazado 140997" d="M935.064,268.672H921.379a1.8,1.8,0,1,1,0-3.6h13.685a1.8,1.8,0,0,1,0,3.6Z" fill="#12263f"/>
            </g>
          </g>
          <g id="Grupo_89975" data-name="Grupo 89975">
            <g id="Grupo_89974" data-name="Grupo 89974">
              <path id="Trazado_140998" data-name="Trazado 140998" d="M1003.565,268.672H989.881a1.8,1.8,0,0,1,0-3.6h13.684a1.8,1.8,0,0,1,0,3.6Z" fill="#12263f"/>
            </g>
          </g>
          <g id="Grupo_89977" data-name="Grupo 89977">
            <g id="Grupo_89976" data-name="Grupo 89976">
              <path id="Trazado_140999" data-name="Trazado 140999" d="M933.415,297.73a1.8,1.8,0,0,1-1.273-3.073l9.676-9.676a1.8,1.8,0,0,1,2.546,2.545l-9.676,9.676A1.8,1.8,0,0,1,933.415,297.73Z" fill="#12263f"/>
            </g>
          </g>
          <g id="Grupo_89979" data-name="Grupo 89979">
            <g id="Grupo_89978" data-name="Grupo 89978">
              <path id="Trazado_141000" data-name="Trazado 141000" d="M981.853,249.292a1.8,1.8,0,0,1-1.272-3.073l9.676-9.676a1.8,1.8,0,0,1,2.545,2.545l-9.676,9.677A1.8,1.8,0,0,1,981.853,249.292Z" fill="#12263f"/>
            </g>
          </g>
          <path id="Trazado_141124" data-name="Trazado 141124" d="M579.605,256.443a14.774,14.774,0,1,1-14.763-14.763A14.792,14.792,0,0,1,579.605,256.443Z" transform="translate(397.836 9.854)" fill="#fbb03b"/>
        </g>
        <g id="Grupo_89982" data-name="Grupo 89982">
          <g id="Grupo_89981" data-name="Grupo 89981">
            <path id="Trazado_141001" data-name="Trazado 141001" d="M864.315,355.616a10.462,10.462,0,0,0-3.6,0,10.488,10.488,0,1,0,3.6,0Zm-1.8,17.22a6.888,6.888,0,1,1,6.888-6.888A6.9,6.9,0,0,1,862.515,372.836Z" fill="#12263f"/>
          </g>
        </g>
        <g id="Grupo_89984" data-name="Grupo 89984">
          <g id="Grupo_89983" data-name="Grupo 89983">
            <path id="Trazado_141002" data-name="Trazado 141002" d="M864.315,240.536V357.26a1.8,1.8,0,0,1-3.6,0V240.536a1.8,1.8,0,1,1,3.6,0Z" fill="#12263f"/>
          </g>
        </g>
        <g id="Grupo_89986" data-name="Grupo 89986">
          <g id="Grupo_89985" data-name="Grupo 89985">
            <path id="Trazado_141003" data-name="Trazado 141003" d="M870.9,258.8a1.8,1.8,0,0,1-1.8,1.8H855.927a1.8,1.8,0,0,1,0-3.6H869.1A1.8,1.8,0,0,1,870.9,258.8Z" fill="#12263f"/>
          </g>
        </g>
        <g id="Grupo_89988" data-name="Grupo 89988">
          <g id="Grupo_89987" data-name="Grupo 89987">
            <path id="Trazado_141004" data-name="Trazado 141004" d="M870.9,274.184a1.8,1.8,0,0,1-1.8,1.8H855.927a1.8,1.8,0,0,1,0-3.6H869.1A1.8,1.8,0,0,1,870.9,274.184Z" fill="#12263f"/>
          </g>
        </g>
        <g id="Grupo_89990" data-name="Grupo 89990">
          <g id="Grupo_89989" data-name="Grupo 89989">
            <path id="Trazado_141005" data-name="Trazado 141005" d="M870.9,289.568a1.8,1.8,0,0,1-1.8,1.8H855.927a1.8,1.8,0,0,1,0-3.6H869.1A1.8,1.8,0,0,1,870.9,289.568Z" fill="#12263f"/>
          </g>
        </g>
        <g id="Grupo_89992" data-name="Grupo 89992">
          <g id="Grupo_89991" data-name="Grupo 89991">
            <path id="Trazado_141006" data-name="Trazado 141006" d="M870.9,304.952a1.8,1.8,0,0,1-1.8,1.8H855.927a1.8,1.8,0,0,1,0-3.6H869.1A1.8,1.8,0,0,1,870.9,304.952Z" fill="#12263f"/>
          </g>
        </g>
        <g id="Grupo_89994" data-name="Grupo 89994">
          <g id="Grupo_89993" data-name="Grupo 89993">
            <path id="Trazado_141007" data-name="Trazado 141007" d="M870.9,320.336a1.8,1.8,0,0,1-1.8,1.8H855.927a1.8,1.8,0,0,1,0-3.6H869.1A1.8,1.8,0,0,1,870.9,320.336Z" fill="#12263f"/>
          </g>
        </g>
        <g id="Grupo_89996" data-name="Grupo 89996">
          <g id="Grupo_89995" data-name="Grupo 89995">
            <path id="Trazado_141008" data-name="Trazado 141008" d="M870.9,335.72a1.8,1.8,0,0,1-1.8,1.8H855.927a1.8,1.8,0,0,1,0-3.6H869.1A1.8,1.8,0,0,1,870.9,335.72Z" fill="#12263f"/>
          </g>
        </g>
        <g id="Grupo_89998" data-name="Grupo 89998">
          <g id="Grupo_89997" data-name="Grupo 89997">
            <path id="Trazado_141009" data-name="Trazado 141009" d="M1002.447,355.46H890.775a1.822,1.822,0,0,0-1.764,2.2,26.768,26.768,0,0,1,.672,6.012,27.2,27.2,0,0,1-27.168,27.168,1.8,1.8,0,0,0,0,3.6h139.932a1.805,1.805,0,0,0,1.8-1.8V357.26A1.805,1.805,0,0,0,1002.447,355.46Zm-1.8,35.376h-123.7c.948-.516,1.872-1.068,2.76-1.668.384-.252.756-.528,1.128-.8a29.515,29.515,0,0,0,2.412-1.992c.336-.3.66-.612.972-.924l.108-.108c.3-.3.588-.612.876-.924a29.721,29.721,0,0,0,2.016-2.436c.228-.312.456-.624.672-.948.324-.468.636-.936.924-1.428.264-.42.5-.84.732-1.272.012-.012.012-.024.024-.024.228-.432.456-.864.672-1.308v-.012c.192-.4.384-.816.552-1.224.048-.108.1-.2.132-.312.168-.384.312-.756.456-1.152a29.763,29.763,0,0,0,1.3-4.608c.1-.444.18-.888.24-1.344s.144-.948.192-1.416a1.333,1.333,0,0,1,.024-.228c.036-.384.06-.78.084-1.164.024-.24.036-.492.036-.744.012-.372.024-.756.024-1.128,0-.492-.012-.984-.036-1.488,0-.132-.012-.264-.024-.4-.024-.5-.072-1.02-.132-1.536-.036-.4-.1-.792-.156-1.188h107.712Z" fill="#12263f"/>
            <path id="Trazado_141010" data-name="Trazado 141010" d="M977.751,359.06v11.076h11.46a1.8,1.8,0,0,1,0,3.6H967.587a1.8,1.8,0,0,1,0-3.6h6.564V359.06H921.735v4.7a1.348,1.348,0,0,1-.048.384H940.9a1.8,1.8,0,0,1,0,3.6h-35.94a1.8,1.8,0,1,1,0-3.6h13.224a1.348,1.348,0,0,1-.048-.384v-4.7h-25.2c.06.4.12.792.156,1.188.06.516.108,1.032.132,1.536.012.132.024.264.024.4.024.5.036,1,.036,1.488,0,.372-.012.756-.024,1.128,0,.252-.012.5-.036.744-.024.384-.048.78-.084,1.164a1.333,1.333,0,0,0-.024.228c-.048.468-.12.948-.192,1.416s-.144.9-.24,1.344a29.763,29.763,0,0,1-1.3,4.608c-.144.4-.288.768-.456,1.152-.036.108-.084.2-.132.312-.168.408-.36.828-.552,1.224V377c-.216.444-.444.876-.672,1.308-.012,0-.012.012-.024.024-.228.432-.468.852-.732,1.272-.288.492-.6.96-.924,1.428-.216.324-.444.636-.672.948a29.721,29.721,0,0,1-2.016,2.436c-.288.312-.576.624-.876.924l-.108.108c-.312.312-.636.624-.972.924a29.515,29.515,0,0,1-2.412,1.992c-.372.276-.744.552-1.128.8-.888.6-1.812,1.152-2.76,1.668h123.7V359.06Zm-71.232,23.376h-10.3a1.8,1.8,0,1,1,0-3.6h10.3a1.8,1.8,0,0,1,0,3.6Zm34.764.18h-20.64a1.8,1.8,0,0,1,0-3.6h20.64a1.8,1.8,0,0,1,0,3.6Zm12.7-8.424h-6.66a1.8,1.8,0,0,1,0-3.6h6.66a1.8,1.8,0,0,1,0,3.6Zm28.32,9.816h-8.088a1.8,1.8,0,0,1,0-3.6H982.3a1.8,1.8,0,0,1,0,3.6Zm13.272-17.52h-3a1.8,1.8,0,0,1,0-3.6h3a1.8,1.8,0,0,1,0,3.6Z" fill="url(#linear-gradient)"/>
          </g>
        </g>
        <g id="Grupo_90000" data-name="Grupo 90000">
          <g id="Grupo_89999" data-name="Grupo 89999">
            <path id="Trazado_141011" data-name="Trazado 141011" d="M893.247,362.18c0-.132-.012-.264-.024-.4-.024-.5-.072-1.02-.132-1.536-.036-.4-.1-.792-.156-1.188-.108-.732-.24-1.464-.408-2.2q-.162-.7-.36-1.4a30.591,30.591,0,0,0-8.256-13.908V244.424a21.4,21.4,0,0,0-42.792,0v97.128a30.768,30.768,0,0,0,35.832,49.284c.948-.516,1.872-1.068,2.76-1.668.384-.252.756-.528,1.128-.8a29.515,29.515,0,0,0,2.412-1.992c.336-.3.66-.612.972-.924l.108-.108c.3-.3.588-.612.876-.924a29.721,29.721,0,0,0,2.016-2.436c.228-.312.456-.624.672-.948.324-.468.636-.936.924-1.428.264-.42.5-.84.732-1.272.012-.012.012-.024.024-.024.228-.432.456-.864.672-1.308v-.012c.192-.4.384-.816.552-1.224.048-.108.1-.2.132-.312.168-.384.312-.756.456-1.152a29.763,29.763,0,0,0,1.3-4.608c.1-.444.18-.888.24-1.344s.144-.948.192-1.416a1.333,1.333,0,0,1,.024-.228c.036-.384.06-.78.084-1.164.024-.24.036-.492.036-.744.012-.372.024-.756.024-1.128C893.283,363.176,893.271,362.684,893.247,362.18Zm-30.732,28.656a27.169,27.169,0,0,1-18.384-47.172,1.828,1.828,0,0,0,.588-1.332V244.424a17.8,17.8,0,1,1,35.592,0v97.908a1.828,1.828,0,0,0,.588,1.332,27.169,27.169,0,0,1-18.384,47.172Z" fill="#12263f"/>
            <path id="Trazado_141012" data-name="Trazado 141012" d="M889.011,357.656a26.963,26.963,0,0,0-8.112-13.992,1.828,1.828,0,0,1-.588-1.332V244.424a17.8,17.8,0,1,0-35.592,0v97.908a1.828,1.828,0,0,1-.588,1.332,27.168,27.168,0,1,0,45.552,20A26.768,26.768,0,0,0,889.011,357.656Zm-26.5,18.78a10.488,10.488,0,0,1-1.8-20.82v-18.1h-4.788a1.8,1.8,0,0,1,0-3.6h4.788V322.136h-4.788a1.8,1.8,0,0,1,0-3.6h4.788V306.752h-4.788a1.8,1.8,0,0,1,0-3.6h4.788V291.368h-4.788a1.8,1.8,0,0,1,0-3.6h4.788V275.984h-4.788a1.8,1.8,0,0,1,0-3.6h4.788V260.6h-4.788a1.8,1.8,0,0,1,0-3.6h4.788V240.536a1.8,1.8,0,1,1,3.6,0V257H869.1a1.8,1.8,0,0,1,0,3.6h-4.788v11.784H869.1a1.8,1.8,0,0,1,0,3.6h-4.788v11.784H869.1a1.8,1.8,0,0,1,0,3.6h-4.788v11.784H869.1a1.8,1.8,0,0,1,0,3.6h-4.788v11.784H869.1a1.8,1.8,0,0,1,0,3.6h-4.788V333.92H869.1a1.8,1.8,0,0,1,0,3.6h-4.788v18.1a10.488,10.488,0,0,1-1.8,20.82Z" fill="#b0c0d2"/>
          </g>
        </g>
        <g id="Grupo_90002" data-name="Grupo 90002">
          <g id="Grupo_90001" data-name="Grupo 90001">
            <path id="Trazado_141013" data-name="Trazado 141013" d="M919.931,343.031a12.872,12.872,0,0,1-12.857-12.858v-5.854a1.8,1.8,0,0,1,3.6,0v5.854a9.258,9.258,0,1,0,18.515,0v-5.854a1.8,1.8,0,0,1,3.6,0v5.854A12.872,12.872,0,0,1,919.931,343.031Z" fill="#12263f"/>
          </g>
        </g>
        <g id="Grupo_90004" data-name="Grupo 90004">
          <g id="Grupo_90003" data-name="Grupo 90003">
            <path id="Trazado_141014" data-name="Trazado 141014" d="M921.735,318.392v45.372a1.348,1.348,0,0,1-.048.384,1.792,1.792,0,0,1-3.5,0,1.348,1.348,0,0,1-.048-.384V318.392a1.228,1.228,0,0,1,.06-.42,1.787,1.787,0,0,1,3.48,0A1.228,1.228,0,0,1,921.735,318.392Z" fill="#12263f"/>
          </g>
        </g>
        <g id="Grupo_90006" data-name="Grupo 90006">
          <g id="Grupo_90005" data-name="Grupo 90005">
            <path id="Trazado_141015" data-name="Trazado 141015" d="M930.162,336.168a1.8,1.8,0,0,1,0-3.6,6.146,6.146,0,0,0,6.235-6.038,1.8,1.8,0,0,1,3.6,0A9.749,9.749,0,0,1,930.162,336.168Z" fill="#12263f"/>
          </g>
        </g>
        <g id="Grupo_90008" data-name="Grupo 90008">
          <g id="Grupo_90007" data-name="Grupo 90007">
            <path id="Trazado_141016" data-name="Trazado 141016" d="M905.482,335.472a8.123,8.123,0,0,1-4.594-1.406,8.563,8.563,0,0,1-3.555-8.424,1.8,1.8,0,0,1,3.568.476,5.035,5.035,0,0,0,2.014,4.973,4.765,4.765,0,0,0,5.085.11,1.8,1.8,0,0,1,1.748,3.147A8.783,8.783,0,0,1,905.482,335.472Z" fill="#12263f"/>
          </g>
        </g>
        <g id="Grupo_90010" data-name="Grupo 90010">
          <g id="Grupo_90009" data-name="Grupo 90009">
            <path id="Trazado_141017" data-name="Trazado 141017" d="M908.874,329.891a1.8,1.8,0,1,1,0-3.6,4.135,4.135,0,0,0,3.086-1.813c.7-1.105.644-2.517-.157-4.2a1.8,1.8,0,0,1,3.248-1.55c1.706,3.574.917,6.143-.046,7.669A7.675,7.675,0,0,1,908.874,329.891Z" fill="#12263f"/>
          </g>
        </g>
        <g id="Grupo_90012" data-name="Grupo 90012">
          <g id="Grupo_90011" data-name="Grupo 90011">
            <path id="Trazado_141018" data-name="Trazado 141018" d="M930.162,333.54c-3.764,0-6.827-3.728-6.827-8.311a1.8,1.8,0,1,1,3.6,0c0,2.554,1.478,4.711,3.227,4.711a1.8,1.8,0,0,1,0,3.6Z" fill="#12263f"/>
          </g>
        </g>
        <g id="Grupo_90014" data-name="Grupo 90014">
          <g id="Grupo_90013" data-name="Grupo 90013">
            <path id="Trazado_141019" data-name="Trazado 141019" d="M940.393,333.3a7.77,7.77,0,0,1-4.265-1.344,1.8,1.8,0,0,1,1.974-3.01,3.561,3.561,0,0,0,4.372.031,3.107,3.107,0,0,0,1.453-2.591,1.8,1.8,0,0,1,3.456-1.009c.628,2.152-.51,4.822-2.767,6.493A7.046,7.046,0,0,1,940.393,333.3Z" fill="#12263f"/>
          </g>
        </g>
        <g id="Grupo_90016" data-name="Grupo 90016">
          <g id="Grupo_90015" data-name="Grupo 90015">
            <path id="Trazado_141020" data-name="Trazado 141020" d="M938.2,327.68c-3.351,0-5.105-4.67-5.105-9.283a1.8,1.8,0,1,1,3.6,0c0,3.505,1.141,5.5,1.594,5.7a1.756,1.756,0,0,1,1.756,1.793A1.832,1.832,0,0,1,938.2,327.68Z" fill="#12263f"/>
          </g>
        </g>
        <g id="Grupo_90018" data-name="Grupo 90018">
          <g id="Grupo_90017" data-name="Grupo 90017">
            <path id="Trazado_141021" data-name="Trazado 141021" d="M938.2,327.68a1.8,1.8,0,1,1,0-3.6c1.958,0,3.612-2.6,3.612-5.683a1.8,1.8,0,1,1,3.6,0C945.409,323.6,942.241,327.68,938.2,327.68Z" fill="#12263f"/>
          </g>
        </g>
        <g id="Grupo_90020" data-name="Grupo 90020">
          <g id="Grupo_90019" data-name="Grupo 90019">
            <path id="Trazado_141022" data-name="Trazado 141022" d="M908.874,326.119c-1.987,0-4.708,0-6.311-1.976-1.136-1.4-1.41-3.4-.838-6.117a1.8,1.8,0,1,1,3.522.742c-.315,1.5-.275,2.631.112,3.107.522.644,2.181.644,3.515.644a1.8,1.8,0,0,1,0,3.6Z" fill="#12263f"/>
          </g>
        </g>
        <g id="Grupo_90022" data-name="Grupo 90022">
          <g id="Grupo_90021" data-name="Grupo 90021">
            <path id="Trazado_141023" data-name="Trazado 141023" d="M908.874,326.119a1.8,1.8,0,0,1-1.8-1.8v-9.245a1.8,1.8,0,1,1,3.6,0v9.245A1.8,1.8,0,0,1,908.874,326.119Z" fill="#12263f"/>
          </g>
        </g>
        <g id="Grupo_90024" data-name="Grupo 90024">
          <g id="Grupo_90023" data-name="Grupo 90023">
            <path id="Trazado_141024" data-name="Trazado 141024" d="M906.308,344.555a11.4,11.4,0,0,1-2.468-.275c-4.374-.959-8.289-4.332-9.107-7.845a1.8,1.8,0,0,1,3.506-.816c.445,1.907,3.111,4.43,6.373,5.146A6.98,6.98,0,0,0,912.006,338a1.8,1.8,0,0,1,2.842,2.21A10.674,10.674,0,0,1,906.308,344.555Z" fill="#12263f"/>
          </g>
        </g>
        <g id="Grupo_90026" data-name="Grupo 90026">
          <g id="Grupo_90025" data-name="Grupo 90025">
            <path id="Trazado_141025" data-name="Trazado 141025" d="M930.162,345.111c-3.973,0-7.085-2.22-7.085-5.056a1.8,1.8,0,0,1,3.6,0c0,.423,1.221,1.456,3.485,1.456a1.8,1.8,0,0,1,0,3.6Z" fill="#12263f"/>
          </g>
        </g>
        <g id="Grupo_90028" data-name="Grupo 90028">
          <g id="Grupo_90027" data-name="Grupo 90027">
            <path id="Trazado_141026" data-name="Trazado 141026" d="M933.19,340.038c-3.237,0-5.678-1.724-5.678-4.011a1.8,1.8,0,0,1,3.592-.163,3.316,3.316,0,0,0,2.086.574,1.8,1.8,0,0,1,0,3.6Zm-2.078-4.011h0Z" fill="#12263f"/>
          </g>
        </g>
        <g id="Grupo_90030" data-name="Grupo 90030">
          <g id="Grupo_90029" data-name="Grupo 90029">
            <path id="Trazado_141027" data-name="Trazado 141027" d="M919.931,319.354a1.8,1.8,0,0,1-.388-3.558c.541-.7,1.451-3.611,1.451-8.129a1.8,1.8,0,0,1,3.6,0C924.594,309.619,924.369,319.354,919.931,319.354Zm0-3.6h0Z" fill="#12263f"/>
          </g>
        </g>
        <g id="Grupo_90032" data-name="Grupo 90032">
          <g id="Grupo_90031" data-name="Grupo 90031">
            <path id="Trazado_141028" data-name="Trazado 141028" d="M919.931,319.354c-4.267,0-7.485-6-7.485-13.955a1.8,1.8,0,0,1,3.6,0c0,6.225,2.339,10.355,3.885,10.355a1.8,1.8,0,0,1,0,3.6Z" fill="#12263f"/>
          </g>
        </g>
        <g id="Grupo_90034" data-name="Grupo 90034">
          <g id="Grupo_90033" data-name="Grupo 90033">
            <path id="Trazado_141029" data-name="Trazado 141029" d="M924.348,315.482a6.233,6.233,0,0,1-2.86-.737,1.8,1.8,0,0,1,1.652-3.2,1.976,1.976,0,0,0,2.127.067,3.362,3.362,0,0,0,1.451-2.473,1.8,1.8,0,1,1,3.6,0,6.941,6.941,0,0,1-3.178,5.548A5.32,5.32,0,0,1,924.348,315.482Z" fill="#12263f"/>
          </g>
        </g>
        <g id="Grupo_90036" data-name="Grupo 90036">
          <g id="Grupo_90035" data-name="Grupo 90035">
            <path id="Trazado_141030" data-name="Trazado 141030" d="M911.56,339.189a1.8,1.8,0,0,1,0-3.6c.528,0,1.5-1.282,1.5-3.378a1.8,1.8,0,0,1,3.6,0C916.658,336.124,914.419,339.189,911.56,339.189Z" fill="#12263f"/>
          </g>
        </g>
        <g id="Grupo_90038" data-name="Grupo 90038">
          <g id="Grupo_90037" data-name="Grupo 90037">
            <path id="Trazado_141031" data-name="Trazado 141031" d="M942.767,324.2c-3.047,0-5.435-2.918-5.435-6.643a1.8,1.8,0,0,1,3.6,0c0,1.793.967,3.043,1.835,3.043a1.8,1.8,0,0,1,0,3.6Z" fill="#12263f"/>
          </g>
        </g>
        <g id="Grupo_90040" data-name="Grupo 90040">
          <g id="Grupo_90039" data-name="Grupo 90039">
            <path id="Trazado_141032" data-name="Trazado 141032" d="M915.008,313.277c-4.122,0-7.351-2.376-7.351-5.409a1.8,1.8,0,1,1,3.6,0c0,.72,1.5,1.809,3.751,1.809a1.8,1.8,0,0,1,0,3.6Z" fill="#12263f"/>
          </g>
        </g>
        <g id="Grupo_90042" data-name="Grupo 90042">
          <g id="Grupo_90041" data-name="Grupo 90041">
            <path id="Trazado_141033" data-name="Trazado 141033" d="M975.954,351.206A12.872,12.872,0,0,1,963.1,338.348v-5.854a1.8,1.8,0,0,1,3.6,0v5.854a9.258,9.258,0,0,0,18.516,0v-5.854a1.8,1.8,0,0,1,3.6,0v5.854A12.872,12.872,0,0,1,975.954,351.206Z" fill="#12263f"/>
          </g>
        </g>
        <g id="Grupo_90044" data-name="Grupo 90044">
          <g id="Grupo_90043" data-name="Grupo 90043">
            <path id="Trazado_141034" data-name="Trazado 141034" d="M977.751,326.576v45.36a1.8,1.8,0,0,1-3.6,0v-45.36a1.229,1.229,0,0,1,.06-.42,1.787,1.787,0,0,1,3.48,0A1.227,1.227,0,0,1,977.751,326.576Z" fill="#12263f"/>
          </g>
        </g>
        <g id="Grupo_90046" data-name="Grupo 90046">
          <g id="Grupo_90045" data-name="Grupo 90045">
            <path id="Trazado_141035" data-name="Trazado 141035" d="M986.185,344.344a1.8,1.8,0,0,1,0-3.6,6.144,6.144,0,0,0,6.234-6.037,1.8,1.8,0,1,1,3.6,0A9.748,9.748,0,0,1,986.185,344.344Z" fill="#12263f"/>
          </g>
        </g>
        <g id="Grupo_90048" data-name="Grupo 90048">
          <g id="Grupo_90047" data-name="Grupo 90047">
            <path id="Trazado_141036" data-name="Trazado 141036" d="M961.5,343.648a8.125,8.125,0,0,1-4.594-1.407,8.563,8.563,0,0,1-3.555-8.424,1.8,1.8,0,1,1,3.568.476,5.038,5.038,0,0,0,2.014,4.974,4.765,4.765,0,0,0,5.085.109,1.8,1.8,0,0,1,1.748,3.148A8.794,8.794,0,0,1,961.5,343.648Z" fill="#12263f"/>
          </g>
        </g>
        <g id="Grupo_90050" data-name="Grupo 90050">
          <g id="Grupo_90049" data-name="Grupo 90049">
            <path id="Trazado_141037" data-name="Trazado 141037" d="M964.9,338.067a1.8,1.8,0,0,1,0-3.6,4.135,4.135,0,0,0,3.086-1.813c.7-1.106.645-2.518-.157-4.2a1.8,1.8,0,1,1,3.249-1.551c1.705,3.574.916,6.143-.047,7.669A7.674,7.674,0,0,1,964.9,338.067Z" fill="#12263f"/>
          </g>
        </g>
        <g id="Grupo_90052" data-name="Grupo 90052">
          <g id="Grupo_90051" data-name="Grupo 90051">
            <path id="Trazado_141038" data-name="Trazado 141038" d="M986.185,341.715c-3.765,0-6.827-3.728-6.827-8.311a1.8,1.8,0,0,1,3.6,0c0,2.554,1.477,4.711,3.227,4.711a1.8,1.8,0,0,1,0,3.6Z" fill="#12263f"/>
          </g>
        </g>
        <g id="Grupo_90054" data-name="Grupo 90054">
          <g id="Grupo_90053" data-name="Grupo 90053">
            <path id="Trazado_141039" data-name="Trazado 141039" d="M996.416,341.474a7.776,7.776,0,0,1-4.265-1.344,1.8,1.8,0,0,1,1.974-3.011,3.557,3.557,0,0,0,4.371.031,3.1,3.1,0,0,0,1.453-2.59,1.8,1.8,0,1,1,3.456-1.009c.628,2.151-.51,4.821-2.767,6.492A7.046,7.046,0,0,1,996.416,341.474Z" fill="#12263f"/>
          </g>
        </g>
        <g id="Grupo_90056" data-name="Grupo 90056">
          <g id="Grupo_90055" data-name="Grupo 90055">
            <path id="Trazado_141040" data-name="Trazado 141040" d="M994.219,335.855c-3.351,0-5.1-4.67-5.1-9.282a1.8,1.8,0,1,1,3.6,0c0,3.505,1.141,5.495,1.6,5.7a1.756,1.756,0,0,1,1.755,1.792A1.832,1.832,0,0,1,994.219,335.855Z" fill="#12263f"/>
          </g>
        </g>
        <g id="Grupo_90058" data-name="Grupo 90058">
          <g id="Grupo_90057" data-name="Grupo 90057">
            <path id="Trazado_141041" data-name="Trazado 141041" d="M994.219,335.855a1.8,1.8,0,0,1,0-3.6c1.958,0,3.612-2.6,3.612-5.682a1.8,1.8,0,0,1,3.6,0C1001.431,331.778,998.263,335.855,994.219,335.855Z" fill="#12263f"/>
          </g>
        </g>
        <g id="Grupo_90060" data-name="Grupo 90060">
          <g id="Grupo_90059" data-name="Grupo 90059">
            <path id="Trazado_141042" data-name="Trazado 141042" d="M964.9,334.294c-1.987,0-4.708,0-6.311-1.976-1.135-1.4-1.41-3.4-.838-6.116a1.8,1.8,0,1,1,3.522.742c-.315,1.5-.275,2.63.112,3.106.522.644,2.182.644,3.515.644a1.8,1.8,0,0,1,0,3.6Z" fill="#12263f"/>
          </g>
        </g>
        <g id="Grupo_90062" data-name="Grupo 90062">
          <g id="Grupo_90061" data-name="Grupo 90061">
            <path id="Trazado_141043" data-name="Trazado 141043" d="M964.9,334.294a1.8,1.8,0,0,1-1.8-1.8v-9.245a1.8,1.8,0,0,1,3.6,0v9.245A1.8,1.8,0,0,1,964.9,334.294Z" fill="#12263f"/>
          </g>
        </g>
        <g id="Grupo_90064" data-name="Grupo 90064">
          <g id="Grupo_90063" data-name="Grupo 90063">
            <path id="Trazado_141044" data-name="Trazado 141044" d="M962.33,352.73a11.508,11.508,0,0,1-2.467-.273c-4.373-.96-8.289-4.333-9.108-7.846a1.8,1.8,0,0,1,3.506-.818c.445,1.908,3.112,4.431,6.374,5.147a6.988,6.988,0,0,0,7.394-2.768,1.8,1.8,0,1,1,2.841,2.21A10.67,10.67,0,0,1,962.33,352.73Z" fill="#12263f"/>
          </g>
        </g>
        <g id="Grupo_90066" data-name="Grupo 90066">
          <g id="Grupo_90065" data-name="Grupo 90065">
            <path id="Trazado_141045" data-name="Trazado 141045" d="M986.185,353.288c-3.974,0-7.086-2.221-7.086-5.057a1.8,1.8,0,0,1,3.6,0c0,.423,1.221,1.457,3.486,1.457a1.8,1.8,0,0,1,0,3.6Z" fill="#12263f"/>
          </g>
        </g>
        <g id="Grupo_90068" data-name="Grupo 90068">
          <g id="Grupo_90067" data-name="Grupo 90067">
            <path id="Trazado_141046" data-name="Trazado 141046" d="M989.212,348.213c-3.237,0-5.678-1.725-5.678-4.011a1.8,1.8,0,0,1,3.592-.164,3.3,3.3,0,0,0,2.086.575,1.8,1.8,0,1,1,0,3.6Zm-2.078-4.011h0Z" fill="#12263f"/>
          </g>
        </g>
        <g id="Grupo_90070" data-name="Grupo 90070">
          <g id="Grupo_90069" data-name="Grupo 90069">
            <path id="Trazado_141047" data-name="Trazado 141047" d="M975.954,327.529a1.8,1.8,0,0,1-.389-3.558c.541-.7,1.451-3.611,1.451-8.129a1.8,1.8,0,1,1,3.6,0C980.616,317.794,980.391,327.529,975.954,327.529Zm0-3.6h0Z" fill="#12263f"/>
          </g>
        </g>
        <g id="Grupo_90072" data-name="Grupo 90072">
          <g id="Grupo_90071" data-name="Grupo 90071">
            <path id="Trazado_141048" data-name="Trazado 141048" d="M975.954,327.529c-4.267,0-7.485-6-7.485-13.954a1.8,1.8,0,1,1,3.6,0c0,6.224,2.338,10.354,3.885,10.354a1.8,1.8,0,1,1,0,3.6Z" fill="#12263f"/>
          </g>
        </g>
        <g id="Grupo_90074" data-name="Grupo 90074">
          <g id="Grupo_90073" data-name="Grupo 90073">
            <path id="Trazado_141049" data-name="Trazado 141049" d="M980.37,323.657a6.22,6.22,0,0,1-2.86-.737,1.8,1.8,0,1,1,1.653-3.2,1.979,1.979,0,0,0,2.127.067,3.362,3.362,0,0,0,1.45-2.474,1.8,1.8,0,0,1,3.6,0,6.94,6.94,0,0,1-3.178,5.548A5.32,5.32,0,0,1,980.37,323.657Z" fill="#12263f"/>
          </g>
        </g>
        <g id="Grupo_90076" data-name="Grupo 90076">
          <g id="Grupo_90075" data-name="Grupo 90075">
            <path id="Trazado_141050" data-name="Trazado 141050" d="M967.582,347.365a1.8,1.8,0,0,1,0-3.6c.528,0,1.5-1.283,1.5-3.379a1.8,1.8,0,1,1,3.6,0C972.68,344.3,970.441,347.365,967.582,347.365Z" fill="#12263f"/>
          </g>
        </g>
        <g id="Grupo_90078" data-name="Grupo 90078">
          <g id="Grupo_90077" data-name="Grupo 90077">
            <path id="Trazado_141051" data-name="Trazado 141051" d="M998.79,332.372c-3.048,0-5.435-2.917-5.435-6.643a1.8,1.8,0,1,1,3.6,0c0,1.794.967,3.043,1.835,3.043a1.8,1.8,0,1,1,0,3.6Z" fill="#12263f"/>
          </g>
        </g>
        <g id="Grupo_90080" data-name="Grupo 90080">
          <g id="Grupo_90079" data-name="Grupo 90079">
            <path id="Trazado_141052" data-name="Trazado 141052" d="M971.031,321.452c-4.123,0-7.352-2.376-7.352-5.408a1.8,1.8,0,1,1,3.6,0c0,.72,1.5,1.808,3.752,1.808a1.8,1.8,0,0,1,0,3.6Z" fill="#12263f"/>
          </g>
        </g>
        <g id="Grupo_90082" data-name="Grupo 90082">
          <g id="Grupo_90081" data-name="Grupo 90081">
            <path id="Trazado_141053" data-name="Trazado 141053" d="M942.7,365.948a1.8,1.8,0,0,1-1.8,1.8h-35.94a1.8,1.8,0,1,1,0-3.6H940.9A1.8,1.8,0,0,1,942.7,365.948Z" fill="#12263f"/>
          </g>
        </g>
        <g id="Grupo_90084" data-name="Grupo 90084">
          <g id="Grupo_90083" data-name="Grupo 90083">
            <path id="Trazado_141054" data-name="Trazado 141054" d="M991.011,371.936a1.8,1.8,0,0,1-1.8,1.8H967.587a1.8,1.8,0,0,1,0-3.6h21.624A1.8,1.8,0,0,1,991.011,371.936Z" fill="#12263f"/>
          </g>
        </g>
        <g id="Grupo_90086" data-name="Grupo 90086">
          <g id="Grupo_90085" data-name="Grupo 90085">
            <path id="Trazado_141055" data-name="Trazado 141055" d="M943.083,380.816a1.8,1.8,0,0,1-1.8,1.8h-20.64a1.8,1.8,0,0,1,0-3.6h20.64A1.805,1.805,0,0,1,943.083,380.816Z" fill="#12263f"/>
          </g>
        </g>
        <g id="Grupo_90088" data-name="Grupo 90088">
          <g id="Grupo_90087" data-name="Grupo 90087">
            <path id="Trazado_141056" data-name="Trazado 141056" d="M921.363,231.645H887.88a1.8,1.8,0,0,1,0-3.6h33.483a1.8,1.8,0,1,1,0,3.6Z" fill="#12263f"/>
          </g>
        </g>
        <g id="Grupo_90090" data-name="Grupo 90090">
          <g id="Grupo_90089" data-name="Grupo 90089">
            <path id="Trazado_141057" data-name="Trazado 141057" d="M924,250.49H899.122a1.8,1.8,0,0,1,0-3.6H924a1.8,1.8,0,0,1,0,3.6Z" fill="#12263f"/>
          </g>
        </g>
        <g id="Grupo_90092" data-name="Grupo 90092">
          <g id="Grupo_90091" data-name="Grupo 90091">
            <path id="Trazado_141058" data-name="Trazado 141058" d="M928.518,282.618H894.842a1.8,1.8,0,0,1,0-3.6h33.676a1.8,1.8,0,0,1,0,3.6Z" fill="#12263f"/>
          </g>
        </g>
        <g id="Grupo_90094" data-name="Grupo 90094">
          <g id="Grupo_90093" data-name="Grupo 90093">
            <path id="Trazado_141059" data-name="Trazado 141059" d="M909.457,290.2H894.842a1.8,1.8,0,0,1,0-3.6h14.615a1.8,1.8,0,1,1,0,3.6Z" fill="#12263f"/>
          </g>
        </g>
        <g id="Grupo_90096" data-name="Grupo 90096">
          <g id="Grupo_90095" data-name="Grupo 90095">
            <path id="Trazado_141060" data-name="Trazado 141060" d="M1001.385,309.467H992.06a1.8,1.8,0,0,1,0-3.6h9.325a1.8,1.8,0,0,1,0,3.6Z" fill="#12263f"/>
          </g>
        </g>
        <g id="Grupo_90098" data-name="Grupo 90098">
          <g id="Grupo_90097" data-name="Grupo 90097">
            <path id="Trazado_141061" data-name="Trazado 141061" d="M1003.452,282.618h-9.325a1.8,1.8,0,0,1,0-3.6h9.325a1.8,1.8,0,0,1,0,3.6Z" fill="#12263f"/>
          </g>
        </g>
        <g id="Grupo_90100" data-name="Grupo 90100">
          <g id="Grupo_90099" data-name="Grupo 90099">
            <path id="Trazado_141062" data-name="Trazado 141062" d="M955.779,372.392a1.805,1.805,0,0,1-1.8,1.8h-6.66a1.8,1.8,0,0,1,0-3.6h6.66A1.805,1.805,0,0,1,955.779,372.392Z" fill="#12263f"/>
          </g>
        </g>
        <g id="Grupo_90102" data-name="Grupo 90102">
          <g id="Grupo_90101" data-name="Grupo 90101">
            <path id="Trazado_141063" data-name="Trazado 141063" d="M984.1,382.208a1.8,1.8,0,0,1-1.8,1.8h-8.088a1.8,1.8,0,0,1,0-3.6H982.3A1.8,1.8,0,0,1,984.1,382.208Z" fill="#12263f"/>
          </g>
        </g>
        <g id="Grupo_90104" data-name="Grupo 90104">
          <g id="Grupo_90103" data-name="Grupo 90103">
            <path id="Trazado_141064" data-name="Trazado 141064" d="M908.319,380.636a1.8,1.8,0,0,1-1.8,1.8h-10.3a1.8,1.8,0,1,1,0-3.6h10.3A1.8,1.8,0,0,1,908.319,380.636Z" fill="#12263f"/>
          </g>
        </g>
        <g id="Grupo_90106" data-name="Grupo 90106">
          <g id="Grupo_90105" data-name="Grupo 90105">
            <path id="Trazado_141065" data-name="Trazado 141065" d="M997.371,364.688a1.805,1.805,0,0,1-1.8,1.8h-3a1.8,1.8,0,0,1,0-3.6h3A1.8,1.8,0,0,1,997.371,364.688Z" fill="#12263f"/>
          </g>
        </g>
      </g>
    </g>
  </g>
</svg>
